<?xml version="1.0" encoding="UTF-8"?>
<!DOCTYPE svg PUBLIC "-//W3C//DTD SVG 1.1//EN" "http://www.w3.org/Graphics/SVG/1.1/DTD/svg11.dtd">
<svg xmlns="http://www.w3.org/2000/svg" version="1.1" width="512px" height="512px" style="shape-rendering:geometricPrecision; text-rendering:geometricPrecision; image-rendering:optimizeQuality; fill-rule:evenodd; clip-rule:evenodd" xmlns:xlink="http://www.w3.org/1999/xlink">
<g><path style="opacity:0.946" fill="#047ff2" d="M 316.5,-0.5 C 325.5,-0.5 334.5,-0.5 343.5,-0.5C 358.009,7.15872 367.842,18.8254 373,34.5C 374.583,42.8134 374.917,51.1467 374,59.5C 380.55,65.0508 387.383,70.2175 394.5,75C 402.733,82.7278 408.733,91.8944 412.5,102.5C 415.934,115.272 412.6,125.772 402.5,134C 387.323,145.203 370.323,150.036 351.5,148.5C 350.544,145.309 351.044,142.309 353,139.5C 355.721,126.962 356.721,114.295 356,101.5C 355.235,96.6742 353.068,92.6742 349.5,89.5C 344.325,86.412 338.992,83.5787 333.5,81C 329.318,76.6513 324.985,72.4846 320.5,68.5C 319.167,67.1667 319.167,65.8333 320.5,64.5C 324.87,60.2944 328.703,55.6277 332,50.5C 333.5,45.3333 331.667,43.5 326.5,45C 315.794,61.8698 300.794,73.2031 281.5,79C 273.532,80.7187 265.532,82.2187 257.5,83.5C 257.101,92.9141 255.101,101.914 251.5,110.5C 242.147,100.493 230.813,97.3267 217.5,101C 210.829,104.937 206.663,110.77 205,118.5C 204.233,122.594 204.566,126.594 206,130.5C 210.252,139.723 217.086,146.056 226.5,149.5C 226.833,152.167 227.167,154.833 227.5,157.5C 225.511,182.44 218.677,206.106 207,228.5C 205.363,230.81 203.196,232.31 200.5,233C 188.869,231.842 177.202,230.675 165.5,229.5C 171.584,216.644 172.75,203.311 169,189.5C 162.918,179.336 157.918,168.669 154,157.5C 148.963,134.634 154.63,114.968 171,98.5C 173.5,97.3333 175.333,95.5 176.5,93C 182.72,89.1396 189.22,85.973 196,83.5C 195.46,64.0653 199.626,45.732 208.5,28.5C 214.058,22.7723 220.058,17.6057 226.5,13C 240.494,6.51089 254.828,5.84423 269.5,11C 275.951,15.2765 282.284,19.7765 288.5,24.5C 293.18,19.6509 297.513,14.4842 301.5,9C 306.26,5.29626 311.26,2.12959 316.5,-0.5 Z M 311.5,114.5 C 313.911,114.137 315.411,115.137 316,117.5C 316.667,120.833 316.667,124.167 316,127.5C 314.673,130.131 313.34,132.798 312,135.5C 309.283,138.321 306.95,137.987 305,134.5C 304.477,126.542 306.644,119.875 311.5,114.5 Z"/></g>
<g><path style="opacity:0.941" fill="#047ff2" d="M 311.5,72.5 C 312.552,72.3505 313.552,72.5172 314.5,73C 320.885,82.5377 329.552,89.2044 340.5,93C 342.849,95.0698 345.016,97.2365 347,99.5C 347.667,107.833 347.667,116.167 347,124.5C 344.488,136.929 343.988,149.429 345.5,162C 345.201,164.633 344.035,166.799 342,168.5C 338.034,171.464 334.367,174.797 331,178.5C 328.098,186.545 324.431,194.212 320,201.5C 318.024,204.301 315.524,206.468 312.5,208C 295.797,211.467 280.297,208.634 266,199.5C 261.971,201.612 261.471,204.445 264.5,208C 272.72,212.181 281.22,215.348 290,217.5C 290.121,220.01 289.454,222.344 288,224.5C 287.333,231.167 287.333,237.833 288,244.5C 292.007,245.941 296.174,246.774 300.5,247C 298.858,269.625 289.858,288.958 273.5,305C 259.561,313.936 244.561,315.936 228.5,311C 219.772,306.939 212.939,300.772 208,292.5C 201.789,275.989 197.622,258.989 195.5,241.5C 202.219,242.458 207.719,240.458 212,235.5C 228.505,207.53 236.172,177.197 235,144.5C 228.252,142.123 222.252,138.456 217,133.5C 211.414,124.181 212.58,115.848 220.5,108.5C 225.297,106.019 230.13,106.019 235,108.5C 240.126,111.959 244.959,115.792 249.5,120C 254.709,122.707 257.376,121.374 257.5,116C 258.428,115.612 259.095,114.945 259.5,114C 260.291,110.322 261.457,106.822 263,103.5C 264.122,98.8984 264.622,94.2318 264.5,89.5C 282.145,88.7346 297.811,83.068 311.5,72.5 Z M 311.5,114.5 C 306.644,119.875 304.477,126.542 305,134.5C 306.95,137.987 309.283,138.321 312,135.5C 313.34,132.798 314.673,130.131 316,127.5C 316.667,124.167 316.667,120.833 316,117.5C 315.411,115.137 313.911,114.137 311.5,114.5 Z M 227.5,265.5 C 230.926,267.744 234.26,270.244 237.5,273C 240.025,276.186 242.525,279.353 245,282.5C 248.118,280.385 250.952,277.885 253.5,275C 259.83,271.156 266.497,269.323 273.5,269.5C 274.767,271.371 274.767,273.204 273.5,275C 261.201,277.219 252.701,284.052 248,295.5C 244.769,297.09 242.103,296.423 240,293.5C 237.656,284.825 232.656,278.158 225,273.5C 223.837,270.029 224.67,267.362 227.5,265.5 Z"/></g>
<g><path style="opacity:0.923" fill="#047ff2" d="M 174.5,486.5 C 169.267,492.228 163.267,497.061 156.5,501C 140.921,502.43 125.588,501.097 110.5,497C 105.062,495.228 101.229,491.728 99,486.5C 98.0757,414.22 102.909,342.72 113.5,272C 117.141,261.717 122.808,252.717 130.5,245C 140.118,239.237 150.451,236.57 161.5,237C 163.038,239.928 163.704,243.094 163.5,246.5C 162.541,265.85 159.708,284.85 155,303.5C 152.601,309.363 150.601,315.363 149,321.5C 130.864,349.056 126.198,378.723 135,410.5C 138.215,421.579 141.049,432.745 143.5,444C 143.167,445.167 142.833,446.333 142.5,447.5C 134.742,452.128 127.242,457.128 120,462.5C 118.974,465.593 119.807,467.927 122.5,469.5C 144.373,455.736 166.04,441.736 187.5,427.5C 198.187,411.296 205.687,393.63 210,374.5C 210.833,373.667 211.667,372.833 212.5,372C 226.23,369.427 237.897,363.093 247.5,353C 253.381,351.013 257.881,352.846 261,358.5C 261.667,362.5 261.667,366.5 261,370.5C 260.167,372 259,373.167 257.5,374C 249.425,375.852 241.425,378.019 233.5,380.5C 232.96,381.748 232.293,382.915 231.5,384C 232.337,385.011 232.67,386.178 232.5,387.5C 235.187,387.664 237.854,387.497 240.5,387C 259.137,381.69 278.137,378.19 297.5,376.5C 308.73,376.046 311.73,380.713 306.5,390.5C 303.673,394.159 300.34,397.326 296.5,400C 289.566,402.468 282.899,405.468 276.5,409C 269.373,415.961 262.373,423.128 255.5,430.5C 247.904,435.646 239.571,439.146 230.5,441C 223.139,441.613 215.805,442.447 208.5,443.5C 206.993,445.969 207.327,448.135 209.5,450C 212.553,450.179 215.553,450.679 218.5,451.5C 218.333,451.833 218.167,452.167 218,452.5C 203.338,463.666 188.838,475 174.5,486.5 Z"/></g>
<g><path style="opacity:0.931" fill="#047ff2" d="M 170.5,238.5 C 176.191,238.98 181.858,239.646 187.5,240.5C 189.318,263.123 195.484,284.456 206,304.5C 223.505,322.385 244.005,326.885 267.5,318C 282.386,309.094 293.219,296.594 300,280.5C 301.434,275.182 303.434,270.182 306,265.5C 307.491,259.545 308.658,253.545 309.5,247.5C 318.9,246.103 328.233,246.437 337.5,248.5C 337.987,249.446 338.32,250.446 338.5,251.5C 335.38,262.959 333.214,274.626 332,286.5C 316.291,314.67 300.291,342.004 284,368.5C 283.167,369.333 282.333,370.167 281.5,371C 277.471,371.303 273.471,371.803 269.5,372.5C 268.833,372.167 268.167,371.833 267.5,371.5C 270.533,364.091 269.699,357.091 265,350.5C 259.548,343.57 252.715,341.736 244.5,345C 232.98,356.011 219.48,363.511 204,367.5C 201.336,376.822 198.669,386.155 196,395.5C 192.004,403.48 188.004,411.48 184,419.5C 173.883,427.233 163.217,434.233 152,440.5C 149.674,433.694 147.508,426.86 145.5,420C 140.242,403.875 137.742,387.042 138,369.5C 139.351,362.761 141.018,356.095 143,349.5C 163.254,315.437 172.421,278.437 170.5,238.5 Z M 227.5,265.5 C 224.67,267.362 223.837,270.029 225,273.5C 232.656,278.158 237.656,284.825 240,293.5C 242.103,296.423 244.769,297.09 248,295.5C 252.701,284.052 261.201,277.219 273.5,275C 274.767,273.204 274.767,271.371 273.5,269.5C 266.497,269.323 259.83,271.156 253.5,275C 250.952,277.885 248.118,280.385 245,282.5C 242.525,279.353 240.025,276.186 237.5,273C 234.26,270.244 230.926,267.744 227.5,265.5 Z"/></g>
<g><path style="opacity:0.927" fill="#047ff2" d="M 345.5,248.5 C 362.917,249.38 378.917,254.547 393.5,264C 397.595,267.704 401.095,271.871 404,276.5C 404.81,281.257 404.476,285.924 403,290.5C 387.342,316.161 371.676,341.828 356,367.5C 354.987,369.846 353.321,371.513 351,372.5C 350.228,372.355 349.561,372.022 349,371.5C 345.845,364.522 342.679,357.522 339.5,350.5C 336.601,335.875 333.268,321.042 329.5,306C 332.407,299.516 336.074,293.516 340.5,288C 342.324,275.119 343.991,261.953 345.5,248.5 Z"/></g>
<g><path style="opacity:0.878" fill="#047ff2" d="M 321.5,317.5 C 323.144,317.286 324.644,317.62 326,318.5C 327.038,331.104 329.371,343.438 333,355.5C 337.83,364.14 341.997,373.14 345.5,382.5C 335.172,399.011 325.005,415.678 315,432.5C 307.701,442.297 299.868,451.631 291.5,460.5C 289.362,458.967 288.695,457.134 289.5,455C 285.654,446.141 282.487,436.974 280,427.5C 278.876,424.558 278.542,421.558 279,418.5C 287.559,412.41 296.726,407.243 306.5,403C 310.798,398.903 313.965,394.069 316,388.5C 318.537,380.198 316.037,374.032 308.5,370C 303.467,369.829 298.467,369.329 293.5,368.5C 302.237,352.693 311.237,337.026 320.5,321.5C 321.246,320.264 321.579,318.93 321.5,317.5 Z"/></g>
<g><path style="opacity:0.921" fill="#047ff2" d="M 340.5,511.5 C 308.5,511.5 276.5,511.5 244.5,511.5C 256.913,502.595 268.913,493.095 280.5,483C 296.435,468.539 310.602,452.705 323,435.5C 331.3,420.553 339.967,405.886 349,391.5C 350.333,390.167 351.667,388.833 353,387.5C 358,378.833 363,370.167 368,361.5C 374.014,354.14 379.014,346.14 383,337.5C 385.392,334.772 387.392,331.772 389,328.5C 390.011,327.663 391.178,327.33 392.5,327.5C 391.223,341.938 389.056,356.271 386,370.5C 379.842,386.488 372.842,402.154 365,417.5C 359.18,433.966 353.18,450.299 347,466.5C 342.459,481.159 340.293,496.159 340.5,511.5 Z"/></g>
<g><path style="opacity:0.936" fill="#047ff2" d="M 229.5,511.5 C 207.167,511.5 184.833,511.5 162.5,511.5C 163.319,507.147 165.652,503.647 169.5,501C 191.785,483.394 214.118,465.728 236.5,448C 249.699,444.732 260.699,437.899 269.5,427.5C 270.325,426.614 271.325,426.281 272.5,426.5C 272.247,428.827 272.914,430.827 274.5,432.5C 274.291,433.086 273.957,433.586 273.5,434C 277.857,444.922 281.523,456.089 284.5,467.5C 274.982,476.186 265.315,484.686 255.5,493C 246.591,498.943 237.924,505.11 229.5,511.5 Z"/></g>
<g><path style="opacity:0.004" fill="#047ff2" d="M 174.5,486.5 C 175.833,487.167 175.833,487.167 174.5,486.5 Z"/></g>
</svg>
