<?xml version="1.0" encoding="UTF-8"?>
<!DOCTYPE svg PUBLIC "-//W3C//DTD SVG 1.1//EN" "http://www.w3.org/Graphics/SVG/1.1/DTD/svg11.dtd">
<svg xmlns="http://www.w3.org/2000/svg" version="1.1" width="512px" height="512px" style="shape-rendering:geometricPrecision; text-rendering:geometricPrecision; image-rendering:optimizeQuality; fill-rule:evenodd; clip-rule:evenodd" xmlns:xlink="http://www.w3.org/1999/xlink">
<g><path style="opacity:0.99" fill="#047ff2" d="M 511.5,150.5 C 511.5,167.5 511.5,184.5 511.5,201.5C 510.167,201.833 510.167,202.167 511.5,202.5C 511.5,203.833 511.5,205.167 511.5,206.5C 507.57,238.464 498.07,268.798 483,297.5C 468.808,315.041 459.808,335.041 456,357.5C 448.113,407.181 450.613,456.348 463.5,505C 463.16,507.511 462.16,509.678 460.5,511.5C 426.833,511.5 393.167,511.5 359.5,511.5C 359.5,481.5 359.5,451.5 359.5,421.5C 372.151,419.015 379.651,411.348 382,398.5C 383.564,387.869 381.064,378.369 374.5,370C 385.312,355.065 385.146,340.232 374,325.5C 365.832,318.612 356.332,315.612 345.5,316.5C 339.96,301.056 328.96,294.222 312.5,296C 300.686,298.648 293.352,305.815 290.5,317.5C 274.213,314.808 262.547,320.808 255.5,335.5C 229.173,336.667 202.84,336.833 176.5,336C 174.283,334.725 171.949,333.725 169.5,333C 158.833,332.667 148.167,332.333 137.5,332C 136.5,331.667 135.5,331.333 134.5,331C 129.048,323.614 122.381,317.614 114.5,313C 109.954,308.123 105.787,302.956 102,297.5C 98.0213,289.256 97.688,280.923 101,272.5C 103.427,267.31 106.094,262.31 109,257.5C 118.667,245.833 128.333,234.167 138,222.5C 141.251,217.247 143.418,211.58 144.5,205.5C 143.203,197.907 141.036,190.574 138,183.5C 130.397,139.658 140.73,100.658 169,66.5C 225.369,11.2687 292.536,-8.23132 370.5,8C 405.34,14.4254 436.674,28.4254 464.5,50C 481.312,65.7813 493.479,84.6147 501,106.5C 505.475,121.074 508.975,135.74 511.5,150.5 Z"/></g>
<g><path style="opacity:0.842" fill="#047ff2" d="M 17.5,272.5 C 19.5273,272.338 21.5273,272.505 23.5,273C 30.4545,275.963 35.7879,280.63 39.5,287C 38.3238,292.588 34.9904,294.588 29.5,293C 24.0598,289.891 18.8932,286.391 14,282.5C 13.3333,280.5 13.3333,278.5 14,276.5C 15.3756,275.295 16.5423,273.962 17.5,272.5 Z"/></g>
<g><path style="opacity:0.844" fill="#047ff2" d="M 54.5,295.5 C 62.242,296.787 69.0753,300.12 75,305.5C 77.1651,313.321 74.3318,316.821 66.5,316C 61.6647,314.086 57.3314,311.419 53.5,308C 49.3999,303.445 49.7332,299.278 54.5,295.5 Z"/></g>
<g><path style="opacity:0.957" fill="#047ff2" d="M 314.5,305.5 C 328.723,305.889 336.223,313.223 337,327.5C 337.465,328.931 338.299,330.097 339.5,331C 344.071,330.1 348.737,329.267 353.5,328.5C 365.058,329.892 371.392,336.392 372.5,348C 371.869,356.434 368.036,362.934 361,367.5C 360.365,369.635 360.699,371.635 362,373.5C 375.789,385.559 375.956,397.726 362.5,410C 355.623,413.22 348.789,413.053 342,409.5C 340.774,409.645 339.607,409.978 338.5,410.5C 337.163,415.932 335.33,421.265 333,426.5C 322.334,436.075 312.001,435.742 302,425.5C 300.534,420.135 298.701,414.969 296.5,410C 291.751,410.075 287.084,410.909 282.5,412.5C 270.453,410.953 264.12,404.12 263.5,392C 263.325,388.254 264.158,384.754 266,381.5C 269.949,378.226 273.116,374.393 275.5,370C 274.809,368.933 274.309,367.766 274,366.5C 263.423,359.094 260.757,349.427 266,337.5C 271.218,329.979 278.384,327.145 287.5,329C 290.315,330.721 293.315,331.388 296.5,331C 298.489,325.168 300.656,319.334 303,313.5C 305.954,309.35 309.787,306.683 314.5,305.5 Z"/></g>
<g><path style="opacity:0.833" fill="#047ff2" d="M 91.5,317.5 C 99.8184,319.072 106.652,323.072 112,329.5C 113.382,334.797 111.382,338.131 106,339.5C 99.4797,336.578 93.4797,332.912 88,328.5C 86.518,323.774 87.6847,320.107 91.5,317.5 Z"/></g>
<g><path style="opacity:0.824" fill="#047ff2" d="M 185.5,347.5 C 208.167,347.5 230.833,347.5 253.5,347.5C 253.586,351.857 253.92,356.19 254.5,360.5C 231.833,360.5 209.167,360.5 186.5,360.5C 186.628,356.119 186.295,351.785 185.5,347.5 Z"/></g>
<g><path style="opacity:0.821" fill="#047ff2" d="M 5.5,348.5 C 11.1764,348.334 16.8431,348.501 22.5,349C 27.6872,351.867 28.8538,356.033 26,361.5C 25.2496,362.126 24.4162,362.626 23.5,363C 16.724,363.92 10.0573,363.586 3.5,362C 1.47659,358.817 0.976587,355.317 2,351.5C 3.14508,350.364 4.31174,349.364 5.5,348.5 Z"/></g>
<g><path style="opacity:0.799" fill="#047ff2" d="M 48.5,348.5 C 54.9522,348.084 61.2855,348.584 67.5,350C 71.6536,355.056 70.987,359.39 65.5,363C 58.724,363.92 52.0573,363.586 45.5,362C 40.9155,356.176 41.9155,351.676 48.5,348.5 Z"/></g>
<g><path style="opacity:0.804" fill="#047ff2" d="M 90.5,348.5 C 96.9522,348.084 103.285,348.584 109.5,350C 113.689,354.678 113.356,359.011 108.5,363C 101.392,363.924 94.392,363.591 87.5,362C 84.0788,356.31 85.0788,351.81 90.5,348.5 Z"/></g>
<g><path style="opacity:0.967" fill="#047ff2" d="M 320.5,511.5 C 292.5,511.5 264.5,511.5 236.5,511.5C 235.878,510.373 235.045,509.373 234,508.5C 233.667,492.833 233.333,477.167 233,461.5C 230.848,444.816 221.348,437.982 204.5,441C 194.441,442.798 184.774,445.798 175.5,450C 166.37,452.324 157.37,451.99 148.5,449C 140.746,443.608 137.08,436.108 137.5,426.5C 138.554,419.011 139.554,411.511 140.5,404C 139.206,397.542 138.706,391.042 139,384.5C 140.109,382.185 141.943,380.685 144.5,380C 152.833,379.667 161.167,379.333 169.5,379C 174.499,377.834 178.499,375.167 181.5,371C 207.498,370.5 233.498,370.333 259.5,370.5C 257.949,375.239 256.115,379.905 254,384.5C 251.602,410.764 263.436,423.264 289.5,422C 292.705,432.536 299.372,439.869 309.5,444C 313.114,444.936 316.78,445.436 320.5,445.5C 320.5,467.5 320.5,489.5 320.5,511.5 Z"/></g>
<g><path style="opacity:0.821" fill="#047ff2" d="M 105.5,371.5 C 112.236,373.647 114.07,377.981 111,384.5C 105.91,387.294 101.077,390.46 96.5,394C 88.378,394.302 85.7113,390.469 88.5,382.5C 94.0945,378.548 99.7612,374.881 105.5,371.5 Z"/></g>
<g><path style="opacity:0.836" fill="#047ff2" d="M 66.5,395.5 C 75.2408,395.428 77.7408,399.428 74,407.5C 69.7529,410.708 65.2529,413.542 60.5,416C 52.1095,417.275 48.9429,413.775 51,405.5C 56.1464,402.018 61.3131,398.685 66.5,395.5 Z"/></g>
<g><path style="opacity:0.819" fill="#047ff2" d="M 30.5,417.5 C 38.3014,418.094 40.8014,422.094 38,429.5C 32.2509,433.292 26.4176,436.958 20.5,440.5C 18.1308,439.099 15.9642,437.432 14,435.5C 13.3333,433.5 13.3333,431.5 14,429.5C 18.8421,424.476 24.3421,420.476 30.5,417.5 Z"/></g>
<g><path style="opacity:0.878" fill="#047ff2" d="M 349.5,511.5 C 343.5,511.5 337.5,511.5 331.5,511.5C 331.333,488.164 331.5,464.831 332,441.5C 335.57,438.386 338.903,435.053 342,431.5C 344.035,428.439 345.201,425.105 345.5,421.5C 347.124,421.36 348.29,422.027 349,423.5C 349.5,452.831 349.667,482.165 349.5,511.5 Z"/></g>
</svg>
