<?xml version="1.0" encoding="UTF-8"?>
<!DOCTYPE svg PUBLIC "-//W3C//DTD SVG 1.1//EN" "http://www.w3.org/Graphics/SVG/1.1/DTD/svg11.dtd">
<svg xmlns="http://www.w3.org/2000/svg" version="1.1" width="512px" height="512px" style="shape-rendering:geometricPrecision; text-rendering:geometricPrecision; image-rendering:optimizeQuality; fill-rule:evenodd; clip-rule:evenodd" xmlns:xlink="http://www.w3.org/1999/xlink">
<g><path style="opacity:0.965" fill="#047ff2" d="M -0.5,76.5 C 170.167,76.5 340.833,76.5 511.5,76.5C 511.5,93.1667 511.5,109.833 511.5,126.5C 340.833,126.5 170.167,126.5 -0.5,126.5C -0.5,109.833 -0.5,93.1667 -0.5,76.5 Z"/></g>
<g><path style="opacity:0.911" fill="#047ff2" d="M 20.5,138.5 C 38.8333,138.5 57.1667,138.5 75.5,138.5C 75.5,157.833 75.5,177.167 75.5,196.5C 56.8333,196.5 38.1667,196.5 19.5,196.5C 19.1797,177.091 19.513,157.757 20.5,138.5 Z"/></g>
<g><path style="opacity:0.894" fill="#047ff2" d="M 89.5,138.5 C 108.076,138.174 126.576,138.507 145,139.5C 145.5,158.497 145.667,177.497 145.5,196.5C 126.59,196.826 107.757,196.493 89,195.5C 88.1805,176.427 88.3471,157.427 89.5,138.5 Z"/></g>
<g><path style="opacity:0.91" fill="#047ff2" d="M 158.5,138.5 C 176.833,138.5 195.167,138.5 213.5,138.5C 213.5,157.833 213.5,177.167 213.5,196.5C 194.833,196.5 176.167,196.5 157.5,196.5C 157.18,177.091 157.513,157.757 158.5,138.5 Z"/></g>
<g><path style="opacity:0.911" fill="#047ff2" d="M 227.5,138.5 C 246.076,138.174 264.576,138.507 283,139.5C 283.5,158.497 283.667,177.497 283.5,196.5C 264.833,196.5 246.167,196.5 227.5,196.5C 227.5,177.167 227.5,157.833 227.5,138.5 Z"/></g>
<g><path style="opacity:0.88" fill="#047ff2" d="M 296.5,138.5 C 314.836,138.333 333.17,138.5 351.5,139C 352,139.5 352.5,140 353,140.5C 353.82,158.877 353.653,177.21 352.5,195.5C 333.602,196.825 314.769,196.825 296,195.5C 295.18,176.427 295.347,157.427 296.5,138.5 Z"/></g>
<g><path style="opacity:0.896" fill="#047ff2" d="M 366.5,138.5 C 385.076,138.174 403.576,138.507 422,139.5C 422.5,158.497 422.667,177.497 422.5,196.5C 403.5,196.5 384.5,196.5 365.5,196.5C 365.18,177.091 365.513,157.757 366.5,138.5 Z"/></g>
<g><path style="opacity:0.873" fill="#047ff2" d="M 435.5,138.5 C 453.547,138.18 471.547,138.513 489.5,139.5C 490.825,158.398 490.825,177.231 489.5,196C 471.158,196.833 452.824,196.666 434.5,195.5C 433.347,177.21 433.18,158.877 434,140.5C 434.717,139.956 435.217,139.289 435.5,138.5 Z"/></g>
<g><path style="opacity:0.911" fill="#047ff2" d="M 19.5,208.5 C 38.1667,208.5 56.8333,208.5 75.5,208.5C 75.5,225.833 75.5,243.167 75.5,260.5C 57.1636,260.667 38.8303,260.5 20.5,260C 19.5081,242.91 19.1747,225.744 19.5,208.5 Z"/></g>
<g><path style="opacity:0.879" fill="#047ff2" d="M 432.5,208.5 C 451.503,208.333 470.503,208.5 489.5,209C 490.824,225.769 490.824,242.603 489.5,259.5C 470.833,260.833 452.167,260.833 433.5,259.5C 432.501,242.513 432.167,225.513 432.5,208.5 Z"/></g>
<g><path style="opacity:0.949" fill="#047ff2" d="M 264.5,289.5 C 265.566,297.423 267.732,305.09 271,312.5C 277.365,322.854 283.698,333.187 290,343.5C 294.965,354.213 299.632,364.546 304,374.5C 304.908,379.193 305.908,383.86 307,388.5C 310.943,391.366 314.61,391.032 318,387.5C 322.135,379.261 324.969,370.594 326.5,361.5C 327.5,361.5 328.5,361.5 329.5,361.5C 337.082,386.801 335.582,411.468 325,435.5C 322.611,440.554 319.445,445.054 315.5,449C 277.918,450.654 240.251,450.987 202.5,450C 182.059,432.718 172.892,410.552 175,383.5C 176.513,371.284 179.346,359.451 183.5,348C 184.516,345.824 186.182,344.657 188.5,344.5C 190.305,350.942 193.305,356.776 197.5,362C 201.862,363.923 206.195,363.923 210.5,362C 213.306,358.886 215.473,355.386 217,351.5C 221.376,335.945 226.376,320.612 232,305.5C 235.916,300.004 239.582,294.337 243,288.5C 249.143,282.688 254.977,276.522 260.5,270C 261.5,269.5 262.5,269 263.5,268.5C 263.415,275.613 263.748,282.613 264.5,289.5 Z"/></g>
<g><path style="opacity:0.945" fill="#047ff2" d="M 19.5,272.5 C 38.1667,272.5 56.8333,272.5 75.5,272.5C 75.5,289.167 75.5,305.833 75.5,322.5C 56.8333,322.5 38.1667,322.5 19.5,322.5C 19.5,305.833 19.5,289.167 19.5,272.5 Z"/></g>
<g><path style="opacity:0.911" fill="#047ff2" d="M 433.5,272.5 C 452.5,272.5 471.5,272.5 490.5,272.5C 490.5,289.167 490.5,305.833 490.5,322.5C 471.167,322.5 451.833,322.5 432.5,322.5C 432.182,305.756 432.515,289.089 433.5,272.5 Z"/></g>
<g><path style="opacity:0.004" fill="#047ff2" d="M 264.5,288.5 C 265.833,289.167 265.833,289.167 264.5,288.5 Z"/></g>
<g><path style="opacity:0.946" fill="#047ff2" d="M 19.5,336.5 C 38.1667,336.5 56.8333,336.5 75.5,336.5C 75.5,353.167 75.5,369.833 75.5,386.5C 56.8333,386.5 38.1667,386.5 19.5,386.5C 19.5,369.833 19.5,353.167 19.5,336.5 Z"/></g>
<g><path style="opacity:0.912" fill="#047ff2" d="M 432.5,336.5 C 451.833,336.5 471.167,336.5 490.5,336.5C 490.5,353.167 490.5,369.833 490.5,386.5C 471.167,386.5 451.833,386.5 432.5,386.5C 432.5,369.833 432.5,353.167 432.5,336.5 Z"/></g>
<g><path style="opacity:0.907" fill="#047ff2" d="M 19.5,399.5 C 38.1667,399.5 56.8333,399.5 75.5,399.5C 75.5,416.5 75.5,433.5 75.5,450.5C 56.8333,450.5 38.1667,450.5 19.5,450.5C 19.5,433.5 19.5,416.5 19.5,399.5 Z"/></g>
<g><path style="opacity:0.875" fill="#047ff2" d="M 433.5,399.5 C 452.5,399.5 471.5,399.5 490.5,399.5C 490.667,416.17 490.5,432.837 490,449.5C 480.575,450.16 471.075,450.494 461.5,450.5C 451.925,450.494 442.425,450.16 433,449.5C 432.182,432.759 432.349,416.093 433.5,399.5 Z"/></g>
<g><path style="opacity:0.981" fill="#047ff2" d="M -0.5,462.5 C 170.167,462.5 340.833,462.5 511.5,462.5C 511.5,478.833 511.5,495.167 511.5,511.5C 340.833,511.5 170.167,511.5 -0.5,511.5C -0.5,495.167 -0.5,478.833 -0.5,462.5 Z"/></g>
</svg>
