<?xml version="1.0" encoding="UTF-8"?>
<!DOCTYPE svg PUBLIC "-//W3C//DTD SVG 1.1//EN" "http://www.w3.org/Graphics/SVG/1.1/DTD/svg11.dtd">
<svg xmlns="http://www.w3.org/2000/svg" version="1.1" width="512px" height="512px" style="shape-rendering:geometricPrecision; text-rendering:geometricPrecision; image-rendering:optimizeQuality; fill-rule:evenodd; clip-rule:evenodd" xmlns:xlink="http://www.w3.org/1999/xlink">
<g><path style="opacity:0.903" fill="#047ff2" d="M 511.5,91.5 C 511.5,97.8333 511.5,104.167 511.5,110.5C 488.164,110.333 464.831,110.5 441.5,111C 434.416,112.097 428.916,115.597 425,121.5C 420.175,131.234 418.175,141.567 419,152.5C 416.473,163.027 409.973,169.527 399.5,172C 391.167,172.333 382.833,172.667 374.5,173C 370.433,173.438 367.933,175.605 367,179.5C 366.667,188.167 366.333,196.833 366,205.5C 362.535,215.632 355.701,222.465 345.5,226C 336.167,226.333 326.833,226.667 317.5,227C 307.739,228.752 300.906,234.252 297,243.5C 295.761,249.435 295.261,255.435 295.5,261.5C 288.833,261.5 282.167,261.5 275.5,261.5C 273.055,235.873 283.722,218.373 307.5,209C 319.488,207.225 331.488,205.892 343.5,205C 344.893,203.829 345.727,202.329 346,200.5C 346.333,191.833 346.667,183.167 347,174.5C 350.502,164.328 357.669,157.161 368.5,153C 377.5,152.667 386.5,152.333 395.5,152C 396.931,151.535 398.097,150.701 399,149.5C 398.235,134.321 401.902,120.321 410,107.5C 416.979,99.9228 425.479,94.7561 435.5,92C 460.831,91.5 486.164,91.3334 511.5,91.5 Z"/></g>
<g><path style="opacity:0.888" fill="#047ff2" d="M 399.5,215.5 C 412.5,215.5 425.5,215.5 438.5,215.5C 438.5,222.167 438.5,228.833 438.5,235.5C 426.829,235.333 415.162,235.5 403.5,236C 402.683,243.754 402.183,251.588 402,259.5C 400.628,263.862 398.128,267.362 394.5,270C 379.568,271.285 364.568,271.952 349.5,272C 348.517,280.415 348.183,288.915 348.5,297.5C 342.167,297.5 335.833,297.5 329.5,297.5C 329.334,287.494 329.5,277.494 330,267.5C 331.722,259.444 336.556,254.277 344.5,252C 357.5,251.667 370.5,251.333 383.5,251C 378.393,234.068 383.726,222.235 399.5,215.5 Z"/></g>
<g><path style="opacity:0.862" fill="#047ff2" d="M 511.5,224.5 C 511.5,231.167 511.5,237.833 511.5,244.5C 500.668,244.166 491.168,247.499 483,254.5C 478.19,250.691 473.69,246.524 469.5,242C 480.29,228.892 494.29,223.059 511.5,224.5 Z"/></g>
<g><path style="opacity:0.77" fill="#047ff2" d="M 458.5,256.5 C 464.583,258.122 470.416,260.455 476,263.5C 475.178,269.107 474.344,274.774 473.5,280.5C 466.91,280.811 460.41,280.478 454,279.5C 453.436,271.423 454.936,263.757 458.5,256.5 Z"/></g>
<g><path style="opacity:0.896" fill="#047ff2" d="M 511.5,260.5 C 511.5,268.167 511.5,275.833 511.5,283.5C 510.08,289.053 508.58,294.72 507,300.5C 503.181,308.318 497.014,313.152 488.5,315C 479.833,315.333 471.167,315.667 462.5,316C 455.286,319.486 454.286,324.153 459.5,330C 469.093,331.255 478.76,331.921 488.5,332C 508.93,340.71 514.43,355.21 505,375.5C 500.383,381.222 494.55,385.056 487.5,387C 478.833,387.333 470.167,387.667 461.5,388C 458.5,389 456.5,391 455.5,394C 456.491,406.99 450.824,415.99 438.5,421C 434.339,422.737 430.005,423.737 425.5,424C 422.275,425.509 420.442,427.676 420,430.5C 419.667,445.833 419.333,461.167 419,476.5C 414.089,494.243 402.922,505.909 385.5,511.5C 369.5,511.5 353.5,511.5 337.5,511.5C 337.5,505.167 337.5,498.833 337.5,492.5C 351.171,492.667 364.837,492.5 378.5,492C 390.996,490.171 398.163,483.004 400,470.5C 400.333,455.167 400.667,439.833 401,424.5C 404.807,414.026 411.974,406.859 422.5,403C 426.25,402.74 429.916,402.073 433.5,401C 434.701,400.097 435.535,398.931 436,397.5C 436.239,382.597 443.406,372.764 457.5,368C 465.833,367.667 474.167,367.333 482.5,367C 490.465,363.293 491.798,358.626 486.5,353C 476.907,351.745 467.24,351.079 457.5,351C 441.142,345.8 434.308,334.633 437,317.5C 439.604,307.897 445.438,301.063 454.5,297C 465.193,296.025 475.859,295.025 486.5,294C 487.701,293.097 488.535,291.931 489,290.5C 489.973,275.536 497.473,265.536 511.5,260.5 Z"/></g>
<g><path style="opacity:0.889" fill="#047ff2" d="M 242.5,278.5 C 265.833,278.5 289.167,278.5 312.5,278.5C 312.5,284.833 312.5,291.167 312.5,297.5C 290.831,297.333 269.164,297.5 247.5,298C 238.374,299.863 233.374,305.53 232.5,315C 233.095,321.911 236.428,326.911 242.5,330C 261.782,331.283 281.115,331.95 300.5,332C 303.376,332.438 306.043,333.438 308.5,335C 314.616,340.096 319.116,346.262 322,353.5C 323.756,370.408 316.59,381.574 300.5,387C 291.5,387.333 282.5,387.667 273.5,388C 266.833,392.667 266.833,397.333 273.5,402C 297.167,402.333 320.833,402.667 344.5,403C 355.624,406.294 362.791,413.46 366,424.5C 366.667,437.5 366.667,450.5 366,463.5C 360.794,474.808 351.961,479.308 339.5,477C 337.566,470.789 336.899,464.289 337.5,457.5C 340.5,457.5 343.5,457.5 346.5,457.5C 346.666,448.161 346.5,438.827 346,429.5C 345.793,426.577 344.293,424.744 341.5,424C 318.5,423.667 295.5,423.333 272.5,423C 254.13,418.26 246.63,406.427 250,387.5C 252.624,379.209 257.791,373.042 265.5,369C 276.515,368.026 287.515,367.026 298.5,366C 303.804,360.554 303.137,355.888 296.5,352C 277.115,351.95 257.782,351.283 238.5,350C 219.084,342.014 210.917,327.514 214,306.5C 218.089,291.578 227.589,282.244 242.5,278.5 Z"/></g>
<g><path style="opacity:0.815" fill="#047ff2" d="M 409.5,341.5 C 416.167,341.5 422.833,341.5 429.5,341.5C 429.556,348.055 428.389,354.388 426,360.5C 425.275,361.059 424.442,361.392 423.5,361.5C 417.453,359.598 411.786,356.931 406.5,353.5C 408.129,349.649 409.129,345.649 409.5,341.5 Z"/></g>
<g><path style="opacity:0.854" fill="#047ff2" d="M 400.5,360.5 C 404.801,364.972 408.968,369.639 413,374.5C 413.749,375.635 413.583,376.635 412.5,377.5C 406.249,382.292 399.249,385.458 391.5,387C 376.504,387.5 361.504,387.667 346.5,387.5C 346.5,380.833 346.5,374.167 346.5,367.5C 359.837,367.667 373.171,367.5 386.5,367C 392.12,366.638 396.787,364.472 400.5,360.5 Z"/></g>
<g><path style="opacity:0.971" fill="#047ff2" d="M -0.5,457.5 C 23.8333,457.5 48.1667,457.5 72.5,457.5C 72.5,475.5 72.5,493.5 72.5,511.5C 48.1667,511.5 23.8333,511.5 -0.5,511.5C -0.5,493.5 -0.5,475.5 -0.5,457.5 Z"/></g>
<g><path style="opacity:0.842" fill="#047ff2" d="M 108.5,511.5 C 101.5,511.5 94.5,511.5 87.5,511.5C 87.5,493.5 87.5,475.5 87.5,457.5C 94.5,457.5 101.5,457.5 108.5,457.5C 108.5,475.5 108.5,493.5 108.5,511.5 Z"/></g>
<g><path style="opacity:0.979" fill="#047ff2" d="M 286.5,511.5 C 232.167,511.5 177.833,511.5 123.5,511.5C 123.5,493.5 123.5,475.5 123.5,457.5C 177.833,457.5 232.167,457.5 286.5,457.5C 286.5,475.5 286.5,493.5 286.5,511.5 Z"/></g>
<g><path style="opacity:0.887" fill="#047ff2" d="M 322.5,511.5 C 315.833,511.5 309.167,511.5 302.5,511.5C 302.5,493.5 302.5,475.5 302.5,457.5C 309.167,457.5 315.833,457.5 322.5,457.5C 322.5,475.5 322.5,493.5 322.5,511.5 Z"/></g>
</svg>
