<?xml version="1.0" encoding="UTF-8"?>
<!DOCTYPE svg PUBLIC "-//W3C//DTD SVG 1.1//EN" "http://www.w3.org/Graphics/SVG/1.1/DTD/svg11.dtd">
<svg xmlns="http://www.w3.org/2000/svg" version="1.1" width="512px" height="512px" style="shape-rendering:geometricPrecision; text-rendering:geometricPrecision; image-rendering:optimizeQuality; fill-rule:evenodd; clip-rule:evenodd" xmlns:xlink="http://www.w3.org/1999/xlink">
<g><path style="opacity:0.987" fill="#047ff2" d="M 119.5,-0.5 C 247.167,-0.5 374.833,-0.5 502.5,-0.5C 506.525,1.52525 509.525,4.52525 511.5,8.5C 511.5,136.167 511.5,263.833 511.5,391.5C 503.125,403.675 492.792,405.508 480.5,397C 478.263,394.97 476.763,392.47 476,389.5C 475.5,271.5 475.333,153.5 475.5,35.5C 357.5,35.6667 239.5,35.5 121.5,35C 108.493,28.4353 105.326,18.602 112,5.5C 114.114,2.87922 116.614,0.879222 119.5,-0.5 Z"/></g>
<g><path style="opacity:0.962" fill="#047ff2" d="M 66.5,52.5 C 192.835,52.1667 319.168,52.5 445.5,53.5C 451.192,55.8589 455.192,59.8589 457.5,65.5C 458.833,191.833 458.833,318.167 457.5,444.5C 455.192,450.141 451.192,454.141 445.5,456.5C 441.541,457.66 437.541,457.827 433.5,457C 430.833,455.333 428.167,453.667 425.5,452C 423.263,449.97 421.763,447.47 421,444.5C 420.5,326.5 420.333,208.5 420.5,90.5C 302.5,90.6667 184.5,90.5 66.5,90C 53.2945,83.4435 50.1278,73.6101 57,60.5C 60.2264,57.6753 63.3931,55.0087 66.5,52.5 Z"/></g>
<g><path style="opacity:0.983" fill="#047ff2" d="M 73.5,511.5 C 52.8333,511.5 32.1667,511.5 11.5,511.5C 5.8077,509.141 1.8077,505.141 -0.5,499.5C -0.5,373.167 -0.5,246.833 -0.5,120.5C 1.76489,114.902 5.76489,110.902 11.5,108.5C 19.8068,107.502 28.1401,107.169 36.5,107.5C 36.3333,161.168 36.5,214.834 37,268.5C 38.2185,285.799 41.2185,303.132 46,320.5C 52.044,335.057 57.8773,349.724 63.5,364.5C 72.9723,412.947 76.3056,461.947 73.5,511.5 Z"/></g>
<g><path style="opacity:0.961" fill="#047ff2" d="M 390.5,511.5 C 363.833,511.5 337.167,511.5 310.5,511.5C 310.667,471.165 310.5,430.832 310,390.5C 308.675,356.267 303.341,322.6 294,289.5C 290.06,281.953 286.393,274.287 283,266.5C 280.16,256.136 277.493,245.803 275,235.5C 273.774,213.86 273.107,192.193 273,170.5C 272.417,168.998 271.584,167.665 270.5,166.5C 268.386,165.966 266.552,164.966 265,163.5C 261.418,164.746 258.751,167.08 257,170.5C 254.165,204.178 257.499,237.178 267,269.5C 270.086,277.753 273.752,285.753 278,293.5C 279.817,299.949 281.817,306.283 284,312.5C 286.957,328.882 289.624,345.215 292,361.5C 293.437,411.482 293.937,461.482 293.5,511.5C 262.5,511.5 231.5,511.5 200.5,511.5C 200.667,458.832 200.5,406.166 200,353.5C 199.607,339.788 198.607,326.122 197,312.5C 194.476,291.361 189.81,270.694 183,250.5C 178.802,242.769 175.136,234.769 172,226.5C 169.648,217.093 167.315,207.76 165,198.5C 163.762,177.196 163.096,155.863 163,134.5C 160.771,128.42 156.604,126.586 150.5,129C 148.513,130.319 147.346,132.152 147,134.5C 143.115,172.88 148.115,209.88 162,245.5C 163.746,249.327 165.746,252.993 168,256.5C 175.785,282.996 180.785,309.996 183,337.5C 183.5,395.499 183.667,453.499 183.5,511.5C 152.5,511.5 121.5,511.5 90.5,511.5C 92.9574,461.09 89.2908,411.257 79.5,362C 74.109,345.839 67.9423,330.006 61,314.5C 58.4426,303.797 56.1093,293.13 54,282.5C 53.5,224.168 53.3333,165.834 53.5,107.5C 66.1667,107.5 78.8333,107.5 91.5,107.5C 91.0998,148.516 91.5998,189.516 93,230.5C 95.3748,242.863 98.2081,255.197 101.5,267.5C 107.619,281.296 113.285,295.296 118.5,309.5C 122.567,331.137 125.734,352.804 128,374.5C 128.333,411.5 128.667,448.5 129,485.5C 131.229,491.58 135.396,493.414 141.5,491C 143.487,489.681 144.654,487.848 145,485.5C 145.868,447.153 145.535,408.82 144,370.5C 141.785,342.998 136.785,315.998 129,289.5C 124.016,280.533 119.85,271.199 116.5,261.5C 113.675,250.21 111.175,238.877 109,227.5C 108.5,187.501 108.333,147.501 108.5,107.5C 139.5,107.5 170.5,107.5 201.5,107.5C 201.1,148.516 201.6,189.516 203,230.5C 205.387,242.935 208.22,255.268 211.5,267.5C 217.262,281.431 223.262,295.265 229.5,309C 232.082,318.828 234.582,328.661 237,338.5C 238.281,375.474 238.948,412.474 239,449.5C 241.79,454.764 245.957,456.264 251.5,454C 253.487,452.681 254.654,450.848 255,448.5C 255.889,413.483 255.555,378.483 254,343.5C 251.559,329.264 248.393,315.431 244.5,302C 238.333,289.993 232.667,277.66 227.5,265C 224.904,255.115 222.404,245.281 220,235.5C 218.551,192.858 218.051,150.191 218.5,107.5C 249.5,107.5 280.5,107.5 311.5,107.5C 311.111,142.518 311.611,177.518 313,212.5C 315.477,225.54 318.477,238.54 322,251.5C 327.147,264.455 332.813,277.122 339,289.5C 342.057,299.806 344.724,310.14 347,320.5C 348.281,357.14 348.948,393.807 349,430.5C 351.229,436.58 355.396,438.414 361.5,436C 363.487,434.681 364.654,432.848 365,430.5C 365.88,395.484 365.547,360.484 364,325.5C 361.99,314.439 359.656,303.439 357,292.5C 351.476,277.124 345.143,262.124 338,247.5C 335.004,237.513 332.338,227.513 330,217.5C 328.56,180.859 328.06,144.192 328.5,107.5C 349.177,107.167 369.844,107.5 390.5,108.5C 396.185,110.852 400.185,114.852 402.5,120.5C 403.833,246.833 403.833,373.167 402.5,499.5C 400.124,505.209 396.124,509.209 390.5,511.5 Z"/></g>
</svg>
