<?xml version="1.0" encoding="UTF-8"?>
<!DOCTYPE svg PUBLIC "-//W3C//DTD SVG 1.1//EN" "http://www.w3.org/Graphics/SVG/1.1/DTD/svg11.dtd">
<svg xmlns="http://www.w3.org/2000/svg" version="1.1" width="512px" height="512px" style="shape-rendering:geometricPrecision; text-rendering:geometricPrecision; image-rendering:optimizeQuality; fill-rule:evenodd; clip-rule:evenodd" xmlns:xlink="http://www.w3.org/1999/xlink">
<g><path style="opacity:0.99" fill="#047ff2" d="M 294.5,-0.5 C 302.5,-0.5 310.5,-0.5 318.5,-0.5C 329.509,2.00663 339.176,7.17329 347.5,15C 368.04,14.1869 384.874,21.6869 398,37.5C 416.315,63.1049 426.315,91.7715 428,123.5C 430.802,179.355 421.302,233.021 399.5,284.5C 400.501,287.839 401.501,291.172 402.5,294.5C 394.063,305.892 384.063,315.726 372.5,324C 345.128,342.274 316.294,358.107 286,371.5C 286.133,366.133 287.299,360.966 289.5,356C 286.791,346.707 283.791,337.54 280.5,328.5C 263.55,333.488 246.55,338.321 229.5,343C 212.425,345.708 199.258,339.874 190,325.5C 185.693,312.939 181.693,300.272 178,287.5C 169.586,284.808 161.086,282.308 152.5,280C 147.931,277.459 146.431,273.625 148,268.5C 153.029,256.413 157.862,244.246 162.5,232C 157.772,216.251 153.438,200.418 149.5,184.5C 139.326,181.412 130.326,176.245 122.5,169C 100.62,147.244 86.9532,121.078 81.5,90.5C 81.645,82.5746 85.645,79.7413 93.5,82C 98.0521,86.5251 103.552,89.0251 110,89.5C 126.655,86.2806 142.155,80.1139 156.5,71C 183.5,53.8312 210.833,37.1645 238.5,21C 256.317,11.2435 274.984,4.07688 294.5,-0.5 Z M 204.5,248.5 C 213.85,248.365 216.517,252.532 212.5,261C 203.956,264.322 200.123,261.489 201,252.5C 201.69,250.65 202.856,249.316 204.5,248.5 Z M 236.5,248.5 C 245.85,248.365 248.517,252.532 244.5,261C 235.956,264.322 232.123,261.489 233,252.5C 233.69,250.65 234.856,249.316 236.5,248.5 Z M 268.5,256.5 C 277.85,256.365 280.517,260.532 276.5,269C 267.956,272.322 264.123,269.489 265,260.5C 265.69,258.65 266.856,257.316 268.5,256.5 Z M 292.5,272.5 C 301.85,272.365 304.517,276.532 300.5,285C 291.956,288.322 288.123,285.489 289,276.5C 289.69,274.65 290.856,273.316 292.5,272.5 Z M 316.5,296.5 C 325.85,296.365 328.517,300.532 324.5,309C 315.956,312.322 312.123,309.489 313,300.5C 313.69,298.65 314.856,297.316 316.5,296.5 Z"/></g>
<g><path style="opacity:0.951" fill="#047ff2" d="M 55.5,239.5 C 71.3482,236.848 83.5149,242.182 92,255.5C 96.3249,262.988 96.8249,270.488 93.5,278C 82.819,281.894 77.6523,278.06 78,266.5C 72.7051,256.277 64.8718,253.777 54.5,259C 46.5,267.333 46.5,275.667 54.5,284C 57.2464,285.75 60.2464,286.75 63.5,287C 88.8333,287.333 114.167,287.667 139.5,288C 141.333,288.5 142.5,289.667 143,291.5C 143.817,294.964 143.483,298.298 142,301.5C 141.25,302.126 140.416,302.626 139.5,303C 111.5,303.667 83.5,303.667 55.5,303C 36.5615,296.645 28.7282,283.478 32,263.5C 35.349,250.985 43.1824,242.985 55.5,239.5 Z"/></g>
<g><path style="opacity:0.969" fill="#047ff2" d="M 511.5,479.5 C 511.5,490.167 511.5,500.833 511.5,511.5C 492.5,511.5 473.5,511.5 454.5,511.5C 454.667,482.165 454.5,452.831 454,423.5C 450.317,403.16 439.15,388.66 420.5,380C 390.494,370.667 366.994,379.167 350,405.5C 346.601,412.095 344.601,419.095 344,426.5C 343.5,454.831 343.333,483.165 343.5,511.5C 333.167,511.5 322.833,511.5 312.5,511.5C 317.272,505.859 321.106,499.526 324,492.5C 324.882,489.211 325.548,485.877 326,482.5C 326.178,470.924 326.678,459.424 327.5,448C 327.659,431.779 321.659,418.446 309.5,408C 301.435,402.827 292.768,400.993 283.5,402.5C 284.5,397.167 285.5,391.833 286.5,386.5C 322.394,372.726 355.727,354.559 386.5,332C 393.803,325.698 400.803,319.032 407.5,312C 442.548,335.058 470.048,365.225 490,402.5C 501.709,427.016 508.876,452.682 511.5,479.5 Z"/></g>
<g><path style="opacity:0.892" fill="#047ff2" d="M -0.5,331.5 C -0.5,328.833 -0.5,326.167 -0.5,323.5C 2.55598,319.759 6.55598,318.593 11.5,320C 14.516,321.529 15.8494,324.029 15.5,327.5C 14.7363,334.731 10.7363,337.231 3.5,335C 1.64977,334.31 0.316435,333.144 -0.5,331.5 Z"/></g>
<g><path style="opacity:0.892" fill="#047ff2" d="M 35.5,319.5 C 46.8598,318.71 50.1931,323.543 45.5,334C 34.9641,337.997 30.4641,334.497 32,323.5C 32.6897,321.65 33.8564,320.316 35.5,319.5 Z"/></g>
<g><path style="opacity:0.892" fill="#047ff2" d="M 67.5,319.5 C 78.8598,318.71 82.1931,323.543 77.5,334C 66.9641,337.997 62.4641,334.497 64,323.5C 64.6897,321.65 65.8564,320.316 67.5,319.5 Z"/></g>
<g><path style="opacity:0.981" fill="#047ff2" d="M 99.5,319.5 C 123.502,319.333 147.502,319.5 171.5,320C 173.333,320.5 174.5,321.667 175,323.5C 175.667,326.167 175.667,328.833 175,331.5C 174.5,333.333 173.333,334.5 171.5,335C 147.5,335.667 123.5,335.667 99.5,335C 96.484,333.471 95.1506,330.971 95.5,327.5C 95.2824,323.934 96.6157,321.268 99.5,319.5 Z"/></g>
<g><path style="opacity:0.976" fill="#047ff2" d="M 295.5,511.5 C 276.833,511.5 258.167,511.5 239.5,511.5C 234.621,482.935 229.287,454.435 223.5,426C 230.928,403.05 238.761,380.216 247,357.5C 249.947,350.959 254.781,349.126 261.5,352C 269.351,357.342 273.351,364.842 273.5,374.5C 270.5,390.502 267.5,406.502 264.5,422.5C 266.155,429.967 268.322,437.3 271,444.5C 271.382,437.352 273.382,430.686 277,424.5C 283.994,417.009 292.16,415.509 301.5,420C 306.337,424.502 309.503,430.002 311,436.5C 311.927,453.545 311.593,470.545 310,487.5C 306.142,494.699 301.475,501.365 296,507.5C 295.51,508.793 295.343,510.127 295.5,511.5 Z"/></g>
<g><path style="opacity:0.951" fill="#047ff2" d="M 55.5,351.5 C 83.502,351.333 111.502,351.5 139.5,352C 142.516,353.529 143.849,356.029 143.5,359.5C 143.849,362.971 142.516,365.471 139.5,367C 114.167,367.333 88.8333,367.667 63.5,368C 49.6563,371.187 45.4896,379.354 51,392.5C 57.2512,399.011 64.4179,400.177 72.5,396C 75.1059,394.062 76.9392,391.562 78,388.5C 77.6523,376.94 82.819,373.106 93.5,377C 96.8249,384.512 96.3249,392.012 92,399.5C 83.5221,412.981 71.3554,418.148 55.5,415C 36.5615,408.645 28.7282,395.478 32,375.5C 35.349,362.985 43.1824,354.985 55.5,351.5 Z"/></g>
<g><path style="opacity:0.892" fill="#047ff2" d="M 163.5,351.5 C 174.86,350.71 178.193,355.543 173.5,366C 162.964,369.997 158.464,366.497 160,355.5C 160.69,353.65 161.856,352.316 163.5,351.5 Z"/></g>
</svg>
