<?xml version="1.0" encoding="UTF-8"?>
<!DOCTYPE svg PUBLIC "-//W3C//DTD SVG 1.1//EN" "http://www.w3.org/Graphics/SVG/1.1/DTD/svg11.dtd">
<svg xmlns="http://www.w3.org/2000/svg" version="1.1" width="512px" height="512px" style="shape-rendering:geometricPrecision; text-rendering:geometricPrecision; image-rendering:optimizeQuality; fill-rule:evenodd; clip-rule:evenodd" xmlns:xlink="http://www.w3.org/1999/xlink">
<g><path style="opacity:0.983" fill="#047ff2" d="M -0.5,463.5 C -0.5,448.5 -0.5,433.5 -0.5,418.5C 8.62768,332.602 39.1277,255.268 91,186.5C 101.872,172.628 114.372,160.461 128.5,150C 161.249,127.724 184.083,135.224 197,172.5C 202.607,192.143 206.274,212.143 208,232.5C 213.032,227.133 218.365,222.133 224,217.5C 224.333,147.5 224.667,77.5 225,7.5C 231.492,0.574532 237.492,0.907865 243,8.5C 243.667,80.8333 243.667,153.167 243,225.5C 232.024,236.808 220.691,247.808 209,258.5C 210.957,298.147 212.79,337.814 214.5,377.5C 214.489,400.455 211.989,423.122 207,445.5C 198.73,481.22 176.563,495.72 140.5,489C 129.84,486.669 119.507,483.336 109.5,479C 106.833,478.333 104.167,478.333 101.5,479C 89.1107,490.198 75.1107,498.865 59.5,505C 44.4125,510.738 30.0791,509.405 16.5,501C 6.47982,490.426 0.813151,477.926 -0.5,463.5 Z M 205.5,235.5 C 206.83,242.979 207.33,250.646 207,258.5C 187.034,276.131 167.367,294.131 148,312.5C 136.286,326.546 124.952,340.879 114,355.5C 97.2367,374.289 77.4034,388.789 54.5,399C 45.8928,398.949 42.7261,394.782 45,386.5C 52.0856,381.371 59.5856,376.871 67.5,373C 79.5392,365.377 90.3725,356.21 100,345.5C 111.092,330.985 122.426,316.651 134,302.5C 157.729,279.934 181.562,257.6 205.5,235.5 Z"/></g>
<g><path style="opacity:0.983" fill="#047ff2" d="M 511.5,418.5 C 511.5,433.5 511.5,448.5 511.5,463.5C 504.404,505.555 481.07,518.055 441.5,501C 429.79,495.148 419.124,487.815 409.5,479C 406.833,478.333 404.167,478.333 401.5,479C 383.473,487.806 364.473,491.472 344.5,490C 327.985,487.154 316.485,477.988 310,462.5C 302.81,444.887 298.81,426.554 298,407.5C 297.66,396.992 297.16,386.492 296.5,376C 298.272,336.815 300.106,297.648 302,258.5C 290.309,247.808 278.976,236.808 268,225.5C 267.333,153.167 267.333,80.8333 268,8.5C 273.508,0.907865 279.508,0.574532 286,7.5C 286.333,77.5 286.667,147.5 287,217.5C 292.635,222.133 297.968,227.133 303,232.5C 304.727,212.136 308.394,192.136 314,172.5C 326.917,135.224 349.751,127.724 382.5,150C 406.928,170.093 427.428,193.593 444,220.5C 481.581,281.41 504.081,347.41 511.5,418.5 Z M 304.5,235.5 C 329.097,257.26 353.264,279.593 377,302.5C 388.574,316.651 399.908,330.985 411,345.5C 425.42,361.791 442.587,374.291 462.5,383C 467.894,387.08 468.56,391.746 464.5,397C 462.086,398.885 459.419,399.552 456.5,399C 433.322,389.167 413.489,374.667 397,355.5C 386.048,340.879 374.714,326.546 363,312.5C 343.633,294.131 323.966,276.131 304,258.5C 303.888,250.84 304.054,243.173 304.5,235.5 Z"/></g>
</svg>
