<?xml version="1.0" encoding="UTF-8"?>
<!DOCTYPE svg PUBLIC "-//W3C//DTD SVG 1.1//EN" "http://www.w3.org/Graphics/SVG/1.1/DTD/svg11.dtd">
<svg xmlns="http://www.w3.org/2000/svg" version="1.1" width="512px" height="512px" style="shape-rendering:geometricPrecision; text-rendering:geometricPrecision; image-rendering:optimizeQuality; fill-rule:evenodd; clip-rule:evenodd" xmlns:xlink="http://www.w3.org/1999/xlink">
<g><path style="opacity:0.99" fill="#047ff2" d="M 264.5,511.5 C 260.833,511.5 257.167,511.5 253.5,511.5C 251.193,510.023 249.36,508.023 248,505.5C 246.879,497.21 246.213,488.876 246,480.5C 244.365,468.461 240.698,456.794 235,445.5C 227.902,435.754 218.402,429.587 206.5,427C 194.658,426.377 182.825,426.543 171,427.5C 126.211,429.002 106.211,407.335 111,362.5C 106.565,358.014 101.898,353.681 97,349.5C 94.3082,342.417 96.1415,336.917 102.5,333C 95.526,329.551 93.026,324.051 95,316.5C 96.2696,311.586 97.7696,306.753 99.5,302C 99.3248,300.342 98.6582,299.009 97.5,298C 97.8333,297.667 98.1667,297.333 98.5,297C 86.8333,292.667 75.1667,288.333 63.5,284C 57.4108,279.315 56.0775,273.482 59.5,266.5C 76.7052,246.675 93.8719,227.008 111,207.5C 110.365,184.755 109.365,162.089 108,139.5C 119.681,82.3115 152.181,41.8115 205.5,18C 234.916,7.33864 265.416,2.50531 297,3.5C 367.932,1.58565 424.099,28.919 465.5,85.5C 480.104,106.899 489.937,130.899 495,157.5C 500.208,191.043 495.542,223.043 481,253.5C 468.888,273.457 456.222,293.124 443,312.5C 418.435,354.569 414.935,398.403 432.5,444C 434.853,449.56 437.353,454.393 440,458.5C 441.581,464.062 440.081,468.562 435.5,472C 431.448,473.337 427.448,474.671 423.5,476C 370.218,487.426 317.218,499.259 264.5,511.5 Z"/></g>
<g><path style="opacity:0.94" fill="#047ff2" d="M 42.5,299.5 C 48.1644,298.888 52.9977,300.554 57,304.5C 62.297,314.401 67.9636,324.067 74,333.5C 83.8517,354.438 79.0184,370.938 59.5,383C 41.139,388.883 26.9723,383.717 17,367.5C 13.297,355.957 13.797,344.624 18.5,333.5C 24.5713,324.973 29.9047,315.973 34.5,306.5C 36.595,303.398 39.2616,301.065 42.5,299.5 Z"/></g>
<g><path style="opacity:0.94" fill="#047ff2" d="M 70.5,415.5 C 77.2283,414.449 82.395,416.782 86,422.5C 92.168,433.01 98.3347,443.51 104.5,454C 111.277,473.987 105.611,488.987 87.5,499C 68.3146,505.069 53.8146,499.235 44,481.5C 41.8547,472.272 42.0214,463.106 44.5,454C 51.3265,442.504 58.1598,431.004 65,419.5C 66.8121,418.023 68.6455,416.69 70.5,415.5 Z"/></g>
</svg>
