<?xml version="1.0" encoding="UTF-8"?>
<!DOCTYPE svg PUBLIC "-//W3C//DTD SVG 1.1//EN" "http://www.w3.org/Graphics/SVG/1.1/DTD/svg11.dtd">
<svg xmlns="http://www.w3.org/2000/svg" version="1.1" width="512px" height="512px" style="shape-rendering:geometricPrecision; text-rendering:geometricPrecision; image-rendering:optimizeQuality; fill-rule:evenodd; clip-rule:evenodd" xmlns:xlink="http://www.w3.org/1999/xlink">
<g><path style="opacity:0.978" fill="#047ff2" d="M 34.5,-0.5 C 111.5,-0.5 188.5,-0.5 265.5,-0.5C 265.5,17.1667 265.5,34.8333 265.5,52.5C 188.5,52.5 111.5,52.5 34.5,52.5C 34.5,34.8333 34.5,17.1667 34.5,-0.5 Z"/></g>
<g><path style="opacity:0.941" fill="#047ff2" d="M 52.5,68.5 C 117.833,68.5 183.167,68.5 248.5,68.5C 248.5,77.8333 248.5,87.1667 248.5,96.5C 183.167,96.5 117.833,96.5 52.5,96.5C 52.5,87.1667 52.5,77.8333 52.5,68.5 Z"/></g>
<g><path style="opacity:0.898" fill="#047ff2" d="M 375.5,68.5 C 379.637,68.1463 383.637,68.6463 387.5,70C 393.215,75.7155 398.882,81.3822 404.5,87C 396.619,95.2156 388.453,103.049 380,110.5C 374.691,105.287 369.357,99.9533 364,94.5C 362.061,89.4729 362.061,84.4729 364,79.5C 367.782,75.5465 371.615,71.8798 375.5,68.5 Z"/></g>
<g><path style="opacity:0.899" fill="#047ff2" d="M 414.5,98.5 C 420.383,102.873 425.883,107.873 431,113.5C 435.879,123.474 433.712,131.64 424.5,138C 417.927,141.551 411.594,141.218 405.5,137C 401.15,131.652 396.483,126.652 391.5,122C 399.347,114.32 407.014,106.486 414.5,98.5 Z"/></g>
<g><path style="opacity:0.953" fill="#047ff2" d="M 47.5,112.5 C 116.17,112.167 184.837,112.5 253.5,113.5C 265.793,128.462 278.46,143.128 291.5,157.5C 197.5,158.833 103.5,158.833 9.5,157.5C 22.8668,143.105 35.5335,128.105 47.5,112.5 Z"/></g>
<g><path style="opacity:0.98" fill="#047ff2" d="M 0.5,174.5 C 100.833,174.5 201.167,174.5 301.5,174.5C 301.5,222.167 301.5,269.833 301.5,317.5C 276.498,317.333 251.498,317.5 226.5,318C 208.538,320.962 198.371,331.462 196,349.5C 195.5,356.492 195.334,363.492 195.5,370.5C 130.5,370.5 65.5,370.5 0.5,370.5C 0.5,305.167 0.5,239.833 0.5,174.5 Z M 131.5,211.5 C 145.24,211.054 158.907,211.554 172.5,213C 174.487,214.319 175.654,216.152 176,218.5C 176.5,227.827 176.666,237.161 176.5,246.5C 186.912,246.074 197.246,246.574 207.5,248C 209.041,249.579 210.208,251.413 211,253.5C 211.667,266.167 211.667,278.833 211,291.5C 210.606,294.893 208.773,297.06 205.5,298C 195.839,298.5 186.172,298.666 176.5,298.5C 176.951,308.938 176.451,319.271 175,329.5C 173.189,331.543 171.022,333.043 168.5,334C 156.5,334.667 144.5,334.667 132.5,334C 128.888,333.111 126.388,330.945 125,327.5C 124.5,317.839 124.334,308.172 124.5,298.5C 113.755,298.929 103.088,298.429 92.5,297C 91.1437,294.602 89.9771,292.102 89,289.5C 88.3333,278.167 88.3333,266.833 89,255.5C 90.1227,252.751 91.6227,250.251 93.5,248C 103.729,246.549 114.062,246.049 124.5,246.5C 124.334,236.828 124.5,227.161 125,217.5C 126.113,214.219 128.28,212.219 131.5,211.5 Z"/></g>
<g><path style="opacity:0.897" fill="#047ff2" d="M 455.5,210.5 C 465.803,209.968 473.303,214.301 478,223.5C 478.76,227.225 478.593,230.892 477.5,234.5C 471.808,240.691 465.975,246.691 460,252.5C 451.419,245.28 443.586,237.28 436.5,228.5C 441.99,221.423 448.323,215.423 455.5,210.5 Z"/></g>
<g><path style="opacity:0.921" fill="#047ff2" d="M 141.5,227.5 C 147.5,227.5 153.5,227.5 159.5,227.5C 159.334,236.839 159.5,246.173 160,255.5C 160.91,259.193 163.077,261.693 166.5,263C 176.161,263.5 185.828,263.666 195.5,263.5C 195.5,269.833 195.5,276.167 195.5,282.5C 184.755,282.071 174.088,282.571 163.5,284C 161.513,285.319 160.346,287.152 160,289.5C 159.5,298.827 159.334,308.161 159.5,317.5C 153.167,317.5 146.833,317.5 140.5,317.5C 140.903,306.769 140.403,296.102 139,285.5C 137.829,284.107 136.329,283.273 134.5,283C 124.839,282.5 115.172,282.334 105.5,282.5C 105.5,276.167 105.5,269.833 105.5,263.5C 115.938,263.951 126.271,263.451 136.5,262C 138.041,260.421 139.208,258.587 140,256.5C 140.192,246.756 140.692,237.09 141.5,227.5 Z"/></g>
<g><path style="opacity:0.898" fill="#047ff2" d="M 423.5,240.5 C 426.566,242.373 429.566,244.539 432.5,247C 437.545,253.042 442.879,258.709 448.5,264C 444.189,269.645 439.189,274.645 433.5,279C 429.64,281.969 425.307,282.969 420.5,282C 415.748,279.252 411.581,275.752 408,271.5C 406.061,266.473 406.061,261.473 408,256.5C 412.698,250.637 417.865,245.303 423.5,240.5 Z"/></g>
<g><path style="opacity:0.96" fill="#047ff2" d="M 511.5,341.5 C 511.5,395.833 511.5,450.167 511.5,504.5C 508.143,506.866 504.81,509.199 501.5,511.5C 408.833,511.5 316.167,511.5 223.5,511.5C 218.498,508.664 214.665,504.664 212,499.5C 211.333,448.5 211.333,397.5 212,346.5C 214.475,341.359 218.308,337.525 223.5,335C 316.167,334.333 408.833,334.333 501.5,335C 505.032,336.928 508.366,339.095 511.5,341.5 Z M 254.5,352.5 C 277.9,355.972 286.067,368.972 279,391.5C 268.973,404.641 256.473,407.475 241.5,400C 226.833,386 226.833,372 241.5,358C 245.955,356.029 250.288,354.195 254.5,352.5 Z M 325.5,352.5 C 342.059,354.06 351.392,363.06 353.5,379.5C 349.266,400.285 336.932,407.785 316.5,402C 304.064,395.053 299.564,384.553 303,370.5C 304.613,365.087 307.78,360.92 312.5,358C 316.746,355.641 321.08,353.808 325.5,352.5 Z M 396.5,352.5 C 418.19,355.88 426.357,368.213 421,389.5C 414.108,402.022 403.608,406.522 389.5,403C 378.613,398.59 372.947,390.424 372.5,378.5C 373.996,363.675 381.996,355.009 396.5,352.5 Z M 466.5,352.5 C 488.892,355.29 497.392,367.623 492,389.5C 487.411,398.976 479.744,403.976 469,404.5C 463.499,404.112 458.333,402.612 453.5,400C 438.632,384.94 439.298,370.607 455.5,357C 459.287,355.505 462.953,354.005 466.5,352.5 Z M 253.5,441.5 C 264.641,440.986 273.141,445.319 279,454.5C 285.966,475.906 278.466,488.906 256.5,493.5C 235.514,489.529 227.68,477.195 233,456.5C 235.686,452.9 238.519,449.4 241.5,446C 245.432,443.972 249.432,442.472 253.5,441.5 Z M 324.5,441.5 C 341.419,441.953 351.085,450.62 353.5,467.5C 349.515,487.394 337.682,495.394 318,491.5C 307.803,486.785 302.303,478.785 301.5,467.5C 302.899,453.11 310.565,444.443 324.5,441.5 Z M 395.5,441.5 C 412.787,441.894 422.12,450.728 423.5,468C 421.739,482.928 413.406,491.428 398.5,493.5C 377.431,489.594 369.598,477.261 375,456.5C 379.109,447.702 385.943,442.702 395.5,441.5 Z M 466.5,441.5 C 483.452,442.285 492.785,451.118 494.5,468C 492.75,482.917 484.417,491.417 469.5,493.5C 453.981,491.648 444.981,482.982 442.5,467.5C 443.863,457.259 448.863,449.426 457.5,444C 460.628,443.159 463.628,442.325 466.5,441.5 Z"/></g>
<g><path style="opacity:0.833" fill="#047ff2" d="M 252.5,369.5 C 265.898,369.443 269.231,375.276 262.5,387C 250.471,390.505 245.637,386.005 248,373.5C 249.397,371.93 250.897,370.596 252.5,369.5 Z"/></g>
<g><path style="opacity:0.818" fill="#047ff2" d="M 323.5,369.5 C 336.465,369.585 339.799,375.419 333.5,387C 322.064,390.562 316.898,386.396 318,374.5C 319.73,372.598 321.563,370.931 323.5,369.5 Z"/></g>
<g><path style="opacity:0.819" fill="#047ff2" d="M 394.5,369.5 C 404.646,368.293 408.813,372.627 407,382.5C 404.549,388.089 400.383,389.922 394.5,388C 388.975,385.081 387.142,380.581 389,374.5C 390.352,372.251 392.185,370.584 394.5,369.5 Z"/></g>
<g><path style="opacity:0.816" fill="#047ff2" d="M 464.5,369.5 C 474.543,368.378 479.043,372.712 478,382.5C 473.97,388.76 468.637,390.093 462,386.5C 458.027,379.916 458.86,374.25 464.5,369.5 Z"/></g>
<g><path style="opacity:0.974" fill="#047ff2" d="M 0.5,387.5 C 65.5,387.5 130.5,387.5 195.5,387.5C 195.5,399.5 195.5,411.5 195.5,423.5C 136.832,423.667 78.1657,423.5 19.5,423C 2.63347,417.114 -3.69986,405.28 0.5,387.5 Z"/></g>
<g><path style="opacity:0.838" fill="#047ff2" d="M 252.5,457.5 C 262.94,457.115 267.107,462.115 265,472.5C 259.333,477.833 253.667,477.833 248,472.5C 246.254,466.342 247.754,461.342 252.5,457.5 Z"/></g>
<g><path style="opacity:0.823" fill="#047ff2" d="M 323.5,457.5 C 333.428,456.931 337.595,461.598 336,471.5C 333.103,476.155 328.937,477.655 323.5,476C 317.666,473.145 316,468.645 318.5,462.5C 320.401,460.994 322.068,459.327 323.5,457.5 Z"/></g>
<g><path style="opacity:0.815" fill="#047ff2" d="M 393.5,457.5 C 405.814,456.979 409.814,462.479 405.5,474C 400.208,477.434 395.041,477.267 390,473.5C 387.276,467.266 388.442,461.932 393.5,457.5 Z"/></g>
<g><path style="opacity:0.826" fill="#047ff2" d="M 464.5,457.5 C 467.187,457.336 469.854,457.503 472.5,458C 479.584,463 480.251,468.667 474.5,475C 463.431,478.891 458.598,475.058 460,463.5C 461.332,461.34 462.832,459.34 464.5,457.5 Z"/></g>
</svg>
