<?xml version="1.0" encoding="UTF-8"?>
<!DOCTYPE svg PUBLIC "-//W3C//DTD SVG 1.1//EN" "http://www.w3.org/Graphics/SVG/1.1/DTD/svg11.dtd">
<svg xmlns="http://www.w3.org/2000/svg" version="1.1" width="512px" height="512px" style="shape-rendering:geometricPrecision; text-rendering:geometricPrecision; image-rendering:optimizeQuality; fill-rule:evenodd; clip-rule:evenodd" xmlns:xlink="http://www.w3.org/1999/xlink">
<g><path style="opacity:0.939" fill="#047ff2" d="M 124.5,0.5 C 163.167,0.5 201.833,0.5 240.5,0.5C 240.649,1.55198 240.483,2.55198 240,3.5C 220.494,36.508 201.494,69.8413 183,103.5C 179.965,101.121 177.631,98.1212 176,94.5C 159.506,64.1754 142.506,34.1754 125,4.5C 124.51,3.20677 124.343,1.87344 124.5,0.5 Z"/></g>
<g><path style="opacity:0.962" fill="#047ff2" d="M 389.5,0.5 C 401.108,1.47146 411.108,5.97146 419.5,14C 441.776,36.6923 458.943,62.859 471,92.5C 494.191,146.451 507.191,202.785 510,261.5C 510.667,297.833 510.667,334.167 510,370.5C 502.274,404.226 481.441,424.393 447.5,431C 410.5,431.667 373.5,431.667 336.5,431C 309.198,426.431 289.698,411.598 278,386.5C 275.928,380.952 274.262,375.285 273,369.5C 266.677,290.743 274.344,213.41 296,137.5C 307.556,101.06 323.889,67.0599 345,35.5C 353.541,23.9588 363.707,14.1254 375.5,6C 380.159,3.84209 384.825,2.00876 389.5,0.5 Z M 388.5,30.5 C 394.086,29.2711 397.919,31.2711 400,36.5C 400.667,46.8333 400.667,57.1667 400,67.5C 399.015,71.6661 396.348,73.6661 392,73.5C 388.726,73.6994 386.393,72.3661 385,69.5C 384.333,57.8333 384.333,46.1667 385,34.5C 386.376,33.2949 387.542,31.9616 388.5,30.5 Z M 342.5,76.5 C 345.187,76.3359 347.854,76.5026 350.5,77C 360.333,86.8333 370.167,96.6667 380,106.5C 382.587,111.413 381.753,115.58 377.5,119C 374.366,119.79 371.366,119.457 368.5,118C 359,108.5 349.5,99 340,89.5C 337.458,84.4379 338.292,80.1046 342.5,76.5 Z M 433.5,76.5 C 443.503,75.6654 447.003,79.9987 444,89.5C 434.5,99 425,108.5 415.5,118C 410.587,120.587 406.42,119.753 403,115.5C 402.21,112.366 402.543,109.366 404,106.5C 414.036,96.6317 423.869,86.6317 433.5,76.5 Z M 324.5,140.5 C 326.857,140.337 329.19,140.503 331.5,141C 343.414,146.86 355.414,152.526 367.5,158C 373.679,162.592 374.012,167.592 368.5,173C 366.167,173.667 363.833,173.667 361.5,173C 348.623,166.394 335.623,160.061 322.5,154C 319.403,148.842 320.07,144.342 324.5,140.5 Z M 452.5,140.5 C 458.679,139.252 462.679,141.585 464.5,147.5C 464.02,149.949 463.02,152.115 461.5,154C 448.316,160.093 435.316,166.426 422.5,173C 414.878,174.378 411.378,171.211 412,163.5C 412.785,161.714 413.951,160.214 415.5,159C 427.981,152.91 440.314,146.743 452.5,140.5 Z M 306.5,194.5 C 309.941,194.301 313.274,194.801 316.5,196C 331.006,202.391 345.672,208.391 360.5,214C 364.926,219.441 364.259,224.108 358.5,228C 356.167,228.667 353.833,228.667 351.5,228C 336.247,221.471 320.914,215.138 305.5,209C 300.195,203.737 300.528,198.904 306.5,194.5 Z M 469.5,194.5 C 473.839,193.846 477.673,194.846 481,197.5C 483.367,201.999 482.533,205.832 478.5,209C 462.938,214.781 447.605,221.114 432.5,228C 425.511,230.166 421.511,227.666 420.5,220.5C 420.556,217.889 421.556,215.722 423.5,214C 439.269,208.275 454.603,201.775 469.5,194.5 Z M 299.5,257.5 C 318.503,257.333 337.503,257.5 356.5,258C 363.692,260.624 365.359,265.291 361.5,272C 359.913,272.862 358.246,273.529 356.5,274C 337.5,274.667 318.5,274.667 299.5,274C 293.158,271.817 291.325,267.65 294,261.5C 295.5,259.531 297.333,258.198 299.5,257.5 Z M 427.5,257.5 C 446.17,257.333 464.836,257.5 483.5,258C 490.567,259.634 492.733,263.8 490,270.5C 488.681,272.487 486.848,273.654 484.5,274C 465.5,274.667 446.5,274.667 427.5,274C 421.046,271.991 419.212,267.825 422,261.5C 423.5,259.531 425.333,258.198 427.5,257.5 Z M 391.5,294.5 C 399.187,295.876 401.687,300.209 399,307.5C 394.937,312.199 390.604,312.532 386,308.5C 382.584,301.427 384.417,296.761 391.5,294.5 Z M 361.5,331.5 C 369.656,330.821 373.156,334.488 372,342.5C 368.987,347.535 364.82,348.702 359.5,346C 355.284,340.394 355.95,335.561 361.5,331.5 Z M 415.5,331.5 C 422.304,330.221 426.304,332.888 427.5,339.5C 427.167,344.5 424.5,347.167 419.5,347.5C 414.28,347.113 411.613,344.279 411.5,339C 411.927,335.977 413.261,333.477 415.5,331.5 Z M 334.5,367.5 C 341.985,367.483 345.485,371.15 345,378.5C 342.565,383.224 338.731,384.724 333.5,383C 329.788,380.487 328.622,376.987 330,372.5C 331.025,370.313 332.525,368.646 334.5,367.5 Z M 389.5,367.5 C 398.337,367.824 401.503,372.157 399,380.5C 395.662,383.318 391.829,384.151 387.5,383C 383.083,377.087 383.75,371.921 389.5,367.5 Z M 444.5,367.5 C 453.357,367.841 456.524,372.174 454,380.5C 449.263,384.432 444.596,384.432 440,380.5C 438.377,374.866 439.877,370.533 444.5,367.5 Z"/></g>
<g><path style="opacity:0.893" fill="#047ff2" d="M 108.5,10.5 C 109.794,11.2899 110.961,12.2899 112,13.5C 127.01,40.2434 142.344,67.2434 158,94.5C 158.591,95.4835 158.257,96.1501 157,96.5C 132.852,82.7592 108.852,68.7592 85,54.5C 85.3737,51.725 86.3737,49.0583 88,46.5C 94.689,34.3372 101.522,22.3372 108.5,10.5 Z"/></g>
<g><path style="opacity:0.886" fill="#047ff2" d="M 253.5,10.5 C 255.017,10.5106 256.184,11.1772 257,12.5C 263.414,24.3295 270.08,35.9962 277,47.5C 278.59,49.6498 279.257,51.9832 279,54.5C 254.835,68.5816 230.835,82.915 207,97.5C 206.308,96.9747 205.808,96.3081 205.5,95.5C 221.777,67.2742 237.777,38.9409 253.5,10.5 Z"/></g>
<g><path style="opacity:0.97" fill="#047ff2" d="M -0.5,81.5 C -0.5,79.8333 -0.5,78.1667 -0.5,76.5C 27.1208,58.6827 54.4541,40.3494 81.5,21.5C 82.5827,22.365 82.7494,23.365 82,24.5C 77.2314,32.2675 72.8981,40.2675 69,48.5C 67.3117,56.2891 69.4784,62.7891 75.5,68C 108.415,87.0405 141.249,106.207 174,125.5C 174.5,197.166 174.667,268.833 174.5,340.5C 146.165,340.667 117.831,340.5 89.5,340C 86.9664,339.484 84.7998,338.317 83,336.5C 81.6738,273.249 81.0071,209.915 81,146.5C 78.646,140.905 74.4793,139.072 68.5,141C 58.5098,145.912 48.3432,150.412 38,154.5C 37.5,154.167 37,153.833 36.5,153.5C 24.6476,129.126 12.3143,105.126 -0.5,81.5 Z"/></g>
<g><path style="opacity:0.954" fill="#047ff2" d="M 281.5,21.5 C 294.331,29.0834 306.665,37.4167 318.5,46.5C 288.604,99.3885 269.77,156.055 262,216.5C 256.357,257.64 254.191,298.973 255.5,340.5C 233.435,341.149 211.602,340.483 190,338.5C 189.333,267.833 189.333,197.167 190,126.5C 223.799,105.93 257.799,85.5963 292,65.5C 296.756,58.8374 297.423,51.8374 294,44.5C 289.3,37.0989 285.134,29.4322 281.5,21.5 Z"/></g>
<g><path style="opacity:0.948" fill="#047ff2" d="M 486.5,511.5 C 423.5,511.5 360.5,511.5 297.5,511.5C 287.893,505.964 282.56,497.631 281.5,486.5C 258.164,486.667 234.831,486.5 211.5,486C 191.377,482.029 178.544,470.196 173,450.5C 172.605,441.11 170.605,432.11 167,423.5C 162.26,418.379 156.427,415.212 149.5,414C 131.833,413.333 114.167,413.333 96.5,414C 86.6073,415.189 79.7739,420.356 76,429.5C 74.5106,436.079 73.5106,442.746 73,449.5C 67.9707,469.862 55.1374,482.028 34.5,486C 22.8381,486.5 11.1714,486.667 -0.5,486.5C -0.5,479.833 -0.5,473.167 -0.5,466.5C 9.83871,466.666 20.172,466.5 30.5,466C 40.8389,464.664 48.0056,459.164 52,449.5C 53.0943,441.475 54.4276,433.475 56,425.5C 62.2832,408.219 74.4499,397.719 92.5,394C 112.5,393.333 132.5,393.333 152.5,394C 173.137,397.972 185.971,410.138 191,430.5C 189.283,445.408 194.783,456.575 207.5,464C 210.101,464.92 212.768,465.587 215.5,466C 237.497,466.5 259.497,466.667 281.5,466.5C 281.333,451.496 281.5,436.496 282,421.5C 295.132,433.985 310.632,442.151 328.5,446C 349.636,447.125 370.802,447.625 392,447.5C 413.198,447.625 434.364,447.125 455.5,446C 473.368,442.151 488.868,433.985 502,421.5C 502.667,444.833 502.667,468.167 502,491.5C 499.618,500.376 494.451,507.042 486.5,511.5 Z"/></g>
</svg>
