<?xml version="1.0" encoding="UTF-8"?>
<!DOCTYPE svg PUBLIC "-//W3C//DTD SVG 1.1//EN" "http://www.w3.org/Graphics/SVG/1.1/DTD/svg11.dtd">
<svg xmlns="http://www.w3.org/2000/svg" version="1.1" width="512px" height="512px" style="shape-rendering:geometricPrecision; text-rendering:geometricPrecision; image-rendering:optimizeQuality; fill-rule:evenodd; clip-rule:evenodd" xmlns:xlink="http://www.w3.org/1999/xlink">
<g><path style="opacity:0.988" fill="#047ff2" d="M 218.5,-0.5 C 268.833,-0.5 319.167,-0.5 369.5,-0.5C 378.501,4.32385 381.335,11.6572 378,21.5C 376.108,25.0579 373.275,27.5579 369.5,29C 364.511,29.4993 359.511,29.6659 354.5,29.5C 354.167,83.8374 354.5,138.171 355.5,192.5C 408.857,215.855 442.524,255.855 456.5,312.5C 455.833,312.833 455.167,313.167 454.5,313.5C 447.728,311.791 441.061,311.624 434.5,313C 427.277,315.074 420.277,317.741 413.5,321C 410.167,321.667 406.833,321.667 403.5,321C 397.5,318.667 391.5,316.333 385.5,314C 377.5,312 369.5,312 361.5,314C 353.983,317.099 346.316,319.599 338.5,321.5C 327.207,317.458 315.707,314.124 304,311.5C 293.625,312.847 283.791,316.014 274.5,321C 272.833,321.167 271.167,321.333 269.5,321.5C 257.929,317.254 246.095,313.921 234,311.5C 233.5,217.501 233.333,123.501 233.5,29.5C 228.489,29.6659 223.489,29.4993 218.5,29C 208.6,23.6298 206.1,15.7965 211,5.5C 213.114,2.87922 215.614,0.879222 218.5,-0.5 Z M 322.5,254.5 C 336.652,253.151 342.819,259.485 341,273.5C 335.135,283.246 327.301,285.08 317.5,279C 310.906,269.014 312.573,260.848 322.5,254.5 Z"/></g>
<g><path style="opacity:0.992" fill="#047ff2" d="M 61.5,115.5 C 109.168,115.333 156.834,115.5 204.5,116C 214.4,121.37 216.9,129.203 212,139.5C 210.261,141.741 208.094,143.408 205.5,144.5C 204.5,172.492 204.167,200.492 204.5,228.5C 156.833,228.5 109.167,228.5 61.5,228.5C 61.8331,200.492 61.4998,172.492 60.5,144.5C 51.3637,138.914 49.197,131.247 54,121.5C 56.1141,118.879 58.6141,116.879 61.5,115.5 Z"/></g>
<g><path style="opacity:0.988" fill="#047ff2" d="M 144.5,511.5 C 136.5,511.5 128.5,511.5 120.5,511.5C 81.669,501.218 62.0023,475.885 61.5,435.5C 73.5534,435.891 85.5534,435.391 97.5,434C 107.176,428.641 109.343,421.141 104,411.5C 102.269,409.383 100.102,407.883 97.5,407C 85.5534,405.609 73.5534,405.109 61.5,405.5C 61.5,395.5 61.5,385.5 61.5,375.5C 73.5534,375.891 85.5534,375.391 97.5,374C 107.176,368.641 109.343,361.141 104,351.5C 102.269,349.383 100.102,347.883 97.5,347C 85.5534,345.609 73.5534,345.109 61.5,345.5C 61.5,335.5 61.5,325.5 61.5,315.5C 73.5534,315.891 85.5534,315.391 97.5,314C 107.176,308.641 109.343,301.141 104,291.5C 102.269,289.383 100.102,287.883 97.5,287C 85.5534,285.609 73.5534,285.109 61.5,285.5C 61.5,276.5 61.5,267.5 61.5,258.5C 109.167,258.5 156.833,258.5 204.5,258.5C 204.975,324.194 204.475,389.861 203,455.5C 194.66,486.01 175.16,504.677 144.5,511.5 Z"/></g>
<g><path style="opacity:0.983" fill="#047ff2" d="M 312.5,511.5 C 300.167,511.5 287.833,511.5 275.5,511.5C 255.568,508.746 236.568,502.746 218.5,493.5C 226.439,479.851 231.272,465.185 233,449.5C 233.5,413.502 233.667,377.502 233.5,341.5C 241.497,342.824 249.164,345.324 256.5,349C 260.7,349.876 264.867,350.709 269,351.5C 279.375,350.153 289.209,346.986 298.5,342C 301.833,341.333 305.167,341.333 308.5,342C 314.5,344.333 320.5,346.667 326.5,349C 334.5,351 342.5,351 350.5,349C 358.017,345.901 365.684,343.401 373.5,341.5C 384.793,345.542 396.293,348.876 408,351.5C 418.375,350.153 428.209,346.986 437.5,342C 445.098,340.728 452.264,341.895 459,345.5C 457.394,410.235 428.894,459.068 373.5,492C 354.186,502.071 333.853,508.571 312.5,511.5 Z M 278.5,373.5 C 292.652,372.151 298.819,378.485 297,392.5C 291.135,402.246 283.301,404.08 273.5,398C 266.511,388.118 268.177,379.951 278.5,373.5 Z M 333.5,403.5 C 347.652,402.151 353.819,408.485 352,422.5C 346.135,432.246 338.301,434.08 328.5,428C 321.511,418.118 323.177,409.951 333.5,403.5 Z"/></g>
</svg>
