<?xml version="1.0" encoding="UTF-8"?>
<!DOCTYPE svg PUBLIC "-//W3C//DTD SVG 1.1//EN" "http://www.w3.org/Graphics/SVG/1.1/DTD/svg11.dtd">
<svg xmlns="http://www.w3.org/2000/svg" version="1.1" width="512px" height="512px" style="shape-rendering:geometricPrecision; text-rendering:geometricPrecision; image-rendering:optimizeQuality; fill-rule:evenodd; clip-rule:evenodd" xmlns:xlink="http://www.w3.org/1999/xlink">
<g><path style="opacity:0.962" fill="#047ff2" d="M 511.5,499.5 C 511.5,503.5 511.5,507.5 511.5,511.5C 490.833,511.5 470.167,511.5 449.5,511.5C 443.174,464.735 437.841,417.901 433.5,371C 432.259,368.437 430.926,365.937 429.5,363.5C 423.425,360.914 419.258,362.581 417,368.5C 411.344,416.244 405.511,463.91 399.5,511.5C 309.833,511.5 220.167,511.5 130.5,511.5C 124.244,464.371 118.744,417.038 114,369.5C 112.244,363.036 108.077,360.87 101.5,363C 99.5125,364.319 98.3459,366.152 98,368.5C 92.3527,412.324 87.3527,456.324 83,500.5C 81.763,504.019 80.9297,507.685 80.5,511.5C 59.5,511.5 38.5,511.5 17.5,511.5C 26.7314,452.052 35.5648,392.386 44,332.5C 45.1289,325.151 46.9622,317.984 49.5,311C 52.7621,304.978 55.9288,298.811 59,292.5C 62.4866,288.858 65.4866,284.858 68,280.5C 74.1365,273.686 80.9699,267.686 88.5,262.5C 97.0474,258.042 105.714,253.876 114.5,250C 120.737,248.191 127.07,246.857 133.5,246C 163.919,245.985 194.252,245.318 224.5,244C 226.81,242.363 228.31,240.196 229,237.5C 229.5,222.504 229.667,207.504 229.5,192.5C 232.833,192.5 236.167,192.5 239.5,192.5C 239.334,201.839 239.5,211.173 240,220.5C 242.227,227.03 246.393,228.697 252.5,225.5C 253.806,224.088 254.64,222.421 255,220.5C 255.667,210.5 255.667,200.5 255,190.5C 254.234,182.104 249.734,177.27 241.5,176C 228.504,175.5 215.504,175.333 202.5,175.5C 202.5,163.167 202.5,150.833 202.5,138.5C 219.837,138.333 237.17,138.5 254.5,139C 264.333,142.167 270.833,148.667 274,158.5C 274.333,167.5 274.667,176.5 275,185.5C 276.751,188.92 279.418,191.254 283,192.5C 287,191.167 289.667,188.5 291,184.5C 293.874,166.889 290.207,150.889 280,136.5C 272.25,128.57 262.75,124.07 251.5,123C 227.502,122.5 203.502,122.333 179.5,122.5C 184.945,106.997 190.112,91.3306 195,75.5C 210.484,32.1583 241.318,11.9917 287.5,15C 323.751,23.6939 345.918,46.1939 354,82.5C 357.196,110.277 349.029,134.111 329.5,154C 322.513,160.5 314.513,165.5 305.5,169C 304.789,170.255 303.956,171.421 303,172.5C 301.366,194.436 301.033,216.436 302,238.5C 302.86,242.027 305.027,244.193 308.5,245C 338.167,245.333 367.833,245.667 397.5,246C 441.896,254.062 471.063,279.562 485,322.5C 493.992,381.617 502.825,440.617 511.5,499.5 Z M 219.5,148.5 C 227.142,149.936 229.975,154.269 228,161.5C 224.763,165.249 220.93,166.082 216.5,164C 212.956,161.055 212.123,157.555 214,153.5C 215.73,151.598 217.563,149.931 219.5,148.5 Z M 246.5,148.5 C 254.21,150.585 256.543,155.252 253.5,162.5C 246.411,167.128 241.745,165.295 239.5,157C 240.621,153.056 242.954,150.223 246.5,148.5 Z M 281.5,202.5 C 288.78,203.119 292.113,207.119 291.5,214.5C 292.528,221.523 289.694,225.856 283,227.5C 276.264,225.859 273.43,221.526 274.5,214.5C 273.795,208.56 276.128,204.56 281.5,202.5 Z M 245.5,237.5 C 253.343,238.135 256.676,242.469 255.5,250.5C 256.3,256.919 253.633,260.919 247.5,262.5C 241.367,260.919 238.7,256.919 239.5,250.5C 238.846,244.74 240.846,240.407 245.5,237.5 Z M 281.5,237.5 C 286.979,237.482 290.145,240.149 291,245.5C 291.333,262.5 291.667,279.5 292,296.5C 296.817,291.772 302.65,288.939 309.5,288C 320.213,286.502 330.546,287.835 340.5,292C 365.916,304.287 383.416,323.787 393,350.5C 395.456,358.655 396.789,366.989 397,375.5C 397.667,396.167 397.667,416.833 397,437.5C 394.081,459.752 381.581,472.919 359.5,477C 295.29,477.446 266.79,445.613 274,381.5C 271.125,380.196 268.125,379.196 265,378.5C 262.129,379.401 259.296,380.401 256.5,381.5C 255.667,393.486 255.167,405.486 255,417.5C 252.06,444.438 237.894,462.604 212.5,472C 198.663,475.263 184.663,476.93 170.5,477C 154.972,474.161 143.806,465.661 137,451.5C 135.423,445.865 134.09,440.198 133,434.5C 131.281,407.213 132.615,380.213 137,353.5C 146.551,323.274 166.051,302.108 195.5,290C 209.346,285.804 222.679,286.97 235.5,293.5C 236.333,294.5 237.167,295.5 238,296.5C 238.921,289.834 240.088,283.167 241.5,276.5C 247.184,272.046 251.684,273.046 255,279.5C 255.667,301.167 255.667,322.833 255,344.5C 254.606,347.893 252.773,350.06 249.5,351C 240.623,352.706 231.957,355.039 223.5,358C 220.572,361.257 219.738,365.091 221,369.5C 223.134,371.484 225.634,372.818 228.5,373.5C 240.812,369.926 252.979,365.926 265,361.5C 277.143,365.95 289.477,369.95 302,373.5C 311.136,370.46 312.636,365.293 306.5,358C 305.328,357.581 304.328,356.915 303.5,356C 295.125,354.156 286.792,352.156 278.5,350C 276.513,348.681 275.346,346.848 275,344.5C 274.333,311.167 274.333,277.833 275,244.5C 276.018,240.985 278.185,238.652 281.5,237.5 Z M 201.5,317.5 C 206.599,317.175 211.599,317.675 216.5,319C 221.962,324.963 220.962,329.629 213.5,333C 208.411,333.826 203.411,333.492 198.5,332C 196.384,330.829 195.718,329.329 196.5,327.5C 196.023,326.522 195.357,325.689 194.5,325C 196.481,324.395 196.815,323.395 195.5,322C 197.141,319.837 199.141,318.337 201.5,317.5 Z M 316.5,317.5 C 321.998,317.068 327.331,317.735 332.5,319.5C 337.119,325.762 335.786,330.262 328.5,333C 323.311,333.985 318.311,333.485 313.5,331.5C 309.511,325.793 310.511,321.126 316.5,317.5 Z M 175.5,343.5 C 178.099,343.549 180.266,344.549 182,346.5C 185.333,353.167 185.333,359.833 182,366.5C 177.293,370.493 173.293,369.827 170,364.5C 168,359.167 168,353.833 170,348.5C 171.107,345.887 172.94,344.22 175.5,343.5 Z M 352.5,343.5 C 359.549,344.891 362.882,349.225 362.5,356.5C 363.071,363.09 360.238,367.423 354,369.5C 347.846,367.486 345.012,363.152 345.5,356.5C 345.023,350.442 347.356,346.108 352.5,343.5 Z M 342.5,379.5 C 353.607,379.273 360.274,384.606 362.5,395.5C 359.033,411.733 349.7,416.566 334.5,410C 326.849,402.444 326.016,394.278 332,385.5C 335.069,382.554 338.569,380.554 342.5,379.5 Z M 166.5,388.5 C 172.105,387.908 177.439,388.741 182.5,391C 185.901,400.343 182.568,404.843 172.5,404.5C 165.427,405.562 161.094,402.729 159.5,396C 160.363,391.975 162.696,389.475 166.5,388.5 Z M 201.5,405.5 C 215.914,407.348 221.748,415.348 219,429.5C 212.131,439.426 203.297,441.592 192.5,436C 186.05,428.753 185.216,420.92 190,412.5C 193.153,408.837 196.986,406.504 201.5,405.5 Z M 325.5,423.5 C 328.311,423.826 330.978,424.659 333.5,426C 336.297,429.799 339.464,433.299 343,436.5C 345.332,442.831 343.166,446.831 336.5,448.5C 334.803,448.101 333.137,447.601 331.5,447C 327.289,443.279 323.289,439.279 319.5,435C 320.458,433.853 320.125,432.853 318.5,432C 320.038,430.068 321.205,427.901 322,425.5C 323.302,424.915 324.469,424.249 325.5,423.5 Z"/></g>
<g><path style="opacity:0.855" fill="#047ff2" d="M 6.5,45.5 C 14.4056,45.8692 21.2389,48.8692 27,54.5C 29.232,59.978 28.0653,64.6446 23.5,68.5C 20.562,69.5748 17.562,69.7415 14.5,69C 10.752,66.3756 6.91869,63.8756 3,61.5C 0.275721,55.2657 1.44239,49.9324 6.5,45.5 Z"/></g>
<g><path style="opacity:0.854" fill="#047ff2" d="M 44.5,68.5 C 52.2362,68.1148 59.0696,70.4481 65,75.5C 68.7539,87.1805 64.5872,92.3472 52.5,91C 46.1889,88.0461 41.5222,83.5461 38.5,77.5C 39.0149,75.7749 39.6816,74.1083 40.5,72.5C 42.188,71.4787 43.5213,70.1454 44.5,68.5 Z"/></g>
<g><path style="opacity:0.891" fill="#047ff2" d="M 83.5,90.5 C 91.1073,90.7932 98.1073,93.1265 104.5,97.5C 118.503,106.504 132.837,115.004 147.5,123C 150.829,127.137 151.329,131.637 149,136.5C 145.879,139.907 142.045,141.073 137.5,140C 120.16,129.328 102.493,119.161 84.5,109.5C 75.6378,103.406 75.3045,97.0725 83.5,90.5 Z"/></g>
<g><path style="opacity:0.872" fill="#047ff2" d="M -0.5,162.5 C -0.5,159.167 -0.5,155.833 -0.5,152.5C 0.836207,150.693 2.50287,149.193 4.5,148C 10.1667,147.333 15.8333,147.333 21.5,148C 26.5918,152.161 27.7585,157.328 25,163.5C 23.7453,164.211 22.5786,165.044 21.5,166C 15.8333,166.667 10.1667,166.667 4.5,166C 2.67694,165.003 1.01027,163.836 -0.5,162.5 Z"/></g>
<g><path style="opacity:0.87" fill="#047ff2" d="M 48.5,147.5 C 54.9522,147.084 61.2855,147.584 67.5,149C 70.393,153.025 71.2263,157.525 70,162.5C 68.786,164.049 67.286,165.215 65.5,166C 59.0559,166.915 52.7226,166.581 46.5,165C 42.1222,158.526 42.7888,152.693 48.5,147.5 Z"/></g>
<g><path style="opacity:0.903" fill="#047ff2" d="M 92.5,147.5 C 110.17,147.333 127.836,147.5 145.5,148C 150.083,151.35 151.583,155.85 150,161.5C 149.167,163.667 147.667,165.167 145.5,166C 128.167,166.667 110.833,166.667 93.5,166C 87.9051,163.646 86.0718,159.479 88,153.5C 88.9793,151.032 90.4793,149.032 92.5,147.5 Z"/></g>
<g><path style="opacity:0.888" fill="#047ff2" d="M 137.5,174.5 C 147.713,173.211 151.88,177.544 150,187.5C 149.028,189.305 147.861,190.972 146.5,192.5C 127.841,202.494 109.507,212.994 91.5,224C 80.2348,225.307 76.0681,220.474 79,209.5C 79.8333,208.667 80.6667,207.833 81.5,207C 100.066,195.887 118.732,185.054 137.5,174.5 Z"/></g>
<g><path style="opacity:0.855" fill="#047ff2" d="M 52.5,223.5 C 65.0621,222.218 69.0621,227.384 64.5,239C 60.6641,241.084 56.9974,243.417 53.5,246C 43.0132,247.513 38.5132,243.013 40,232.5C 43.969,229.111 48.1357,226.111 52.5,223.5 Z"/></g>
<g><path style="opacity:0.863" fill="#047ff2" d="M 14.5,245.5 C 25.3444,244.501 29.5111,249.168 27,259.5C 21.5408,265.818 14.7074,268.651 6.5,268C 3.89806,267.065 2.39806,265.232 2,262.5C 1.29894,259.072 1.63227,255.738 3,252.5C 6.81375,250.016 10.6471,247.682 14.5,245.5 Z"/></g>
<g><path style="opacity:0.916" fill="#047ff2" d="M 206.5,302.5 C 222.359,301.994 233.193,308.661 239,322.5C 239.829,327.533 239.662,332.533 238.5,337.5C 229.864,339.059 221.531,341.559 213.5,345C 210.803,348.358 208.136,351.691 205.5,355C 201.922,366.004 204.589,375.671 213.5,384C 221.398,390.031 229.732,390.864 238.5,386.5C 239.666,398.486 239.833,410.486 239,422.5C 236.092,433.742 229.926,443.242 220.5,451C 218.5,452 216.5,453 214.5,454C 202.091,457.317 189.591,460.15 177,462.5C 167.994,461.163 160.327,457.163 154,450.5C 152.392,447.618 151.059,444.618 150,441.5C 149.055,414.798 149.388,388.131 151,361.5C 159.077,332.002 177.577,312.335 206.5,302.5 Z M 201.5,317.5 C 199.141,318.337 197.141,319.837 195.5,322C 196.815,323.395 196.481,324.395 194.5,325C 195.357,325.689 196.023,326.522 196.5,327.5C 195.718,329.329 196.384,330.829 198.5,332C 203.411,333.492 208.411,333.826 213.5,333C 220.962,329.629 221.962,324.963 216.5,319C 211.599,317.675 206.599,317.175 201.5,317.5 Z M 175.5,343.5 C 172.94,344.22 171.107,345.887 170,348.5C 168,353.833 168,359.167 170,364.5C 173.293,369.827 177.293,370.493 182,366.5C 185.333,359.833 185.333,353.167 182,346.5C 180.266,344.549 178.099,343.549 175.5,343.5 Z M 166.5,388.5 C 162.696,389.475 160.363,391.975 159.5,396C 161.094,402.729 165.427,405.562 172.5,404.5C 182.568,404.843 185.901,400.343 182.5,391C 177.439,388.741 172.105,387.908 166.5,388.5 Z M 201.5,405.5 C 196.986,406.504 193.153,408.837 190,412.5C 185.216,420.92 186.05,428.753 192.5,436C 203.297,441.592 212.131,439.426 219,429.5C 221.748,415.348 215.914,407.348 201.5,405.5 Z"/></g>
<g><path style="opacity:0.926" fill="#047ff2" d="M 313.5,302.5 C 335.785,304.9 353.619,315.234 367,333.5C 373.799,343.446 378.132,354.446 380,366.5C 380.667,391.5 380.667,416.5 380,441.5C 375.81,453.941 367.144,460.941 354,462.5C 342.173,460.094 330.34,457.594 318.5,455C 304.343,448.525 295.51,437.692 292,422.5C 291.167,410.486 291.334,398.486 292.5,386.5C 300.371,390.685 308.038,390.185 315.5,385C 325.706,377.019 328.54,366.853 324,354.5C 321.894,350.396 319.061,346.896 315.5,344C 307.968,341.367 300.301,339.2 292.5,337.5C 289.182,325.284 292.516,315.451 302.5,308C 305.99,305.588 309.657,303.755 313.5,302.5 Z M 316.5,317.5 C 310.511,321.126 309.511,325.793 313.5,331.5C 318.311,333.485 323.311,333.985 328.5,333C 335.786,330.262 337.119,325.762 332.5,319.5C 327.331,317.735 321.998,317.068 316.5,317.5 Z M 352.5,343.5 C 347.356,346.108 345.023,350.442 345.5,356.5C 345.012,363.152 347.846,367.486 354,369.5C 360.238,367.423 363.071,363.09 362.5,356.5C 362.882,349.225 359.549,344.891 352.5,343.5 Z M 342.5,379.5 C 338.569,380.554 335.069,382.554 332,385.5C 326.016,394.278 326.849,402.444 334.5,410C 349.7,416.566 359.033,411.733 362.5,395.5C 360.274,384.606 353.607,379.273 342.5,379.5 Z M 325.5,423.5 C 324.469,424.249 323.302,424.915 322,425.5C 321.205,427.901 320.038,430.068 318.5,432C 320.125,432.853 320.458,433.853 319.5,435C 323.289,439.279 327.289,443.279 331.5,447C 333.137,447.601 334.803,448.101 336.5,448.5C 343.166,446.831 345.332,442.831 343,436.5C 339.464,433.299 336.297,429.799 333.5,426C 330.978,424.659 328.311,423.826 325.5,423.5 Z"/></g>
</svg>
