<?xml version="1.0" encoding="UTF-8"?>
<!DOCTYPE svg PUBLIC "-//W3C//DTD SVG 1.1//EN" "http://www.w3.org/Graphics/SVG/1.1/DTD/svg11.dtd">
<svg xmlns="http://www.w3.org/2000/svg" version="1.1" width="512px" height="512px" style="shape-rendering:geometricPrecision; text-rendering:geometricPrecision; image-rendering:optimizeQuality; fill-rule:evenodd; clip-rule:evenodd" xmlns:xlink="http://www.w3.org/1999/xlink">
<g><path style="opacity:0.978" fill="#047ff2" d="M 236.5,80.5 C 294.837,80.1667 353.17,80.5 411.5,81.5C 426.125,86.2921 435.959,95.9588 441,110.5C 444.009,118.898 446.509,127.398 448.5,136C 456.833,136.333 465.167,136.667 473.5,137C 488.828,139.419 499.662,147.252 506,160.5C 507.36,165.384 508.86,170.217 510.5,175C 510.657,245.669 510.49,316.502 510,387.5C 507.9,390.467 505.066,392.3 501.5,393C 493.784,393.8 486.117,393.633 478.5,392.5C 463.5,371.833 448.5,351.167 433.5,330.5C 443.163,324.19 448.496,315.19 449.5,303.5C 446.963,280.797 434.296,270.297 411.5,272C 405.075,274.046 399.409,277.379 394.5,282C 389.845,282.499 385.179,282.666 380.5,282.5C 380.667,268.496 380.5,254.496 380,240.5C 367.167,223.667 354.333,206.833 341.5,190C 311.228,188.357 280.895,188.023 250.5,189C 249.316,190.18 248.649,191.68 248.5,193.5C 249.604,199.458 250.271,205.458 250.5,211.5C 204.485,203.32 185.485,176.154 193.5,130C 199.625,106.062 213.958,89.5619 236.5,80.5 Z"/></g>
<g><path style="opacity:0.97" fill="#047ff2" d="M 258.5,196.5 C 284.169,196.333 309.835,196.5 335.5,197C 346.95,212.784 358.783,228.284 371,243.5C 371.333,258.5 371.667,273.5 372,288.5C 372.5,289 373,289.5 373.5,290C 382.167,290.667 390.833,290.667 399.5,290C 413.718,276.509 426.551,277.676 438,293.5C 442.733,308.529 437.899,319.029 423.5,325C 406.167,325.333 388.833,325.667 371.5,326C 368.833,328.333 368.833,330.667 371.5,333C 387.204,333.735 402.704,334.568 418,335.5C 420.158,334.549 422.325,334.049 424.5,334C 440.053,354.553 455.22,375.387 470,396.5C 470.667,397.833 470.667,399.167 470,400.5C 466.333,407.167 462.667,413.833 459,420.5C 457.582,425.428 457.249,430.428 458,435.5C 466.369,458.942 474.536,482.442 482.5,506C 449.22,508.165 415.887,509.332 382.5,509.5C 376.347,483.719 369.347,458.219 361.5,433C 359.5,432.333 357.5,432.333 355.5,433C 341.474,441.674 326.474,448.008 310.5,452C 293.601,455.265 277.934,452.265 263.5,443C 260.154,440.988 257.488,438.321 255.5,435C 263.919,428.925 272.086,422.425 280,415.5C 283.333,410.833 286.667,406.167 290,401.5C 290.808,399.421 290.641,397.421 289.5,395.5C 284.905,392.466 279.905,390.299 274.5,389C 260.667,385.042 246.667,381.709 232.5,379C 231.484,378.481 230.818,377.647 230.5,376.5C 233.611,368.119 236.277,359.619 238.5,351C 231.324,342.327 223.991,333.827 216.5,325.5C 243.572,297.298 258.239,263.631 260.5,224.5C 260.13,215.545 259.13,206.711 257.5,198C 258.056,197.617 258.389,197.117 258.5,196.5 Z"/></g>
<g><path style="opacity:0.896" fill="#047ff2" d="M 37.5,278.5 C 41.8027,277.796 45.3027,279.13 48,282.5C 51.9201,291.165 53.7534,300.165 53.5,309.5C 39.2188,318.889 24.7188,327.889 10,336.5C 8.36616,328.128 6.19949,319.961 3.5,312C 1.99338,308.721 1.32671,304.887 1.5,300.5C 4.22335,299.648 6.89002,298.481 9.5,297C 19.0095,290.97 28.3428,284.804 37.5,278.5 Z"/></g>
<g><path style="opacity:0.941" fill="#047ff2" d="M 63.5,318.5 C 70.1698,318.417 75.3365,321.084 79,326.5C 84.6371,345.383 89.8038,364.383 94.5,383.5C 72.4257,389.185 50.4257,395.185 28.5,401.5C 22.5713,384.117 17.7379,366.45 14,348.5C 30.2238,337.816 46.7238,327.816 63.5,318.5 Z"/></g>
<g><path style="opacity:0.809" fill="#047ff2" d="M 216.5,377.5 C 222.236,378.989 225.069,382.655 225,388.5C 220.333,396.5 215.667,404.5 211,412.5C 205.305,416.719 200.638,415.719 197,409.5C 196.333,407.833 196.333,406.167 197,404.5C 201.587,396.996 205.92,389.329 210,381.5C 212.013,379.752 214.18,378.418 216.5,377.5 Z"/></g>
<g><path style="opacity:0.942" fill="#047ff2" d="M 94.5,392.5 C 95.8221,392.33 96.9887,392.663 98,393.5C 100.037,402.65 102.537,411.65 105.5,420.5C 107.239,422.741 109.406,424.408 112,425.5C 116.659,444.945 121.493,464.278 126.5,483.5C 111.038,487.949 95.3709,491.615 79.5,494.5C 62.1455,493.65 50.6455,484.984 45,468.5C 39.0651,449.094 34.2317,429.427 30.5,409.5C 52.1714,404.75 73.5048,399.084 94.5,392.5 Z"/></g>
<g><path style="opacity:0.893" fill="#047ff2" d="M 186.5,413.5 C 187.833,413.5 189.167,413.5 190.5,413.5C 193.376,426.67 196.709,439.67 200.5,452.5C 198.531,455.011 195.864,456.511 192.5,457C 184.856,458.995 177.189,460.828 169.5,462.5C 166.161,448.492 162.827,434.492 159.5,420.5C 168.774,418.785 177.774,416.452 186.5,413.5 Z"/></g>
<g><path style="opacity:0.836" fill="#047ff2" d="M 231.5,415.5 C 241.336,418.004 243.002,423.17 236.5,431C 227.614,433.638 218.614,435.805 209.5,437.5C 201.433,436.438 199.1,432.272 202.5,425C 205.167,423.667 207.833,422.333 210.5,421C 217.741,419.608 224.741,417.774 231.5,415.5 Z"/></g>
<g><path style="opacity:0.881" fill="#047ff2" d="M 143.5,416.5 C 145.167,416.5 146.833,416.5 148.5,416.5C 153.653,435.446 158.653,454.446 163.5,473.5C 154.996,475.417 146.496,477.417 138,479.5C 136.893,479.415 135.893,479.081 135,478.5C 130.241,460.629 125.408,442.795 120.5,425C 121.535,423.726 122.702,422.56 124,421.5C 124.333,421.833 124.667,422.167 125,422.5C 131.174,420.254 137.341,418.254 143.5,416.5 Z"/></g>
<g><path style="opacity:0.829" fill="#047ff2" d="M 214.5,443.5 C 216.199,443.34 217.866,443.506 219.5,444C 227.329,448.08 234.996,452.413 242.5,457C 246.771,462.078 246.437,466.745 241.5,471C 239.167,471.667 236.833,471.667 234.5,471C 226.833,466.667 219.167,462.333 211.5,458C 207.049,452.09 208.049,447.257 214.5,443.5 Z"/></g>
</svg>
