<?xml version="1.0" encoding="UTF-8"?>
<!DOCTYPE svg PUBLIC "-//W3C//DTD SVG 1.1//EN" "http://www.w3.org/Graphics/SVG/1.1/DTD/svg11.dtd">
<svg xmlns="http://www.w3.org/2000/svg" version="1.1" width="512px" height="512px" style="shape-rendering:geometricPrecision; text-rendering:geometricPrecision; image-rendering:optimizeQuality; fill-rule:evenodd; clip-rule:evenodd" xmlns:xlink="http://www.w3.org/1999/xlink">
<g><path style="opacity:0.96" fill="#047ff2" d="M 198.5,-0.5 C 206.167,-0.5 213.833,-0.5 221.5,-0.5C 224.236,1.8579 225.07,4.8579 224,8.5C 212.886,65.0716 200.886,121.405 188,177.5C 187.097,178.701 185.931,179.535 184.5,180C 176.833,180.667 169.167,180.667 161.5,180C 159.167,178.667 158.167,176.667 158.5,174C 169.95,117.082 181.784,60.2487 194,3.5C 195.397,1.92975 196.897,0.596413 198.5,-0.5 Z"/></g>
<g><path style="opacity:0.961" fill="#047ff2" d="M 349.5,-0.5 C 357.5,-0.5 365.5,-0.5 373.5,-0.5C 376.623,2.07624 378.457,5.40957 379,9.5C 389.872,62.8609 400.872,116.194 412,169.5C 413.212,179.924 408.545,183.59 398,180.5C 394.167,180.333 390.333,180.167 386.5,180C 383.337,178.52 381.504,176.02 381,172.5C 369.436,116.847 357.936,61.1805 346.5,5.5C 346.984,3.19917 347.984,1.19917 349.5,-0.5 Z"/></g>
<g><path style="opacity:0.959" fill="#047ff2" d="M 274.5,14.5 C 282.174,14.3336 289.841,14.5003 297.5,15C 298.333,15.8333 299.167,16.6667 300,17.5C 301.616,32.0982 301.949,46.7649 301,61.5C 300.602,64.2317 299.102,66.065 296.5,67C 289.167,67.6667 281.833,67.6667 274.5,67C 272.667,66.5 271.5,65.3333 271,63.5C 270.333,48.5 270.333,33.5 271,18.5C 271.69,16.6498 272.856,15.3164 274.5,14.5 Z"/></g>
<g><path style="opacity:0.957" fill="#047ff2" d="M 274.5,104.5 C 281.841,104.334 289.174,104.5 296.5,105C 298.815,106.109 300.315,107.943 301,110.5C 301.667,126.833 301.667,143.167 301,159.5C 300.315,162.057 298.815,163.891 296.5,165C 289.167,165.667 281.833,165.667 274.5,165C 273,164.167 271.833,163 271,161.5C 270.333,143.833 270.333,126.167 271,108.5C 272.376,107.295 273.542,105.962 274.5,104.5 Z"/></g>
<g><path style="opacity:0.98" fill="#047ff2" d="M 511.5,347.5 C 511.5,381.5 511.5,415.5 511.5,449.5C 509.181,454.64 505.181,457.806 499.5,459C 485.837,459.5 472.171,459.667 458.5,459.5C 454.895,418.062 432.395,395.395 391,391.5C 349.61,395.39 327.11,418.057 323.5,459.5C 270.5,459.5 217.5,459.5 164.5,459.5C 162.45,424.904 144.783,402.738 111.5,393C 76.0792,387.958 50.5792,401.458 35,433.5C 31.759,441.871 30.259,450.537 30.5,459.5C 24.1579,459.666 17.8246,459.5 11.5,459C 5.81949,457.806 1.81949,454.64 -0.5,449.5C -0.5,420.5 -0.5,391.5 -0.5,362.5C 2.30945,357.412 6.64278,354.245 12.5,353C 42.892,348.825 73.2254,344.325 103.5,339.5C 128.312,309.52 153.312,279.687 178.5,250C 180.087,249.138 181.754,248.471 183.5,248C 249.167,247.333 314.833,247.333 380.5,248C 383.249,249.123 385.749,250.623 388,252.5C 406.709,280.753 425.543,308.919 444.5,337C 462.5,337.333 480.5,337.667 498.5,338C 504.714,338.758 509.047,341.924 511.5,347.5 Z M 195.5,278.5 C 252.834,278.333 310.168,278.5 367.5,279C 380.748,298.161 393.748,317.494 406.5,337C 319.833,337.667 233.167,337.667 146.5,337C 162.722,317.377 179.056,297.877 195.5,278.5 Z"/></g>
<g><path style="opacity:0.962" fill="#047ff2" d="M 107.5,511.5 C 100.5,511.5 93.5,511.5 86.5,511.5C 56.2013,502.008 42.368,481.342 45,449.5C 51.3956,421.962 68.7289,407.295 97,405.5C 125.71,407.547 143.377,422.547 150,450.5C 151.978,482.319 137.812,502.652 107.5,511.5 Z M 94.5,436.5 C 111.161,437.324 119.328,445.991 119,462.5C 115,476.259 105.833,482.092 91.5,480C 79.2421,475.391 74.0754,466.558 76,453.5C 79.2151,444.445 85.3817,438.778 94.5,436.5 Z"/></g>
<g><path style="opacity:0.962" fill="#047ff2" d="M 401.5,511.5 C 394.5,511.5 387.5,511.5 380.5,511.5C 354.278,503.957 339.944,486.457 337.5,459C 340.688,426.479 358.521,408.646 391,405.5C 423.479,408.646 441.313,426.479 444.5,459C 442.068,486.418 427.734,503.918 401.5,511.5 Z M 387.5,436.5 C 402.521,436.342 411.188,443.675 413.5,458.5C 409.061,478.386 397.395,484.552 378.5,477C 365.06,464.243 365.394,451.909 379.5,440C 382.158,438.522 384.825,437.355 387.5,436.5 Z"/></g>
</svg>
