<?xml version="1.0" encoding="UTF-8"?>
<!DOCTYPE svg PUBLIC "-//W3C//DTD SVG 1.1//EN" "http://www.w3.org/Graphics/SVG/1.1/DTD/svg11.dtd">
<svg xmlns="http://www.w3.org/2000/svg" version="1.1" width="512px" height="512px" style="shape-rendering:geometricPrecision; text-rendering:geometricPrecision; image-rendering:optimizeQuality; fill-rule:evenodd; clip-rule:evenodd" xmlns:xlink="http://www.w3.org/1999/xlink">
<g><path style="opacity:0.866" fill="#047ff2" d="M 248.5,9.5 C 259.032,7.55687 266.865,11.2235 272,20.5C 272.497,22.8098 272.663,25.1432 272.5,27.5C 260.833,27.5 249.167,27.5 237.5,27.5C 237.089,23.5371 237.922,19.8705 240,16.5C 242.628,13.7895 245.461,11.4562 248.5,9.5 Z"/></g>
<g><path style="opacity:0.912" fill="#047ff2" d="M 237.5,43.5 C 249.167,43.5 260.833,43.5 272.5,43.5C 272.5,49.5 272.5,55.5 272.5,61.5C 260.833,61.5 249.167,61.5 237.5,61.5C 237.5,55.5 237.5,49.5 237.5,43.5 Z"/></g>
<g><path style="opacity:0.911" fill="#047ff2" d="M 237.5,77.5 C 249.167,77.5 260.833,77.5 272.5,77.5C 272.5,83.5 272.5,89.5 272.5,95.5C 260.833,95.5 249.167,95.5 237.5,95.5C 237.5,89.5 237.5,83.5 237.5,77.5 Z"/></g>
<g><path style="opacity:0.961" fill="#047ff2" d="M 237.5,110.5 C 249.167,110.5 260.833,110.5 272.5,110.5C 272.333,133.836 272.5,157.169 273,180.5C 281.766,191.269 291.266,201.436 301.5,211C 306.915,213.419 310.748,211.919 313,206.5C 313.079,196.76 313.745,187.093 315,177.5C 319.191,169.842 325.358,164.675 333.5,162C 347.163,161.5 360.829,161.333 374.5,161.5C 374.5,170.5 374.5,179.5 374.5,188.5C 367.079,188.109 359.746,188.609 352.5,190C 346.411,198.844 340.078,207.511 333.5,216C 337.756,219.045 341.923,222.212 346,225.5C 350.833,218.667 355.667,211.833 360.5,205C 365.155,204.501 369.821,204.334 374.5,204.5C 373.775,210.275 374.941,215.608 378,220.5C 388.511,233.539 399.011,246.539 409.5,259.5C 413.02,255.823 417.02,252.657 421.5,250C 418.618,246.407 415.618,242.907 412.5,239.5C 424.82,238.334 437.153,238.167 449.5,239C 456.076,243.873 462.91,248.373 470,252.5C 472.467,248.4 475.301,244.566 478.5,241C 470.851,234.842 462.851,229.175 454.5,224C 449.934,222.691 445.267,222.191 440.5,222.5C 440.5,213.833 440.5,205.167 440.5,196.5C 435.167,196.5 429.833,196.5 424.5,196.5C 424.5,205.167 424.5,213.833 424.5,222.5C 415.827,222.666 407.16,222.5 398.5,222C 396.388,218.222 393.888,214.722 391,211.5C 390.5,194.837 390.333,178.17 390.5,161.5C 432.451,162.886 464.618,181.22 487,216.5C 492.534,227.775 496.868,239.442 500,251.5C 501.646,328.473 501.979,405.473 501,482.5C 498.261,491.573 492.427,497.74 483.5,501C 458.833,501.667 434.167,501.667 409.5,501C 361.638,492.104 330.638,464.771 316.5,419C 315.538,414.524 314.705,410.024 314,405.5C 313.667,364.833 313.333,324.167 313,283.5C 312.647,275.804 310.313,268.804 306,262.5C 295.142,250.642 283.975,239.142 272.5,228C 261.421,219.752 250.088,219.418 238.5,227C 226.692,238.476 215.192,250.309 204,262.5C 199.687,268.804 197.353,275.804 197,283.5C 196.967,326.199 196.3,368.866 195,411.5C 184.742,455.419 158.242,484.252 115.5,498C 110.531,499.159 105.531,500.159 100.5,501C 75.8333,501.667 51.1667,501.667 26.5,501C 18.705,498.203 13.205,493.036 10,485.5C 9.33333,407.5 9.33333,329.5 10,251.5C 20.1524,207.679 46.6524,178.846 89.5,165C 99.3311,162.381 109.331,161.215 119.5,161.5C 119.667,178.17 119.5,194.837 119,211.5C 116.132,214.736 113.632,218.236 111.5,222C 102.506,222.5 93.5062,222.666 84.5,222.5C 84.1834,213.915 84.5168,205.415 85.5,197C 79.8333,196.333 74.1667,196.333 68.5,197C 69.4832,205.415 69.8166,213.915 69.5,222.5C 64.7325,222.191 60.0658,222.691 55.5,224C 47.1488,229.175 39.1488,234.842 31.5,241C 34.6993,244.566 37.5326,248.4 40,252.5C 47.0903,248.373 53.9236,243.873 60.5,239C 72.8468,238.167 85.1802,238.334 97.5,239.5C 94.3128,242.853 91.3128,246.353 88.5,250C 92.9659,252.472 96.7992,255.638 100,259.5C 110.906,246.684 121.572,233.684 132,220.5C 135.059,215.608 136.225,210.275 135.5,204.5C 140.179,204.334 144.845,204.501 149.5,205C 154.333,211.833 159.167,218.667 164,225.5C 168.077,222.212 172.244,219.045 176.5,216C 169.922,207.511 163.589,198.844 157.5,190C 150.254,188.609 142.921,188.109 135.5,188.5C 135.5,179.5 135.5,170.5 135.5,161.5C 149.171,161.333 162.837,161.5 176.5,162C 184.642,164.675 190.809,169.842 195,177.5C 196.255,187.093 196.921,196.76 197,206.5C 199.252,211.919 203.085,213.419 208.5,211C 218.734,201.436 228.234,191.269 237,180.5C 237.5,157.169 237.667,133.836 237.5,110.5 Z M 68.5,265.5 C 73.9846,264.348 79.6513,264.182 85.5,265C 84.1667,270 84.1667,275 85.5,280C 79.8333,280.667 74.1667,280.667 68.5,280C 69.8236,275.067 69.8236,270.234 68.5,265.5 Z M 128.5,264.5 C 133.833,264.5 139.167,264.5 144.5,264.5C 144.5,269.833 144.5,275.167 144.5,280.5C 139.167,280.5 133.833,280.5 128.5,280.5C 128.5,275.167 128.5,269.833 128.5,264.5 Z M 365.5,264.5 C 370.833,264.5 376.167,264.5 381.5,264.5C 381.5,269.833 381.5,275.167 381.5,280.5C 376.167,280.5 370.833,280.5 365.5,280.5C 365.5,275.167 365.5,269.833 365.5,264.5 Z M 424.5,264.5 C 429.833,264.5 435.167,264.5 440.5,264.5C 440.5,269.833 440.5,275.167 440.5,280.5C 435.167,280.5 429.833,280.5 424.5,280.5C 424.5,275.167 424.5,269.833 424.5,264.5 Z M 35.5,298.5 C 40.8333,298.5 46.1667,298.5 51.5,298.5C 51.5,303.833 51.5,309.167 51.5,314.5C 46.1667,314.5 40.8333,314.5 35.5,314.5C 35.5,309.167 35.5,303.833 35.5,298.5 Z M 102.5,298.5 C 107.833,298.5 113.167,298.5 118.5,298.5C 118.5,303.833 118.5,309.167 118.5,314.5C 113.167,314.5 107.833,314.5 102.5,314.5C 102.5,309.167 102.5,303.833 102.5,298.5 Z M 153.5,298.5 C 158.833,298.5 164.167,298.5 169.5,298.5C 169.5,303.833 169.5,309.167 169.5,314.5C 164.167,314.5 158.833,314.5 153.5,314.5C 153.5,309.167 153.5,303.833 153.5,298.5 Z M 340.5,298.5 C 345.833,298.5 351.167,298.5 356.5,298.5C 356.5,303.833 356.5,309.167 356.5,314.5C 351.167,314.5 345.833,314.5 340.5,314.5C 340.5,309.167 340.5,303.833 340.5,298.5 Z M 390.5,299.5 C 395.985,298.348 401.651,298.182 407.5,299C 406.167,304 406.167,309 407.5,314C 401.833,314.667 396.167,314.667 390.5,314C 391.824,309.067 391.824,304.234 390.5,299.5 Z M 458.5,298.5 C 463.833,298.5 469.167,298.5 474.5,298.5C 474.5,303.833 474.5,309.167 474.5,314.5C 469.167,314.5 463.833,314.5 458.5,314.5C 458.5,309.167 458.5,303.833 458.5,298.5 Z M 68.5,316.5 C 73.9846,315.348 79.6513,315.182 85.5,316C 84.1667,321 84.1667,326 85.5,331C 79.8333,331.667 74.1667,331.667 68.5,331C 69.8236,326.067 69.8236,321.234 68.5,316.5 Z M 424.5,315.5 C 429.833,315.5 435.167,315.5 440.5,315.5C 440.5,320.833 440.5,326.167 440.5,331.5C 435.167,331.5 429.833,331.5 424.5,331.5C 424.5,326.167 424.5,320.833 424.5,315.5 Z M 136.5,332.5 C 141.833,332.5 147.167,332.5 152.5,332.5C 152.5,337.833 152.5,343.167 152.5,348.5C 147.167,348.5 141.833,348.5 136.5,348.5C 136.5,343.167 136.5,337.833 136.5,332.5 Z M 357.5,332.5 C 362.833,332.5 368.167,332.5 373.5,332.5C 373.5,337.833 373.5,343.167 373.5,348.5C 368.167,348.5 362.833,348.5 357.5,348.5C 357.5,343.167 357.5,337.833 357.5,332.5 Z M 35.5,349.5 C 40.8333,349.5 46.1667,349.5 51.5,349.5C 51.5,354.833 51.5,360.167 51.5,365.5C 46.1667,365.5 40.8333,365.5 35.5,365.5C 35.5,360.167 35.5,354.833 35.5,349.5 Z M 102.5,349.5 C 107.833,349.5 113.167,349.5 118.5,349.5C 118.5,354.833 118.5,360.167 118.5,365.5C 113.167,365.5 107.833,365.5 102.5,365.5C 102.5,360.167 102.5,354.833 102.5,349.5 Z M 391.5,349.5 C 396.844,349.334 402.177,349.501 407.5,350C 406.167,355 406.167,360 407.5,365C 401.833,365.667 396.167,365.667 390.5,365C 391.471,359.928 391.805,354.762 391.5,349.5 Z M 458.5,349.5 C 463.833,349.5 469.167,349.5 474.5,349.5C 474.5,354.833 474.5,360.167 474.5,365.5C 469.167,365.5 463.833,365.5 458.5,365.5C 458.5,360.167 458.5,354.833 458.5,349.5 Z M 162.5,366.5 C 167.833,366.5 173.167,366.5 178.5,366.5C 178.5,371.833 178.5,377.167 178.5,382.5C 173.167,382.5 167.833,382.5 162.5,382.5C 162.5,377.167 162.5,371.833 162.5,366.5 Z M 331.5,366.5 C 336.833,366.5 342.167,366.5 347.5,366.5C 347.5,371.833 347.5,377.167 347.5,382.5C 342.167,382.5 336.833,382.5 331.5,382.5C 331.5,377.167 331.5,371.833 331.5,366.5 Z M 68.5,375.5 C 73.9846,374.348 79.6513,374.182 85.5,375C 84.1667,380 84.1667,385 85.5,390C 79.8333,390.667 74.1667,390.667 68.5,390C 69.8236,385.067 69.8236,380.234 68.5,375.5 Z M 424.5,374.5 C 429.833,374.5 435.167,374.5 440.5,374.5C 440.5,379.833 440.5,385.167 440.5,390.5C 435.167,390.5 429.833,390.5 424.5,390.5C 424.5,385.167 424.5,379.833 424.5,374.5 Z M 116.5,383.5 C 138.707,385.263 147.207,396.93 142,418.5C 134.88,429.973 124.713,434.14 111.5,431C 100.526,427.347 94.8594,419.68 94.5,408C 95.7923,394.216 103.126,386.049 116.5,383.5 Z M 388.5,383.5 C 404.644,383.811 413.644,391.978 415.5,408C 412.277,426.781 401.277,434.448 382.5,431C 367.679,424.264 362.846,413.097 368,397.5C 372.592,389.461 379.426,384.794 388.5,383.5 Z M 35.5,400.5 C 40.8333,400.5 46.1667,400.5 51.5,400.5C 51.5,405.5 51.5,410.5 51.5,415.5C 46.1667,415.5 40.8333,415.5 35.5,415.5C 35.5,410.5 35.5,405.5 35.5,400.5 Z M 162.5,400.5 C 167.833,400.5 173.167,400.5 178.5,400.5C 178.5,405.5 178.5,410.5 178.5,415.5C 173.167,415.5 167.833,415.5 162.5,415.5C 162.5,410.5 162.5,405.5 162.5,400.5 Z M 331.5,400.5 C 336.833,400.5 342.167,400.5 347.5,400.5C 347.5,405.5 347.5,410.5 347.5,415.5C 342.167,415.5 336.833,415.5 331.5,415.5C 331.5,410.5 331.5,405.5 331.5,400.5 Z M 458.5,400.5 C 463.833,400.5 469.167,400.5 474.5,400.5C 474.5,405.5 474.5,410.5 474.5,415.5C 469.167,415.5 463.833,415.5 458.5,415.5C 458.5,410.5 458.5,405.5 458.5,400.5 Z M 50.5,433.5 C 74.3945,438.622 81.2278,452.289 71,474.5C 59.5474,485.321 47.3807,486.154 34.5,477C 25.1232,466.457 24.2899,455.29 32,443.5C 33.5578,441.641 35.3911,440.141 37.5,439C 41.9547,437.029 46.288,435.195 50.5,433.5 Z M 456.5,434.5 C 477.712,436.625 485.879,447.958 481,468.5C 473.445,482.018 462.278,486.184 447.5,481C 433.58,471.757 430.413,459.591 438,444.5C 442.997,438.796 449.163,435.462 456.5,434.5 Z M 136.5,442.5 C 141.833,442.5 147.167,442.5 152.5,442.5C 152.5,447.833 152.5,453.167 152.5,458.5C 147.167,458.5 141.833,458.5 136.5,458.5C 136.5,453.167 136.5,447.833 136.5,442.5 Z M 357.5,442.5 C 362.833,442.5 368.167,442.5 373.5,442.5C 373.5,447.833 373.5,453.167 373.5,458.5C 368.167,458.5 362.833,458.5 357.5,458.5C 357.5,453.167 357.5,447.833 357.5,442.5 Z M 94.5,450.5 C 99.8333,450.5 105.167,450.5 110.5,450.5C 110.5,455.833 110.5,461.167 110.5,466.5C 105.167,466.5 99.8333,466.5 94.5,466.5C 94.5,461.167 94.5,455.833 94.5,450.5 Z M 399.5,450.5 C 404.833,450.5 410.167,450.5 415.5,450.5C 415.5,455.833 415.5,461.167 415.5,466.5C 410.167,466.5 404.833,466.5 399.5,466.5C 399.5,461.167 399.5,455.833 399.5,450.5 Z"/></g>
<g><path style="opacity:0.84" fill="#047ff2" d="M 115.5,399.5 C 125.158,397.993 129.325,401.993 128,411.5C 125.31,416.555 121.144,418.388 115.5,417C 108.842,410.997 108.842,405.164 115.5,399.5 Z"/></g>
<g><path style="opacity:0.837" fill="#047ff2" d="M 386.5,399.5 C 396.158,397.993 400.325,401.993 399,411.5C 396.549,417.089 392.383,418.922 386.5,417C 379.842,410.997 379.842,405.164 386.5,399.5 Z"/></g>
<g><path style="opacity:0.827" fill="#047ff2" d="M 47.5,449.5 C 55.5162,447.828 59.8496,450.994 60.5,459C 59.3085,466.44 54.9752,469.107 47.5,467C 42.9315,464.459 41.4315,460.625 43,455.5C 43.8041,452.854 45.3041,450.854 47.5,449.5 Z"/></g>
<g><path style="opacity:0.832" fill="#047ff2" d="M 454.5,449.5 C 464.059,448.606 468.226,452.94 467,462.5C 464.103,467.155 459.937,468.655 454.5,467C 449.931,464.459 448.431,460.625 450,455.5C 450.804,452.854 452.304,450.854 454.5,449.5 Z"/></g>
</svg>
