<?xml version="1.0" encoding="UTF-8"?>
<!DOCTYPE svg PUBLIC "-//W3C//DTD SVG 1.1//EN" "http://www.w3.org/Graphics/SVG/1.1/DTD/svg11.dtd">
<svg xmlns="http://www.w3.org/2000/svg" version="1.1" width="512px" height="512px" style="shape-rendering:geometricPrecision; text-rendering:geometricPrecision; image-rendering:optimizeQuality; fill-rule:evenodd; clip-rule:evenodd" xmlns:xlink="http://www.w3.org/1999/xlink">
<g><path style="opacity:0.977" fill="#047ff2" d="M 511.5,109.5 C 511.5,112.833 511.5,116.167 511.5,119.5C 510.883,119.611 510.383,119.944 510,120.5C 509.57,135.308 504.736,148.308 495.5,159.5C 493.016,162.244 490.016,164.244 486.5,165.5C 483.842,209.566 467.175,247.066 436.5,278C 446.849,278.168 457.183,278.668 467.5,279.5C 469.937,280.803 472.104,282.47 474,284.5C 475.137,309.133 475.637,333.799 475.5,358.5C 475.498,381.405 475.164,404.238 474.5,427C 484.5,427.333 494.5,427.667 504.5,428C 507.351,429.371 509.685,431.204 511.5,433.5C 511.5,433.833 511.5,434.167 511.5,434.5C 510.167,434.833 510.167,435.167 511.5,435.5C 511.5,437.833 511.5,440.167 511.5,442.5C 510.167,442.833 510.167,443.167 511.5,443.5C 511.5,443.833 511.5,444.167 511.5,444.5C 509.743,445.787 508.076,447.287 506.5,449C 339.167,449.667 171.833,449.667 4.5,449C 2.92409,447.287 1.25742,445.787 -0.5,444.5C -0.5,444.167 -0.5,443.833 -0.5,443.5C 0.833333,443.167 0.833333,442.833 -0.5,442.5C -0.5,440.167 -0.5,437.833 -0.5,435.5C 0.833333,435.167 0.833333,434.833 -0.5,434.5C -0.5,434.167 -0.5,433.833 -0.5,433.5C 1.31532,431.204 3.64865,429.371 6.5,428C 16.828,427.5 27.1613,427.334 37.5,427.5C 37.3333,380.165 37.5,332.832 38,285.5C 40.1793,282.989 42.6793,280.822 45.5,279C 55.5,278.667 65.5,278.333 75.5,278C 44.4466,246.928 27.6132,209.428 25,165.5C 14.9655,159.114 8.2988,150.114 5,138.5C 1.43917,121.085 1.7725,103.752 6,86.5C 9.55449,76.612 15.7212,68.7786 24.5,63C 32.5,61 40.5,61 48.5,63C 59.9569,71.648 66.7902,83.148 69,97.5C 71,108.833 71,120.167 69,131.5C 68.3723,136.326 66.8723,140.826 64.5,145C 192.5,145.667 320.5,145.667 448.5,145C 446.945,143.417 445.778,141.584 445,139.5C 438.535,115.437 441.535,92.7708 454,71.5C 457.883,67.9496 462.049,64.7829 466.5,62C 478.493,58.9651 488.66,61.7984 497,70.5C 505.457,81.2991 509.79,93.6325 510,107.5C 510.278,108.416 510.778,109.082 511.5,109.5 Z M 35.5,83.5 C 37.1703,83.7512 38.6703,84.4178 40,85.5C 48.4575,102.381 49.4575,119.714 43,137.5C 41.3712,140.626 39.2045,143.293 36.5,145.5C 30.8227,141.359 27.656,135.693 27,128.5C 23.9524,113.865 25.6191,99.8646 32,86.5C 33.1451,85.3636 34.3117,84.3636 35.5,83.5 Z M 474.5,83.5 C 478.745,84.5756 481.578,87.2422 483,91.5C 488.964,106.514 488.964,121.514 483,136.5C 481.414,139.919 479.248,142.919 476.5,145.5C 470.127,140.424 466.627,133.757 466,125.5C 463.085,110.174 465.919,96.1737 474.5,83.5 Z M 90.5,292.5 C 100.149,299.141 109.815,305.808 119.5,312.5C 124.419,314.796 129.419,316.796 134.5,318.5C 137.157,310.181 140.657,302.181 145,294.5C 158.607,281.21 172.273,281.21 186,294.5C 187.783,299.059 189.783,303.392 192,307.5C 197.583,298.909 203.583,290.576 210,282.5C 214.765,273.552 218.765,264.219 222,254.5C 233.27,243.201 245.436,242.034 258.5,251C 276.771,269.724 291.438,290.89 302.5,314.5C 306.021,310.124 308.521,305.124 310,299.5C 316.932,285.966 327.765,281.132 342.5,285C 346.615,287.448 350.448,290.281 354,293.5C 358.927,302.022 362.76,311.022 365.5,320.5C 365.833,322.167 366.833,323.167 368.5,323.5C 388.172,314.917 406.339,303.917 423,290.5C 423.667,317.5 423.667,344.5 423,371.5C 421.833,375.333 419.333,377.833 415.5,379C 396.167,379.667 376.833,379.667 357.5,379C 358.398,365.618 356.731,352.451 352.5,339.5C 348.8,327.725 344.134,316.392 338.5,305.5C 336.641,302.883 334.308,302.216 331.5,303.5C 329.714,305.569 328.048,307.736 326.5,310C 316.848,330.64 306.348,350.807 295,370.5C 292.517,352.739 288.517,335.405 283,318.5C 274.242,300.402 263.075,283.902 249.5,269C 247.252,267.086 244.752,265.586 242,264.5C 240.018,264.99 238.351,265.99 237,267.5C 234.969,275.268 231.969,282.601 228,289.5C 216.686,303.745 207.019,319.078 199,335.5C 195.83,345.857 192.83,356.191 190,366.5C 183.459,347.211 177.126,327.878 171,308.5C 169.309,304.787 166.475,303.621 162.5,305C 161.315,306.353 159.981,307.52 158.5,308.5C 149.89,331.221 143.556,354.554 139.5,378.5C 125.512,379.666 111.512,379.833 97.5,379C 93.9605,378.664 91.7939,376.831 91,373.5C 90.5,346.502 90.3334,319.502 90.5,292.5 Z"/></g>
</svg>
