<?xml version="1.0" encoding="UTF-8"?>
<!DOCTYPE svg PUBLIC "-//W3C//DTD SVG 1.1//EN" "http://www.w3.org/Graphics/SVG/1.1/DTD/svg11.dtd">
<svg xmlns="http://www.w3.org/2000/svg" version="1.1" width="512px" height="512px" style="shape-rendering:geometricPrecision; text-rendering:geometricPrecision; image-rendering:optimizeQuality; fill-rule:evenodd; clip-rule:evenodd" xmlns:xlink="http://www.w3.org/1999/xlink">
<g><path style="opacity:0.99" fill="#047ff2" d="M 237.5,-0.5 C 249.5,-0.5 261.5,-0.5 273.5,-0.5C 338.176,9.01025 383.676,43.6769 410,103.5C 415.715,118.692 419.381,134.358 421,150.5C 421.5,230.833 421.667,311.166 421.5,391.5C 310.833,391.5 200.167,391.5 89.5,391.5C 89.3333,311.166 89.5,230.833 90,150.5C 98.4229,83.4503 133.59,36.617 195.5,10C 209.269,5.01936 223.269,1.51936 237.5,-0.5 Z M 251.5,80.5 C 262.331,79.8362 268.497,84.8362 270,95.5C 270.499,100.489 270.666,105.489 270.5,110.5C 277.589,110.116 284.589,110.616 291.5,112C 303.5,120.667 303.5,129.333 291.5,138C 284.589,139.384 277.589,139.884 270.5,139.5C 270.667,164.836 270.5,190.169 270,215.5C 269.245,224.422 264.412,229.089 255.5,229.5C 246.588,229.089 241.755,224.422 241,215.5C 240.5,190.169 240.333,164.836 240.5,139.5C 233.411,139.884 226.411,139.384 219.5,138C 207.5,129.333 207.5,120.667 219.5,112C 226.411,110.616 233.411,110.116 240.5,110.5C 240.27,103.445 240.77,96.4453 242,89.5C 244.406,85.5915 247.572,82.5915 251.5,80.5 Z M 190.5,261.5 C 233.835,261.333 277.168,261.5 320.5,262C 329.575,266.892 332.075,274.058 328,283.5C 325.177,286.825 321.677,288.992 317.5,290C 276.167,290.667 234.833,290.667 193.5,290C 181.179,285.892 178.013,278.058 184,266.5C 185.965,264.45 188.132,262.783 190.5,261.5 Z M 191.5,321.5 C 234.168,321.333 276.835,321.5 319.5,322C 332.219,328.927 333.552,337.594 323.5,348C 321.913,348.862 320.246,349.529 318.5,350C 276.5,350.667 234.5,350.667 192.5,350C 180.308,344.76 177.808,336.594 185,325.5C 187.095,323.875 189.261,322.542 191.5,321.5 Z"/></g>
<g><path style="opacity:0.991" fill="#047ff2" d="M 511.5,430.5 C 511.5,454.5 511.5,478.5 511.5,502.5C 510.196,503.987 509.03,505.654 508,507.5C 505.985,508.697 504.151,510.03 502.5,511.5C 337.833,511.5 173.167,511.5 8.5,511.5C 7.01307,510.196 5.3464,509.03 3.5,508C 2.30342,505.985 0.970083,504.151 -0.5,502.5C -0.5,478.5 -0.5,454.5 -0.5,430.5C 1.81949,425.36 5.81949,422.194 11.5,421C 174.167,420.333 336.833,420.333 499.5,421C 505.181,422.194 509.181,425.36 511.5,430.5 Z"/></g>
</svg>
