<?xml version="1.0" encoding="UTF-8"?>
<!DOCTYPE svg PUBLIC "-//W3C//DTD SVG 1.1//EN" "http://www.w3.org/Graphics/SVG/1.1/DTD/svg11.dtd">
<svg xmlns="http://www.w3.org/2000/svg" version="1.1" width="512px" height="512px" style="shape-rendering:geometricPrecision; text-rendering:geometricPrecision; image-rendering:optimizeQuality; fill-rule:evenodd; clip-rule:evenodd" xmlns:xlink="http://www.w3.org/1999/xlink">
<g><path style="opacity:0.959" fill="#047ff2" d="M 263.5,0.5 C 281.5,0.5 299.5,0.5 317.5,0.5C 317.333,33.5017 317.5,66.5017 318,99.5C 318.268,104.65 319.268,109.65 321,114.5C 323.699,119.187 326.366,123.853 329,128.5C 345,144.5 361,160.5 377,176.5C 384.5,169 392,161.5 399.5,154C 415.707,146.77 425.707,151.77 429.5,169C 428.874,173.004 427.708,176.837 426,180.5C 418.5,188 411,195.5 403.5,203C 411.667,211.167 419.833,219.333 428,227.5C 434.923,237.682 433.756,246.848 424.5,255C 417.2,259.546 409.867,259.546 402.5,255C 376.5,228.667 350.5,202.333 324.5,176C 303.263,161.444 281.596,160.777 259.5,174C 232.473,201.027 205.473,228.027 178.5,255C 161.79,261.487 151.79,256.321 148.5,239.5C 148.542,236.741 149.042,234.075 150,231.5C 158.803,221.696 167.97,212.196 177.5,203C 169.302,195.137 161.469,186.97 154,178.5C 150.574,170.288 151.574,162.621 157,155.5C 164.792,149.488 172.958,148.988 181.5,154C 189,161.5 196.5,169 204,176.5C 220,160.5 236,144.5 252,128.5C 254.634,123.853 257.301,119.187 260,114.5C 261.732,109.65 262.732,104.65 263,99.5C 263.5,66.5017 263.667,33.5017 263.5,0.5 Z"/></g>
<g><path style="opacity:0.955" fill="#047ff2" d="M 186.5,70.5 C 207.596,68.1206 221.763,76.7873 229,96.5C 229.667,107.5 229.667,118.5 229,129.5C 220.953,138.049 212.453,146.049 203.5,153.5C 198.962,149.46 194.629,145.294 190.5,141C 168.422,130.057 150.922,134.89 138,155.5C 134.548,165.305 134.881,174.972 139,184.5C 143.804,190.971 148.971,197.137 154.5,203C 149.703,208.684 144.537,214.184 139,219.5C 132.48,231.494 131.813,243.828 137,256.5C 148.104,272.312 162.937,277.145 181.5,271C 183.996,269.92 186.33,268.586 188.5,267C 201.708,253.625 215.041,240.459 228.5,227.5C 229.667,259.495 229.833,291.495 229,323.5C 226.617,333.985 221.951,343.318 215,351.5C 191.655,308.049 155.155,285.049 105.5,282.5C 99.8383,283.055 94.1716,283.555 88.5,284C 82.3006,285.809 75.9672,287.309 69.5,288.5C 65.039,199.959 98.039,130.126 168.5,79C 174.208,75.3101 180.208,72.4768 186.5,70.5 Z"/></g>
<g><path style="opacity:0.973" fill="#047ff2" d="M 511.5,243.5 C 511.5,298.167 511.5,352.833 511.5,407.5C 504.746,421.537 493.746,426.37 478.5,422C 475.059,420.224 471.892,418.057 469,415.5C 463.417,407.336 458.084,399.003 453,390.5C 444.532,381.179 434.032,375.345 421.5,373C 409.274,371.798 397.274,369.465 385.5,366C 367.511,357.179 356.345,343.012 352,323.5C 351.167,291.495 351.333,259.495 352.5,227.5C 366.013,240.513 379.346,253.68 392.5,267C 405.105,274.759 418.105,275.426 431.5,269C 448.629,255.625 452.129,239.125 442,219.5C 436.463,214.184 431.297,208.684 426.5,203C 429.952,198.545 433.786,194.378 438,190.5C 449.621,172.214 447.454,155.714 431.5,141C 418.661,134.099 405.661,133.766 392.5,140C 387.376,144.286 382.376,148.786 377.5,153.5C 368.905,145.616 360.405,137.616 352,129.5C 351.333,118.5 351.333,107.5 352,96.5C 361.226,73.8065 377.726,65.9732 401.5,73C 465.16,112.093 501.826,168.926 511.5,243.5 Z"/></g>
<g><path style="opacity:0.957" fill="#047ff2" d="M 120.5,511.5 C 110.5,511.5 100.5,511.5 90.5,511.5C 39.7851,501.452 9.45173,471.118 -0.5,420.5C -0.5,410.5 -0.5,400.5 -0.5,390.5C 6.71227,350.098 29.2123,321.765 67,305.5C 119.944,289.649 162.778,303.649 195.5,347.5C 212.375,376.437 216.208,407.104 207,439.5C 191.379,479.391 162.546,503.391 120.5,511.5 Z M 67.5,344.5 C 84.198,345.197 93.5314,353.864 95.5,370.5C 93.8179,386.182 85.1512,394.849 69.5,396.5C 54.6029,394.436 46.2695,385.936 44.5,371C 45.6665,356.344 53.3332,347.511 67.5,344.5 Z M 146.5,362.5 C 168.716,363.398 181.383,374.898 184.5,397C 181.534,417.467 169.867,428.967 149.5,431.5C 128.761,429.262 117.095,417.762 114.5,397C 115.663,381.984 122.996,371.317 136.5,365C 139.991,364.262 143.325,363.429 146.5,362.5 Z M 80.5,419.5 C 87.2014,419.505 93.5347,421.005 99.5,424C 111.988,433.801 115.822,446.301 111,461.5C 105.236,472.907 95.9025,479.24 83,480.5C 74.7816,479.057 67.4483,475.723 61,470.5C 56.6965,464.088 53.8632,457.088 52.5,449.5C 54.1058,442.856 56.6058,436.523 60,430.5C 65.5874,424.293 72.4207,420.626 80.5,419.5 Z M 138.5,450.5 C 147.024,451.214 149.691,455.548 146.5,463.5C 143.136,467.064 139.469,467.398 135.5,464.5C 131.123,458.677 132.123,454.01 138.5,450.5 Z"/></g>
<g><path style="opacity:0.848" fill="#047ff2" d="M 65.5,361.5 C 75.9338,359.934 80.4338,364.268 79,374.5C 73.6676,380.806 67.8343,381.139 61.5,375.5C 60.4252,372.562 60.2585,369.562 61,366.5C 62.6336,364.938 64.1336,363.271 65.5,361.5 Z"/></g>
<g><path style="opacity:0.907" fill="#047ff2" d="M 143.5,378.5 C 154.433,376.549 162.266,380.549 167,390.5C 169.048,408.284 161.215,416.284 143.5,414.5C 133.083,409.782 129.249,401.782 132,390.5C 134.719,385.284 138.552,381.284 143.5,378.5 Z"/></g>
<g><path style="opacity:0.87" fill="#047ff2" d="M 79.5,435.5 C 92.5219,435.351 98.3552,441.685 97,454.5C 91.7181,463.83 84.2181,465.996 74.5,461C 69.85,456.426 68.35,450.926 70,444.5C 72.4057,440.592 75.5724,437.592 79.5,435.5 Z"/></g>
</svg>
