<?xml version="1.0" encoding="UTF-8"?>
<!DOCTYPE svg PUBLIC "-//W3C//DTD SVG 1.1//EN" "http://www.w3.org/Graphics/SVG/1.1/DTD/svg11.dtd">
<svg xmlns="http://www.w3.org/2000/svg" version="1.1" width="512px" height="512px" style="shape-rendering:geometricPrecision; text-rendering:geometricPrecision; image-rendering:optimizeQuality; fill-rule:evenodd; clip-rule:evenodd" xmlns:xlink="http://www.w3.org/1999/xlink">
<g><path style="opacity:0.982" fill="#047ff2" d="M 171.5,-0.5 C 236.833,-0.5 302.167,-0.5 367.5,-0.5C 378.627,1.98072 387.793,7.64739 395,16.5C 396.256,20.0163 398.256,23.0163 401,25.5C 405.219,37.6538 409.053,49.8205 412.5,62C 429.208,60.2112 445.208,62.8779 460.5,70C 469.466,76.4191 475.633,84.9191 479,95.5C 481.548,105.672 482.882,116.006 483,126.5C 483.667,199.167 483.667,271.833 483,344.5C 482.749,350.75 479.583,354.583 473.5,356C 464.167,356.667 454.833,356.667 445.5,356C 428.812,332.817 411.979,309.65 395,286.5C 394.333,285.5 394.333,284.5 395,283.5C 398.362,281.65 401.362,279.317 404,276.5C 416.146,258.521 414.646,241.687 399.5,226C 382.105,214.055 365.772,215.389 350.5,230C 344.916,230.806 339.416,230.639 334,229.5C 333.667,213.833 333.333,198.167 333,182.5C 318.288,162.91 303.455,143.41 288.5,124C 254.585,122.348 220.585,122.014 186.5,123C 184.09,123.758 183.09,125.425 183.5,128C 185.665,134.946 186.999,142.113 187.5,149.5C 138.72,142.714 116.053,114.714 119.5,65.5C 122.775,41.6009 133.775,22.2675 152.5,7.5C 158.782,4.41516 165.116,1.7485 171.5,-0.5 Z"/></g>
<g><path style="opacity:0.978" fill="#047ff2" d="M 194.5,131.5 C 224.255,131.016 253.921,131.516 283.5,133C 297.006,150.504 310.506,168.004 324,185.5C 324.333,202.5 324.667,219.5 325,236.5C 325.833,237.333 326.667,238.167 327.5,239C 336.851,239.832 346.184,239.665 355.5,238.5C 367.722,225.174 381.055,224.007 395.5,235C 396.647,237.488 398.314,239.488 400.5,241C 405.812,254.753 402.479,266.419 390.5,276C 387.637,277.399 384.637,278.399 381.5,279C 362.83,279.166 344.164,279.166 325.5,279C 322.621,280.666 321.788,283.166 323,286.5C 324.067,287.191 325.234,287.691 326.5,288C 346.167,288.333 365.833,288.667 385.5,289C 403.046,313.259 420.712,337.425 438.5,361.5C 434,369.167 429.5,376.833 425,384.5C 422.736,390.662 422.07,396.996 423,403.5C 431.931,431.002 441.097,458.335 450.5,485.5C 412.924,487.643 375.257,488.81 337.5,489C 330.261,463.212 323.094,437.379 316,411.5C 314.5,407.967 313,404.467 311.5,401C 307.619,399.941 304.619,401.108 302.5,404.5C 295.676,407.745 289.009,411.245 282.5,415C 275.122,417.68 267.789,420.347 260.5,423C 233.176,430.154 209.842,423.821 190.5,404C 202.127,396.062 212.96,386.895 223,376.5C 226.831,371.812 229.831,366.812 232,361.5C 228.956,357.789 225.122,355.289 220.5,354C 201.241,347.781 181.575,343.281 161.5,340.5C 163.372,334.718 165.538,329.051 168,323.5C 169.405,318.382 170.571,313.215 171.5,308C 170.722,305.61 169.555,303.443 168,301.5C 161.045,293.709 153.878,286.042 146.5,278.5C 171.062,253.753 187.229,223.753 195,188.5C 197.633,173.542 197.967,158.542 196,143.5C 195.739,140.337 194.906,137.337 193.5,134.5C 193.685,133.416 194.018,132.416 194.5,131.5 Z"/></g>
<g><path style="opacity:0.889" fill="#047ff2" d="M 73.5,263.5 C 82.3158,264.812 85.8158,269.812 84,278.5C 76.6901,305.288 64.5234,329.454 47.5,351C 58.1664,373.664 58.1664,396.331 47.5,419C 64.4797,439.623 76.4797,462.956 83.5,489C 86.685,497.833 83.8516,503 75,504.5C 72.41,504.624 70.0767,503.958 68,502.5C 63.5777,488.89 59.0777,475.723 54.5,463C 49.8192,455.152 44.9858,447.318 40,439.5C 35.6549,435.153 31.6549,430.486 28,425.5C 27.5779,423.645 27.0779,421.811 26.5,420C 32.4227,408.798 35.756,396.965 36.5,384.5C 35.4276,372.046 32.0943,360.212 26.5,349C 29.0796,341.998 33.2463,336.164 39,331.5C 52.5691,312.811 61.9025,292.145 67,269.5C 68.4361,266.558 70.6028,264.558 73.5,263.5 Z"/></g>
<g><path style="opacity:0.888" fill="#047ff2" d="M 101.5,295.5 C 112.272,294.433 116.438,299.1 114,309.5C 109.071,328.524 100.571,345.69 88.5,361C 93.5687,373.183 94.902,385.85 92.5,399C 91.0906,402.142 89.7572,405.309 88.5,408.5C 93.2346,414.957 97.7346,421.624 102,428.5C 106.07,437.384 109.736,446.384 113,455.5C 114.29,460.11 114.624,464.777 114,469.5C 109.309,475.104 103.975,475.77 98,471.5C 93.0554,450.274 83.3887,431.608 69,415.5C 68.654,413.782 68.154,412.115 67.5,410.5C 69.6721,405.628 71.3387,400.961 72.5,396.5C 76.5,388.833 76.5,381.167 72.5,373.5C 72.7093,372.914 73.0426,372.414 73.5,372C 68.2761,366.06 67.1094,359.56 70,352.5C 83.98,337.543 92.98,319.876 97,299.5C 98.3968,297.93 99.8968,296.596 101.5,295.5 Z"/></g>
<g><path style="opacity:0.888" fill="#047ff2" d="M 129.5,322.5 C 133.463,322.089 137.13,322.922 140.5,325C 141.93,326.907 142.596,329.074 142.5,331.5C 139.555,345.389 133.888,358.056 125.5,369.5C 129.463,379.669 129.463,389.835 125.5,400C 134.301,411.437 139.968,424.271 142.5,438.5C 141.932,444.064 138.765,447.064 133,447.5C 129.928,446.964 127.261,445.63 125,443.5C 122.624,431.804 117.958,421.137 111,411.5C 107.401,409.261 105.568,406.094 105.5,402C 107.132,396.262 108.466,390.428 109.5,384.5C 109.113,379.953 107.947,375.619 106,371.5C 105.333,368.833 105.333,366.167 106,363.5C 115.232,352.703 121.566,340.369 125,326.5C 126.397,324.93 127.897,323.596 129.5,322.5 Z"/></g>
</svg>
