<?xml version="1.0" encoding="UTF-8"?>
<!DOCTYPE svg PUBLIC "-//W3C//DTD SVG 1.1//EN" "http://www.w3.org/Graphics/SVG/1.1/DTD/svg11.dtd">
<svg xmlns="http://www.w3.org/2000/svg" version="1.1" width="512px" height="512px" style="shape-rendering:geometricPrecision; text-rendering:geometricPrecision; image-rendering:optimizeQuality; fill-rule:evenodd; clip-rule:evenodd" xmlns:xlink="http://www.w3.org/1999/xlink">
<g><path style="opacity:0.967" fill="#047ff2" d="M 257.5,-0.5 C 261.833,-0.5 266.167,-0.5 270.5,-0.5C 274.645,1.12261 278.145,3.78928 281,7.5C 285.167,15.8333 289.333,24.1667 293.5,32.5C 317.394,38.2273 332.061,53.0606 337.5,77C 371.297,86.1012 382.964,107.268 372.5,140.5C 289.833,141.833 207.167,141.833 124.5,140.5C 130.939,120.057 144.606,107.724 165.5,103.5C 167.105,80.573 178.772,65.573 200.5,58.5C 205.962,35.2048 220.295,20.7048 243.5,15C 245.207,11.7515 247.04,8.58487 249,5.5C 251.736,3.24806 254.569,1.24806 257.5,-0.5 Z M 257.5,35.5 C 259.5,35.5 261.5,35.5 263.5,35.5C 263.5,41.1667 263.5,46.8333 263.5,52.5C 252.833,53.1667 247.167,58.8333 246.5,69.5C 240.833,69.5 235.167,69.5 229.5,69.5C 231.213,51.7948 240.547,40.4615 257.5,35.5 Z M 204.5,88.5 C 206.5,88.5 208.5,88.5 210.5,88.5C 210.5,94.1667 210.5,99.8333 210.5,105.5C 199.851,106.149 194.185,111.815 193.5,122.5C 187.833,122.5 182.167,122.5 176.5,122.5C 178.217,104.792 187.55,93.4585 204.5,88.5 Z M 300.5,88.5 C 320.813,90.8125 332.146,102.146 334.5,122.5C 328.833,122.5 323.167,122.5 317.5,122.5C 316.815,111.815 311.149,106.149 300.5,105.5C 300.5,99.8333 300.5,94.1667 300.5,88.5 Z"/></g>
<g><path style="opacity:0.972" fill="#047ff2" d="M 511.5,21.5 C 511.5,30.5 511.5,39.5 511.5,48.5C 509.99,49.8361 508.323,51.0027 506.5,52C 472.833,52.6667 439.167,52.6667 405.5,52C 407.661,41.8643 409.828,31.6976 412,21.5C 413.109,19.1853 414.943,17.6853 417.5,17C 446.833,16.3333 476.167,16.3333 505.5,17C 507.968,17.9793 509.968,19.4793 511.5,21.5 Z"/></g>
<g><path style="opacity:0.935" fill="#047ff2" d="M 402.5,69.5 C 408.833,69.5 415.167,69.5 421.5,69.5C 405.425,158.21 389.091,246.877 372.5,335.5C 366.132,335.83 359.798,335.496 353.5,334.5C 370.219,246.24 386.552,157.907 402.5,69.5 Z"/></g>
<g><path style="opacity:0.948" fill="#047ff2" d="M -0.5,126.5 C -0.5,121.5 -0.5,116.5 -0.5,111.5C 6.23803,102.893 13.4047,102.56 21,110.5C 37.1289,167.684 52.6289,225.017 67.5,282.5C 58.5822,282.817 49.7489,282.484 41,281.5C 27.4265,229.636 13.5931,177.97 -0.5,126.5 Z"/></g>
<g><path style="opacity:0.924" fill="#047ff2" d="M 104.5,157.5 C 192.833,157.5 281.167,157.5 369.5,157.5C 368.392,163.815 367.392,170.148 366.5,176.5C 279.167,176.5 191.833,176.5 104.5,176.5C 104.5,170.167 104.5,163.833 104.5,157.5 Z"/></g>
<g><path style="opacity:0.987" fill="#047ff2" d="M 123.5,193.5 C 203.167,193.5 282.833,193.5 362.5,193.5C 354.434,240.562 345.934,287.562 337,334.5C 317.573,335.327 298.073,335.827 278.5,336C 270.886,337.947 266.386,342.78 265,350.5C 264.5,374.831 264.333,399.164 264.5,423.5C 251.167,423.5 237.833,423.5 224.5,423.5C 225.32,393.793 226.653,364.126 228.5,334.5C 236.285,334.195 241.785,330.528 245,323.5C 246.542,314.896 246.876,306.23 246,297.5C 244.614,289.78 240.114,284.947 232.5,283C 205.827,282.833 179.16,282.333 152.5,281.5C 147.358,273.863 140.358,268.697 131.5,266C 128.343,241.932 125.676,217.766 123.5,193.5 Z"/></g>
<g><path style="opacity:0.931" fill="#047ff2" d="M 118.5,281.5 C 135.963,281.128 143.13,289.461 140,306.5C 134.355,316.941 125.855,320.108 114.5,316C 105.207,309.551 102.707,301.051 107,290.5C 110.045,286.406 113.878,283.406 118.5,281.5 Z"/></g>
<g><path style="opacity:0.964" fill="#047ff2" d="M 16.5,299.5 C 40.5,299.5 64.5,299.5 88.5,299.5C 88.442,305.826 90.1087,311.659 93.5,317C 67.8355,317.5 42.1688,317.667 16.5,317.5C 16.5,311.5 16.5,305.5 16.5,299.5 Z"/></g>
<g><path style="opacity:0.966" fill="#047ff2" d="M 157.5,299.5 C 181.5,299.5 205.5,299.5 229.5,299.5C 229.5,305.5 229.5,311.5 229.5,317.5C 204.167,317.5 178.833,317.5 153.5,317.5C 154.652,313.855 155.818,310.188 157,306.5C 157.497,304.19 157.663,301.857 157.5,299.5 Z"/></g>
<g><path style="opacity:0.928" fill="#047ff2" d="M 112.5,333.5 C 118.844,334.688 125.178,334.688 131.5,333.5C 124.051,399.718 92.8843,451.385 38,488.5C 34.3053,483.638 30.8053,478.638 27.5,473.5C 76.7187,439.765 105.052,393.099 112.5,333.5 Z"/></g>
<g><path style="opacity:0.963" fill="#047ff2" d="M 34.5,334.5 C 55.1694,334.333 75.836,334.5 96.5,335C 90.4183,377.668 71.585,413.502 40,442.5C 38.0153,406.503 36.182,370.503 34.5,334.5 Z"/></g>
<g><path style="opacity:0.982" fill="#047ff2" d="M 194.5,511.5 C 145.5,511.5 96.5,511.5 47.5,511.5C 44.9353,510.093 43.2686,507.926 42.5,505C 104.067,464.843 139.401,408.009 148.5,334.5C 169.5,334.5 190.5,334.5 211.5,334.5C 210.411,364.539 208.745,394.539 206.5,424.5C 200.774,426.725 196.941,430.725 195,436.5C 194.5,461.498 194.333,486.498 194.5,511.5 Z"/></g>
<g><path style="opacity:0.984" fill="#047ff2" d="M 281.5,352.5 C 323.167,352.5 364.833,352.5 406.5,352.5C 406.5,376.167 406.5,399.833 406.5,423.5C 364.833,423.5 323.167,423.5 281.5,423.5C 281.5,399.833 281.5,376.167 281.5,352.5 Z"/></g>
<g><path style="opacity:0.983" fill="#047ff2" d="M 335.5,511.5 C 293.833,511.5 252.167,511.5 210.5,511.5C 210.5,487.833 210.5,464.167 210.5,440.5C 252.167,440.5 293.833,440.5 335.5,440.5C 335.5,464.167 335.5,487.833 335.5,511.5 Z"/></g>
<g><path style="opacity:0.992" fill="#047ff2" d="M 476.5,511.5 C 435.167,511.5 393.833,511.5 352.5,511.5C 352.5,487.833 352.5,464.167 352.5,440.5C 393.833,440.5 435.167,440.5 476.5,440.5C 476.5,464.167 476.5,487.833 476.5,511.5 Z"/></g>
</svg>
