<?xml version="1.0" encoding="UTF-8"?>
<!DOCTYPE svg PUBLIC "-//W3C//DTD SVG 1.1//EN" "http://www.w3.org/Graphics/SVG/1.1/DTD/svg11.dtd">
<svg xmlns="http://www.w3.org/2000/svg" version="1.1" width="512px" height="512px" style="shape-rendering:geometricPrecision; text-rendering:geometricPrecision; image-rendering:optimizeQuality; fill-rule:evenodd; clip-rule:evenodd" xmlns:xlink="http://www.w3.org/1999/xlink">
<g><path style="opacity:0.947" fill="#047ff2" d="M 317.5,-0.5 C 360.833,-0.5 404.167,-0.5 447.5,-0.5C 447.958,6.34524 447.458,13.0119 446,19.5C 408.571,18.3372 371.071,18.1706 333.5,19C 316.533,19.3 300.033,22.1333 284,27.5C 279.646,24.319 275.146,21.319 270.5,18.5C 269.167,17.8333 269.167,17.1667 270.5,16.5C 284.701,6.65622 300.368,0.989552 317.5,-0.5 Z"/></g>
<g><path style="opacity:0.841" fill="#047ff2" d="M 375.5,35.5 C 392.5,35.5 409.5,35.5 426.5,35.5C 425.379,42.4823 423.713,49.3156 421.5,56C 408.167,56.6667 394.833,56.6667 381.5,56C 378.343,49.5425 376.343,42.7092 375.5,35.5 Z"/></g>
<g><path style="opacity:0.957" fill="#047ff2" d="M 242.5,63.5 C 245.978,63.1842 249.312,63.6842 252.5,65C 263.329,79.1394 272.495,94.3061 280,110.5C 285.553,124.869 284.22,138.536 276,151.5C 257.85,167.804 239.017,168.638 219.5,154C 209.817,142.761 206.984,129.928 211,115.5C 213.725,108.384 216.725,101.384 220,94.5C 225.583,86.3363 230.916,78.0029 236,69.5C 238.063,67.2659 240.229,65.2659 242.5,63.5 Z"/></g>
<g><path style="opacity:0.919" fill="#047ff2" d="M 391.5,72.5 C 397.833,72.5 404.167,72.5 410.5,72.5C 410.5,85.1667 410.5,97.8333 410.5,110.5C 404.167,110.5 397.833,110.5 391.5,110.5C 391.5,97.8333 391.5,85.1667 391.5,72.5 Z"/></g>
<g><path style="opacity:0.898" fill="#047ff2" d="M 353.5,126.5 C 385.502,126.333 417.502,126.5 449.5,127C 452.583,127.786 454.749,129.619 456,132.5C 456.499,137.155 456.666,141.821 456.5,146.5C 419.5,146.5 382.5,146.5 345.5,146.5C 345.334,141.821 345.501,137.155 346,132.5C 348.109,129.878 350.609,127.878 353.5,126.5 Z"/></g>
<g><path style="opacity:0.97" fill="#047ff2" d="M 477.5,511.5 C 426.833,511.5 376.167,511.5 325.5,511.5C 318.433,509.612 313.266,505.279 310,498.5C 309.5,459.501 309.333,420.501 309.5,381.5C 321.804,381.628 332.137,377.294 340.5,368.5C 342.509,376.87 344.676,385.204 347,393.5C 351.061,402.622 355.394,411.622 360,420.5C 364.828,426.328 369.995,431.828 375.5,437C 394.894,449.176 413.394,448.009 431,433.5C 435.351,428.485 439.684,423.485 444,418.5C 467.695,372.15 470.695,324.484 453,275.5C 451.107,270.713 448.94,266.047 446.5,261.5C 450.11,256.387 454.277,251.72 459,247.5C 469.706,223.279 463.206,205.446 439.5,194C 431.065,191.817 422.732,192.15 414.5,195C 398.932,205.243 384.599,216.909 371.5,230C 358.013,240.817 344.513,251.65 331,262.5C 325.526,256 318.693,251.333 310.5,248.5C 309.334,224.507 309.167,200.507 310,176.5C 312.705,170.893 316.871,166.726 322.5,164C 375.167,163.333 427.833,163.333 480.5,164C 485.284,166.45 489.117,169.95 492,174.5C 492.667,283.167 492.667,391.833 492,500.5C 488.45,506.008 483.616,509.674 477.5,511.5 Z"/></g>
<g><path style="opacity:0.96" fill="#047ff2" d="M 425.5,208.5 C 441.937,209.441 449.104,218.107 447,234.5C 446.333,235.833 445.667,237.167 445,238.5C 404.888,279.28 364.721,320.113 324.5,361C 320.768,363.133 316.768,364.466 312.5,365C 252.797,365.019 193.13,365.686 133.5,367C 125.958,370.02 119.125,374.187 113,379.5C 98.947,397.886 85.2803,416.553 72,435.5C 69.1576,438.542 66.3243,441.542 63.5,444.5C 62.1667,388.833 62.1667,333.167 63.5,277.5C 96.9342,249.578 134.934,240.412 177.5,250C 185.187,254.366 192.853,258.699 200.5,263C 234.833,263.333 269.167,263.667 303.5,264C 318.554,268.274 323.387,277.774 318,292.5C 315.408,295.762 312.241,298.262 308.5,300C 271.56,301.315 234.56,301.981 197.5,302C 192.554,306.598 192.221,311.598 196.5,317C 234.167,317.667 271.833,317.667 309.5,317C 315.643,315.346 321.143,312.512 326,308.5C 329.394,304.102 332.394,299.435 335,294.5C 335.995,289.547 336.662,284.547 337,279.5C 364.435,257.072 391.601,234.239 418.5,211C 421.004,210.302 423.337,209.469 425.5,208.5 Z"/></g>
<g><path style="opacity:0.961" fill="#047ff2" d="M 432.5,273.5 C 433.5,273.5 434.5,273.5 435.5,273.5C 437.482,281.613 440.149,289.447 443.5,297C 452.434,335.82 448.267,372.987 431,408.5C 411.2,436.034 391.533,436.034 372,408.5C 362.484,391.78 356.984,373.78 355.5,354.5C 365.397,343.429 375.563,332.429 386,321.5C 395.774,311.638 405.774,301.971 416,292.5C 421.732,286.275 427.232,279.942 432.5,273.5 Z"/></g>
<g><path style="opacity:0.962" fill="#047ff2" d="M 44.5,295.5 C 45.8332,324.159 46.4998,353.159 46.5,382.5C 46.3333,411.5 46.1667,440.5 46,469.5C 37,481.167 28,492.833 19,504.5C 18.3333,443.5 18.3333,382.5 19,321.5C 27.6477,313.019 36.1477,304.352 44.5,295.5 Z"/></g>
</svg>
