<?xml version="1.0" encoding="UTF-8"?>
<!DOCTYPE svg PUBLIC "-//W3C//DTD SVG 1.1//EN" "http://www.w3.org/Graphics/SVG/1.1/DTD/svg11.dtd">
<svg xmlns="http://www.w3.org/2000/svg" version="1.1" width="512px" height="512px" style="shape-rendering:geometricPrecision; text-rendering:geometricPrecision; image-rendering:optimizeQuality; fill-rule:evenodd; clip-rule:evenodd" xmlns:xlink="http://www.w3.org/1999/xlink">
<g><path style="opacity:0.976" fill="#047ff2" d="M 198.5,-0.5 C 218.167,-0.5 237.833,-0.5 257.5,-0.5C 262.127,2.05969 264.794,6.05969 265.5,11.5C 263.211,42.2001 267.377,71.8668 278,100.5C 285.798,111.762 296.632,117.762 310.5,118.5C 352.009,112.166 386.843,124.166 415,154.5C 431.542,175.434 443.542,198.767 451,224.5C 466.557,284.768 462.723,343.601 439.5,401C 414.52,453.926 374.02,489.092 318,506.5C 307.743,508.51 297.576,510.177 287.5,511.5C 280.167,511.5 272.833,511.5 265.5,511.5C 216.155,505.85 177.488,482.85 149.5,442.5C 139.774,427.844 132.441,412.011 127.5,395C 124.293,388.476 119.293,383.976 112.5,381.5C 108.246,383.756 103.912,385.923 99.5,388C 96.0105,390.911 92.3438,393.578 88.5,396C 85.4459,396.821 82.4459,396.655 79.5,395.5C 69.1401,385.867 58.9734,375.867 49,365.5C 47.4481,363.232 46.6148,360.732 46.5,358C 47.6012,351.863 49.6012,346.03 52.5,340.5C 78.6587,304.296 112.325,295.463 153.5,314C 157.142,316.97 160.809,319.97 164.5,323C 173.861,333.026 183.195,343.026 192.5,353C 214.69,366.963 234.19,363.796 251,343.5C 263.062,323.001 266.395,301.001 261,277.5C 257.977,265.098 254.144,252.931 249.5,241C 227.631,188.678 210.798,134.844 199,79.5C 196.572,61.7408 194.239,44.0741 192,26.5C 191.333,19.8333 191.333,13.1667 192,6.5C 193.728,3.67029 195.895,1.33695 198.5,-0.5 Z M 374.5,179.5 C 380.709,180.043 384.376,183.376 385.5,189.5C 380.907,210.797 376.574,232.13 372.5,253.5C 384.838,253.333 397.171,253.5 409.5,254C 413.674,257.192 415.174,261.358 414,266.5C 390.288,301.563 366.122,336.396 341.5,371C 333.641,373.566 328.974,370.733 327.5,362.5C 331.466,344.469 336.133,326.635 341.5,309C 342.492,304.875 343.159,300.709 343.5,296.5C 332.422,296.931 321.422,296.431 310.5,295C 308.667,294.5 307.5,293.333 307,291.5C 306.333,288.5 306.333,285.5 307,282.5C 327.347,249.797 347.681,217.131 368,184.5C 370.326,182.934 372.492,181.268 374.5,179.5 Z"/></g>
</svg>
