<?xml version="1.0" encoding="UTF-8"?>
<!DOCTYPE svg PUBLIC "-//W3C//DTD SVG 1.1//EN" "http://www.w3.org/Graphics/SVG/1.1/DTD/svg11.dtd">
<svg xmlns="http://www.w3.org/2000/svg" version="1.1" width="512px" height="512px" style="shape-rendering:geometricPrecision; text-rendering:geometricPrecision; image-rendering:optimizeQuality; fill-rule:evenodd; clip-rule:evenodd" xmlns:xlink="http://www.w3.org/1999/xlink">
<g><path style="opacity:0.945" fill="#047ff2" d="M 97.5,-0.5 C 99.8333,-0.5 102.167,-0.5 104.5,-0.5C 124.143,16.3021 143.976,32.9688 164,49.5C 166.154,53.0584 165.654,56.2251 162.5,59C 154.89,60.6018 147.223,61.7685 139.5,62.5C 144.854,74.8739 151.021,86.8739 158,98.5C 159.69,103.458 158.023,106.458 153,107.5C 149.355,106.527 146.188,104.694 143.5,102C 124.574,86.2856 105.741,70.4522 87,54.5C 84.9548,51.281 85.4548,48.4477 88.5,46C 96.3452,44.5867 104.012,42.7534 111.5,40.5C 104.839,28.5265 99.3395,16.1931 95,3.5C 95.6622,2.01608 96.4955,0.682751 97.5,-0.5 Z"/></g>
<g><path style="opacity:0.944" fill="#047ff2" d="M 406.5,-0.5 C 409.167,-0.5 411.833,-0.5 414.5,-0.5C 416.109,1.60147 416.609,3.93481 416,6.5C 410.772,17.9557 405.272,29.289 399.5,40.5C 407.49,42.4991 415.49,44.4991 423.5,46.5C 425.339,48.5271 425.839,50.8604 425,53.5C 403.532,72.4789 381.365,90.4789 358.5,107.5C 353.156,106.655 351.323,103.655 353,98.5C 359.979,86.8739 366.146,74.8739 371.5,62.5C 363.777,61.7685 356.11,60.6018 348.5,59C 345.165,56.3214 344.665,53.1547 347,49.5C 367.024,32.9688 386.857,16.3021 406.5,-0.5 Z"/></g>
<g><path style="opacity:0.949" fill="#047ff2" d="M 81.5,70.5 C 85.1817,70.3347 88.8484,70.5014 92.5,71C 94.1519,72.47 95.1519,74.3033 95.5,76.5C 91.8446,83.1369 87.678,89.4702 83,95.5C 82.5172,96.448 82.3505,97.448 82.5,98.5C 96.0106,101.892 109.344,105.892 122.5,110.5C 125.368,113.995 125.035,117.162 121.5,120C 93.5218,123.271 65.5218,125.937 37.5,128C 34.3114,126.456 33.1447,123.956 34,120.5C 38.1667,114.167 42.3333,107.833 46.5,101.5C 34.0315,96.7329 21.5315,92.0663 9,87.5C 6.6654,83.8453 7.1654,80.6786 10.5,78C 34.3236,75.5788 57.9903,73.0788 81.5,70.5 Z"/></g>
<g><path style="opacity:0.949" fill="#047ff2" d="M 418.5,70.5 C 445.872,72.5371 473.205,75.0371 500.5,78C 504.092,80.9707 504.425,84.304 501.5,88C 489.042,92.2077 476.709,96.7077 464.5,101.5C 467.805,106.638 471.305,111.638 475,116.5C 479.173,122.503 477.84,126.503 471,128.5C 443.844,125.668 416.678,122.834 389.5,120C 385.908,117.029 385.575,113.696 388.5,110C 401.764,105.856 415.097,102.022 428.5,98.5C 428.649,97.448 428.483,96.448 428,95.5C 423.754,90.0087 419.754,84.3421 416,78.5C 415.018,75.2253 415.851,72.5586 418.5,70.5 Z"/></g>
<g><path style="opacity:0.983" fill="#047ff2" d="M 472.5,511.5 C 327.833,511.5 183.167,511.5 38.5,511.5C 38.2172,510.711 37.7172,510.044 37,509.5C 36.6266,452.069 60.4599,407.903 108.5,377C 137.842,359.915 169.508,352.415 203.5,354.5C 203.5,351.167 203.5,347.833 203.5,344.5C 170.999,342.866 140.332,349.533 111.5,364.5C 110.914,364.291 110.414,363.957 110,363.5C 102.879,307.433 106.546,252.099 121,197.5C 130.757,161.455 149.923,131.621 178.5,108C 220.094,80.3177 264.094,75.9844 310.5,95C 336.896,108.729 357.396,128.563 372,154.5C 384.855,178.733 393.522,204.4 398,231.5C 405.323,275.363 406.323,319.363 401,363.5C 400.586,363.957 400.086,364.291 399.5,364.5C 370.668,349.533 340.001,342.866 307.5,344.5C 307.5,347.833 307.5,351.167 307.5,354.5C 358.558,351.962 401.725,368.962 437,405.5C 461.605,433.961 474.438,467.128 475.5,505C 475.16,507.511 474.16,509.678 472.5,511.5 Z M 232.5,171.5 C 233.117,171.611 233.617,171.944 234,172.5C 238.016,185.108 235.683,196.441 227,206.5C 226.056,209.347 226.556,211.847 228.5,214C 246.44,217.122 261.274,211.622 273,197.5C 277.584,190.668 281.917,183.668 286,176.5C 300.743,200.318 321.91,215.485 349.5,222C 355.941,228.926 358.108,237.093 356,246.5C 355.23,253.219 352.063,258.386 346.5,262C 344.833,262.667 343.167,262.667 341.5,262C 337.814,258.546 334.314,258.712 331,262.5C 328.673,291.563 316.506,315.396 294.5,334C 274.577,347.404 253.244,350.07 230.5,342C 206.16,329.647 190.66,310.147 184,283.5C 182.389,276.554 181.055,269.554 180,262.5C 178.701,261.02 177.034,260.354 175,260.5C 168.689,264.117 163.356,263.117 159,257.5C 154.389,248.565 153.389,239.231 156,229.5C 157.061,226.438 158.894,223.938 161.5,222C 193.784,216.893 217.451,200.059 232.5,171.5 Z M 214.5,347.5 C 241.446,362.161 268.446,362.161 295.5,347.5C 296.332,358.485 296.832,369.485 297,380.5C 300.74,383.413 304.074,383.08 307,379.5C 307.499,374.845 307.666,370.179 307.5,365.5C 339.907,364.101 369.907,371.768 397.5,388.5C 392.143,391.845 386.477,394.678 380.5,397C 342.694,408.329 304.028,413.829 264.5,413.5C 221.888,413.191 179.888,408.025 138.5,398C 129.586,396.031 121.253,392.697 113.5,388C 141.106,371.176 171.106,363.676 203.5,365.5C 203.334,370.511 203.501,375.511 204,380.5C 207.204,383.113 210.37,383.113 213.5,380.5C 214.478,369.552 214.811,358.552 214.5,347.5 Z"/></g>
<g><path style="opacity:0.879" fill="#047ff2" d="M 205.5,218.5 C 207.199,218.34 208.866,218.506 210.5,219C 212.666,222.986 215.333,226.653 218.5,230C 223.723,233.779 229.39,236.779 235.5,239C 238.476,243.094 237.809,246.427 233.5,249C 228.833,249.167 224.167,249.333 219.5,249.5C 214.059,249.618 208.726,249.118 203.5,248C 200.516,242.297 202.183,238.631 208.5,237C 204.74,233.648 202.407,229.481 201.5,224.5C 201.937,221.775 203.27,219.775 205.5,218.5 Z"/></g>
<g><path style="opacity:0.878" fill="#047ff2" d="M 300.5,218.5 C 305.414,217.782 308.414,219.782 309.5,224.5C 308.593,229.481 306.26,233.648 302.5,237C 308.7,238.456 310.367,241.956 307.5,247.5C 306.624,248.251 305.624,248.751 304.5,249C 300,249.167 295.5,249.333 291,249.5C 285.725,249.616 280.558,249.116 275.5,248C 273.114,245.293 272.948,242.46 275,239.5C 280.913,236.46 286.747,233.294 292.5,230C 295.803,226.539 298.47,222.706 300.5,218.5 Z"/></g>
<g><path style="opacity:0.883" fill="#047ff2" d="M 250.5,282.5 C 265.547,281.608 277.38,287.274 286,299.5C 287.833,307 285,309.833 277.5,308C 268.218,294.128 256.218,291.128 241.5,299C 238.462,301.703 235.795,304.703 233.5,308C 224.381,308.621 222.215,304.788 227,296.5C 233.319,289.098 241.153,284.431 250.5,282.5 Z"/></g>
</svg>
