<?xml version="1.0" encoding="UTF-8"?>
<!DOCTYPE svg PUBLIC "-//W3C//DTD SVG 1.1//EN" "http://www.w3.org/Graphics/SVG/1.1/DTD/svg11.dtd">
<svg xmlns="http://www.w3.org/2000/svg" version="1.1" width="512px" height="512px" style="shape-rendering:geometricPrecision; text-rendering:geometricPrecision; image-rendering:optimizeQuality; fill-rule:evenodd; clip-rule:evenodd" xmlns:xlink="http://www.w3.org/1999/xlink">
<g><path style="opacity:0.936" fill="#047ff2" d="M 223.5,0.5 C 239.503,0.333406 255.503,0.500072 271.5,1C 272.944,2.12605 273.61,3.62605 273.5,5.5C 269.413,21.1998 264.413,36.5331 258.5,51.5C 271.821,52.3327 285.154,52.8327 298.5,53C 302.212,55.513 303.378,59.013 302,63.5C 288.05,81.786 273.716,99.786 259,117.5C 251.252,128.369 243.252,139.035 235,149.5C 232.294,152.978 229.294,153.311 226,150.5C 225.833,149.5 225.667,148.5 225.5,147.5C 228.35,136.492 231.183,125.158 234,113.5C 235.659,106.882 236.659,100.215 237,93.5C 229.099,91.7134 220.932,90.88 212.5,91C 208.189,90.3455 206.189,87.8455 206.5,83.5C 210.669,58.8331 215.169,34.1664 220,9.5C 221.104,6.49244 222.271,3.49244 223.5,0.5 Z"/></g>
<g><path style="opacity:0.942" fill="#047ff2" d="M 93.5,74.5 C 95.8568,74.3367 98.1902,74.5034 100.5,75C 118.508,95.4648 136.341,115.965 154,136.5C 155.457,139.366 155.79,142.366 155,145.5C 148.905,149.8 142.405,153.466 135.5,156.5C 132.237,158.68 131.737,161.346 134,164.5C 146.718,177.382 158.884,190.715 170.5,204.5C 169.76,208.495 167.426,209.995 163.5,209C 132.147,196.295 100.813,183.629 69.5,171C 65.4644,169.209 61.6311,167.042 58,164.5C 57.0701,161.15 57.9035,158.317 60.5,156C 72.1153,150.192 83.4486,143.858 94.5,137C 82.0074,126.173 69.8408,115.007 58,103.5C 57.1816,100.773 57.3483,98.1062 58.5,95.5C 70.0644,88.2225 81.7311,81.2225 93.5,74.5 Z"/></g>
<g><path style="opacity:0.961" fill="#047ff2" d="M 396.5,113.5 C 418.279,110.469 435.446,117.803 448,135.5C 455.333,152.5 455.333,169.5 448,186.5C 430.546,208.822 408.713,214.489 382.5,203.5C 373.402,197.235 366.236,189.235 361,179.5C 352.642,152.126 360.642,131.459 385,117.5C 388.917,116.073 392.751,114.739 396.5,113.5 Z"/></g>
<g><path style="opacity:0.969" fill="#047ff2" d="M 309.5,511.5 C 304.833,511.5 300.167,511.5 295.5,511.5C 289.544,508.951 285.378,504.617 283,498.5C 282.833,474.16 282.333,449.826 281.5,425.5C 256.482,404.485 231.148,383.818 205.5,363.5C 183.458,336.755 181.792,308.755 200.5,279.5C 222.866,253.284 245.533,227.118 268.5,201C 292.594,184.237 316.594,184.404 340.5,201.5C 350.363,210.493 356.529,221.16 359,233.5C 359.667,277.833 359.667,322.167 359,366.5C 352.292,379.875 342.125,383.209 328.5,376.5C 325.287,373.66 322.787,370.326 321,366.5C 320.667,337.833 320.333,309.167 320,280.5C 299.025,304.319 278.525,328.652 258.5,353.5C 259.803,355.937 261.47,358.104 263.5,360C 282.581,374.411 301.081,389.577 319,405.5C 319.862,407.087 320.529,408.754 321,410.5C 321.667,439.833 321.667,469.167 321,498.5C 318.727,504.27 314.894,508.603 309.5,511.5 Z"/></g>
<g><path style="opacity:0.943" fill="#047ff2" d="M 157.5,511.5 C 152.833,511.5 148.167,511.5 143.5,511.5C 131.225,504.666 128.059,494.666 134,481.5C 152.333,461.833 171.333,442.833 191,424.5C 195.806,415.237 200.139,406.237 204,397.5C 213.999,405.821 224.333,413.821 235,421.5C 235.484,423.913 235.15,426.246 234,428.5C 230.348,435.135 226.681,441.802 223,448.5C 202.473,467.694 182.64,487.527 163.5,508C 161.273,508.941 159.273,510.108 157.5,511.5 Z"/></g>
</svg>
