<?xml version="1.0" encoding="UTF-8"?>
<!DOCTYPE svg PUBLIC "-//W3C//DTD SVG 1.1//EN" "http://www.w3.org/Graphics/SVG/1.1/DTD/svg11.dtd">
<svg xmlns="http://www.w3.org/2000/svg" version="1.1" width="512px" height="512px" style="shape-rendering:geometricPrecision; text-rendering:geometricPrecision; image-rendering:optimizeQuality; fill-rule:evenodd; clip-rule:evenodd" xmlns:xlink="http://www.w3.org/1999/xlink">
<g><path style="opacity:0.992" fill="#047ff2" d="M -0.5,441.5 C -0.5,378.833 -0.5,316.167 -0.5,253.5C 14.5142,162.326 63.1809,95.8262 145.5,54C 172.81,41.3388 201.477,33.6721 231.5,31C 314.21,30.0111 396.877,30.3444 479.5,32C 495.605,37.7714 505.772,48.9381 510,65.5C 516.746,110.166 506.413,150.166 479,185.5C 472.469,192.365 465.636,198.865 458.5,205C 434.429,220.064 410.096,234.731 385.5,249C 373.797,256.701 364.964,266.868 359,279.5C 350.742,316.71 331.075,346.043 300,367.5C 299.333,298.167 299.333,228.833 300,159.5C 301.5,155.333 304.333,152.5 308.5,151C 326.83,150.5 345.164,150.333 363.5,150.5C 367.824,162.994 376.157,171.827 388.5,177C 393.656,178.962 398.989,179.795 404.5,179.5C 404.5,169.833 404.5,160.167 404.5,150.5C 394.506,150.506 389.506,145.506 389.5,135.5C 389.506,125.494 394.506,120.494 404.5,120.5C 404.5,110.833 404.5,101.167 404.5,91.5C 390.556,91.5551 379.056,96.8884 370,107.5C 366.762,111.309 364.596,115.642 363.5,120.5C 344.136,120.123 324.802,120.623 305.5,122C 283.394,128.107 271.561,142.607 270,165.5C 269.667,187.5 269.333,209.5 269,231.5C 264.652,239.915 257.819,242.748 248.5,240C 244.333,238.5 241.5,235.667 240,231.5C 239.105,201.613 223.939,184.78 194.5,181C 178.17,180.5 161.837,180.333 145.5,180.5C 140.686,166.854 131.353,157.687 117.5,153C 113.249,151.805 108.915,151.305 104.5,151.5C 104.5,161.167 104.5,170.833 104.5,180.5C 114.494,180.494 119.494,185.494 119.5,195.5C 119.494,205.506 114.494,210.506 104.5,210.5C 104.5,220.167 104.5,229.833 104.5,239.5C 118.444,239.445 129.944,234.112 139,223.5C 142.238,219.691 144.404,215.358 145.5,210.5C 163.836,210.333 182.17,210.5 200.5,211C 204.667,212.5 207.5,215.333 209,219.5C 209.667,276.833 209.667,334.167 209,391.5C 168.185,396.239 134.185,413.906 107,444.5C 101.215,452.621 95.0478,460.454 88.5,468C 73.3824,480.027 56.3824,483.694 37.5,479C 18.3172,472.983 5.65049,460.483 -0.5,441.5 Z"/></g>
<g><path style="opacity:0.993" fill="#047ff2" d="M 239.5,267.5 C 249.5,270.167 259.5,270.167 269.5,267.5C 269.667,334.834 269.5,402.167 269,469.5C 267.073,474.428 263.573,477.594 258.5,479C 252.138,479.653 245.805,479.487 239.5,478.5C 239.5,408.167 239.5,337.833 239.5,267.5 Z"/></g>
</svg>
