<?xml version="1.0" encoding="UTF-8"?>
<!DOCTYPE svg PUBLIC "-//W3C//DTD SVG 1.1//EN" "http://www.w3.org/Graphics/SVG/1.1/DTD/svg11.dtd">
<svg xmlns="http://www.w3.org/2000/svg" version="1.1" width="512px" height="512px" style="shape-rendering:geometricPrecision; text-rendering:geometricPrecision; image-rendering:optimizeQuality; fill-rule:evenodd; clip-rule:evenodd" xmlns:xlink="http://www.w3.org/1999/xlink">
<g><path style="opacity:0.985" fill="#047ff2" d="M 211.5,-0.5 C 240.833,-0.5 270.167,-0.5 299.5,-0.5C 303.287,1.79717 305.787,5.13051 307,9.5C 307.178,21.076 307.678,32.576 308.5,44C 329.758,49.14 349.758,57.3067 368.5,68.5C 376.319,61.1812 383.986,53.6812 391.5,46C 396.68,43.1485 402.013,42.8152 407.5,45C 427.695,64.8616 447.529,85.0282 467,105.5C 468.041,110.44 467.374,115.106 465,119.5C 457.319,127.014 449.819,134.681 442.5,142.5C 453.693,161.242 461.86,181.242 467,202.5C 478.09,203.322 489.257,203.822 500.5,204C 505.418,204.764 509.084,207.264 511.5,211.5C 511.5,240.833 511.5,270.167 511.5,299.5C 509.084,303.736 505.418,306.236 500.5,307C 489.257,307.178 478.09,307.678 467,308.5C 461.86,329.758 453.693,349.758 442.5,368.5C 449.819,376.319 457.319,383.986 465,391.5C 467.851,396.68 468.185,402.013 466,407.5C 446.138,427.695 425.972,447.529 405.5,467C 400.56,468.041 395.894,467.374 391.5,465C 383.986,457.319 376.319,449.819 368.5,442.5C 349.758,453.693 329.758,461.86 308.5,467C 307.678,478.09 307.178,489.257 307,500.5C 306.236,505.418 303.736,509.084 299.5,511.5C 270.167,511.5 240.833,511.5 211.5,511.5C 207.713,509.203 205.213,505.869 204,501.5C 203.822,489.924 203.322,478.424 202.5,467C 181.242,461.86 161.242,453.693 142.5,442.5C 134.681,449.819 127.014,457.319 119.5,465C 114.32,467.851 108.987,468.185 103.5,466C 83.3047,446.138 63.4713,425.972 44,405.5C 42.9595,400.56 43.6261,395.894 46,391.5C 53.6812,383.986 61.1812,376.319 68.5,368.5C 57.3067,349.758 49.14,329.758 44,308.5C 32.9095,307.678 21.7429,307.178 10.5,307C 5.58239,306.236 1.91572,303.736 -0.5,299.5C -0.5,270.167 -0.5,240.833 -0.5,211.5C 1.91572,207.264 5.58239,204.764 10.5,204C 21.7429,203.822 32.9095,203.322 44,202.5C 49.14,181.242 57.3067,161.242 68.5,142.5C 61.1812,134.681 53.6812,127.014 46,119.5C 43.1485,114.32 42.8152,108.987 45,103.5C 64.8616,83.3047 85.0282,63.4713 105.5,44C 110.44,42.9595 115.106,43.6261 119.5,46C 127.014,53.6812 134.681,61.1812 142.5,68.5C 161.242,57.3067 181.242,49.14 202.5,44C 203.322,32.576 203.822,21.076 204,9.5C 205.213,5.13051 207.713,1.79717 211.5,-0.5 Z M 242.5,102.5 C 313.388,100.839 364.554,131.506 396,194.5C 418.126,251.39 410.793,304.057 374,352.5C 336.891,395.212 290.058,413.378 233.5,407C 178.346,397.162 138.846,366.995 115,316.5C 92.013,256.423 101.013,201.757 142,152.5C 169.457,123.688 202.957,107.022 242.5,102.5 Z"/></g>
<g><path style="opacity:0.971" fill="#047ff2" d="M 239.5,127.5 C 288.461,123.574 328.294,140.574 359,178.5C 386.027,218.138 391.027,260.472 374,305.5C 360.058,336.442 337.724,359.109 307,373.5C 306.333,358.167 306.333,342.833 307,327.5C 339.17,302.663 350.504,270.33 341,230.5C 331.75,202.249 313.25,182.749 285.5,172C 276.915,169.874 271.415,173.041 269,181.5C 268.5,202.164 268.333,222.831 268.5,243.5C 259.833,243.5 251.167,243.5 242.5,243.5C 242.667,222.831 242.5,202.164 242,181.5C 238.648,171.745 232.148,168.912 222.5,173C 178.9,194.03 161.067,228.53 169,276.5C 174.482,297.813 186.148,314.813 204,327.5C 204.667,342.833 204.667,358.167 204,373.5C 155.684,349.568 129.85,310.568 126.5,256.5C 129.523,193.991 160.523,152.491 219.5,132C 226.259,130.285 232.925,128.785 239.5,127.5 Z"/></g>
<g><path style="opacity:0.969" fill="#047ff2" d="M 215.5,204.5 C 217.323,222.139 218.156,240.139 218,258.5C 219.442,262.275 221.942,265.108 225.5,267C 246.256,267.976 266.923,267.643 287.5,266C 290.106,264.062 291.939,261.562 293,258.5C 293.167,240.491 293.667,222.491 294.5,204.5C 314.306,220.393 322.472,241.06 319,266.5C 315.385,286.921 304.552,302.088 286.5,312C 284.383,313.731 282.883,315.898 282,318.5C 281.5,339.497 281.333,360.497 281.5,381.5C 264.167,384.167 246.833,384.167 229.5,381.5C 229.667,360.497 229.5,339.497 229,318.5C 228.117,315.898 226.617,313.731 224.5,312C 196.147,293.972 185.98,268.472 194,235.5C 198.232,223.003 205.399,212.67 215.5,204.5 Z"/></g>
</svg>
