<?xml version="1.0" encoding="UTF-8"?>
<!DOCTYPE svg PUBLIC "-//W3C//DTD SVG 1.1//EN" "http://www.w3.org/Graphics/SVG/1.1/DTD/svg11.dtd">
<svg xmlns="http://www.w3.org/2000/svg" version="1.1" width="512px" height="512px" style="shape-rendering:geometricPrecision; text-rendering:geometricPrecision; image-rendering:optimizeQuality; fill-rule:evenodd; clip-rule:evenodd" xmlns:xlink="http://www.w3.org/1999/xlink">
<g><path style="opacity:0.966" fill="#047ff2" d="M 484.5,-0.5 C 485.5,-0.5 486.5,-0.5 487.5,-0.5C 493.797,6.29817 500.297,12.9648 507,19.5C 507.667,20.5 507.667,21.5 507,22.5C 478.5,51 450,79.5 421.5,108C 433.275,131.379 431.775,153.879 417,175.5C 400.986,191.681 384.819,207.681 368.5,223.5C 357.5,213.167 346.833,202.5 336.5,191.5C 346.486,181.014 356.652,170.681 367,160.5C 361.536,152.857 355.036,145.857 347.5,139.5C 336.833,149.833 326.167,160.167 315.5,170.5C 304.847,160.348 294.347,150.014 284,139.5C 283.333,138.5 283.333,137.5 284,136.5C 298.833,121.667 313.667,106.833 328.5,92C 350.611,75.261 374.111,73.0943 399,85.5C 427.702,56.9653 456.202,28.2987 484.5,-0.5 Z"/></g>
<g><path style="opacity:0.945" fill="#047ff2" d="M 119.5,13.5 C 129.833,13.5 140.167,13.5 150.5,13.5C 150.5,23.5 150.5,33.5 150.5,43.5C 160.5,43.5 170.5,43.5 180.5,43.5C 180.5,53.8333 180.5,64.1667 180.5,74.5C 170.5,74.5 160.5,74.5 150.5,74.5C 150.5,84.5 150.5,94.5 150.5,104.5C 140.167,104.5 129.833,104.5 119.5,104.5C 119.5,94.5 119.5,84.5 119.5,74.5C 109.5,74.5 99.5,74.5 89.5,74.5C 89.5,64.1667 89.5,53.8333 89.5,43.5C 99.5,43.5 109.5,43.5 119.5,43.5C 119.5,33.5 119.5,23.5 119.5,13.5 Z M 120.5,44.5 C 130.167,44.5 139.833,44.5 149.5,44.5C 149.5,54.1667 149.5,63.8333 149.5,73.5C 139.833,73.5 130.167,73.5 120.5,73.5C 120.5,63.8333 120.5,54.1667 120.5,44.5 Z"/></g>
<g><path style="opacity:0.986" fill="#047ff2" d="M 86.5,134.5 C 137.168,134.333 187.834,134.5 238.5,135C 281.68,178.347 325.014,221.514 368.5,264.5C 391.82,241.681 414.986,218.681 438,195.5C 448.051,182.058 454.884,167.058 458.5,150.5C 470.911,160.98 478.411,174.314 481,190.5C 481.5,207.163 481.667,223.83 481.5,240.5C 447.857,243.311 428.023,261.311 422,294.5C 421.5,301.826 421.334,309.159 421.5,316.5C 310.833,316.5 200.167,316.5 89.5,316.5C 92.8212,290.27 84.4879,268.77 64.5,252C 53.9296,244.865 42.2629,241.032 29.5,240.5C 29.3334,223.83 29.5001,207.163 30,190.5C 36.7941,159.539 55.6275,140.872 86.5,134.5 Z"/></g>
<g><path style="opacity:0.974" fill="#047ff2" d="M -0.5,376.5 C -0.5,348.5 -0.5,320.5 -0.5,292.5C 6.63661,274.891 19.6366,267.724 38.5,271C 50.7343,275.234 57.901,283.734 60,296.5C 60.5,323.165 60.6666,349.831 60.5,376.5C 40.1667,376.5 19.8333,376.5 -0.5,376.5 Z"/></g>
<g><path style="opacity:0.974" fill="#047ff2" d="M 511.5,292.5 C 511.5,320.5 511.5,348.5 511.5,376.5C 491.167,376.5 470.833,376.5 450.5,376.5C 450.333,349.831 450.5,323.165 451,296.5C 454.418,279.918 464.584,270.918 481.5,269.5C 496.421,270.94 506.421,278.606 511.5,292.5 Z"/></g>
<g><path style="opacity:0.97" fill="#047ff2" d="M 89.5,345.5 C 200.167,345.5 310.833,345.5 421.5,345.5C 421.5,355.833 421.5,366.167 421.5,376.5C 310.833,376.5 200.167,376.5 89.5,376.5C 89.5,366.167 89.5,355.833 89.5,345.5 Z"/></g>
<g><path style="opacity:0.99" fill="#047ff2" d="M -0.5,405.5 C 170.167,405.5 340.833,405.5 511.5,405.5C 511.5,430.833 511.5,456.167 511.5,481.5C 496.5,481.5 481.5,481.5 466.5,481.5C 466.5,491.5 466.5,501.5 466.5,511.5C 456.167,511.5 445.833,511.5 435.5,511.5C 435.5,501.5 435.5,491.5 435.5,481.5C 315.5,481.5 195.5,481.5 75.5,481.5C 75.5,491.5 75.5,501.5 75.5,511.5C 65.1667,511.5 54.8333,511.5 44.5,511.5C 44.5,501.5 44.5,491.5 44.5,481.5C 29.5,481.5 14.5,481.5 -0.5,481.5C -0.5,456.167 -0.5,430.833 -0.5,405.5 Z"/></g>
</svg>
