<?xml version="1.0" encoding="UTF-8"?>
<!DOCTYPE svg PUBLIC "-//W3C//DTD SVG 1.1//EN" "http://www.w3.org/Graphics/SVG/1.1/DTD/svg11.dtd">
<svg xmlns="http://www.w3.org/2000/svg" version="1.1" width="512px" height="512px" style="shape-rendering:geometricPrecision; text-rendering:geometricPrecision; image-rendering:optimizeQuality; fill-rule:evenodd; clip-rule:evenodd" xmlns:xlink="http://www.w3.org/1999/xlink">
<g><path style="opacity:0.996" fill="#047ff2" d="M 511.5,99.5 C 511.5,150.833 511.5,202.167 511.5,253.5C 482.5,253.5 453.5,253.5 424.5,253.5C 424.013,201.107 424.513,148.774 426,96.5C 428.315,92.1832 431.815,89.3498 436.5,88C 457.167,87.3333 477.833,87.3333 498.5,88C 504.27,90.273 508.603,94.1063 511.5,99.5 Z M 464.5,112.5 C 469.624,111.464 472.79,113.464 474,118.5C 474.667,153.5 474.667,188.5 474,223.5C 472.789,228.71 469.623,230.544 464.5,229C 462.513,227.681 461.346,225.848 461,223.5C 460.333,188.5 460.333,153.5 461,118.5C 461.564,116.113 462.73,114.113 464.5,112.5 Z"/></g>
<g><path style="opacity:0.982" fill="#047ff2" d="M 252.5,106.5 C 278.719,103.027 298.219,112.693 311,135.5C 317.455,153.1 316.788,170.433 309,187.5C 297.293,212.211 278.46,228.711 252.5,237C 225.061,243.532 203.894,235.032 189,211.5C 180.234,189.215 182.234,167.881 195,147.5C 208.57,125.814 227.737,112.147 252.5,106.5 Z"/></g>
<g><path style="opacity:0.951" fill="#047ff2" d="M 328.5,172.5 C 351.728,170.242 373.061,175.409 392.5,188C 400.827,193.819 402.994,201.319 399,210.5C 394.071,216.118 387.905,217.951 380.5,216C 374.576,210.202 367.576,206.202 359.5,204C 349.236,202.182 338.903,200.849 328.5,200C 320.154,196.471 317.321,190.304 320,181.5C 321.688,177.315 324.521,174.315 328.5,172.5 Z"/></g>
<g><path style="opacity:0.942" fill="#047ff2" d="M 325.5,206.5 C 347.215,209.759 364.048,220.426 376,238.5C 378.783,252.718 372.95,258.885 358.5,257C 354.114,255.07 350.948,251.903 349,247.5C 346.926,245.548 344.759,243.715 342.5,242C 334.067,237.746 325.4,234.079 316.5,231C 310.967,223.728 311.3,216.728 317.5,210C 320.158,208.522 322.825,207.355 325.5,206.5 Z"/></g>
<g><path style="opacity:0.981" fill="#047ff2" d="M 62.5,511.5 C 50.1667,511.5 37.8333,511.5 25.5,511.5C 19.8266,509.494 14.4933,506.661 9.5,503C 5.23494,497.953 1.90161,492.453 -0.5,486.5C -0.5,481.167 -0.5,475.833 -0.5,470.5C 4.79411,454.051 16.1274,445.217 33.5,444C 49.5022,443.387 65.5022,442.72 81.5,442C 67.4749,421.622 54.6416,400.456 43,378.5C 30.1351,347.036 33.8018,317.703 54,290.5C 77.1947,266.972 100.695,243.805 124.5,221C 144.474,211.07 163.474,212.737 181.5,226C 188,231.167 193.833,237 199,243.5C 208.96,260.585 218.793,277.752 228.5,295C 254.17,293.885 279.836,292.385 305.5,290.5C 327.033,289.946 338.7,300.446 340.5,322C 338.256,339.909 328.256,350.243 310.5,353C 274.892,356.56 239.225,358.893 203.5,360C 195.744,358.253 189.577,354.086 185,347.5C 180.254,338.339 175.254,329.339 170,320.5C 153.986,336.347 138.153,352.347 122.5,368.5C 138.667,396.167 154.833,423.833 171,451.5C 176.019,471.973 169.519,487.807 151.5,499C 141.284,504.961 130.284,508.294 118.5,509C 99.6593,509.505 80.9926,510.338 62.5,511.5 Z M 144.5,240.5 C 147.769,240.884 150.603,242.218 153,244.5C 160.333,263.167 167.667,281.833 175,300.5C 175.464,309.542 171.964,311.542 164.5,306.5C 156.764,287.46 148.931,268.46 141,249.5C 140.333,247.833 140.333,246.167 141,244.5C 142.376,243.295 143.542,241.962 144.5,240.5 Z M 81.5,348.5 C 94.0127,347.839 103.513,352.839 110,363.5C 111.448,371.725 108.281,374.558 100.5,372C 95.7884,364.192 88.7884,360.525 79.5,361C 76.1355,357.974 75.6355,354.474 78,350.5C 79.3024,349.915 80.469,349.249 81.5,348.5 Z"/></g>
<g><path style="opacity:0.932" fill="#047ff2" d="M 292.5,227.5 C 306.29,228.478 317.79,234.145 327,244.5C 330.117,258.378 324.617,263.878 310.5,261C 303.989,256.241 296.989,252.241 289.5,249C 284.997,245.155 283.497,240.322 285,234.5C 286.767,231.228 289.267,228.895 292.5,227.5 Z"/></g>
<g><path style="opacity:0.988" fill="#047ff2" d="M 511.5,270.5 C 511.5,281.167 511.5,291.833 511.5,302.5C 503.013,341.153 479.347,364.653 440.5,373C 407.167,373.667 373.833,373.667 340.5,373C 332.687,371.785 325.354,369.285 318.5,365.5C 339.512,357.826 351.179,342.826 353.5,320.5C 351.155,298.655 339.489,284.489 318.5,278C 314.805,277.682 311.138,277.182 307.5,276.5C 294.88,278.052 282.214,279.052 269.5,279.5C 269.335,276.482 269.502,273.482 270,270.5C 270.833,269.667 271.667,268.833 272.5,268C 351.167,267.333 429.833,267.333 508.5,268C 509.373,269.045 510.373,269.878 511.5,270.5 Z"/></g>
<g><path style="opacity:0.987" fill="#047ff2" d="M 327.5,384.5 C 348.412,386.947 369.412,387.947 390.5,387.5C 411.588,387.947 432.588,386.947 453.5,384.5C 457.29,399.206 461.29,413.872 465.5,428.5C 464.905,430.857 463.905,433.023 462.5,435C 414.5,435.667 366.5,435.667 318.5,435C 317.667,434.167 316.833,433.333 316,432.5C 315.333,429.167 315.333,425.833 316,422.5C 320.143,409.905 323.977,397.238 327.5,384.5 Z"/></g>
</svg>
