<?xml version="1.0" encoding="UTF-8"?>
<!DOCTYPE svg PUBLIC "-//W3C//DTD SVG 1.1//EN" "http://www.w3.org/Graphics/SVG/1.1/DTD/svg11.dtd">
<svg xmlns="http://www.w3.org/2000/svg" version="1.1" width="512px" height="512px" style="shape-rendering:geometricPrecision; text-rendering:geometricPrecision; image-rendering:optimizeQuality; fill-rule:evenodd; clip-rule:evenodd" xmlns:xlink="http://www.w3.org/1999/xlink">
<g><path style="opacity:0.98" fill="#047ff2" d="M 174.5,-0.5 C 206.167,-0.5 237.833,-0.5 269.5,-0.5C 269.5,12.1667 269.5,24.8333 269.5,37.5C 237.833,37.5 206.167,37.5 174.5,37.5C 174.5,24.8333 174.5,12.1667 174.5,-0.5 Z"/></g>
<g><path style="opacity:0.992" fill="#047ff2" d="M 511.5,172.5 C 511.5,285.5 511.5,398.5 511.5,511.5C 444.167,511.5 376.833,511.5 309.5,511.5C 309.667,478.832 309.5,446.165 309,413.5C 301.713,348.888 268.546,303.221 209.5,276.5C 208.334,263.513 208.167,250.513 209,237.5C 219.035,227.797 229.368,218.463 240,209.5C 240.5,175.502 240.667,141.502 240.5,107.5C 209.5,107.5 178.5,107.5 147.5,107.5C 147.5,93.8333 147.5,80.1667 147.5,66.5C 207.501,66.3333 267.501,66.5 327.5,67C 365.221,74.4109 402.888,82.0776 440.5,90C 479.92,104.041 503.586,131.541 511.5,172.5 Z M 371.5,138.5 C 388.836,141.556 406.169,144.723 423.5,148C 438.7,153.865 448.2,164.698 452,180.5C 452.667,222.5 452.667,264.5 452,306.5C 447.943,319.457 439.109,326.624 425.5,328C 407.503,328.5 389.503,328.667 371.5,328.5C 371.5,265.167 371.5,201.833 371.5,138.5 Z"/></g>
<g><path style="opacity:0.981" fill="#047ff2" d="M -0.5,184.5 C -0.5,174.167 -0.5,163.833 -0.5,153.5C 12.1667,153.5 24.8333,153.5 37.5,153.5C 37.5,147.5 37.5,141.5 37.5,135.5C 95.8333,135.5 154.167,135.5 212.5,135.5C 212.667,156.169 212.5,176.836 212,197.5C 201.965,207.203 191.632,216.537 181,225.5C 180.5,239.496 180.333,253.496 180.5,267.5C 159.754,264.523 139.087,264.856 118.5,268.5C 117.833,258.833 117.167,249.167 116.5,239.5C 90.5,226.833 64.5,214.167 38.5,201.5C 37.5046,195.872 37.1712,190.206 37.5,184.5C 24.8333,184.5 12.1667,184.5 -0.5,184.5 Z"/></g>
<g><path style="opacity:0.965" fill="#047ff2" d="M -0.5,294.5 C -0.5,284.5 -0.5,274.5 -0.5,264.5C 8.50617,264.666 17.5062,264.5 26.5,264C 41.2092,262.964 51.0425,255.464 56,241.5C 64.7575,245.795 73.5908,249.962 82.5,254C 83.0219,254.561 83.3552,255.228 83.5,256C 74.6874,277.146 59.0207,289.813 36.5,294C 24.1712,294.5 11.8378,294.667 -0.5,294.5 Z"/></g>
<g><path style="opacity:0.974" fill="#047ff2" d="M 134.5,293.5 C 135.833,293.5 137.167,293.5 138.5,293.5C 138.5,316.833 138.5,340.167 138.5,363.5C 103.498,363.667 68.4984,363.5 33.5,363C 55.9016,323.466 89.5682,300.299 134.5,293.5 Z"/></g>
<g><path style="opacity:0.965" fill="#047ff2" d="M 167.5,294.5 C 211.608,301.465 244.608,324.298 266.5,363C 233.502,363.5 200.502,363.667 167.5,363.5C 167.5,340.5 167.5,317.5 167.5,294.5 Z"/></g>
<g><path style="opacity:0.989" fill="#047ff2" d="M 281.5,511.5 C 193.833,511.5 106.167,511.5 18.5,511.5C 18.3334,478.832 18.5,446.165 19,413.5C 19.413,406.688 20.5797,400.021 22.5,393.5C 61.1609,392.5 99.8276,392.167 138.5,392.5C 138.5,411.833 138.5,431.167 138.5,450.5C 148.167,450.5 157.833,450.5 167.5,450.5C 167.5,431.167 167.5,411.833 167.5,392.5C 204.173,392.167 240.839,392.5 277.5,393.5C 279.313,400.379 280.48,407.379 281,414.5C 281.5,446.832 281.667,479.165 281.5,511.5 Z"/></g>
</svg>
