<?xml version="1.0" encoding="UTF-8"?>
<!DOCTYPE svg PUBLIC "-//W3C//DTD SVG 1.1//EN" "http://www.w3.org/Graphics/SVG/1.1/DTD/svg11.dtd">
<svg xmlns="http://www.w3.org/2000/svg" version="1.1" width="512px" height="512px" style="shape-rendering:geometricPrecision; text-rendering:geometricPrecision; image-rendering:optimizeQuality; fill-rule:evenodd; clip-rule:evenodd" xmlns:xlink="http://www.w3.org/1999/xlink">
<g><path style="opacity:0.841" fill="#047ff2" d="M 511.5,10.5 C 511.5,14.8333 511.5,19.1667 511.5,23.5C 505.715,27.7762 500.382,27.2762 495.5,22C 493.018,11.8142 497.018,7.14754 507.5,8C 508.984,8.66218 510.317,9.49551 511.5,10.5 Z"/></g>
<g><path style="opacity:0.81" fill="#047ff2" d="M -0.5,33.5 C -0.5,30.1667 -0.5,26.8333 -0.5,23.5C 4.1545,17.7714 9.48783,17.1047 15.5,21.5C 18.1667,26.1667 18.1667,30.8333 15.5,35.5C 9.48783,39.8953 4.1545,39.2286 -0.5,33.5 Z"/></g>
<g><path style="opacity:0.937" fill="#047ff2" d="M 95.5,18.5 C 128.894,20.0885 151.394,36.4218 163,67.5C 166.458,81.2567 166.125,94.9234 162,108.5C 159.79,113.761 156.957,118.595 153.5,123C 173.759,121.099 193.092,124.265 211.5,132.5C 232.487,145.81 244.321,164.81 247,189.5C 247.667,293.167 247.667,396.833 247,500.5C 244.442,504.212 240.942,505.378 236.5,504C 235.299,503.097 234.465,501.931 234,500.5C 233.987,393.804 233.321,287.137 232,180.5C 229.813,175.613 227.813,170.613 226,165.5C 217.582,152.702 206.082,143.868 191.5,139C 169.537,137.401 147.537,137.067 125.5,138C 119.891,141.277 118.058,146.11 120,152.5C 120.966,155.199 122.8,157.033 125.5,158C 144.833,158.333 164.167,158.667 183.5,159C 197.45,161.957 206.617,170.124 211,183.5C 212.654,289.137 212.987,394.804 212,500.5C 209.442,504.212 205.942,505.378 201.5,504C 200.299,503.097 199.465,501.931 199,500.5C 198.667,396.5 198.333,292.5 198,188.5C 195.939,180.771 191.106,175.605 183.5,173C 169.837,172.5 156.171,172.333 142.5,172.5C 143.068,185.847 147.235,197.847 155,208.5C 170.03,236.222 168.364,262.888 150,288.5C 124.458,314.428 95.2917,319.095 62.5,302.5C 56.6813,298.179 51.1813,293.512 46,288.5C 35.7225,271.199 26.7225,253.199 19,234.5C 3.56894,188.722 3.7356,143.055 19.5,97.5C 26.3183,82.5276 33.1516,67.5276 40,52.5C 53.1071,32.201 71.6071,20.8677 95.5,18.5 Z M 47.5,110.5 C 51.7888,109.483 54.1221,111.15 54.5,115.5C 39.2657,150.563 39.9323,185.229 56.5,219.5C 56.3333,220.5 56.1667,221.5 56,222.5C 54.3066,223.184 52.8066,224.184 51.5,225.5C 50.094,224.049 48.594,222.716 47,221.5C 28.8505,184.242 29.0172,147.242 47.5,110.5 Z"/></g>
<g><path style="opacity:0.895" fill="#047ff2" d="M 293.5,18.5 C 308.943,19.1087 316.11,27.1087 315,42.5C 309.937,53.7791 301.437,57.6125 289.5,54C 278.576,47.7483 275.742,38.9149 281,27.5C 284.562,23.405 288.728,20.405 293.5,18.5 Z"/></g>
<g><path style="opacity:0.946" fill="#047ff2" d="M 414.5,18.5 C 439.084,18.9489 458.584,28.9489 473,48.5C 482.103,66.4721 490.436,84.8054 498,103.5C 510.275,144.398 510.608,185.398 499,226.5C 491.291,248.302 481.291,268.969 469,288.5C 443.296,314.444 414.13,319.11 381.5,302.5C 351.953,280.352 343.453,251.685 356,216.5C 365.654,203.376 371.487,188.709 373.5,172.5C 359.496,172.333 345.496,172.5 331.5,173C 325,175.5 320.5,180 318,186.5C 317.667,248.167 317.333,309.833 317,371.5C 313.551,377.274 309.217,377.94 304,373.5C 303.333,311.167 303.333,248.833 304,186.5C 307.225,173.607 315.058,164.774 327.5,160C 348.458,158.725 369.458,158.058 390.5,158C 395.492,154.843 397.325,150.343 396,144.5C 394.739,141.789 392.906,139.622 390.5,138C 370.167,137.333 349.833,137.333 329.5,138C 304.086,143.716 288.586,159.216 283,184.5C 282.667,246.833 282.333,309.167 282,371.5C 278.593,377.261 274.26,377.928 269,373.5C 268.333,310.5 268.333,247.5 269,184.5C 274.999,153.163 293.499,133.329 324.5,125C 336.797,123.823 349.13,123.157 361.5,123C 352.181,108.97 348.681,93.4703 351,76.5C 356.409,47.5886 373.242,28.9219 401.5,20.5C 406.007,20.0236 410.34,19.357 414.5,18.5 Z M 462.5,110.5 C 464.591,110.318 466.591,110.652 468.5,111.5C 485.953,148.58 485.787,185.58 468,222.5C 464.449,225.994 461.283,225.327 458.5,220.5C 471.721,194.562 475.221,167.229 469,138.5C 466.393,130.897 463.56,123.397 460.5,116C 460.758,113.991 461.425,112.157 462.5,110.5 Z"/></g>
<g><path style="opacity:0.798" fill="#047ff2" d="M 227.5,65.5 C 236.991,65.4927 240.824,70.1594 239,79.5C 232.951,87.485 226.951,87.485 221,79.5C 219.084,72.6875 221.25,68.0208 227.5,65.5 Z"/></g>
<g><path style="opacity:0.789" fill="#047ff2" d="M 11.5,327.5 C 16.6595,327.056 20.4928,329.056 23,333.5C 24.3602,344.805 19.5268,348.972 8.5,346C 2.44449,338.593 3.44449,332.426 11.5,327.5 Z"/></g>
<g><path style="opacity:0.79" fill="#047ff2" d="M 495.5,327.5 C 505.015,327.514 508.848,332.181 507,341.5C 501.106,349.468 495.106,349.468 489,341.5C 488.333,338.833 488.333,336.167 489,333.5C 490.976,331.124 493.143,329.124 495.5,327.5 Z"/></g>
<g><path style="opacity:0.925" fill="#047ff2" d="M 422.5,345.5 C 428.908,344.036 433.241,346.202 435.5,352C 435.07,354.717 433.737,356.884 431.5,358.5C 428.026,359.011 424.693,359.844 421.5,361C 431.597,362.266 440.597,366.099 448.5,372.5C 453.707,368.626 459.374,367.792 465.5,370C 469.408,372.22 472.908,375.054 476,378.5C 476.992,382.863 475.492,386.029 471.5,388C 467.146,388.49 463.812,386.823 461.5,383C 460.5,382.333 459.5,382.333 458.5,383C 464.63,390.742 467.963,399.408 468.5,409C 482.041,412.832 487.041,421.665 483.5,435.5C 479.932,438.967 476.265,439.134 472.5,436C 471.884,432.137 471.05,428.304 470,424.5C 467.937,434.373 463.77,443.206 457.5,451C 463.277,462.423 460.944,471.756 450.5,479C 443.57,479.034 441.07,475.534 443,468.5C 445.866,466.623 447.033,464.289 446.5,461.5C 445.713,462.242 445.047,463.075 444.5,464C 436.669,468.417 428.335,471.417 419.5,473C 418.423,480.747 413.756,485.413 405.5,487C 394.714,489.55 390.88,485.717 394,475.5C 397.603,473.872 401.437,473.038 405.5,473C 402.682,471.746 399.682,470.913 396.5,470.5C 390.21,467.688 384.21,464.355 378.5,460.5C 373.919,464.387 368.752,465.387 363,463.5C 358.698,461.19 355.031,458.19 352,454.5C 350.281,447.22 353.115,444.053 360.5,445C 362.792,446.29 364.792,447.957 366.5,450C 367.167,450.667 367.833,450.667 368.5,450C 362.601,442.149 358.935,433.316 357.5,423.5C 344.264,418.406 340.264,409.239 345.5,396C 348.167,395.333 350.833,395.333 353.5,396C 354.992,400.787 356.492,405.287 358,409.5C 358.936,399 362.769,389.833 369.5,382C 364.254,371.673 365.92,362.673 374.5,355C 382.671,352.834 386.171,356 385,364.5C 382.705,366.08 381.372,368.08 381,370.5C 388.885,364.704 397.718,361.371 407.5,360.5C 408.853,351.814 413.853,346.814 422.5,345.5 Z M 397.5,390.5 C 399.199,390.34 400.866,390.506 402.5,391C 403.361,393.868 405.028,396.202 407.5,398C 410.486,397.872 413.486,397.872 416.5,398C 419.013,400.849 419.013,403.682 416.5,406.5C 412.379,408.744 408.046,409.077 403.5,407.5C 398.996,404.658 395.996,400.658 394.5,395.5C 395.065,393.491 396.065,391.824 397.5,390.5 Z M 431.5,418.5 C 436.075,417.343 438.742,419.01 439.5,423.5C 436.139,429.53 431.139,433.696 424.5,436C 418.181,438.536 412.681,437.37 408,432.5C 404.645,433.521 401.811,435.355 399.5,438C 393.703,439.502 391.036,437.502 391.5,432C 395.786,426.523 401.453,423.69 408.5,423.5C 412.938,424.498 417.272,425.331 421.5,426C 425.876,424.67 429.21,422.17 431.5,418.5 Z"/></g>
<g><path style="opacity:0.952" fill="#047ff2" d="M 58.5,403.5 C 82.2746,402.965 97.6079,413.965 104.5,436.5C 107.721,458.392 99.5546,474.392 80,484.5C 57.1392,491.839 39.3059,485.506 26.5,465.5C 16.3352,437.96 24.3352,417.96 50.5,405.5C 53.3493,405.036 56.016,404.369 58.5,403.5 Z"/></g>
<g><path style="opacity:0.811" fill="#047ff2" d="M 157.5,421.5 C 167.046,421.541 170.879,426.208 169,435.5C 162.954,442.152 156.954,442.152 151,435.5C 148.742,428.526 150.909,423.859 157.5,421.5 Z"/></g>
<g><path style="opacity:0.791" fill="#047ff2" d="M 303.5,438.5 C 308.513,438.256 312.346,440.256 315,444.5C 315.753,456.252 310.586,460.252 299.5,456.5C 295.5,451.167 295.5,445.833 299.5,440.5C 301.026,440.006 302.359,439.339 303.5,438.5 Z"/></g>
</svg>
