<?xml version="1.0" encoding="UTF-8"?>
<!DOCTYPE svg PUBLIC "-//W3C//DTD SVG 1.1//EN" "http://www.w3.org/Graphics/SVG/1.1/DTD/svg11.dtd">
<svg xmlns="http://www.w3.org/2000/svg" version="1.1" width="512px" height="512px" style="shape-rendering:geometricPrecision; text-rendering:geometricPrecision; image-rendering:optimizeQuality; fill-rule:evenodd; clip-rule:evenodd" xmlns:xlink="http://www.w3.org/1999/xlink">
<g><path style="opacity:0.92" fill="#047ff2" d="M 55.5,17.5 C 66.8333,17.5 78.1667,17.5 89.5,17.5C 90.1922,29.1617 90.8588,40.8283 91.5,52.5C 79.1667,52.5 66.8333,52.5 54.5,52.5C 55.2686,40.8498 55.6019,29.1831 55.5,17.5 Z"/></g>
<g><path style="opacity:0.906" fill="#047ff2" d="M 148.5,17.5 C 159.833,17.5 171.167,17.5 182.5,17.5C 183.962,29.1084 184.628,40.775 184.5,52.5C 172.167,52.5 159.833,52.5 147.5,52.5C 148,40.8392 148.333,29.1725 148.5,17.5 Z"/></g>
<g><path style="opacity:0.878" fill="#047ff2" d="M 333.5,18.5 C 372.168,18.3333 410.835,18.5 449.5,19C 467.514,26.2653 473.848,39.432 468.5,58.5C 464.918,66.2505 459.251,71.7505 451.5,75C 401.545,76.315 351.545,76.9817 301.5,77C 294.885,80.8434 293.052,86.3434 296,93.5C 297.897,95.3985 300.064,96.8985 302.5,98C 344.5,98.3333 386.5,98.6667 428.5,99C 445.168,104.343 452.501,115.676 450.5,133C 444.509,133.499 438.509,133.666 432.5,133.5C 432.608,129.753 432.108,126.086 431,122.5C 430.052,120.43 428.552,118.93 426.5,118C 384.833,117.667 343.167,117.333 301.5,117C 286.275,113.106 277.608,103.273 275.5,87.5C 276.441,76.9466 281.108,68.6133 289.5,62.5C 292.384,61.2616 295.217,59.9283 298,58.5C 347.149,57.6782 396.315,57.1782 445.5,57C 453.78,50.9774 454.114,44.6441 446.5,38C 408.835,37.5 371.168,37.3333 333.5,37.5C 333.5,31.1667 333.5,24.8333 333.5,18.5 Z"/></g>
<g><path style="opacity:0.895" fill="#047ff2" d="M 54.5,64.5 C 67.1667,64.5 79.8333,64.5 92.5,64.5C 92.7594,75.836 93.0928,87.1694 93.5,98.5C 80.1667,98.5 66.8333,98.5 53.5,98.5C 53.3403,87.1461 53.6736,75.8128 54.5,64.5 Z"/></g>
<g><path style="opacity:0.891" fill="#047ff2" d="M 147.5,64.5 C 160.167,64.5 172.833,64.5 185.5,64.5C 185.407,75.8498 185.741,87.1831 186.5,98.5C 172.829,98.6666 159.163,98.4999 145.5,98C 144.465,96.4931 144.632,94.9931 146,93.5C 146.192,83.7565 146.692,74.0898 147.5,64.5 Z"/></g>
<g><path style="opacity:0.867" fill="#047ff2" d="M 51.5,110.5 C 65.5159,110.167 79.5159,110.501 93.5,111.5C 94.4044,122.492 94.9044,133.492 95,144.5C 80.5747,145.656 66.0747,145.823 51.5,145C 51.1594,133.584 51.1594,122.084 51.5,110.5 Z"/></g>
<g><path style="opacity:0.868" fill="#047ff2" d="M 144.5,110.5 C 158.5,110.5 172.5,110.5 186.5,110.5C 187.302,122.148 187.635,133.815 187.5,145.5C 172.833,145.5 158.167,145.5 143.5,145.5C 143.728,133.83 144.062,122.163 144.5,110.5 Z"/></g>
<g><path style="opacity:0.947" fill="#047ff2" d="M 275.5,145.5 C 340.167,145.5 404.833,145.5 469.5,145.5C 469.5,158.5 469.5,171.5 469.5,184.5C 404.833,184.5 340.167,184.5 275.5,184.5C 275.5,171.5 275.5,158.5 275.5,145.5 Z"/></g>
<g><path style="opacity:0.946" fill="#047ff2" d="M 50.5,156.5 C 65.5,156.5 80.5,156.5 95.5,156.5C 98.2097,206.405 100.21,256.405 101.5,306.5C 82.5,306.5 63.5,306.5 44.5,306.5C 45.3634,256.385 47.3634,206.385 50.5,156.5 Z"/></g>
<g><path style="opacity:0.944" fill="#047ff2" d="M 142.5,156.5 C 157.833,156.5 173.167,156.5 188.5,156.5C 190.712,206.218 192.879,255.885 195,305.5C 175.907,306.659 156.74,306.826 137.5,306C 137.043,305.586 136.709,305.086 136.5,304.5C 138.458,255.069 140.458,205.736 142.5,156.5 Z"/></g>
<g><path style="opacity:0.971" fill="#047ff2" d="M 510.5,511.5 C 418.5,511.5 326.5,511.5 234.5,511.5C 253.189,428.224 271.689,344.891 290,261.5C 290.5,239.503 290.667,217.503 290.5,195.5C 345.167,195.5 399.833,195.5 454.5,195.5C 454.333,217.503 454.5,239.503 455,261.5C 473.566,344.834 492.066,428.167 510.5,511.5 Z M 367.5,230.5 C 381.994,229.327 395.494,232.327 408,239.5C 408.606,242.43 409.44,245.263 410.5,248C 403.915,258.588 397.748,269.421 392,280.5C 391.333,281.5 391.333,282.5 392,283.5C 395.24,286.909 397.406,290.909 398.5,295.5C 410.82,296.333 423.153,296.833 435.5,297C 437.281,299.237 439.281,301.237 441.5,303C 440.775,310.615 439.275,318.115 437,325.5C 433.229,333.823 428.895,341.823 424,349.5C 419.661,353.924 414.828,357.757 409.5,361C 405.703,361.59 402.036,361.09 398.5,359.5C 392.663,349.014 386.663,338.18 380.5,327C 375.447,326.783 370.447,326.283 365.5,325.5C 364.5,326.5 363.5,327.5 362.5,328.5C 357.54,338.385 352.207,348.052 346.5,357.5C 343.957,358.803 341.29,359.803 338.5,360.5C 320.86,349.669 310.027,334.003 306,313.5C 305.171,308.467 305.338,303.467 306.5,298.5C 307.842,296.658 309.509,295.158 311.5,294C 324.162,293.5 336.829,293.333 349.5,293.5C 349.491,291.692 349.991,290.025 351,288.5C 353.063,285.946 354.897,283.28 356.5,280.5C 351.164,269.322 345.164,258.489 338.5,248C 339.249,244.925 340.249,241.925 341.5,239C 349.684,234.296 358.351,231.463 367.5,230.5 Z"/></g>
<g><path style="opacity:0.871" fill="#047ff2" d="M 362.5,242.5 C 370.507,242.334 378.507,242.5 386.5,243C 389.977,244.658 393.643,245.825 397.5,246.5C 392.465,255.854 387.465,265.187 382.5,274.5C 381.667,274.833 380.833,275.167 380,275.5C 375.362,274.515 370.862,274.181 366.5,274.5C 361.495,265.156 356.495,255.822 351.5,246.5C 354.843,245.776 358.176,244.943 361.5,244C 362.056,243.617 362.389,243.117 362.5,242.5 Z"/></g>
<g><path style="opacity:0.847" fill="#047ff2" d="M 372.5,285.5 C 378.63,286.888 383.296,290.222 386.5,295.5C 388.249,306.089 383.916,312.756 373.5,315.5C 360.279,311.996 356.612,303.996 362.5,291.5C 365.642,288.94 368.975,286.94 372.5,285.5 Z"/></g>
<g><path style="opacity:0.887" fill="#047ff2" d="M 316.5,306.5 C 327.5,306.5 338.5,306.5 349.5,306.5C 349.643,310.756 351.143,314.422 354,317.5C 354.667,318.833 354.667,320.167 354,321.5C 349.346,328.663 345.513,335.83 342.5,343C 341.44,344.298 340.274,345.465 339,346.5C 325.797,336.406 318.297,323.073 316.5,306.5 Z"/></g>
<g><path style="opacity:0.854" fill="#047ff2" d="M 398.5,307.5 C 408.506,307.334 418.506,307.5 428.5,308C 429.059,308.725 429.392,309.558 429.5,310.5C 426.298,323.468 420.298,334.968 411.5,345C 409.715,347.226 407.382,348.392 404.5,348.5C 400.433,338.534 395.433,329.034 389.5,320C 390.579,319.044 391.745,318.211 393,317.5C 395.44,314.05 397.273,310.716 398.5,307.5 Z"/></g>
<g><path style="opacity:0.956" fill="#047ff2" d="M 223.5,511.5 C 148.833,511.5 74.1667,511.5 -0.5,511.5C -0.5,451.5 -0.5,391.5 -0.5,331.5C 3.25973,323.601 9.59307,319.101 18.5,318C 100.833,317.5 183.166,317.333 265.5,317.5C 259.83,347.764 253.164,378.097 245.5,408.5C 243.67,410.027 242.67,409.527 242.5,407C 243.459,392.525 243.792,378.025 243.5,363.5C 234.167,363.5 224.833,363.5 215.5,363.5C 215.5,398.167 215.5,432.833 215.5,467.5C 220.833,467.5 226.167,467.5 231.5,467.5C 229.684,482.404 227.017,497.071 223.5,511.5 Z M 39.5,363.5 C 48.8333,363.5 58.1667,363.5 67.5,363.5C 67.5,398.167 67.5,432.833 67.5,467.5C 58.1667,467.5 48.8333,467.5 39.5,467.5C 39.5,432.833 39.5,398.167 39.5,363.5 Z M 98.5,363.5 C 107.833,363.5 117.167,363.5 126.5,363.5C 126.5,398.167 126.5,432.833 126.5,467.5C 117.167,467.5 107.833,467.5 98.5,467.5C 98.5,432.833 98.5,398.167 98.5,363.5 Z M 157.5,363.5 C 166.833,363.5 176.167,363.5 185.5,363.5C 185.5,398.167 185.5,432.833 185.5,467.5C 176.167,467.5 166.833,467.5 157.5,467.5C 157.5,432.833 157.5,398.167 157.5,363.5 Z"/></g>
</svg>
