<?xml version="1.0" encoding="UTF-8"?>
<!DOCTYPE svg PUBLIC "-//W3C//DTD SVG 1.1//EN" "http://www.w3.org/Graphics/SVG/1.1/DTD/svg11.dtd">
<svg xmlns="http://www.w3.org/2000/svg" version="1.1" width="512px" height="512px" style="shape-rendering:geometricPrecision; text-rendering:geometricPrecision; image-rendering:optimizeQuality; fill-rule:evenodd; clip-rule:evenodd" xmlns:xlink="http://www.w3.org/1999/xlink">
<g><path style="opacity:0.989" fill="#047ff2" d="M 147.5,-0.5 C 219.5,-0.5 291.5,-0.5 363.5,-0.5C 363.5,40.8333 363.5,82.1667 363.5,123.5C 359.818,123.335 356.152,123.501 352.5,124C 368.126,150.084 383.626,176.251 399,202.5C 399.5,305.499 399.667,408.499 399.5,511.5C 303.5,511.5 207.5,511.5 111.5,511.5C 111.333,408.499 111.5,305.499 112,202.5C 127.374,176.251 142.874,150.084 158.5,124C 154.848,123.501 151.182,123.335 147.5,123.5C 147.5,82.1667 147.5,40.8333 147.5,-0.5 Z M 198.5,123.5 C 236.501,123.333 274.501,123.5 312.5,124C 321.626,139.084 330.626,154.251 339.5,169.5C 283.5,170.833 227.5,170.833 171.5,169.5C 180.527,154.149 189.527,138.816 198.5,123.5 Z M 177.5,267.5 C 229.5,267.5 281.5,267.5 333.5,267.5C 333.5,314.833 333.5,362.167 333.5,409.5C 281.5,409.5 229.5,409.5 177.5,409.5C 177.5,362.167 177.5,314.833 177.5,267.5 Z"/></g>
</svg>
