<?xml version="1.0" encoding="UTF-8"?>
<!DOCTYPE svg PUBLIC "-//W3C//DTD SVG 1.1//EN" "http://www.w3.org/Graphics/SVG/1.1/DTD/svg11.dtd">
<svg xmlns="http://www.w3.org/2000/svg" version="1.1" width="512px" height="512px" style="shape-rendering:geometricPrecision; text-rendering:geometricPrecision; image-rendering:optimizeQuality; fill-rule:evenodd; clip-rule:evenodd" xmlns:xlink="http://www.w3.org/1999/xlink">
<g><path style="opacity:0.958" fill="#047ff2" d="M 165.5,16.5 C 225.501,16.3333 285.501,16.5 345.5,17C 377.944,23.1178 401.444,40.9511 416,70.5C 424.37,92.0384 425.704,114.038 420,136.5C 408.847,130.976 397.014,128.642 384.5,129.5C 384.334,124.156 384.501,118.823 385,113.5C 394.167,104.333 403.333,95.1667 412.5,86C 397.648,83.4299 382.981,80.0966 368.5,76C 355.71,69.8596 345.21,61.0263 337,49.5C 333.232,53.0063 329.066,56.0063 324.5,58.5C 323.479,59.0016 323.312,59.6683 324,60.5C 337.493,78.9988 355.326,91.1655 377.5,97C 375.651,98.093 373.984,99.4263 372.5,101C 355.464,102.226 339.131,99.3928 323.5,92.5C 314.306,87.07 305.639,80.9034 297.5,74C 291.165,66.2872 285.831,58.4539 281.5,50.5C 276.793,53.8536 271.793,56.6869 266.5,59C 271.053,65.2786 275.22,71.7786 279,78.5C 282.522,82.0218 286.022,85.5218 289.5,89C 288.424,91.8812 286.424,93.8812 283.5,95C 264.825,104.1 246.492,103.433 228.5,93C 220.167,84.6667 211.833,76.3333 203.5,68C 179.031,58.9011 163.031,66.9011 155.5,92C 133.867,95.1377 123.867,107.638 125.5,129.5C 113.339,128.903 101.672,130.903 90.5,135.5C 86.6911,118.391 85.5245,101.058 87,83.5C 88.063,77.9777 89.7297,72.6443 92,67.5C 96.5,62.3333 101,57.1667 105.5,52C 112.598,47.6202 120.265,44.6202 128.5,43C 137.089,29.6671 149.423,20.8338 165.5,16.5 Z"/></g>
<g><path style="opacity:0.951" fill="#047ff2" d="M 186.5,80.5 C 189.526,81.1736 192.526,82.0069 195.5,83C 219.585,116.583 250.918,125.917 289.5,111C 294.422,107.622 299.255,104.122 304,100.5C 323.27,112.991 344.436,118.991 367.5,118.5C 367.5,143.833 367.5,169.167 367.5,194.5C 353.045,193.477 341.545,198.811 333,210.5C 314.575,236.212 319.075,256.879 346.5,272.5C 343.69,277.144 340.023,280.977 335.5,284C 322.929,291.452 309.929,298.119 296.5,304C 290.316,308.203 286.482,314.036 285,321.5C 284.168,330.851 284.335,340.184 285.5,349.5C 290.981,350.537 296.315,351.87 301.5,353.5C 300.604,358.458 298.271,362.624 294.5,366C 287.579,369.265 280.913,372.932 274.5,377C 267.633,382.869 261.133,389.036 255,395.5C 248.867,389.036 242.367,382.869 235.5,377C 228.663,372.747 221.663,368.747 214.5,365C 211.306,361.779 209.306,357.946 208.5,353.5C 213.726,352.051 219.059,350.718 224.5,349.5C 225.665,340.184 225.832,330.851 225,321.5C 223.518,314.036 219.684,308.203 213.5,304C 200.071,298.119 187.071,291.452 174.5,284C 169.977,280.977 166.31,277.144 163.5,272.5C 190.913,256.941 195.413,236.275 177,210.5C 168.45,198.808 156.95,193.475 142.5,194.5C 142.333,169.164 142.5,143.831 143,118.5C 144.767,114.031 147.934,111.031 152.5,109.5C 157.5,108.833 162.5,108.167 167.5,107.5C 170.817,100.72 173.65,93.7196 176,86.5C 179.069,83.5545 182.569,81.5545 186.5,80.5 Z M 162.5,138.5 C 174.416,138.749 185.749,141.416 196.5,146.5C 200.994,149.914 205.66,153.081 210.5,156C 215.054,160.554 219.554,165.054 224,169.5C 225.899,173.197 225.899,176.864 224,180.5C 223.25,181.126 222.416,181.626 221.5,182C 205.625,181.234 190.625,184.4 176.5,191.5C 174,187.167 171.5,182.833 169,178.5C 168.251,177.365 168.417,176.365 169.5,175.5C 177.405,171.607 185.738,169.107 194.5,168C 195.727,166.413 195.394,165.079 193.5,164C 183.804,158.826 173.47,155.993 162.5,155.5C 162.5,149.833 162.5,144.167 162.5,138.5 Z M 340.5,138.5 C 342.833,138.5 345.167,138.5 347.5,138.5C 347.5,144.167 347.5,149.833 347.5,155.5C 337.31,155.964 327.644,158.464 318.5,163C 316.939,163.941 315.605,165.108 314.5,166.5C 314.709,167.086 315.043,167.586 315.5,168C 324.262,169.107 332.595,171.607 340.5,175.5C 341.583,176.365 341.749,177.365 341,178.5C 338.5,182.833 336,187.167 333.5,191.5C 319.375,184.4 304.375,181.234 288.5,182C 286.667,181.5 285.5,180.333 285,178.5C 284.21,175.366 284.543,172.366 286,169.5C 300.489,152.511 318.656,142.177 340.5,138.5 Z M 246.5,175.5 C 252.206,175.171 257.872,175.505 263.5,176.5C 262.7,183.784 262.2,191.117 262,198.5C 261.369,201.393 260.536,204.226 259.5,207C 259.905,207.945 260.572,208.612 261.5,209C 266.417,210.083 271.084,211.749 275.5,214C 273.725,219.279 271.725,224.446 269.5,229.5C 259.634,226.454 249.967,222.954 240.5,219C 237.806,216.347 236.973,213.18 238,209.5C 246.605,199.653 249.438,188.32 246.5,175.5 Z M 248.5,250.5 C 268.466,248.871 284.799,255.705 297.5,271C 293.55,275.072 289.717,279.238 286,283.5C 271.094,266.32 253.594,263.153 233.5,274C 230.333,277.167 227.167,280.333 224,283.5C 220.283,279.238 216.45,275.072 212.5,271C 222.112,259.701 234.112,252.868 248.5,250.5 Z"/></g>
<g><path style="opacity:0.915" fill="#047ff2" d="M 110.5,145.5 C 115.5,145.5 120.5,145.5 125.5,145.5C 125.833,162.846 125.5,180.179 124.5,197.5C 119.32,198.672 114.82,201.005 111,204.5C 87.6435,196.432 80.9768,181.099 91,158.5C 96.4816,152.518 102.982,148.185 110.5,145.5 Z"/></g>
<g><path style="opacity:0.915" fill="#047ff2" d="M 384.5,145.5 C 398.291,143.814 409.791,148.147 419,158.5C 429.023,181.099 422.357,196.432 399,204.5C 395.18,201.005 390.68,198.672 385.5,197.5C 384.5,180.179 384.167,162.846 384.5,145.5 Z"/></g>
<g><path style="opacity:0.953" fill="#047ff2" d="M 139.5,211.5 C 148.806,210.112 156.64,212.778 163,219.5C 165.735,224.633 168.735,229.633 172,234.5C 172.612,241.301 170.112,246.801 164.5,251C 157.784,256.717 150.784,262.05 143.5,267C 140.724,268.037 137.89,268.87 135,269.5C 131.275,268.319 127.608,268.319 124,269.5C 107.493,307.344 90.3264,344.844 72.5,382C 93.2981,378.296 113.965,374.296 134.5,370C 135.492,386.756 135.825,403.589 135.5,420.5C 114.369,426.097 93.0355,431.263 71.5,436C 49.6992,439.35 33.8659,431.183 24,411.5C 19.6424,396.601 20.9758,382.268 28,368.5C 50.8433,326.149 73.1766,283.482 95,240.5C 102.382,229.889 111.882,221.722 123.5,216C 128.874,214.16 134.207,212.66 139.5,211.5 Z"/></g>
<g><path style="opacity:0.953" fill="#047ff2" d="M 359.5,211.5 C 383.397,211.03 401.897,220.697 415,240.5C 436.853,283.545 459.187,326.211 482,368.5C 490.256,384.687 490.589,401.021 483,417.5C 472.139,433.18 457.306,439.346 438.5,436C 417.004,431.27 395.671,426.103 374.5,420.5C 374.175,403.589 374.508,386.756 375.5,370C 396.047,374.242 416.713,378.242 437.5,382C 419.448,344.429 402.281,306.929 386,269.5C 382.392,268.319 378.725,268.319 375,269.5C 372.044,269.053 369.211,268.22 366.5,267C 359.216,262.05 352.216,256.717 345.5,251C 339.888,246.801 337.388,241.301 338,234.5C 342.142,227.705 346.642,221.205 351.5,215C 354.158,213.522 356.825,212.355 359.5,211.5 Z"/></g>
<g><path style="opacity:0.972" fill="#047ff2" d="M 360.5,511.5 C 290.167,511.5 219.833,511.5 149.5,511.5C 150.319,463.529 150.819,415.529 151,367.5C 151.772,366.151 152.939,365.318 154.5,365C 167.169,362.433 179.836,359.933 192.5,357.5C 196.226,373.727 206.226,383.894 222.5,388C 233.703,398.204 244.536,408.704 255,419.5C 265.634,408.907 276.467,398.407 287.5,388C 303.76,383.907 313.76,373.741 317.5,357.5C 330.216,359.676 342.883,362.176 355.5,365C 357.061,365.318 358.228,366.151 359,367.5C 359.181,415.529 359.681,463.529 360.5,511.5 Z"/></g>
</svg>
