<?xml version="1.0" encoding="UTF-8"?>
<!DOCTYPE svg PUBLIC "-//W3C//DTD SVG 1.1//EN" "http://www.w3.org/Graphics/SVG/1.1/DTD/svg11.dtd">
<svg xmlns="http://www.w3.org/2000/svg" version="1.1" width="512px" height="512px" style="shape-rendering:geometricPrecision; text-rendering:geometricPrecision; image-rendering:optimizeQuality; fill-rule:evenodd; clip-rule:evenodd" xmlns:xlink="http://www.w3.org/1999/xlink">
<g><path style="opacity:0.92" fill="#047ff2" d="M 32.5,-0.5 C 38.8333,-0.5 45.1667,-0.5 51.5,-0.5C 51.1703,5.86818 51.5037,12.2015 52.5,18.5C 54.6068,19.6368 56.7735,20.6368 59,21.5C 63.768,17.9174 68.9347,14.9174 74.5,12.5C 77.8568,17.3694 80.8568,22.5361 83.5,28C 83.3552,28.772 83.0219,29.4387 82.5,30C 77.3343,32.7484 72.3343,35.7484 67.5,39C 68.7883,41.4665 68.7883,43.9665 67.5,46.5C 72.838,49.1669 77.838,52.3336 82.5,56C 83.5171,57.0495 83.6838,58.2161 83,59.5C 79.9155,64.0002 77.0821,68.6669 74.5,73.5C 69.4532,69.9769 64.1198,66.9769 58.5,64.5C 56.2029,65.6485 53.8696,66.8152 51.5,68C 51.4164,73.9559 51.4164,80.1225 51.5,86.5C 45.1667,86.5 38.8333,86.5 32.5,86.5C 32.5836,80.1225 32.5836,73.9559 32.5,68C 30.1304,66.8152 27.7971,65.6485 25.5,64.5C 19.8802,66.9769 14.5468,69.9769 9.5,73.5C 6.6194,68.2353 3.6194,63.0687 0.5,58C 4.69704,52.8842 10.0304,49.2175 16.5,47C 15.7178,44.2595 15.2178,41.4262 15,38.5C 10.7529,35.2916 6.25294,32.4583 1.5,30C 0.978136,29.4387 0.644803,28.772 0.5,28C 3.1432,22.5361 6.1432,17.3694 9.5,12.5C 15.0653,14.9174 20.232,17.9174 25,21.5C 27.2265,20.6368 29.3932,19.6368 31.5,18.5C 32.4963,12.2015 32.8297,5.86818 32.5,-0.5 Z"/></g>
<g><path style="opacity:0.903" fill="#047ff2" d="M 385.5,7.5 C 402.302,6.8044 409.469,14.8044 407,31.5C 401.43,43.3592 392.596,46.5259 380.5,41C 369.833,30.6667 369.833,20.3333 380.5,10C 382.315,9.24316 383.981,8.40982 385.5,7.5 Z"/></g>
<g><path style="opacity:0.901" fill="#047ff2" d="M 511.5,61.5 C 511.5,62.5 511.5,63.5 511.5,64.5C 506.535,66.649 501.868,69.3157 497.5,72.5C 496.873,75.7021 496.206,78.8688 495.5,82C 500.976,84.6607 506.309,87.494 511.5,90.5C 511.5,91.5 511.5,92.5 511.5,93.5C 508.561,98.2811 505.394,102.948 502,107.5C 496.891,104.696 491.724,102.029 486.5,99.5C 483.721,100.389 481.055,101.556 478.5,103C 479.476,109.076 479.81,115.242 479.5,121.5C 472.833,121.5 466.167,121.5 459.5,121.5C 459.6,114.986 459.6,108.652 459.5,102.5C 457.082,101.543 454.916,100.209 453,98.5C 447.813,101.76 442.479,104.76 437,107.5C 434.094,103.363 431.427,99.0296 429,94.5C 428.202,92.7412 428.369,91.0745 429.5,89.5C 434.492,87.3391 439.159,84.6724 443.5,81.5C 442.212,78.9665 442.212,76.4665 443.5,74C 439.173,70.5013 434.506,67.5013 429.5,65C 428.978,64.4387 428.645,63.772 428.5,63C 430.625,57.2403 433.625,52.0737 437.5,47.5C 442.001,49.9159 446.334,52.5825 450.5,55.5C 451.768,56.4279 453.101,56.5946 454.5,56C 456.156,54.1706 458.156,52.8372 460.5,52C 459.183,45.8636 459.183,39.6969 460.5,33.5C 466.472,32.3364 472.472,32.1697 478.5,33C 479.149,39.445 479.816,45.945 480.5,52.5C 482.303,53.1368 483.636,54.3035 484.5,56C 485.5,56.6667 486.5,56.6667 487.5,56C 492.103,52.7816 496.936,49.9482 502,47.5C 505.078,52.2568 508.245,56.9235 511.5,61.5 Z"/></g>
<g><path style="opacity:0.958" fill="#047ff2" d="M 246.5,42.5 C 267.53,40.0809 281.364,48.7476 288,68.5C 288.667,80.1667 288.667,91.8333 288,103.5C 284.436,117.042 275.936,125.875 262.5,130C 246.655,132.8 234.155,127.633 225,114.5C 223.127,110.536 221.46,106.536 220,102.5C 219.208,90.8063 219.375,79.1396 220.5,67.5C 222.95,61.427 226.284,55.927 230.5,51C 235.483,47.344 240.816,44.5107 246.5,42.5 Z"/></g>
<g><path style="opacity:0.906" fill="#047ff2" d="M -0.5,161.5 C -0.5,157.5 -0.5,153.5 -0.5,149.5C 3.65488,139.89 10.9882,136.057 21.5,138C 29.953,141.028 34.2864,147.028 34.5,156C 31.1405,172.014 21.8072,177.014 6.5,171C 3.1151,168.471 0.78177,165.304 -0.5,161.5 Z"/></g>
<g><path style="opacity:0.968" fill="#047ff2" d="M 356.5,511.5 C 338.833,511.5 321.167,511.5 303.5,511.5C 299.989,492.785 296.155,474.118 292,455.5C 284.96,425.968 277.794,396.468 270.5,367C 270.645,366.228 270.978,365.561 271.5,365C 260.172,364.5 248.838,364.333 237.5,364.5C 226.837,413.498 216.17,462.498 205.5,511.5C 187.5,511.5 169.5,511.5 151.5,511.5C 165.49,449.222 179.49,386.889 193.5,324.5C 192.998,323.479 192.332,323.312 191.5,324C 181.299,332.587 170.632,340.421 159.5,347.5C 158.648,344.777 157.481,342.11 156,339.5C 140.738,315.969 125.738,292.303 111,268.5C 104.852,255.676 105.185,243.009 112,230.5C 123.361,211.616 134.861,192.783 146.5,174C 152.599,169.284 159.265,165.618 166.5,163C 225.167,162.333 283.833,162.333 342.5,163C 351.883,165.778 359.717,170.944 366,178.5C 375.83,196.164 386.163,213.497 397,230.5C 403.815,243.009 404.148,255.676 398,268.5C 383.031,292.146 368.031,315.813 353,339.5C 351.519,342.11 350.352,344.777 349.5,347.5C 338.173,340.689 327.507,332.855 317.5,324C 316.668,323.312 316.002,323.479 315.5,324.5C 324.689,362.623 333.022,400.789 340.5,439C 342.004,440.491 342.837,442.324 343,444.5C 347.696,466.812 352.196,489.145 356.5,511.5 Z M 169.5,217.5 C 177.833,217.5 186.167,217.5 194.5,217.5C 194.667,250.835 194.5,284.168 194,317.5C 180.361,295.05 166.861,272.55 153.5,250C 159.207,239.419 164.54,228.586 169.5,217.5 Z M 314.5,217.5 C 322.507,217.334 330.507,217.5 338.5,218C 344.764,228.361 350.097,239.195 354.5,250.5C 350.511,259.147 346.011,267.48 341,275.5C 332.333,289.5 323.667,303.5 315,317.5C 314.5,284.168 314.333,250.835 314.5,217.5 Z"/></g>
<g><path style="opacity:0.859" fill="#047ff2" d="M 446.5,173.5 C 447.5,173.5 448.5,173.5 449.5,173.5C 452.017,185.75 454.017,198.083 455.5,210.5C 449.506,211.836 443.506,212.169 437.5,211.5C 435.112,200.229 433.112,188.895 431.5,177.5C 436.809,176.924 441.809,175.591 446.5,173.5 Z"/></g>
<g><path style="opacity:0.014" fill="#047ff2" d="M 57.5,183.5 C 59.337,183.639 59.6704,184.306 58.5,185.5C 57.7025,185.043 57.3691,184.376 57.5,183.5 Z"/></g>
<g><path style="opacity:0.838" fill="#047ff2" d="M 51.5,219.5 C 57.5593,219.772 63.5593,220.439 69.5,221.5C 69.8333,222.667 70.1667,223.833 70.5,225C 68.9542,242.052 68.2876,259.052 68.5,276C 62.3033,277.534 56.1367,277.701 50,276.5C 48.9958,257.334 49.4958,238.334 51.5,219.5 Z"/></g>
<g><path style="opacity:0.86" fill="#047ff2" d="M 440.5,244.5 C 446.5,244.5 452.5,244.5 458.5,244.5C 458.667,256.838 458.5,269.171 458,281.5C 457.667,281.833 457.333,282.167 457,282.5C 451.229,281.657 445.395,280.99 439.5,280.5C 439.775,268.343 440.109,256.343 440.5,244.5 Z"/></g>
<g><path style="opacity:0.842" fill="#047ff2" d="M 66.5,307.5 C 68.8333,307.5 71.1667,307.5 73.5,307.5C 74.9612,318.512 77.2945,329.346 80.5,340C 80.3552,340.772 80.0219,341.439 79.5,342C 73.8349,343.944 68.1682,345.778 62.5,347.5C 59.5816,335.91 56.9149,324.244 54.5,312.5C 54.6082,311.558 54.9415,310.725 55.5,310C 59.3474,309.367 63.014,308.533 66.5,307.5 Z"/></g>
<g><path style="opacity:0.843" fill="#047ff2" d="M 434.5,312.5 C 440.243,312.748 445.91,313.581 451.5,315C 452.428,315.388 453.095,316.055 453.5,317C 451.509,327.62 449.009,338.12 446,348.5C 445.585,350.291 444.585,351.624 443,352.5C 437.92,350.696 432.92,348.696 428,346.5C 430.148,335.227 432.315,323.894 434.5,312.5 Z"/></g>
<g><path style="opacity:0.901" fill="#047ff2" d="M 470.5,354.5 C 487.335,353.835 494.501,361.835 492,378.5C 487.89,388.805 480.39,392.639 469.5,390C 458.419,384.666 454.919,376.166 459,364.5C 461.818,359.839 465.651,356.505 470.5,354.5 Z"/></g>
<g><path style="opacity:0.851" fill="#047ff2" d="M 90.5,371.5 C 91.3764,371.369 92.0431,371.702 92.5,372.5C 96.8751,382.752 101.875,392.585 107.5,402C 107.167,402.833 106.833,403.667 106.5,404.5C 101.747,407.294 96.9137,409.96 92,412.5C 85.6405,402.13 80.1405,391.297 75.5,380C 80.3643,376.883 85.3643,374.05 90.5,371.5 Z"/></g>
<g><path style="opacity:0.848" fill="#047ff2" d="M 414.5,375.5 C 419.812,377.821 425.145,380.155 430.5,382.5C 430.833,383.167 431.167,383.833 431.5,384.5C 427.685,392.13 423.851,399.797 420,407.5C 418.477,410.555 416.477,413.222 414,415.5C 408.403,412.956 403.236,409.789 398.5,406C 402.215,399.328 405.882,393.161 409.5,387.5C 411.179,383.479 412.846,379.479 414.5,375.5 Z"/></g>
<g><path style="opacity:0.891" fill="#047ff2" d="M 38.5,414.5 C 48.5065,413.916 55.3398,418.249 59,427.5C 61.9794,439.275 57.8128,447.108 46.5,451C 29.9634,451.795 22.7968,443.962 25,427.5C 27.4679,420.862 31.9679,416.528 38.5,414.5 Z"/></g>
<g><path style="opacity:0.919" fill="#047ff2" d="M 473.5,511.5 C 467.167,511.5 460.833,511.5 454.5,511.5C 454.83,505.132 454.496,498.798 453.5,492.5C 451.393,491.363 449.227,490.363 447,489.5C 442.232,493.083 437.065,496.083 431.5,498.5C 428.918,493.667 426.085,489 423,484.5C 422.316,483.216 422.483,482.049 423.5,481C 428.267,478.562 432.767,475.729 437,472.5C 437.784,469.24 437.617,466.073 436.5,463C 431.918,460.211 427.252,457.711 422.5,455.5C 422.343,454.127 422.51,452.793 423,451.5C 426.088,446.99 428.922,442.324 431.5,437.5C 436,440.585 440.667,443.418 445.5,446C 446.833,446.667 448.167,446.667 449.5,446C 450.665,444.916 451.998,444.083 453.5,443.5C 454.496,437.202 454.83,430.868 454.5,424.5C 460.833,424.5 467.167,424.5 473.5,424.5C 473.17,430.868 473.504,437.202 474.5,443.5C 476.002,444.083 477.335,444.916 478.5,446C 485.314,445.095 491.314,442.262 496.5,437.5C 499.87,442.402 502.87,447.568 505.5,453C 501.303,458.116 495.97,461.782 489.5,464C 490.833,466.667 490.833,469.333 489.5,472C 494.583,475.292 499.75,478.459 505,481.5C 505.257,484.017 504.59,486.35 503,488.5C 501.069,492.04 498.902,495.374 496.5,498.5C 491.194,495.683 486.027,492.683 481,489.5C 478.773,490.363 476.607,491.363 474.5,492.5C 473.504,498.798 473.17,505.132 473.5,511.5 Z"/></g>
<g><path style="opacity:0.852" fill="#047ff2" d="M 125.5,428.5 C 126.239,428.369 126.906,428.536 127.5,429C 134.001,437.666 141.334,445.499 149.5,452.5C 146.598,457.739 142.931,462.406 138.5,466.5C 129.076,458.911 120.41,450.411 112.5,441C 116.421,436.379 120.754,432.212 125.5,428.5 Z"/></g>
<g><path style="opacity:0.846" fill="#047ff2" d="M 378.5,431.5 C 380.255,432.072 381.922,432.906 383.5,434C 386.522,437.688 389.855,441.022 393.5,444C 386.083,454.031 377.25,462.531 367,469.5C 362.925,465.007 359.092,460.341 355.5,455.5C 363.099,448.403 370.599,441.069 378,433.5C 378.464,432.906 378.631,432.239 378.5,431.5 Z"/></g>
<g><path style="opacity:0.836" fill="#047ff2" d="M 270.5,511.5 C 259.167,511.5 247.833,511.5 236.5,511.5C 235.791,510.596 234.791,510.263 233.5,510.5C 233.656,504.428 234.323,498.428 235.5,492.5C 245.652,492.552 255.819,492.219 266,491.5C 267.107,491.585 268.107,491.919 269,492.5C 269.556,498.835 270.056,505.168 270.5,511.5 Z"/></g>
</svg>
