<?xml version="1.0" encoding="UTF-8"?>
<!DOCTYPE svg PUBLIC "-//W3C//DTD SVG 1.1//EN" "http://www.w3.org/Graphics/SVG/1.1/DTD/svg11.dtd">
<svg xmlns="http://www.w3.org/2000/svg" version="1.1" width="512px" height="512px" style="shape-rendering:geometricPrecision; text-rendering:geometricPrecision; image-rendering:optimizeQuality; fill-rule:evenodd; clip-rule:evenodd" xmlns:xlink="http://www.w3.org/1999/xlink">
<g><path style="opacity:0.974" fill="#047ff2" d="M 511.5,214.5 C 511.5,241.167 511.5,267.833 511.5,294.5C 508.497,302.994 502.497,308.161 493.5,310C 488.845,310.499 484.179,310.666 479.5,310.5C 479.667,322.171 479.5,333.838 479,345.5C 472.259,364.792 458.759,372.626 438.5,369C 424.116,364.403 416.282,354.57 415,339.5C 414.5,329.839 414.334,320.172 414.5,310.5C 397.83,310.667 381.163,310.5 364.5,310C 363.333,308.833 362.167,307.667 361,306.5C 353.256,265.113 345.256,223.78 337,182.5C 332.122,171.453 323.956,164.12 312.5,160.5C 310.081,148.264 311.581,136.597 317,125.5C 321.399,120.053 326.899,116.22 333.5,114C 347.962,112.887 362.462,112.387 377,112.5C 391.538,112.387 406.038,112.887 420.5,114C 431.427,117.927 438.594,125.427 442,136.5C 442.5,146.494 442.666,156.494 442.5,166.5C 447.5,166.5 452.5,166.5 457.5,166.5C 451.354,133.603 445.02,100.769 438.5,68C 426.486,67.1674 414.486,67.3341 402.5,68.5C 407.329,89.6777 398.996,102.011 377.5,105.5C 355.866,101.846 347.199,89.1793 351.5,67.5C 307.162,67.1667 262.828,67.5001 218.5,68.5C 212.295,98.7325 206.628,129.066 201.5,159.5C 192.167,159.5 182.833,159.5 173.5,159.5C 179.804,121.676 186.971,84.009 195,46.5C 196.873,44.2911 199.04,42.4578 201.5,41C 284.464,39.3471 367.464,39.0138 450.5,40C 458.133,40.752 462.633,44.9187 464,52.5C 471.872,94.1933 479.872,135.86 488,177.5C 500.4,186.973 508.233,199.307 511.5,214.5 Z M 441.5,213.5 C 466.644,212.476 478.477,224.476 477,249.5C 470.707,267.399 458.207,274.565 439.5,271C 419.011,261.203 413.845,246.036 424,225.5C 428.84,219.847 434.673,215.847 441.5,213.5 Z"/></g>
<g><path style="opacity:0.981" fill="#047ff2" d="M 301.5,511.5 C 301.167,511.5 300.833,511.5 300.5,511.5C 282.43,509.599 271.93,499.599 269,481.5C 268.5,471.506 268.334,461.506 268.5,451.5C 211.167,451.5 153.833,451.5 96.5,451.5C 96.6665,461.172 96.4998,470.839 96,480.5C 93.5338,499.134 83.0338,509.467 64.5,511.5C 64.1667,511.5 63.8333,511.5 63.5,511.5C 47.2128,510.061 36.7128,501.395 32,485.5C 31.5001,474.172 31.3335,462.838 31.5,451.5C 21.0363,452.929 11.8696,450.263 4,443.5C 2.20496,440.901 0.704964,438.234 -0.5,435.5C -0.5,408.833 -0.5,382.167 -0.5,355.5C 2.75371,340.341 10.587,328.007 23,318.5C 31.128,276.86 39.128,235.193 47,193.5C 47.9484,186.096 52.1151,181.929 59.5,181C 142.877,180.011 226.21,180.344 309.5,182C 314.679,184.522 317.513,188.689 318,194.5C 325.745,235.892 333.745,277.225 342,318.5C 354.756,328 362.423,340.667 365,356.5C 365.667,382.5 365.667,408.5 365,434.5C 362.012,444.087 355.512,449.587 345.5,451C 341.514,451.499 337.514,451.666 333.5,451.5C 333.667,462.505 333.5,473.505 333,484.5C 328.744,500.931 318.244,509.931 301.5,511.5 Z M 72.5,208.5 C 116.833,208.5 161.167,208.5 205.5,208.5C 201.069,224.385 206.069,236.219 220.5,244C 240.748,249.134 253.248,241.634 258,221.5C 258.48,217.395 257.98,213.395 256.5,209.5C 268.5,208.167 280.5,208.167 292.5,209.5C 298.941,241.813 305.274,274.146 311.5,306.5C 306.544,307.494 301.544,307.827 296.5,307.5C 296.666,297.828 296.5,288.161 296,278.5C 292.424,265.259 283.924,257.092 270.5,254C 244.167,253.333 217.833,253.333 191.5,254C 178.058,256.471 169.558,264.304 166,277.5C 165.5,287.494 165.334,297.494 165.5,307.5C 128.167,307.5 90.8333,307.5 53.5,307.5C 59.5145,274.408 65.8478,241.408 72.5,208.5 Z M 61.5,353.5 C 86.1899,357.217 95.6899,371.217 90,395.5C 81.2184,410.809 68.3851,415.976 51.5,411C 32.0856,399.414 28.2523,383.914 40,364.5C 45.8451,358.064 53.0118,354.397 61.5,353.5 Z M 300.5,353.5 C 325.32,357.148 334.82,371.148 329,395.5C 320.66,410.616 308.16,415.783 291.5,411C 274.71,402.644 269.21,389.478 275,371.5C 280.349,360.977 288.849,354.977 300.5,353.5 Z"/></g>
</svg>
