<?xml version="1.0" encoding="UTF-8"?>
<!DOCTYPE svg PUBLIC "-//W3C//DTD SVG 1.1//EN" "http://www.w3.org/Graphics/SVG/1.1/DTD/svg11.dtd">
<svg xmlns="http://www.w3.org/2000/svg" version="1.1" width="256px" height="256px" style="shape-rendering:geometricPrecision; text-rendering:geometricPrecision; image-rendering:optimizeQuality; fill-rule:evenodd; clip-rule:evenodd" xmlns:xlink="http://www.w3.org/1999/xlink">
<g><path style="opacity:1" fill="#fefefe" d="M -0.5,-0.5 C 84.8333,-0.5 170.167,-0.5 255.5,-0.5C 255.5,84.8333 255.5,170.167 255.5,255.5C 170.167,255.5 84.8333,255.5 -0.5,255.5C -0.5,170.167 -0.5,84.8333 -0.5,-0.5 Z"/></g>
<g><path style="opacity:1" fill="#fdbb2e" d="M 102.5,63.5 C 119.429,60.96 131.429,67.2933 138.5,82.5C 141.016,82.2447 143.35,81.4114 145.5,80C 156.136,77.5824 164.97,80.4157 172,88.5C 173.953,91.2551 175.12,94.2551 175.5,97.5C 185.029,96.1166 192.696,99.1166 198.5,106.5C 198.579,107.93 198.246,109.264 197.5,110.5C 197.938,111.506 198.604,111.506 199.5,110.5C 200.495,116.128 200.829,121.794 200.5,127.5C 197.188,135.154 191.521,140.154 183.5,142.5C 145.486,142.783 107.486,142.45 69.5,141.5C 63.1658,139.555 58.4991,135.555 55.5,129.5C 54.3006,121.506 54.3006,113.506 55.5,105.5C 56.1667,106.833 56.8333,108.167 57.5,109.5C 58.6034,107.046 58.27,104.713 56.5,102.5C 57.1914,100.109 58.1914,100.109 59.5,102.5C 60.6224,100.956 60.289,99.623 58.5,98.5C 58.8076,97.6919 59.3076,97.0253 60,96.5C 60.8928,97.7112 61.7261,97.7112 62.5,96.5C 60.15,95.2261 60.3167,93.8927 63,92.5C 63.9906,93.9389 65.324,94.9389 67,95.5C 67.4396,93.9238 68.273,92.5904 69.5,91.5C 68.8333,90.8333 68.1667,90.1667 67.5,89.5C 70.05,89.9408 72.7167,89.9408 75.5,89.5C 74.1667,88.8333 72.8333,88.1667 71.5,87.5C 72.7701,86.7124 73.7701,85.7124 74.5,84.5C 77.8044,83.5058 81.1378,82.5058 84.5,81.5C 86.8499,75.1087 90.8499,70.1087 96.5,66.5C 98.9674,66.2451 100.967,65.2451 102.5,63.5 Z"/></g>
<g><path style="opacity:1" fill="#fae19f" d="M 102.5,63.5 C 100.967,65.2451 98.9674,66.2451 96.5,66.5C 98.0326,64.7549 100.033,63.7549 102.5,63.5 Z"/></g>
<g><path style="opacity:1" fill="#fdfceb" d="M 100.5,97.5 C 107.016,96.237 112.516,97.9036 117,102.5C 117.986,104.925 117.319,106.591 115,107.5C 112.618,106.256 110.785,104.423 109.5,102C 104.572,100.357 101.072,101.857 99,106.5C 97.5284,112.076 98.6951,116.909 102.5,121C 107.691,122.072 111.024,120.072 112.5,115C 117.478,114.231 118.645,116.064 116,120.5C 111.772,125.087 106.606,126.587 100.5,125C 93.8533,120.631 91.3533,114.465 93,106.5C 94.268,102.405 96.768,99.4047 100.5,97.5 Z"/></g>
<g><path style="opacity:1" fill="#f9be41" d="M 74.5,84.5 C 73.7701,85.7124 72.7701,86.7124 71.5,87.5C 72.8333,88.1667 74.1667,88.8333 75.5,89.5C 72.7167,89.9408 70.05,89.9408 67.5,89.5C 68.1667,90.1667 68.8333,90.8333 69.5,91.5C 68.273,92.5904 67.4396,93.9238 67,95.5C 65.324,94.9389 63.9906,93.9389 63,92.5C 60.3167,93.8927 60.15,95.2261 62.5,96.5C 61.7261,97.7112 60.8928,97.7112 60,96.5C 59.3076,97.0253 58.8076,97.6919 58.5,98.5C 60.289,99.623 60.6224,100.956 59.5,102.5C 58.1914,100.109 57.1914,100.109 56.5,102.5C 58.27,104.713 58.6034,107.046 57.5,109.5C 56.8333,108.167 56.1667,106.833 55.5,105.5C 54.3006,113.506 54.3006,121.506 55.5,129.5C 49.3529,114.09 52.3529,100.757 64.5,89.5C 67.3967,86.9309 70.7301,85.2643 74.5,84.5 Z"/></g>
<g><path style="opacity:1" fill="#fdfcee" d="M 127.5,97.5 C 143.323,95.1553 149.823,101.822 147,117.5C 143.479,125.09 137.645,127.59 129.5,125C 122.278,120.489 119.778,113.989 122,105.5C 123.243,102.424 125.077,99.7574 127.5,97.5 Z"/></g>
<g><path style="opacity:1" fill="#fcbb31" d="M 140.5,104.5 C 141.222,104.918 141.722,105.584 142,106.5C 144.267,114.306 141.601,119.306 134,121.5C 131.497,121.01 129.497,119.677 128,117.5C 127.501,113.514 127.334,109.514 127.5,105.5C 129.621,104.057 131.954,103.057 134.5,102.5C 136.693,102.719 138.693,103.385 140.5,104.5 Z"/></g>
<g><path style="opacity:1" fill="#f4c662" d="M 140.5,104.5 C 138.693,103.385 136.693,102.719 134.5,102.5C 131.954,103.057 129.621,104.057 127.5,105.5C 130.152,101.686 133.819,100.519 138.5,102C 139.381,102.708 140.047,103.542 140.5,104.5 Z"/></g>
<g><path style="opacity:1" fill="#f5c050" d="M 198.5,106.5 C 200.41,107.975 201.576,109.975 202,112.5C 202.901,117.775 202.401,122.775 200.5,127.5C 200.829,121.794 200.495,116.128 199.5,110.5C 198.604,111.506 197.938,111.506 197.5,110.5C 198.246,109.264 198.579,107.93 198.5,106.5 Z"/></g>
<g><path style="opacity:1" fill="#fdf9dc" d="M 158.5,127.5 C 157.522,127.811 156.855,128.478 156.5,129.5C 158.045,130.452 159.712,130.785 161.5,130.5C 162.043,130.56 162.376,130.893 162.5,131.5C 159.232,132.487 155.898,132.82 152.5,132.5C 152.421,131.07 152.754,129.736 153.5,128.5C 157.178,126.511 159.178,123.511 159.5,119.5C 156.951,119.441 154.951,120.441 153.5,122.5C 152.337,119.465 153.504,117.798 157,117.5C 163.836,119.633 164.336,122.966 158.5,127.5 Z"/></g>
<g><path style="opacity:1" fill="#ebc46f" d="M 158.5,127.5 C 159.1,128.9 160.1,129.9 161.5,130.5C 159.712,130.785 158.045,130.452 156.5,129.5C 156.855,128.478 157.522,127.811 158.5,127.5 Z"/></g>
<g><path style="opacity:1" fill="#fecb52" d="M 69.5,141.5 C 107.486,142.45 145.486,142.783 183.5,142.5C 146.002,143.664 108.336,143.831 70.5,143C 69.944,142.617 69.6107,142.117 69.5,141.5 Z"/></g>
<g><path style="opacity:1" fill="#f0be54" d="M 98.5,148.5 C 96.6096,148.297 95.1096,148.963 94,150.5C 93.8296,159.343 93.3296,168.01 92.5,176.5C 92.5,167.5 92.5,158.5 92.5,149.5C 94.3619,147.525 96.3619,147.192 98.5,148.5 Z"/></g>
<g><path style="opacity:1" fill="#fff1b2" d="M 92.5,149.5 C 92.5,158.5 92.5,167.5 92.5,176.5C 91.209,176.737 90.209,176.404 89.5,175.5C 91.1555,167.048 92.1555,158.381 92.5,149.5 Z"/></g>
<g><path style="opacity:1" fill="#ffeeac" d="M 162.5,149.5 C 162.845,158.381 163.845,167.048 165.5,175.5C 164.791,176.404 163.791,176.737 162.5,176.5C 162.5,167.5 162.5,158.5 162.5,149.5 Z"/></g>
<g><path style="opacity:1" fill="#fbe1a5" d="M 123.5,162.5 C 123.5,171.5 123.5,180.5 123.5,189.5C 122.209,189.737 121.209,189.404 120.5,188.5C 122.155,180.048 123.155,171.381 123.5,162.5 Z"/></g>
<g><path style="opacity:1" fill="#f7d996" d="M 131.5,162.5 C 132.493,170.984 132.826,179.651 132.5,188.5C 133.833,188.5 135.167,188.5 136.5,188.5C 135.081,189.451 133.415,189.784 131.5,189.5C 131.5,180.5 131.5,171.5 131.5,162.5 Z"/></g>
<g><path style="opacity:1" fill="#fcbc33" d="M 98.5,148.5 C 99.4584,148.953 100.292,149.619 101,150.5C 101.168,159.186 101.668,167.852 102.5,176.5C 104.071,175.691 105.738,175.357 107.5,175.5C 104.618,182.261 100.951,188.594 96.5,194.5C 92.2882,188.123 88.2882,181.623 84.5,175C 86.1966,174.616 87.8632,174.782 89.5,175.5C 90.209,176.404 91.209,176.737 92.5,176.5C 93.3296,168.01 93.8296,159.343 94,150.5C 95.1096,148.963 96.6096,148.297 98.5,148.5 Z"/></g>
<g><path style="opacity:1" fill="#f6c45b" d="M 154.5,150.5 C 154.5,159.5 154.5,168.5 154.5,177.5C 153.167,177.5 151.833,177.5 150.5,177.5C 150.5,178.833 150.5,180.167 150.5,181.5C 148.834,179.813 147.5,177.813 146.5,175.5C 148.588,174.511 150.588,174.844 152.5,176.5C 153.167,167.676 153.833,159.009 154.5,150.5 Z"/></g>
<g><path style="opacity:1" fill="#fbbb32" d="M 162.5,149.5 C 162.5,158.5 162.5,167.5 162.5,176.5C 163.791,176.737 164.791,176.404 165.5,175.5C 167.137,174.782 168.803,174.616 170.5,175C 166.333,181.683 162.333,188.517 158.5,195.5C 155.406,191.074 152.739,186.407 150.5,181.5C 150.5,180.167 150.5,178.833 150.5,177.5C 151.833,177.5 153.167,177.5 154.5,177.5C 154.5,168.5 154.5,159.5 154.5,150.5C 156.636,146.849 159.303,146.516 162.5,149.5 Z"/></g>
<g><path style="opacity:1" fill="#fbbc32" d="M 131.5,162.5 C 131.5,171.5 131.5,180.5 131.5,189.5C 133.415,189.784 135.081,189.451 136.5,188.5C 137.386,187.224 138.386,187.224 139.5,188.5C 135.75,195.002 131.75,201.335 127.5,207.5C 123.264,201.372 119.264,195.038 115.5,188.5C 117.095,187.566 118.761,187.566 120.5,188.5C 121.209,189.404 122.209,189.737 123.5,189.5C 123.5,180.5 123.5,171.5 123.5,162.5C 126.105,159.946 128.771,159.946 131.5,162.5 Z"/></g>
</svg>
