<?xml version="1.0" encoding="UTF-8"?>
<!DOCTYPE svg PUBLIC "-//W3C//DTD SVG 1.1//EN" "http://www.w3.org/Graphics/SVG/1.1/DTD/svg11.dtd">
<svg xmlns="http://www.w3.org/2000/svg" version="1.1" width="1920px" height="1920px" style="shape-rendering:geometricPrecision; text-rendering:geometricPrecision; image-rendering:optimizeQuality; fill-rule:evenodd; clip-rule:evenodd" xmlns:xlink="http://www.w3.org/1999/xlink">
<g><path style="opacity:0.992" fill="#57d2a8" d="M 974.5,524.5 C 997.189,544.505 1016.52,567.172 1032.5,592.5C 1037.68,602.204 1042.35,612.204 1046.5,622.5C 1047.55,622.649 1048.55,622.483 1049.5,622C 1050.28,619.013 1051.94,618.18 1054.5,619.5C 1056.03,619.006 1057.36,618.339 1058.5,617.5C 1083.04,606.99 1108.54,599.99 1135,596.5C 1174.89,592.888 1211.89,601.888 1246,623.5C 1249.95,627.451 1254.45,630.618 1259.5,633C 1271.07,644.307 1282.07,656.14 1292.5,668.5C 1293.76,672.025 1295.76,675.025 1298.5,677.5C 1307.74,694.092 1316.4,710.592 1324.5,727C 1343.47,728.743 1362.47,730.743 1381.5,733C 1392.39,736.228 1403.72,739.228 1415.5,742C 1430.2,747.673 1444.54,754.84 1458.5,763.5C 1459.09,763.291 1459.59,762.957 1460,762.5C 1460.24,764.138 1461.08,765.638 1462.5,767C 1473.28,774.476 1482.45,782.976 1490,792.5C 1498.95,803.495 1506.11,816.162 1511.5,830.5C 1526.97,875.571 1525.47,920.571 1507,965.5C 1504.37,969.919 1501.87,974.419 1499.5,979C 1499.96,979.414 1500.29,979.914 1500.5,980.5C 1499.75,980.736 1498.92,981.07 1498,981.5C 1494.94,986.292 1492.44,991.292 1490.5,996.5C 1490.17,995.167 1489.83,995.167 1489.5,996.5C 1487.58,998.084 1485.91,999.918 1484.5,1002C 1485.41,1003.41 1485.41,1004.91 1484.5,1006.5C 1483.88,1006.39 1483.38,1006.06 1483,1005.5C 1452.34,1044.33 1412.67,1068.33 1364,1077.5C 1363,1077.17 1362,1076.83 1361,1076.5C 1356.87,1077.24 1352.71,1077.74 1348.5,1078C 1091.5,1078.67 834.5,1078.67 577.5,1078C 540.59,1074.24 506.257,1062.41 474.5,1042.5C 469.138,1038.13 463.805,1033.8 458.5,1029.5C 452.974,1023.67 447.308,1018 441.5,1012.5C 432.229,1000.95 424.229,988.615 417.5,975.5C 412.902,965.413 408.735,954.413 405,942.5C 392.343,886.304 394.676,830.638 412,775.5C 419.928,756.977 429.428,739.311 440.5,722.5C 441.338,722.158 441.672,721.492 441.5,720.5C 453.103,705.895 466.103,692.562 480.5,680.5C 493.654,670.554 507.154,661.887 521,654.5C 528.379,650.56 535.879,646.727 543.5,643C 552.005,640.112 560.338,636.946 568.5,633.5C 573.673,632.566 578.673,631.066 583.5,629C 601.466,625.04 619.466,621.54 637.5,618.5C 647.609,583.856 664.942,554.189 689.5,529.5C 696.531,522.815 704.198,516.815 712.5,511.5C 713.757,507.89 716.09,506.39 719.5,507C 723.701,503.636 727.867,501.136 732,499.5C 737.676,497.501 742.676,494.501 747,490.5C 747.561,491.022 748.228,491.355 749,491.5C 757.766,488.057 766.599,485.057 775.5,482.5C 788.004,480.681 800.671,478.681 813.5,476.5C 825.256,477.655 837.089,477.655 849,476.5C 894.709,480.095 935.209,495.429 970.5,522.5C 971.622,523.63 972.956,524.297 974.5,524.5 Z M 781.5,763.5 C 774.236,766.293 767.236,770.293 760.5,775.5C 751.474,785.215 745.307,796.549 742,809.5C 741.014,817.212 739.848,824.878 738.5,832.5C 738.803,841.981 739.803,851.481 741.5,861C 743.052,879.885 751.719,894.885 767.5,906C 783.143,912.559 799.143,913.726 815.5,909.5C 829.372,903.459 839.038,893.292 844.5,879C 847.124,872.087 850.791,865.754 855.5,860C 865.777,856.122 873.944,858.622 880,867.5C 882.955,880.13 880.788,891.797 873.5,902.5C 872.808,901.975 872.308,901.308 872,900.5C 870.594,909.421 866.094,916.421 858.5,921.5C 855.026,924.802 851.359,927.968 847.5,931C 831.984,939.344 815.317,943.844 797.5,944.5C 782.768,944.156 768.435,941.656 754.5,937C 750.678,934.913 747.011,932.747 743.5,930.5C 739.237,928.575 735.237,926.075 731.5,923C 709.306,899.826 697.973,871.826 697.5,839C 697.685,831.184 698.685,823.517 700.5,816C 699.275,812.654 699.942,809.654 702.5,807C 701.978,806.439 701.645,805.772 701.5,805C 705.516,789.467 712.516,775.633 722.5,763.5C 727.592,756.681 733.592,751.681 740.5,748.5C 741.404,747.791 741.737,746.791 741.5,745.5C 746.284,744.548 750.618,742.548 754.5,739.5C 790.069,725.411 823.569,728.411 855,748.5C 861.366,754.531 867.366,760.864 873,767.5C 874.89,773.047 877.223,778.38 880,783.5C 883.514,796.142 879.18,805.142 867,810.5C 862.476,809.577 857.976,808.41 853.5,807C 846.446,797.725 840.279,787.892 835,777.5C 834.667,777.833 834.333,778.167 834,778.5C 826.729,770.866 818.063,765.533 808,762.5C 799.232,762.275 790.399,762.608 781.5,763.5 Z M 914.5,816.5 C 916.143,801.74 920.309,787.74 927,774.5C 928.41,773.213 929.91,772.046 931.5,771C 931.167,770.667 930.833,770.333 930.5,770C 940.04,755.144 953.207,744.644 970,738.5C 971.892,738.777 973.225,739.777 974,741.5C 975.862,739.639 975.362,738.306 972.5,737.5C 1003.42,727.762 1034.09,729.262 1064.5,742C 1069.91,746.218 1075.57,750.218 1081.5,754C 1081.17,754.333 1080.83,754.667 1080.5,755C 1081.97,756.316 1083.64,757.316 1085.5,758C 1100.76,774.487 1109.43,793.821 1111.5,816C 1115.37,840.196 1113.21,863.696 1105,886.5C 1100.34,897.796 1093.84,907.963 1085.5,917C 1084.55,917.617 1083.72,917.451 1083,916.5C 1083.81,918.791 1082.98,920.625 1080.5,922C 1056.16,940.003 1028.5,947.003 997.5,943C 990.529,941.507 983.529,940.174 976.5,939C 970.101,935.468 963.434,932.468 956.5,930C 952.48,924.817 947.48,920.817 941.5,918C 937.463,914.634 934.63,910.467 933,905.5C 928.212,900.476 924.545,895.143 922,889.5C 918.949,882.694 916.616,875.694 915,868.5C 914.242,866.231 914.409,864.064 915.5,862C 910.996,848.422 910.329,834.589 913.5,820.5C 911.894,818.604 912.227,817.271 914.5,816.5 Z M 1178.5,884.5 C 1188.95,883.837 1198.95,886.004 1208.5,891C 1210.12,891.853 1210.46,892.853 1209.5,894C 1212.91,895.077 1215.41,897.244 1217,900.5C 1223.74,915.559 1221.74,929.225 1211,941.5C 1203.13,950.158 1194.3,957.492 1184.5,963.5C 1179.92,969.255 1174.58,974.088 1168.5,978C 1169.83,979 1171.17,980 1172.5,981C 1186.83,981.333 1201.17,981.667 1215.5,982C 1221.95,983.404 1223.95,987.571 1221.5,994.5C 1220.49,995.681 1219.32,996.681 1218,997.5C 1196.78,998.346 1175.61,998.513 1154.5,998C 1147.72,995.944 1144.89,991.444 1146,984.5C 1147.81,980.743 1149.81,977.076 1152,973.5C 1163.41,960.882 1175.58,949.882 1188.5,940.5C 1192.19,936.648 1195.69,932.648 1199,928.5C 1200.89,923.237 1202.06,918.07 1202.5,913C 1200.28,909.098 1197.61,905.432 1194.5,902C 1185.1,896.574 1176.43,897.407 1168.5,904.5C 1167.4,906.889 1165.73,908.723 1163.5,910C 1163.96,910.414 1164.29,910.914 1164.5,911.5C 1163.38,916.78 1160.71,920.946 1156.5,924C 1148.28,925.114 1144.61,921.447 1145.5,913C 1147.39,901.877 1153.39,893.877 1163.5,889C 1168.39,886.7 1173.39,885.2 1178.5,884.5 Z"/></g>
<g><path style="opacity:0.098" fill="#57d2a8" d="M 775.5,482.5 C 774.833,481.167 774.833,481.167 775.5,482.5 Z"/></g>
<g><path style="opacity:0.02" fill="#57d2a8" d="M 745.5,487.5 C 746.833,488.167 746.833,488.167 745.5,487.5 Z"/></g>
<g><path style="opacity:0.02" fill="#57d2a8" d="M 966.5,517.5 C 965.833,516.167 965.833,516.167 966.5,517.5 Z"/></g>
<g><path style="opacity:0.039" fill="#57d2a8" d="M 966.5,517.5 C 967.833,518.167 967.833,518.167 966.5,517.5 Z"/></g>
<g><path style="opacity:0.039" fill="#57d2a8" d="M 696.5,519.5 C 697.833,520.167 697.833,520.167 696.5,519.5 Z"/></g>
<g><path style="opacity:0.02" fill="#57d2a8" d="M 974.5,523.5 C 975.833,524.167 975.833,524.167 974.5,523.5 Z"/></g>
<g><path style="opacity:0.039" fill="#57d2a8" d="M 688.5,528.5 C 687.833,527.167 687.833,527.167 688.5,528.5 Z"/></g>
<g><path style="opacity:0.02" fill="#57d2a8" d="M 982.5,527.5 C 983.833,528.167 983.833,528.167 982.5,527.5 Z"/></g>
<g><path style="opacity:0.078" fill="#57d2a8" d="M 688.5,528.5 C 689.167,528.5 689.5,528.833 689.5,529.5C 689.167,529.167 688.833,528.833 688.5,528.5 Z"/></g>
<g><path style="opacity:0.02" fill="#57d2a8" d="M 990.5,537.5 C 991.833,538.167 991.833,538.167 990.5,537.5 Z"/></g>
<g><path style="opacity:0.02" fill="#57d2a8" d="M 1006.5,543.5 C 1007.83,544.167 1007.83,544.167 1006.5,543.5 Z"/></g>
<g><path style="opacity:0.02" fill="#57d2a8" d="M 1006.5,551.5 C 1007.83,552.167 1007.83,552.167 1006.5,551.5 Z"/></g>
<g><path style="opacity:0.088" fill="#57d2a8" d="M 1006.5,552.5 C 1006.5,553.167 1006.5,553.833 1006.5,554.5C 1005.17,553.833 1005.17,553.167 1006.5,552.5 Z"/></g>
<g><path style="opacity:0.02" fill="#57d2a8" d="M 1006.5,554.5 C 1007.83,555.167 1007.83,555.167 1006.5,554.5 Z"/></g>
<g><path style="opacity:0.02" fill="#57d2a8" d="M 1016.5,567.5 C 1017.83,568.167 1017.83,568.167 1016.5,567.5 Z"/></g>
<g><path style="opacity:0.02" fill="#57d2a8" d="M 647.5,582.5 C 648.833,583.167 648.833,583.167 647.5,582.5 Z"/></g>
<g><path style="opacity:0.118" fill="#57d2a8" d="M 1032.5,591.5 C 1033.83,592.167 1033.83,592.167 1032.5,591.5 Z"/></g>
<g><path style="opacity:0.069" fill="#57d2a8" d="M 1178.5,595.5 C 1179.6,594.402 1180.93,594.235 1182.5,595C 1181.21,595.49 1179.87,595.657 1178.5,595.5 Z"/></g>
<g><path style="opacity:0.059" fill="#57d2a8" d="M 1056.5,610.5 C 1057.83,611.167 1057.83,611.167 1056.5,610.5 Z"/></g>
<g><path style="opacity:0.039" fill="#57d2a8" d="M 1063.5,613.5 C 1064.83,614.167 1064.83,614.167 1063.5,613.5 Z"/></g>
<g><path style="opacity:0.02" fill="#57d2a8" d="M 635.5,616.5 C 636.833,617.167 636.833,617.167 635.5,616.5 Z"/></g>
<g><path style="opacity:0.039" fill="#57d2a8" d="M 1051.5,617.5 C 1051.9,616.475 1052.56,616.308 1053.5,617C 1052.91,617.464 1052.24,617.631 1051.5,617.5 Z"/></g>
<g><path style="opacity:0.02" fill="#57d2a8" d="M 1058.5,617.5 C 1057.83,616.167 1057.83,616.167 1058.5,617.5 Z"/></g>
<g><path style="opacity:0.02" fill="#57d2a8" d="M 568.5,633.5 C 567.833,632.167 567.833,632.167 568.5,633.5 Z"/></g>
<g><path style="opacity:0.039" fill="#57d2a8" d="M 1268.5,640.5 C 1269.83,641.167 1269.83,641.167 1268.5,640.5 Z"/></g>
<g><path style="opacity:0.02" fill="#57d2a8" d="M 526.5,647.5 C 527.833,648.167 527.833,648.167 526.5,647.5 Z"/></g>
<g><path style="opacity:0.02" fill="#57d2a8" d="M 1292.5,667.5 C 1293.83,668.167 1293.83,668.167 1292.5,667.5 Z"/></g>
<g><path style="opacity:0.029" fill="#57d2a8" d="M 1298.5,677.5 C 1298.37,676.761 1298.54,676.094 1299,675.5C 1299.69,676.437 1299.53,677.103 1298.5,677.5 Z"/></g>
<g><path style="opacity:0.02" fill="#57d2a8" d="M 1300.5,678.5 C 1301.83,679.167 1301.83,679.167 1300.5,678.5 Z"/></g>
<g><path style="opacity:0.02" fill="#57d2a8" d="M 480.5,680.5 C 479.833,679.167 479.833,679.167 480.5,680.5 Z"/></g>
<g><path style="opacity:0.039" fill="#57d2a8" d="M 464.5,691.5 C 465.833,692.167 465.833,692.167 464.5,691.5 Z"/></g>
<g><path style="opacity:0.059" fill="#57d2a8" d="M 1310.5,695.5 C 1309.83,694.167 1309.83,694.167 1310.5,695.5 Z"/></g>
<g><path style="opacity:0.02" fill="#57d2a8" d="M 1310.5,695.5 C 1311.83,696.167 1311.83,696.167 1310.5,695.5 Z"/></g>
<g><path style="opacity:0.02" fill="#57d2a8" d="M 435.5,719.5 C 436.833,720.167 436.833,720.167 435.5,719.5 Z"/></g>
<g><path style="opacity:0.059" fill="#57d2a8" d="M 441.5,720.5 C 440.833,719.167 440.833,719.167 441.5,720.5 Z"/></g>
<g><path style="opacity:0.02" fill="#57d2a8" d="M 440.5,722.5 C 439.833,721.167 439.833,721.167 440.5,722.5 Z"/></g>
<g><path style="opacity:0.039" fill="#57d2a8" d="M 1407.5,739.5 C 1407.9,738.475 1408.56,738.308 1409.5,739C 1408.91,739.464 1408.24,739.631 1407.5,739.5 Z"/></g>
<g><path style="opacity:0.039" fill="#57d2a8" d="M 1454.5,759.5 C 1455.83,760.167 1455.83,760.167 1454.5,759.5 Z"/></g>
<g><path style="opacity:0.981" fill="#57d2a8" d="M 957.5,871.5 C 950.833,847.907 951,824.24 958,800.5C 965.354,780.84 979.521,768.34 1000.5,763C 1026.16,759.022 1046.49,767.356 1061.5,788C 1061.6,790.355 1062.77,792.522 1065,794.5C 1073.89,820.128 1074.89,846.128 1068,872.5C 1057.43,900.025 1037.27,913.192 1007.5,912C 992.466,911.067 979.966,904.9 970,893.5C 967.089,890.01 964.422,886.344 962,882.5C 961.043,878.59 959.543,874.923 957.5,871.5 Z"/></g>
<g><path style="opacity:0.039" fill="#57d2a8" d="M 1476.5,776.5 C 1477.25,775.427 1478.25,775.26 1479.5,776C 1478.65,777.728 1477.65,777.895 1476.5,776.5 Z"/></g>
<g><path style="opacity:0.048" fill="#57d2a8" d="M 853.5,802.5 C 855.332,803.14 855.665,804.14 854.5,805.5C 852.481,804.867 852.147,803.867 853.5,802.5 Z"/></g>
<g><path style="opacity:0.034" fill="#57d2a8" d="M 1160.5,910.5 C 1162.08,911.002 1162.58,912.002 1162,913.5C 1160.96,912.756 1160.46,911.756 1160.5,910.5 Z"/></g>
<g><path style="opacity:0.05" fill="#57d2a8" d="M 863.5,911.5 C 864.289,911.783 864.956,912.283 865.5,913C 864.184,913.528 863.517,913.028 863.5,911.5 Z"/></g>
<g><path style="opacity:0.035" fill="#57d2a8" d="M 1151.5,920.5 C 1153.34,920.639 1153.67,921.306 1152.5,922.5C 1151.7,922.043 1151.37,921.376 1151.5,920.5 Z"/></g>
<g><path style="opacity:0.02" fill="#57d2a8" d="M 407.5,957.5 C 408.833,958.167 408.833,958.167 407.5,957.5 Z"/></g>
<g><path style="opacity:0.047" fill="#57d2a8" d="M 1176.5,967.5 C 1177.77,968.077 1177.77,968.743 1176.5,969.5C 1175.54,969.03 1175.54,968.363 1176.5,967.5 Z"/></g>
<g><path style="opacity:0.039" fill="#57d2a8" d="M 417.5,975.5 C 416.833,976.167 416.833,976.167 417.5,975.5 Z"/></g>
<g><path style="opacity:0.039" fill="#57d2a8" d="M 1493.5,993.5 C 1494.83,994.167 1494.83,994.167 1493.5,993.5 Z"/></g>
<g><path style="opacity:0.02" fill="#57d2a8" d="M 424.5,996.5 C 425.833,997.167 425.833,997.167 424.5,996.5 Z"/></g>
<g><path style="opacity:0.039" fill="#57d2a8" d="M 1489.5,996.5 C 1489.83,996.5 1490.17,996.5 1490.5,996.5C 1490.31,997.17 1489.98,997.17 1489.5,996.5 Z"/></g>
<g><path style="opacity:0.059" fill="#57d2a8" d="M 1484.5,1006.5 C 1485.83,1007.17 1485.83,1007.17 1484.5,1006.5 Z"/></g>
<g><path style="opacity:0.069" fill="#57d2a8" d="M 441.5,1012.5 C 441.539,1013.76 441.039,1014.76 440,1015.5C 439.415,1014 439.915,1013 441.5,1012.5 Z"/></g>
<g><path style="opacity:0.039" fill="#57d2a8" d="M 1470.5,1021.5 C 1471.83,1022.17 1471.83,1022.17 1470.5,1021.5 Z"/></g>
<g><path style="opacity:0.059" fill="#57d2a8" d="M 1470.5,1022.5 C 1469.83,1023.17 1469.83,1023.17 1470.5,1022.5 Z"/></g>
<g><path style="opacity:0.039" fill="#57d2a8" d="M 458.5,1029.5 C 457.833,1030.17 457.833,1030.17 458.5,1029.5 Z"/></g>
<g><path style="opacity:0.078" fill="#57d2a8" d="M 457.5,1030.5 C 456.833,1031.17 456.833,1031.17 457.5,1030.5 Z"/></g>
<g><path style="opacity:0.033" fill="#57d2a8" d="M 1453.5,1037.5 C 1454.29,1037.78 1454.96,1038.28 1455.5,1039C 1454.18,1039.53 1453.52,1039.03 1453.5,1037.5 Z"/></g>
<g><path style="opacity:0.033" fill="#57d2a8" d="M 1359.5,1079.5 C 1360.25,1078.43 1361.25,1078.26 1362.5,1079C 1361.55,1079.48 1360.55,1079.65 1359.5,1079.5 Z"/></g>
<g><path style="opacity:0.98" fill="#57d2a8" d="M 758.5,1126.5 C 757.167,1126.83 757.167,1127.17 758.5,1127.5C 760.938,1132.17 762.438,1137.17 763,1142.5C 763.167,1204.17 763.667,1265.84 764.5,1327.5C 765.086,1327.71 765.586,1328.04 766,1328.5C 769.825,1327.23 773.158,1325.23 776,1322.5C 776.414,1322.96 776.914,1323.29 777.5,1323.5C 788.888,1318.79 801.055,1313.79 814,1308.5C 815.242,1309.87 816.742,1310.87 818.5,1311.5C 819.602,1314.19 819.436,1316.86 818,1319.5C 802.856,1344.14 788.356,1369.14 774.5,1394.5C 762.08,1415.67 749.913,1437.01 738,1458.5C 735.068,1463.38 731.901,1468.04 728.5,1472.5C 714.391,1450.86 701.724,1429.36 690.5,1408C 683.961,1396.66 677.294,1385.49 670.5,1374.5C 661.028,1356.35 650.695,1338.52 639.5,1321C 638.423,1318.12 637.59,1315.28 637,1312.5C 639.7,1309.94 642.867,1309.11 646.5,1310C 660.201,1315.34 673.868,1321.01 687.5,1327C 689.81,1327.5 692.143,1327.66 694.5,1327.5C 694.014,1262.12 694.514,1196.79 696,1131.5C 706.744,1113.22 722.244,1107.38 742.5,1114C 745.994,1115.58 749.327,1117.41 752.5,1119.5C 754.172,1122.28 756.172,1124.62 758.5,1126.5 Z"/></g>
<g><path style="opacity:0.974" fill="#57d2a8" d="M 1248.5,1374.5 C 1243.85,1382.46 1239.19,1390.46 1234.5,1398.5C 1232.58,1401.33 1230.92,1404.33 1229.5,1407.5C 1218.04,1428.08 1206.04,1448.91 1193.5,1470C 1192.9,1471.3 1191.9,1472.13 1190.5,1472.5C 1187.1,1468.04 1183.93,1463.38 1181,1458.5C 1169.08,1436.98 1156.91,1415.65 1144.5,1394.5C 1130.63,1369.13 1116.13,1344.13 1101,1319.5C 1099.56,1316.86 1099.4,1314.19 1100.5,1311.5C 1102.26,1310.87 1103.76,1309.87 1105,1308.5C 1116.61,1312.41 1127.94,1317.07 1139,1322.5C 1139.41,1322.04 1139.91,1321.71 1140.5,1321.5C 1140.83,1322.17 1141.17,1322.83 1141.5,1323.5C 1142.09,1323.29 1142.59,1322.96 1143,1322.5C 1146.36,1326.01 1150.53,1327.68 1155.5,1327.5C 1155.33,1266.17 1155.5,1204.83 1156,1143.5C 1156.39,1139.78 1157.06,1136.11 1158,1132.5C 1160.19,1129.45 1161.86,1126.11 1163,1122.5C 1164.3,1121.92 1165.47,1121.25 1166.5,1120.5C 1176.26,1112.06 1187.59,1109.23 1200.5,1112C 1218.49,1119.47 1226.66,1132.97 1225,1152.5C 1225.64,1210.52 1225.64,1268.52 1225,1326.5C 1228.17,1327.73 1231.34,1327.56 1234.5,1326C 1238.76,1324.02 1242.92,1321.86 1247,1319.5C 1247.33,1319.83 1247.67,1320.17 1248,1320.5C 1250.75,1318.63 1253.75,1317.29 1257,1316.5C 1258.17,1315.99 1259,1315.16 1259.5,1314C 1264.1,1313.54 1268.43,1312.2 1272.5,1310C 1276.65,1308.97 1279.99,1310.14 1282.5,1313.5C 1271.11,1333.87 1259.78,1354.2 1248.5,1374.5 Z"/></g>
<g><path style="opacity:0.02" fill="#57d2a8" d="M 1166.5,1120.5 C 1165.83,1119.17 1165.83,1119.17 1166.5,1120.5 Z"/></g>
<g><path style="opacity:0.02" fill="#57d2a8" d="M 757.5,1121.5 C 758.833,1122.17 758.833,1122.17 757.5,1121.5 Z"/></g>
<g><path style="opacity:0.02" fill="#57d2a8" d="M 758.5,1126.5 C 759.833,1127.17 759.833,1127.17 758.5,1126.5 Z"/></g>
<g><path style="opacity:0.02" fill="#57d2a8" d="M 762.5,1130.5 C 761.833,1129.17 761.833,1129.17 762.5,1130.5 Z"/></g>
<g><path style="opacity:0.02" fill="#57d2a8" d="M 762.5,1130.5 C 763.833,1131.17 763.833,1131.17 762.5,1130.5 Z"/></g>
<g><path style="opacity:0.98" fill="#57d2a8" d="M 1049.5,1408.5 C 1050.39,1410.78 1050.56,1413.12 1050,1415.5C 1025.46,1456.43 1001.63,1497.6 978.5,1539C 979.451,1539.72 979.617,1540.55 979,1541.5C 978.333,1540.17 977.667,1540.17 977,1541.5C 972.125,1551.85 966.292,1561.51 959.5,1570.5C 952.708,1561.51 946.875,1551.85 942,1541.5C 919.86,1502.39 897.026,1463.06 873.5,1423.5C 873.167,1422.17 872.833,1422.17 872.5,1423.5C 871.143,1419.11 869.476,1414.77 867.5,1410.5C 868.167,1410.5 868.5,1410.17 868.5,1409.5C 869.167,1409.5 869.5,1409.17 869.5,1408.5C 872.445,1407.53 875.445,1407.37 878.5,1408C 893.657,1413.65 908.491,1419.82 923,1426.5C 923.308,1425.69 923.808,1425.03 924.5,1424.5C 925.64,1362.81 925.807,1301.15 925,1239.5C 930.491,1215.69 945.325,1205.85 969.5,1210C 983.843,1214.68 992.01,1224.51 994,1239.5C 994.333,1301.17 994.667,1362.83 995,1424.5C 996.388,1425.55 997.888,1425.72 999.5,1425C 1013.12,1419.34 1026.79,1413.68 1040.5,1408C 1043.59,1407.26 1046.59,1407.43 1049.5,1408.5 Z"/></g>
<g><path style="opacity:0.039" fill="#57d2a8" d="M 994.5,1232.5 C 995.525,1232.9 995.692,1233.56 995,1234.5C 994.536,1233.91 994.369,1233.24 994.5,1232.5 Z"/></g>
<g><path style="opacity:0.065" fill="#57d2a8" d="M 806.5,1341.5 C 807.573,1342.25 807.74,1343.25 807,1344.5C 806.517,1343.55 806.351,1342.55 806.5,1341.5 Z"/></g>
<g><path style="opacity:0.02" fill="#57d2a8" d="M 1268.5,1341.5 C 1269.83,1342.17 1269.83,1342.17 1268.5,1341.5 Z"/></g>
<g><path style="opacity:0.02" fill="#57d2a8" d="M 1127.5,1367.5 C 1128.83,1368.17 1128.83,1368.17 1127.5,1367.5 Z"/></g>
<g><path style="opacity:0.02" fill="#57d2a8" d="M 670.5,1374.5 C 669.833,1375.17 669.833,1375.17 670.5,1374.5 Z"/></g>
<g><path style="opacity:0.02" fill="#57d2a8" d="M 1131.5,1374.5 C 1132.83,1375.17 1132.83,1375.17 1131.5,1374.5 Z"/></g>
<g><path style="opacity:0.02" fill="#57d2a8" d="M 1248.5,1374.5 C 1249.83,1375.17 1249.83,1375.17 1248.5,1374.5 Z"/></g>
<g><path style="opacity:0.02" fill="#57d2a8" d="M 774.5,1394.5 C 775.833,1395.17 775.833,1395.17 774.5,1394.5 Z"/></g>
<g><path style="opacity:0.02" fill="#57d2a8" d="M 1144.5,1394.5 C 1143.83,1395.17 1143.83,1395.17 1144.5,1394.5 Z"/></g>
<g><path style="opacity:0.02" fill="#57d2a8" d="M 1234.5,1398.5 C 1235.83,1399.17 1235.83,1399.17 1234.5,1398.5 Z"/></g>
<g><path style="opacity:0.039" fill="#57d2a8" d="M 768.5,1406.5 C 769.833,1407.17 769.833,1407.17 768.5,1406.5 Z"/></g>
<g><path style="opacity:0.02" fill="#57d2a8" d="M 771.5,1406.5 C 772.833,1407.17 772.833,1407.17 771.5,1406.5 Z"/></g>
<g><path style="opacity:0.02" fill="#57d2a8" d="M 1146.5,1406.5 C 1147.83,1407.17 1147.83,1407.17 1146.5,1406.5 Z"/></g>
<g><path style="opacity:0.078" fill="#57d2a8" d="M 1149.5,1406.5 C 1150.83,1407.17 1150.83,1407.17 1149.5,1406.5 Z"/></g>
<g><path style="opacity:0.268" fill="#57d2a8" d="M 869.5,1408.5 C 868.833,1408.5 868.5,1408.83 868.5,1409.5C 867.833,1409.5 867.5,1409.83 867.5,1410.5C 866.596,1409.79 866.263,1408.79 866.5,1407.5C 867.791,1407.26 868.791,1407.6 869.5,1408.5 Z"/></g>
<g><path style="opacity:0.124" fill="#57d2a8" d="M 1049.5,1408.5 C 1050.21,1407.6 1051.21,1407.26 1052.5,1407.5C 1052.65,1408.55 1052.48,1409.55 1052,1410.5C 1051.29,1409.62 1050.46,1408.95 1049.5,1408.5 Z"/></g>
<g><path style="opacity:0.039" fill="#57d2a8" d="M 1229.5,1407.5 C 1230.83,1408.17 1230.83,1408.17 1229.5,1407.5 Z"/></g>
<g><path style="opacity:0.02" fill="#57d2a8" d="M 687.5,1408.5 C 688.833,1409.17 688.833,1409.17 687.5,1408.5 Z"/></g>
<g><path style="opacity:0.02" fill="#57d2a8" d="M 1023.5,1409.5 C 1024.83,1410.17 1024.83,1410.17 1023.5,1409.5 Z"/></g>
<g><path style="opacity:0.039" fill="#57d2a8" d="M 690.5,1414.5 C 691.833,1415.17 691.833,1415.17 690.5,1414.5 Z"/></g>
<g><path style="opacity:0.039" fill="#57d2a8" d="M 864.5,1414.5 C 865.833,1415.17 865.833,1415.17 864.5,1414.5 Z"/></g>
<g><path style="opacity:0.02" fill="#57d2a8" d="M 1046.5,1422.5 C 1047.83,1423.17 1047.83,1423.17 1046.5,1422.5 Z"/></g>
<g><path style="opacity:0.098" fill="#57d2a8" d="M 872.5,1423.5 C 872.833,1423.5 873.167,1423.5 873.5,1423.5C 873.315,1424.17 872.981,1424.17 872.5,1423.5 Z"/></g>
<g><path style="opacity:0.02" fill="#57d2a8" d="M 732.5,1469.5 C 733.833,1470.17 733.833,1470.17 732.5,1469.5 Z"/></g>
<g><path style="opacity:0.059" fill="#57d2a8" d="M 1019.5,1469.5 C 1020.83,1470.17 1020.83,1470.17 1019.5,1469.5 Z"/></g>
<g><path style="opacity:0.059" fill="#57d2a8" d="M 1186.5,1470.5 C 1187.83,1471.17 1187.83,1471.17 1186.5,1470.5 Z"/></g>
<g><path style="opacity:0.049" fill="#57d2a8" d="M 904.5,1479.5 C 905.525,1479.9 905.692,1480.56 905,1481.5C 904.536,1480.91 904.369,1480.24 904.5,1479.5 Z"/></g>
<g><path style="opacity:0.039" fill="#57d2a8" d="M 1000.5,1502.5 C 1001.83,1503.17 1001.83,1503.17 1000.5,1502.5 Z"/></g>
</svg>
