<?xml version="1.0" encoding="UTF-8"?>
<!DOCTYPE svg PUBLIC "-//W3C//DTD SVG 1.1//EN" "http://www.w3.org/Graphics/SVG/1.1/DTD/svg11.dtd">
<svg xmlns="http://www.w3.org/2000/svg" version="1.1" width="512px" height="512px" style="shape-rendering:geometricPrecision; text-rendering:geometricPrecision; image-rendering:optimizeQuality; fill-rule:evenodd; clip-rule:evenodd" xmlns:xlink="http://www.w3.org/1999/xlink">
<g><path style="opacity:0.994" fill="#febc2d" d="M 244.5,41.5 C 330.268,40.7869 395.768,76.4535 441,148.5C 479.801,222.066 478.801,295.066 438,367.5C 395.054,433.156 334.054,467.156 255,469.5C 176.351,466.859 115.684,432.859 73,367.5C 32.1631,295.068 31.1631,222.068 70,148.5C 109.934,83.4531 168.101,47.7864 244.5,41.5 Z"/></g>
<g><path style="opacity:1" fill="#fffefd" d="M 162.5,149.5 C 176.257,146.792 185.757,151.792 191,164.5C 191.667,182.167 191.667,199.833 191,217.5C 185.644,232.077 175.478,236.911 160.5,232C 154.066,228.295 150.233,222.795 149,215.5C 148.333,198.833 148.333,182.167 149,165.5C 151.549,158.457 156.049,153.123 162.5,149.5 Z"/></g>
<g><path style="opacity:1" fill="#fffefc" d="M 336.5,148.5 C 349.08,148.041 357.58,153.707 362,165.5C 362.946,183.553 362.612,201.553 361,219.5C 355.708,231.823 346.542,236.323 333.5,233C 326.339,230.192 321.839,225.026 320,217.5C 319.333,199.833 319.333,182.167 320,164.5C 322.778,156.22 328.278,150.887 336.5,148.5 Z"/></g>
<g><path style="opacity:1" fill="#fffefd" d="M 164.5,319.5 C 224.834,319.333 285.168,319.5 345.5,320C 361.891,326.614 366.058,337.781 358,353.5C 354.361,357.734 349.861,360.568 344.5,362C 284.833,362.667 225.167,362.667 165.5,362C 152.046,356.906 146.88,347.406 150,333.5C 152.832,326.684 157.665,322.017 164.5,319.5 Z"/></g>
</svg>
