<?xml version="1.0" encoding="UTF-8"?>
<!DOCTYPE svg PUBLIC "-//W3C//DTD SVG 1.1//EN" "http://www.w3.org/Graphics/SVG/1.1/DTD/svg11.dtd">
<svg xmlns="http://www.w3.org/2000/svg" version="1.1" width="512px" height="512px" style="shape-rendering:geometricPrecision; text-rendering:geometricPrecision; image-rendering:optimizeQuality; fill-rule:evenodd; clip-rule:evenodd" xmlns:xlink="http://www.w3.org/1999/xlink">
<g><path style="opacity:0.995" fill="#f0142f" d="M 232.5,-0.5 C 247.833,-0.5 263.167,-0.5 278.5,-0.5C 378.271,12.4486 449.438,64.4486 492,155.5C 502.136,180.379 508.636,206.046 511.5,232.5C 511.5,247.833 511.5,263.167 511.5,278.5C 498.551,378.271 446.551,449.438 355.5,492C 330.622,502.136 304.955,508.636 278.5,511.5C 263.167,511.5 247.833,511.5 232.5,511.5C 132.727,498.549 61.5605,446.549 19,355.5C 8.86392,330.621 2.36392,304.954 -0.5,278.5C -0.5,263.167 -0.5,247.833 -0.5,232.5C 12.4486,132.729 64.4486,61.5622 155.5,19C 180.379,8.86392 206.046,2.36392 232.5,-0.5 Z"/></g>
<g><path style="opacity:1" fill="#fffdfd" d="M 108.5,183.5 C 115.663,182.608 121.497,184.941 126,190.5C 132.651,209.82 146.151,218.653 166.5,217C 176.116,215.106 183.949,210.273 190,202.5C 192.349,197.802 194.682,193.136 197,188.5C 203.167,182.851 210,182.018 217.5,186C 222.593,190.017 224.426,195.184 223,201.5C 210.229,234.485 186.062,249.651 150.5,247C 125.391,241.89 108.224,227.39 99,203.5C 98.3333,199.833 98.3333,196.167 99,192.5C 101.406,188.592 104.572,185.592 108.5,183.5 Z"/></g>
<g><path style="opacity:1" fill="#fffdfd" d="M 297.5,183.5 C 302.984,182.826 307.984,183.992 312.5,187C 315.7,191.894 318.533,197.061 321,202.5C 334.566,218.746 350.733,221.913 369.5,212C 376.981,206.553 382.147,199.387 385,190.5C 393.634,181.243 402.3,181.243 411,190.5C 412.534,194.711 412.867,199.044 412,203.5C 397.413,237.049 371.913,251.215 335.5,246C 309.911,239.244 293.911,223.078 287.5,197.5C 288.391,191.037 291.725,186.371 297.5,183.5 Z"/></g>
<g><path style="opacity:1" fill="#fffcfd" d="M 245.5,286.5 C 292.941,285.192 330.108,303.859 357,342.5C 363.148,353.037 360.981,361.204 350.5,367C 345.56,368.041 340.894,367.374 336.5,365C 306.537,319.901 266.203,306.901 215.5,326C 198.596,335.57 184.929,348.57 174.5,365C 162.978,370.48 155.144,367.313 151,355.5C 150.348,352.406 150.682,349.406 152,346.5C 173.647,311.755 204.813,291.755 245.5,286.5 Z"/></g>
</svg>
