<?xml version="1.0" encoding="UTF-8"?>
<!DOCTYPE svg PUBLIC "-//W3C//DTD SVG 1.1//EN" "http://www.w3.org/Graphics/SVG/1.1/DTD/svg11.dtd">
<svg xmlns="http://www.w3.org/2000/svg" version="1.1" width="512px" height="512px" style="shape-rendering:geometricPrecision; text-rendering:geometricPrecision; image-rendering:optimizeQuality; fill-rule:evenodd; clip-rule:evenodd" xmlns:xlink="http://www.w3.org/1999/xlink">
<g><path style="opacity:0.026" fill="#fefffe" d="M 399.5,66.5 C 401.028,66.5173 401.528,67.184 401,68.5C 399.667,71.1667 397.667,73.1667 395,74.5C 395.671,71.5037 397.171,68.837 399.5,66.5 Z"/></g>
<g><path style="opacity:0.988" fill="#fefffe" d="M 511.5,507.5 C 511.5,508.833 511.5,510.167 511.5,511.5C 340.833,511.5 170.167,511.5 -0.5,511.5C -0.5,510.167 -0.5,508.833 -0.5,507.5C 1.49659,441.175 2.16326,374.508 1.5,307.5C 35.8333,307.5 70.1667,307.5 104.5,307.5C 104.5,374.167 104.5,440.833 104.5,507.5C 115.5,507.5 126.5,507.5 137.5,507.5C 137.5,401.167 137.5,294.833 137.5,188.5C 171.5,188.5 205.5,188.5 239.5,188.5C 239.5,294.833 239.5,401.167 239.5,507.5C 250.167,507.5 260.833,507.5 271.5,507.5C 271.5,427.5 271.5,347.5 271.5,267.5C 305.5,267.5 339.5,267.5 373.5,267.5C 373.5,347.5 373.5,427.5 373.5,507.5C 384.5,507.5 395.5,507.5 406.5,507.5C 406.5,374.833 406.5,242.167 406.5,109.5C 440.833,109.5 475.167,109.5 509.5,109.5C 508.835,242.504 509.502,375.171 511.5,507.5 Z"/></g>
</svg>
