<?xml version="1.0" encoding="UTF-8"?>
<!DOCTYPE svg PUBLIC "-//W3C//DTD SVG 1.1//EN" "http://www.w3.org/Graphics/SVG/1.1/DTD/svg11.dtd">
<svg xmlns="http://www.w3.org/2000/svg" version="1.1" width="512px" height="512px" style="shape-rendering:geometricPrecision; text-rendering:geometricPrecision; image-rendering:optimizeQuality; fill-rule:evenodd; clip-rule:evenodd" xmlns:xlink="http://www.w3.org/1999/xlink">
<g><path style="opacity:0.961" fill="#57b8ff" d="M 52.5,28.5 C 100.132,75.6319 147.632,122.965 195,170.5C 225.667,139.833 256.333,109.167 287,78.5C 344,135.5 401,192.5 458,249.5C 465.014,242.319 472.181,235.319 479.5,228.5C 480.324,251.165 480.991,273.832 481.5,296.5C 458.836,295.935 436.17,295.268 413.5,294.5C 420.319,287.181 427.319,280.014 434.5,273C 385.333,223.833 336.167,174.667 287,125.5C 256.333,156.167 225.667,186.833 195,217.5C 139.833,162.333 84.6667,107.167 29.5,52C 37.3691,44.2983 45.0358,36.4649 52.5,28.5 Z"/></g>
<g><path style="opacity:0.998" fill="#57b8ff" d="M 31.5,183.5 C 56.8333,183.5 82.1667,183.5 107.5,183.5C 107.5,268.833 107.5,354.167 107.5,439.5C 82.1667,439.5 56.8333,439.5 31.5,439.5C 31.5,354.167 31.5,268.833 31.5,183.5 Z"/></g>
<g><path style="opacity:0.998" fill="#57b8ff" d="M 279.5,255.5 C 304.833,255.5 330.167,255.5 355.5,255.5C 355.5,316.833 355.5,378.167 355.5,439.5C 330.167,439.5 304.833,439.5 279.5,439.5C 279.5,378.167 279.5,316.833 279.5,255.5 Z"/></g>
<g><path style="opacity:0.998" fill="#57b8ff" d="M 155.5,287.5 C 180.833,287.5 206.167,287.5 231.5,287.5C 231.5,338.167 231.5,388.833 231.5,439.5C 206.167,439.5 180.833,439.5 155.5,439.5C 155.5,388.833 155.5,338.167 155.5,287.5 Z"/></g>
<g><path style="opacity:0.998" fill="#57b8ff" d="M 403.5,367.5 C 428.833,367.5 454.167,367.5 479.5,367.5C 479.5,391.5 479.5,415.5 479.5,439.5C 454.167,439.5 428.833,439.5 403.5,439.5C 403.5,415.5 403.5,391.5 403.5,367.5 Z"/></g>
</svg>
