<?xml version="1.0" encoding="UTF-8"?>
<!DOCTYPE svg PUBLIC "-//W3C//DTD SVG 1.1//EN" "http://www.w3.org/Graphics/SVG/1.1/DTD/svg11.dtd">
<svg xmlns="http://www.w3.org/2000/svg" version="1.1" width="1024px" height="1024px" style="shape-rendering:geometricPrecision; text-rendering:geometricPrecision; image-rendering:optimizeQuality; fill-rule:evenodd; clip-rule:evenodd" xmlns:xlink="http://www.w3.org/1999/xlink">
<g><path style="opacity:0.973" fill="#047ff2" d="M 1023.5,84.5 C 1023.5,93.1667 1023.5,101.833 1023.5,110.5C 1013.13,154.855 985.133,178.855 939.5,182.5C 931.742,181.937 924.075,180.77 916.5,179C 908.611,176.209 900.945,173.209 893.5,170C 866.205,201.63 838.539,232.964 810.5,264C 858.142,319.391 882.475,383.891 883.5,457.5C 880.835,552.99 842.835,630.823 769.5,691C 760.44,697.725 751.107,704.058 741.5,710C 763.112,752.725 784.612,795.558 806,838.5C 846.367,836.677 875.7,853.677 894,889.5C 908.36,929.568 899.526,963.401 867.5,991C 839.864,1009.57 810.53,1012.57 779.5,1000C 741.637,978.765 726.47,946.599 734,903.5C 739.246,883.485 750.079,867.319 766.5,855C 745.357,813.213 724.357,771.38 703.5,729.5C 627.716,760.87 551.716,761.37 475.5,731C 397.335,697.168 342.502,640.668 311,561.5C 304.126,543.004 299.293,524.004 296.5,504.5C 251.769,498.967 207.102,492.967 162.5,486.5C 150.007,519.615 126.007,538.115 90.5,542C 41.5756,542.219 11.2423,518.719 -0.5,471.5C -0.5,462.5 -0.5,453.5 -0.5,444.5C 11.9229,394.752 43.9229,371.585 95.5,375C 135.193,381.86 158.86,405.027 166.5,444.5C 216.857,451.086 267.191,457.92 317.5,465C 322.741,466.239 326.908,469.072 330,473.5C 332.123,479.636 334.457,485.636 337,491.5C 352.239,580.209 399.739,645.043 479.5,686C 562.084,722.412 642.417,718.079 720.5,673C 792.056,626.337 831.89,560.171 840,474.5C 843.063,381.807 807.896,307.64 734.5,252C 677.494,212.541 614.661,198.041 546,208.5C 527.728,204.294 521.728,193.294 528,175.5C 530.596,171.61 534.096,168.777 538.5,167C 629.248,153.349 709.915,175.515 780.5,233.5C 808.519,201.982 836.353,170.315 864,138.5C 861.507,131.349 859.174,124.016 857,116.5C 850.194,77.6241 863.028,47.1241 895.5,25C 936.654,4.23315 973.154,10.3998 1005,43.5C 1014.47,55.7638 1020.64,69.4305 1023.5,84.5 Z M 933.5,55.5 C 959.038,54.8882 974.871,66.8882 981,91.5C 982.062,117.09 970.229,132.924 945.5,139C 919.935,140.094 904.102,128.26 898,103.5C 897.106,77.9161 908.939,61.9161 933.5,55.5 Z M 79.5,415.5 C 102.053,415.519 116.886,426.186 124,447.5C 128.073,469.519 120.239,485.686 100.5,496C 76,503.95 57.5,496.783 45,474.5C 37.6028,452.917 43.1028,435.417 61.5,422C 67.3009,418.903 73.3009,416.736 79.5,415.5 Z M 810.5,881.5 C 836.878,881.049 852.711,893.716 858,919.5C 858.076,944.429 845.909,959.596 821.5,965C 797.337,965.835 781.837,954.668 775,931.5C 773.125,904.903 784.958,888.237 810.5,881.5 Z"/></g>
<g><path style="opacity:0.972" fill="#047ff2" d="M 586.5,271.5 C 651.035,273.514 702.535,300.181 741,351.5C 759.341,378.517 770.175,408.35 773.5,441C 771.663,455.75 763.329,462.75 748.5,462C 740.288,460.786 734.788,456.286 732,448.5C 721.409,375.243 679.909,331.077 607.5,316C 541.134,310.095 491.634,335.929 459,393.5C 433.723,450.088 440.057,502.755 478,551.5C 513.641,590.166 557.808,606.999 610.5,602C 623.949,607.064 628.782,616.564 625,630.5C 622.737,637.097 618.237,641.264 611.5,643C 532.698,650.177 471.531,621.011 428,555.5C 403.268,513.111 395.602,467.778 405,419.5C 423.703,345.229 469.869,297.729 543.5,277C 557.828,273.918 572.162,272.084 586.5,271.5 Z"/></g>
</svg>
