<?xml version="1.0" standalone="no"?>
<!DOCTYPE svg PUBLIC "-//W3C//DTD SVG 20010904//EN"
 "http://www.w3.org/TR/2001/REC-SVG-20010904/DTD/svg10.dtd">
<svg version="1.0" xmlns="http://www.w3.org/2000/svg"
 width="512.000000pt" height="512.000000pt" viewBox="0 0 512.000000 512.000000"
 preserveAspectRatio="xMidYMid meet">
<metadata>
Created by potrace 1.16, written by Peter Selinger 2001-2019
</metadata>
<g transform="translate(0.000000,512.000000) scale(0.100000,-0.100000)"
fill="#000000" stroke="none">
<path d="M2009 4998 c-76 -43 -104 -158 -56 -228 39 -58 71 -75 142 -75 69 0
99 15 139 69 30 39 30 143 0 183 -55 74 -150 95 -225 51z"/>
<path d="M3064 4871 c-103 -47 -124 -195 -39 -270 81 -71 202 -56 255 31 28
47 34 99 15 144 -42 101 -134 139 -231 95z"/>
<path d="M4470 4387 c-136 -72 -109 -268 41 -308 40 -11 53 -10 93 5 142 54
150 244 12 307 -55 25 -94 24 -146 -4z"/>
<path d="M1392 4173 c-63 -31 -100 -117 -81 -186 41 -150 240 -172 310 -34 56
109 -23 237 -145 237 -28 0 -66 -8 -84 -17z"/>
<path d="M2516 4068 c-152 -29 -298 -142 -366 -283 -41 -83 -68 -203 -56 -248
17 -70 94 -113 157 -87 43 18 59 48 74 135 29 165 134 258 290 259 145 1 258
-93 285 -236 21 -107 -26 -222 -116 -287 -81 -58 -30 -55 -1054 -61 -520 -3
-953 -9 -963 -14 -43 -21 -60 -102 -32 -156 33 -63 1 -61 1035 -58 l935 3 65
23 c81 29 132 59 191 110 188 166 228 456 91 668 -116 179 -330 272 -536 232z"/>
<path d="M3734 3911 c-113 -51 -135 -192 -43 -275 70 -64 157 -61 225 8 49 48
63 97 45 156 -15 52 -47 89 -95 111 -52 23 -80 23 -132 0z"/>
<path d="M4460 3349 c-77 -13 -206 -79 -262 -132 -96 -93 -154 -211 -165 -338
-7 -80 12 -124 62 -145 43 -18 59 -18 99 1 42 20 56 46 67 123 23 164 137 266
294 265 84 0 129 -18 192 -75 71 -66 88 -107 88 -213 0 -73 -4 -97 -22 -130
-29 -55 -88 -110 -148 -137 l-50 -23 -2291 -5 c-1922 -4 -2294 -7 -2307 -19
-13 -11 -17 -32 -17 -98 l0 -84 35 -15 c31 -12 332 -14 2323 -12 2058 3 2292
5 2332 19 189 67 312 191 364 368 21 70 21 202 0 272 -52 173 -167 298 -330
354 -81 28 -187 38 -264 24z"/>
<path d="M3767 1969 c-52 -8 -88 -36 -114 -89 -29 -55 -29 -92 -2 -147 59
-121 233 -123 296 -4 29 55 29 95 1 151 -37 72 -100 103 -181 89z"/>
<path d="M754 1786 c-28 -28 -34 -41 -34 -78 0 -47 18 -80 53 -100 17 -10 236
-14 977 -18 l955 -5 45 -27 c101 -59 153 -147 153 -258 0 -250 -295 -382 -481
-215 -56 50 -87 113 -98 195 -9 72 -30 106 -75 124 -69 28 -140 -13 -155 -88
-7 -42 12 -147 39 -211 146 -349 594 -434 857 -163 74 77 125 183 141 296 28
199 -87 424 -267 519 -123 65 -81 63 -1127 63 l-949 0 -34 -34z"/>
<path d="M4915 1726 c-42 -18 -83 -69 -91 -112 -21 -111 52 -204 160 -204 49
0 110 25 128 54 4 6 8 56 8 112 0 91 -2 102 -22 122 -46 42 -124 54 -183 28z"/>
<path d="M3849 1328 c-76 -43 -104 -158 -56 -228 39 -58 71 -75 142 -75 69 0
99 15 139 69 30 39 30 143 0 183 -55 74 -150 95 -225 51z"/>
<path d="M4614 991 c-138 -63 -130 -253 12 -307 40 -15 53 -16 93 -5 150 40
177 236 41 308 -52 28 -91 29 -146 4z"/>
<path d="M1701 810 c-110 -25 -164 -161 -100 -255 28 -42 91 -75 141 -75 55 0
118 39 145 90 27 51 29 87 8 137 -35 82 -109 122 -194 103z"/>
<path d="M3725 470 c-139 -69 -113 -275 38 -310 77 -17 147 17 185 90 28 56
28 96 -1 150 -42 80 -140 111 -222 70z"/>
<path d="M2630 417 c-135 -71 -109 -267 40 -307 117 -31 231 83 200 200 -30
110 -141 160 -240 107z"/>
</g>
</svg>
