<?xml version="1.0" encoding="UTF-8"?>
<!DOCTYPE svg PUBLIC "-//W3C//DTD SVG 1.1//EN" "http://www.w3.org/Graphics/SVG/1.1/DTD/svg11.dtd">
<svg xmlns="http://www.w3.org/2000/svg" version="1.1" width="225px" height="225px" style="shape-rendering:geometricPrecision; text-rendering:geometricPrecision; image-rendering:optimizeQuality; fill-rule:evenodd; clip-rule:evenodd" xmlns:xlink="http://www.w3.org/1999/xlink">
<g><path style="opacity:0.972" fill="#047ff2" d="M 111.5,27.5 C 137.261,52.7895 156.428,82.4561 169,116.5C 175.205,136.135 173.205,154.801 163,172.5C 149.905,188.545 132.905,196.545 112,196.5C 86.6355,196.497 67.9689,185.497 56,163.5C 50.1297,146.861 50.1297,130.195 56,113.5C 62.1112,95.4202 70.7779,78.7536 82,63.5C 91.2895,51.0448 101.123,39.0448 111.5,27.5 Z M 122.5,112.5 C 123.978,112.238 125.311,112.571 126.5,113.5C 118.131,129.377 109.965,145.377 102,161.5C 100.506,162.747 99.0064,162.747 97.5,161.5C 106.115,145.269 114.448,128.936 122.5,112.5 Z M 92.5,114.5 C 102.399,113.904 106.566,118.57 105,128.5C 102.705,135.565 98.2055,137.565 91.5,134.5C 90.4164,133.335 89.5831,132.002 89,130.5C 87.5196,124.451 88.6863,119.118 92.5,114.5 Z M 123.5,139.5 C 128.742,138.271 132.575,139.937 135,144.5C 135.667,148.167 135.667,151.833 135,155.5C 131.681,161.386 127.181,162.553 121.5,159C 117.078,151.816 117.745,145.316 123.5,139.5 Z"/></g>
<g><path style="opacity:0.794" fill="#047ff2" d="M 94.5,120.5 C 100.204,120.146 102.037,122.813 100,128.5C 97.3212,131.172 94.9879,130.838 93,127.5C 92.1668,124.829 92.6668,122.496 94.5,120.5 Z"/></g>
<g><path style="opacity:0.781" fill="#047ff2" d="M 126.5,144.5 C 131.26,145.944 132.593,148.944 130.5,153.5C 126.148,156.654 123.815,155.487 123.5,150C 123.12,147.297 124.12,145.463 126.5,144.5 Z"/></g>
</svg>
