<?xml version="1.0" standalone="no"?>
<!DOCTYPE svg PUBLIC "-//W3C//DTD SVG 20010904//EN"
 "http://www.w3.org/TR/2001/REC-SVG-20010904/DTD/svg10.dtd">
<svg version="1.0" xmlns="http://www.w3.org/2000/svg"
 width="512.000000pt" height="512.000000pt" viewBox="0 0 512.000000 512.000000"
 preserveAspectRatio="xMidYMid meet">
<metadata>
Created by potrace 1.16, written by Peter Selinger 2001-2019
</metadata>
<g transform="translate(0.000000,512.000000) scale(0.100000,-0.100000)"
fill="#000000" stroke="none">
<path d="M3038 5013 c-636 -620 -1121 -1256 -1429 -1873 l-88 -177 -58 13
c-76 18 -192 17 -271 -1 -72 -17 -140 -49 -235 -112 -96 -63 -153 -83 -240
-83 -84 1 -150 24 -242 87 -124 84 -232 123 -343 123 -90 0 -131 -35 -132
-111 0 -35 6 -52 24 -72 26 -28 32 -30 143 -47 52 -8 88 -22 130 -47 32 -20
82 -51 112 -69 97 -60 155 -77 277 -82 172 -6 251 18 418 126 92 61 136 75
231 76 89 0 131 -14 233 -80 169 -110 231 -128 407 -122 141 6 193 22 312 100
111 73 167 96 248 104 61 6 74 11 103 40 26 26 32 40 32 74 0 35 -6 48 -35 77
l-36 36 -87 -6 c-115 -7 -181 -31 -316 -116 -61 -38 -129 -74 -151 -80 -93
-25 -218 -6 -297 47 l-27 18 73 150 c226 465 580 964 1057 1489 70 77 178 190
239 250 l112 110 185 -190 c414 -424 773 -882 1042 -1330 101 -166 260 -493
320 -657 94 -253 139 -463 148 -693 18 -479 -157 -925 -497 -1265 -271 -270
-607 -436 -983 -485 -456 -59 -914 70 -1273 358 -54 43 -62 53 -47 59 10 3 40
15 67 24 28 10 84 40 125 68 109 71 166 94 246 102 61 6 74 11 103 40 26 26
32 40 32 74 0 35 -6 48 -35 77 l-36 36 -87 -6 c-115 -7 -181 -31 -316 -116
-124 -78 -162 -91 -256 -91 -77 1 -146 26 -235 87 -133 90 -232 123 -370 123
-140 0 -234 -32 -378 -127 -96 -63 -153 -83 -240 -83 -84 1 -150 24 -242 87
-124 84 -232 123 -343 123 -90 0 -131 -35 -132 -111 0 -35 6 -52 24 -72 26
-28 32 -30 143 -47 51 -8 88 -22 127 -46 31 -19 82 -50 113 -69 99 -61 156
-78 279 -83 172 -6 251 18 418 126 92 61 136 75 231 76 86 0 131 -14 218 -70
37 -24 91 -56 119 -70 33 -17 91 -66 157 -133 261 -262 588 -447 934 -526 286
-65 636 -60 925 14 466 120 888 431 1142 840 195 314 289 644 290 1011 0 91
-5 204 -10 250 -76 610 -420 1306 -1015 2050 -204 255 -338 404 -600 668
l-241 242 -52 0 -53 0 -111 -107z"/>
<path d="M55 2338 c-59 -32 -76 -123 -31 -171 26 -28 32 -30 143 -47 51 -8 88
-22 127 -46 31 -19 82 -50 113 -69 115 -70 152 -80 313 -80 161 1 201 11 311
79 30 18 80 49 112 69 42 25 78 39 130 47 111 17 117 19 143 47 18 20 24 37
24 72 -1 76 -42 111 -132 111 -112 0 -216 -38 -351 -127 -96 -63 -153 -83
-240 -83 -84 1 -150 24 -242 87 -86 58 -155 91 -227 108 -74 17 -165 19 -193
3z"/>
<path d="M2420 2337 c-77 -19 -113 -36 -224 -106 -116 -74 -129 -79 -225 -91
-54 -7 -81 -16 -98 -32 -48 -45 -46 -123 4 -167 25 -22 33 -23 122 -18 115 6
178 27 288 99 130 85 175 102 273 102 76 0 92 -3 150 -32 36 -17 97 -52 135
-77 108 -70 162 -87 294 -93 172 -7 247 15 408 120 89 58 128 73 209 83 78 10
112 29 131 73 12 29 13 43 3 74 -22 75 -107 96 -248 63 -73 -17 -132 -46 -237
-114 -103 -68 -158 -85 -255 -79 -87 5 -121 19 -255 106 -115 74 -177 94 -310
98 -68 2 -131 -1 -165 -9z"/>
<path d="M55 1698 c-59 -32 -76 -123 -31 -171 26 -28 32 -30 143 -47 51 -8 88
-22 127 -46 31 -19 82 -50 113 -69 90 -56 158 -77 256 -83 99 -5 130 5 153 50
44 86 -18 168 -128 168 -54 1 -135 33 -213 87 -86 58 -155 91 -227 108 -74 17
-165 19 -193 3z"/>
<path d="M1280 1697 c-14 -7 -33 -29 -44 -51 -16 -32 -17 -44 -7 -75 16 -56
39 -70 132 -85 104 -17 116 -22 211 -85 162 -106 228 -125 403 -119 141 6 193
22 312 100 131 86 175 102 273 102 97 -1 153 -19 252 -82 145 -91 237 -122
359 -122 78 0 105 12 128 57 40 79 -24 163 -126 163 -60 0 -131 26 -218 79
-178 109 -276 138 -440 128 -117 -7 -182 -30 -319 -116 -124 -78 -162 -91
-256 -91 -77 1 -146 26 -235 87 -86 58 -155 91 -227 108 -77 18 -164 19 -198
2z"/>
</g>
</svg>
