<?xml version="1.0" encoding="UTF-8"?>
<!DOCTYPE svg PUBLIC "-//W3C//DTD SVG 1.1//EN" "http://www.w3.org/Graphics/SVG/1.1/DTD/svg11.dtd">
<svg xmlns="http://www.w3.org/2000/svg" version="1.1" width="512px" height="512px" style="shape-rendering:geometricPrecision; text-rendering:geometricPrecision; image-rendering:optimizeQuality; fill-rule:evenodd; clip-rule:evenodd" xmlns:xlink="http://www.w3.org/1999/xlink">
<g><path style="opacity:0.997" fill="#fefffe" d="M 23.5,-0.5 C 146.167,-0.5 268.833,-0.5 391.5,-0.5C 400.919,2.74798 408.086,8.74798 413,17.5C 413.667,19.5 414.333,21.5 415,23.5C 415.5,36.8292 415.667,50.1625 415.5,63.5C 404.833,63.5 394.167,63.5 383.5,63.5C 383.5,52.8333 383.5,42.1667 383.5,31.5C 266.167,31.5 148.833,31.5 31.5,31.5C 31.5,148.833 31.5,266.167 31.5,383.5C 42.1667,383.5 52.8333,383.5 63.5,383.5C 63.5,394.167 63.5,404.833 63.5,415.5C 50.1625,415.667 36.8292,415.5 23.5,415C 17.6122,413.437 12.4455,410.604 8,406.5C 4.09846,402.022 1.26512,397.022 -0.5,391.5C -0.5,268.833 -0.5,146.167 -0.5,23.5C 1.26512,17.9779 4.09846,12.9779 8,8.5C 12.5995,4.37379 17.7662,1.37379 23.5,-0.5 Z"/></g>
<g><path style="opacity:0.998" fill="#fefffe" d="M 511.5,119.5 C 511.5,242.167 511.5,364.833 511.5,487.5C 509.735,493.022 506.902,498.022 503,502.5C 498.4,506.626 493.234,509.626 487.5,511.5C 364.833,511.5 242.167,511.5 119.5,511.5C 110.796,508.637 103.963,503.304 99,495.5C 97.8035,492.911 96.8035,490.244 96,487.5C 95.3333,364.833 95.3333,242.167 96,119.5C 99.1667,107 107,99.1667 119.5,96C 242.167,95.3333 364.833,95.3333 487.5,96C 493.214,97.3923 498.214,100.059 502.5,104C 506.626,108.6 509.626,113.766 511.5,119.5 Z M 127.5,127.5 C 244.833,127.5 362.167,127.5 479.5,127.5C 479.5,244.833 479.5,362.167 479.5,479.5C 362.167,479.5 244.833,479.5 127.5,479.5C 127.5,362.167 127.5,244.833 127.5,127.5 Z"/></g>
<g><path style="opacity:0.967" fill="#fefffe" d="M 375.5,207.5 C 403.978,205.811 417.145,219.144 415,247.5C 408.395,266.066 395.228,273.899 375.5,271C 356.934,264.395 349.101,251.228 352,231.5C 353.563,225.612 356.396,220.446 360.5,216C 364.978,212.098 369.978,209.265 375.5,207.5 Z"/></g>
<g><path style="opacity:0.987" fill="#fefffe" d="M 266.5,271.5 C 271.742,271.023 276.742,271.856 281.5,274C 299.347,292.014 317.347,309.847 335.5,327.5C 342.986,320.515 350.319,313.348 357.5,306C 364.167,302.667 370.833,302.667 377.5,306C 400,328.5 422.5,351 445,373.5C 450.56,384.367 448.06,392.867 437.5,399C 348.167,399.667 258.833,399.667 169.5,399C 160.97,394.774 157.803,387.941 160,378.5C 160.561,376.275 161.561,374.275 163,372.5C 195.5,340 228,307.5 260.5,275C 262.432,273.541 264.432,272.375 266.5,271.5 Z"/></g>
</svg>
