<?xml version="1.0" standalone="no"?>
<!DOCTYPE svg PUBLIC "-//W3C//DTD SVG 20010904//EN"
 "http://www.w3.org/TR/2001/REC-SVG-20010904/DTD/svg10.dtd">
<svg version="1.0" xmlns="http://www.w3.org/2000/svg"
 width="512.000000pt" height="512.000000pt" viewBox="0 0 512.000000 512.000000"
 preserveAspectRatio="xMidYMid meet">
<metadata>
Created by potrace 1.16, written by Peter Selinger 2001-2019
</metadata>
<g transform="translate(0.000000,512.000000) scale(0.100000,-0.100000)"
fill="#000000" stroke="none">
<path d="M2483 5100 c-21 -13 -35 -31 -42 -57 -17 -61 -15 -715 3 -757 21 -51
60 -76 118 -76 43 0 54 4 84 34 l34 34 0 387 0 387 -34 34 c-29 29 -41 34 -82
34 -31 0 -61 -7 -81 -20z"/>
<path d="M781 4402 c-82 -41 -101 -127 -44 -197 17 -22 136 -144 265 -271 184
-183 241 -234 271 -242 122 -34 206 99 128 204 -48 65 -494 502 -524 513 -39
15 -57 14 -96 -7z"/>
<path d="M4240 4409 c-13 -6 -136 -121 -272 -257 -260 -259 -296 -304 -283
-362 16 -71 91 -118 158 -99 46 13 554 521 566 567 18 62 -17 127 -82 151 -34
13 -54 13 -87 0z"/>
<path d="M2324 3914 c-421 -70 -797 -351 -993 -740 -95 -190 -141 -388 -141
-615 0 -328 101 -613 310 -872 197 -246 516 -431 830 -482 122 -19 342 -19
456 0 508 87 917 440 1079 928 46 140 65 265 65 426 0 333 -99 613 -308 873
-200 247 -513 429 -831 482 -116 20 -353 20 -467 0z m455 -254 c419 -85 757
-403 868 -815 24 -90 27 -117 27 -280 1 -159 -2 -191 -23 -270 -53 -202 -156
-383 -300 -526 -170 -169 -362 -271 -596 -314 -131 -25 -345 -17 -477 18 -191
50 -358 147 -504 292 -173 172 -275 363 -319 600 -25 132 -17 345 19 480 110
421 474 752 905 825 95 16 298 11 400 -10z"/>
<path d="M72 2679 c-44 -13 -72 -60 -72 -122 0 -42 5 -54 34 -83 l34 -34 387
0 387 0 34 34 c29 29 34 41 34 80 0 55 -15 90 -49 113 -24 16 -61 18 -391 20
-213 1 -379 -2 -398 -8z"/>
<path d="M4282 2679 c-44 -13 -72 -60 -72 -122 0 -42 5 -54 34 -83 l34 -34
386 0 386 0 31 28 c56 50 51 158 -10 199 -24 16 -58 18 -391 20 -213 1 -379
-2 -398 -8z"/>
<path d="M1239 1411 c-24 -16 -150 -136 -280 -267 -255 -258 -272 -281 -249
-349 18 -55 62 -85 123 -85 l51 0 268 267 c195 194 271 277 277 300 18 63 -17
128 -82 152 -43 16 -59 14 -108 -18z"/>
<path d="M3770 1429 c-63 -26 -100 -94 -81 -152 8 -22 97 -118 279 -300 l268
-267 53 0 c47 0 57 4 87 34 30 30 34 40 34 87 l0 53 -262 264 c-145 145 -277
270 -295 278 -37 16 -49 16 -83 3z"/>
<path d="M2483 890 c-21 -13 -35 -31 -42 -57 -17 -61 -15 -715 3 -757 21 -51
60 -76 118 -76 43 0 54 4 84 34 l34 34 0 387 0 387 -34 34 c-29 29 -41 34 -82
34 -31 0 -61 -7 -81 -20z"/>
</g>
</svg>
