<?xml version="1.0" encoding="UTF-8"?>
<!DOCTYPE svg PUBLIC "-//W3C//DTD SVG 1.1//EN" "http://www.w3.org/Graphics/SVG/1.1/DTD/svg11.dtd">
<svg xmlns="http://www.w3.org/2000/svg" version="1.1" width="892px" height="968px" style="shape-rendering:geometricPrecision; text-rendering:geometricPrecision; image-rendering:optimizeQuality; fill-rule:evenodd; clip-rule:evenodd" xmlns:xlink="http://www.w3.org/1999/xlink">
<g><path style="opacity:0.963" fill="#047ff2" d="M 398.5,260.5 C 390.236,269.56 380.903,270.727 370.5,264C 368.273,261.436 366.439,258.603 365,255.5C 354.332,215.494 343.665,175.494 333,135.5C 331.864,119.303 339.364,111.803 355.5,113C 361.501,114.336 365.668,117.836 368,123.5C 379.317,164.397 390.317,205.063 401,245.5C 401.88,250.796 401.047,255.796 398.5,260.5 Z"/></g>
<g><path style="opacity:0.963" fill="#047ff2" d="M 535.5,112.5 C 551.626,111.793 559.126,119.459 558,135.5C 547.333,175.5 536.667,215.5 526,255.5C 521.13,267.156 512.63,270.989 500.5,267C 492.364,262.226 488.864,255.059 490,245.5C 500.667,205.5 511.333,165.5 522,125.5C 524.442,118.888 528.942,114.555 535.5,112.5 Z"/></g>
<g><path style="opacity:0.953" fill="#047ff2" d="M 440.5,148.5 C 452.696,146.889 460.529,151.889 464,163.5C 464.667,190.5 464.667,217.5 464,244.5C 460.12,257.368 451.62,262.202 438.5,259C 432.641,255.788 428.808,250.955 427,244.5C 426.333,217.5 426.333,190.5 427,163.5C 429.248,156.246 433.748,151.246 440.5,148.5 Z"/></g>
<g><path style="opacity:0.957" fill="#047ff2" d="M 337.5,258.5 C 345.757,269.812 344.757,280.312 334.5,290C 324.606,294.535 316.106,292.702 309,284.5C 304.225,276.008 299.059,267.342 293.5,258.5C 291.336,253.5 288.669,248.833 285.5,244.5C 280.59,235.073 275.424,225.74 270,216.5C 266.403,201.765 272.07,193.099 287,190.5C 293.031,190.683 298.031,193.016 302,197.5C 313.729,218.022 325.562,238.356 337.5,258.5 Z"/></g>
<g><path style="opacity:0.959" fill="#047ff2" d="M 600.5,190.5 C 617.243,191.406 624.077,200.072 621,216.5C 607.766,239.965 594.266,263.298 580.5,286.5C 571.787,294.124 562.787,294.458 553.5,287.5C 547.514,280.162 546.347,272.495 550,264.5C 562.748,242.003 575.748,219.669 589,197.5C 592.263,194.037 596.097,191.704 600.5,190.5 Z"/></g>
<g><path style="opacity:0.958" fill="#047ff2" d="M 278.5,289.5 C 281.129,292.631 283.962,295.631 287,298.5C 287.333,298.167 287.667,297.833 288,297.5C 293.296,305.911 293.796,314.578 289.5,323.5C 288.5,325.167 287.167,326.5 285.5,327.5C 277.744,331.604 270.077,331.437 262.5,327C 232.694,297.194 202.86,267.36 173,237.5C 166.74,228.026 167.574,219.192 175.5,211C 182.212,206.517 189.212,205.851 196.5,209C 224.033,235.701 251.367,262.534 278.5,289.5 Z"/></g>
<g><path style="opacity:0.958" fill="#047ff2" d="M 716.5,211.5 C 722.218,218.475 723.385,226.141 720,234.5C 706.696,248.805 693.029,262.805 679,276.5C 678.536,277.094 678.369,277.761 678.5,278.5C 676.251,279.08 674.585,280.413 673.5,282.5C 660.833,294.5 648.5,306.833 636.5,319.5C 635.833,319.5 635.5,319.833 635.5,320.5C 631.865,324.637 627.531,327.804 622.5,330C 604.667,332.167 596.833,324.333 599,306.5C 600,304.5 601,302.5 602,300.5C 631.728,270.772 661.894,240.606 692.5,210C 700.864,205.263 708.864,205.763 716.5,211.5 Z"/></g>
<g><path style="opacity:0.024" fill="#047ff2" d="M 716.5,210.5 C 717.833,211.167 717.833,211.167 716.5,210.5 Z"/></g>
<g><path style="opacity:0.039" fill="#047ff2" d="M 285.5,244.5 C 284.833,245.167 284.833,245.167 285.5,244.5 Z"/></g>
<g><path style="opacity:0.008" fill="#047ff2" d="M 461.5,252.5 C 462.833,253.167 462.833,253.167 461.5,252.5 Z"/></g>
<g><path style="opacity:0.008" fill="#047ff2" d="M 292.5,258.5 C 291.833,257.167 291.833,257.167 292.5,258.5 Z"/></g>
<g><path style="opacity:0.016" fill="#047ff2" d="M 337.5,257.5 C 338.833,258.167 338.833,258.167 337.5,257.5 Z"/></g>
<g><path style="opacity:0.039" fill="#047ff2" d="M 292.5,258.5 C 292.833,258.5 293.167,258.5 293.5,258.5C 293.315,259.17 292.981,259.17 292.5,258.5 Z"/></g>
<g><path style="opacity:0.016" fill="#047ff2" d="M 398.5,260.5 C 399.833,261.167 399.833,261.167 398.5,260.5 Z"/></g>
<g><path style="opacity:0.024" fill="#047ff2" d="M 295.5,265.5 C 294.833,264.167 294.833,264.167 295.5,265.5 Z"/></g>
<g><path style="opacity:0.027" fill="#047ff2" d="M 295.5,265.5 C 296.525,265.897 296.692,266.563 296,267.5C 295.536,266.906 295.369,266.239 295.5,265.5 Z"/></g>
<g><path style="opacity:0.016" fill="#047ff2" d="M 297.5,270.5 C 298.525,270.897 298.692,271.563 298,272.5C 297.536,271.906 297.369,271.239 297.5,270.5 Z"/></g>
<g><path style="opacity:0.016" fill="#047ff2" d="M 611.5,273.5 C 612.833,274.167 612.833,274.167 611.5,273.5 Z"/></g>
<g><path style="opacity:0.063" fill="#047ff2" d="M 678.5,278.5 C 679.833,279.167 679.833,279.167 678.5,278.5 Z"/></g>
<g><path style="opacity:0.016" fill="#047ff2" d="M 680.5,279.5 C 681.833,280.167 681.833,280.167 680.5,279.5 Z"/></g>
<g><path style="opacity:0.008" fill="#047ff2" d="M 275.5,280.5 C 276.833,281.167 276.833,281.167 275.5,280.5 Z"/></g>
<g><path style="opacity:0.016" fill="#047ff2" d="M 294.5,281.5 C 294.897,280.475 295.563,280.308 296.5,281C 295.906,281.464 295.239,281.631 294.5,281.5 Z"/></g>
<g><path style="opacity:0.039" fill="#047ff2" d="M 273.5,282.5 C 274.833,283.167 274.833,283.167 273.5,282.5 Z"/></g>
<g><path style="opacity:0.008" fill="#047ff2" d="M 673.5,282.5 C 674.833,283.167 674.833,283.167 673.5,282.5 Z"/></g>
<g><path style="opacity:0.016" fill="#047ff2" d="M 290.5,284.5 C 291.833,285.167 291.833,285.167 290.5,284.5 Z"/></g>
<g><path style="opacity:0.961" fill="#047ff2" d="M 285.5,597.5 C 246.995,539.468 239.495,477.468 263,411.5C 283.663,361.171 318.829,325.005 368.5,303C 445.754,273.986 515.754,285.986 578.5,339C 629.87,389.308 649.703,450.141 638,521.5C 622.588,587.893 584.088,635.393 522.5,664C 459.848,688.516 399.515,683.849 341.5,650C 319.41,636.074 300.743,618.574 285.5,597.5 Z M 554.5,359.5 C 595.588,396.558 614.088,442.892 610,498.5C 600.841,567.336 564.007,614.503 499.5,640C 429.599,660.403 369.766,644.236 320,591.5C 279.24,540.206 269.907,483.54 292,421.5C 313.843,370.746 351.677,337.912 405.5,323C 461.475,310.617 511.141,322.784 554.5,359.5 Z"/></g>
<g><path style="opacity:0.031" fill="#047ff2" d="M 278.5,288.5 C 279.833,289.167 279.833,289.167 278.5,288.5 Z"/></g>
<g><path style="opacity:0.008" fill="#047ff2" d="M 280.5,289.5 C 281.833,290.167 281.833,290.167 280.5,289.5 Z"/></g>
<g><path style="opacity:0.008" fill="#047ff2" d="M 286.5,294.5 C 285.833,293.167 285.833,293.167 286.5,294.5 Z"/></g>
<g><path style="opacity:0.016" fill="#047ff2" d="M 286.5,294.5 C 287.525,294.897 287.692,295.563 287,296.5C 286.536,295.906 286.369,295.239 286.5,294.5 Z"/></g>
<g><path style="opacity:0.02" fill="#047ff2" d="M 583.5,297.5 C 584.525,297.897 584.692,298.563 584,299.5C 583.536,298.906 583.369,298.239 583.5,297.5 Z"/></g>
<g><path style="opacity:0.016" fill="#047ff2" d="M 675.5,304.5 C 676.833,305.167 676.833,305.167 675.5,304.5 Z"/></g>
<g><path style="opacity:0.016" fill="#047ff2" d="M 659.5,305.5 C 660.833,306.167 660.833,306.167 659.5,305.5 Z"/></g>
<g><path style="opacity:0.956" fill="#047ff2" d="M 167.5,306.5 C 171.273,306.263 174.94,306.763 178.5,308C 199.457,319.495 219.29,330.995 238,342.5C 252.196,347.573 256.863,357.573 252,372.5C 246.13,380.133 238.63,382.633 229.5,380C 205.909,367.034 182.576,353.7 159.5,340C 149.744,329.034 150.411,318.7 161.5,309C 163.723,308.434 165.723,307.6 167.5,306.5 Z"/></g>
<g><path style="opacity:0.016" fill="#047ff2" d="M 182.5,306.5 C 183.833,307.167 183.833,307.167 182.5,306.5 Z"/></g>
<g><path style="opacity:0.957" fill="#047ff2" d="M 663.5,379.5 C 650.49,383.578 641.657,379.245 637,366.5C 635.857,357.96 638.69,351.127 645.5,346C 667.128,333.965 689.461,321.299 712.5,308C 727.191,304.347 735.857,310.013 738.5,325C 738.317,331.031 735.984,336.031 731.5,340C 708.607,352.941 685.94,366.108 663.5,379.5 Z"/></g>
<g><path style="opacity:0.016" fill="#047ff2" d="M 594.5,309.5 C 595.833,310.167 595.833,310.167 594.5,309.5 Z"/></g>
<g><path style="opacity:0.039" fill="#047ff2" d="M 594.5,313.5 C 595.833,314.167 595.833,314.167 594.5,313.5 Z"/></g>
<g><path style="opacity:0.024" fill="#047ff2" d="M 554.5,317.5 C 555.833,318.167 555.833,318.167 554.5,317.5 Z"/></g>
<g><path style="opacity:0.008" fill="#047ff2" d="M 639.5,318.5 C 640.833,319.167 640.833,319.167 639.5,318.5 Z"/></g>
<g><path style="opacity:0.039" fill="#047ff2" d="M 636.5,319.5 C 637.833,320.167 637.833,320.167 636.5,319.5 Z"/></g>
<g><path style="opacity:0.016" fill="#047ff2" d="M 635.5,320.5 C 635.833,320.5 636.167,320.5 636.5,320.5C 636.315,321.17 635.981,321.17 635.5,320.5 Z"/></g>
<g><path style="opacity:0.031" fill="#047ff2" d="M 289.5,323.5 C 290.833,324.167 290.833,324.167 289.5,323.5 Z"/></g>
<g><path style="opacity:0.016" fill="#047ff2" d="M 639.5,325.5 C 640.833,326.167 640.833,326.167 639.5,325.5 Z"/></g>
<g><path style="opacity:0.024" fill="#047ff2" d="M 285.5,327.5 C 286.833,328.167 286.833,328.167 285.5,327.5 Z"/></g>
<g><path style="opacity:0.024" fill="#047ff2" d="M 227.5,330.5 C 228.833,331.167 228.833,331.167 227.5,330.5 Z"/></g>
<g><path style="opacity:0.016" fill="#047ff2" d="M 232.5,334.5 C 233.833,335.167 233.833,335.167 232.5,334.5 Z"/></g>
<g><path style="opacity:0.016" fill="#047ff2" d="M 653.5,336.5 C 654.833,337.167 654.833,337.167 653.5,336.5 Z"/></g>
<g><path style="opacity:0.016" fill="#047ff2" d="M 242.5,341.5 C 243.833,342.167 243.833,342.167 242.5,341.5 Z"/></g>
<g><path style="opacity:0.016" fill="#047ff2" d="M 634.5,345.5 C 635.833,346.167 635.833,346.167 634.5,345.5 Z"/></g>
<g><path style="opacity:0.016" fill="#047ff2" d="M 590.5,349.5 C 591.833,350.167 591.833,350.167 590.5,349.5 Z"/></g>
<g><path style="opacity:0.963" fill="#047ff2" d="M 88.5,370.5 C 95.674,370.542 102.674,371.709 109.5,374C 146.254,383.689 182.921,393.689 219.5,404C 229.321,409.041 232.488,416.875 229,427.5C 224.905,436.965 217.739,440.799 207.5,439C 166.77,428.201 126.104,417.201 85.5,406C 75.6651,400.505 72.4984,392.338 76,381.5C 78.5048,375.822 82.6714,372.155 88.5,370.5 Z"/></g>
<g><path style="opacity:0.963" fill="#047ff2" d="M 793.5,370.5 C 807.326,369.17 814.993,375.336 816.5,389C 816.359,396.949 812.692,402.616 805.5,406C 764.895,417.201 724.228,428.201 683.5,439C 669.964,440.407 662.298,434.407 660.5,421C 661.169,412.32 665.502,406.32 673.5,403C 713.716,392.449 753.716,381.615 793.5,370.5 Z"/></g>
<g><path style="opacity:0.008" fill="#047ff2" d="M 808.5,370.5 C 809.833,371.167 809.833,371.167 808.5,370.5 Z"/></g>
<g><path style="opacity:0.008" fill="#047ff2" d="M 663.5,379.5 C 664.833,380.167 664.833,380.167 663.5,379.5 Z"/></g>
<g><path style="opacity:0.008" fill="#047ff2" d="M 225.5,405.5 C 226.833,406.167 226.833,406.167 225.5,405.5 Z"/></g>
<g><path style="opacity:0.95" fill="#047ff2" d="M 217.5,470.5 C 225.189,482.914 222.856,493.081 210.5,501C 182.215,502.633 153.882,502.966 125.5,502C 114.229,498.314 109.396,490.48 111,478.5C 111.949,474.243 114.115,470.909 117.5,468.5C 120.024,467.073 122.69,465.906 125.5,465C 152.5,464.333 179.5,464.333 206.5,465C 210.431,466.299 214.097,468.132 217.5,470.5 Z"/></g>
<g><path style="opacity:0.951" fill="#047ff2" d="M 684.5,464.5 C 712.551,464.034 740.551,464.534 768.5,466C 779.396,471.339 782.896,479.839 779,491.5C 775.892,497.261 771.059,500.761 764.5,502C 737.833,502.667 711.167,502.667 684.5,502C 669.23,496.195 665.397,486.028 673,471.5C 676.263,468.037 680.097,465.704 684.5,464.5 Z"/></g>
<g><path style="opacity:0.024" fill="#047ff2" d="M 117.5,468.5 C 116.833,467.167 116.833,467.167 117.5,468.5 Z"/></g>
<g><path style="opacity:0.008" fill="#047ff2" d="M 217.5,469.5 C 218.833,470.167 218.833,470.167 217.5,469.5 Z"/></g>
<g><path style="opacity:0.963" fill="#047ff2" d="M 207.5,527.5 C 217.047,526.855 224.213,530.522 229,538.5C 232.426,549.338 229.259,557.504 219.5,563C 178.926,574.31 138.259,585.31 97.5,596C 81.3132,597.147 73.8132,589.647 75,573.5C 76.7361,566.763 80.9028,562.263 87.5,560C 127.7,549.452 167.7,538.619 207.5,527.5 Z"/></g>
<g><path style="opacity:0.964" fill="#047ff2" d="M 675.5,527.5 C 682.32,527.704 688.987,528.871 695.5,531C 732.167,541 768.833,551 805.5,561C 814.545,565.764 818.045,573.264 816,583.5C 811.802,593.517 804.302,597.684 793.5,596C 753.516,585.337 713.516,574.67 673.5,564C 660.884,557.715 657.717,548.215 664,535.5C 667.195,531.673 671.029,529.007 675.5,527.5 Z"/></g>
<g><path style="opacity:0.958" fill="#047ff2" d="M 234.5,585.5 C 250.261,587.418 256.428,596.085 253,611.5C 251.877,614.249 250.377,616.749 248.5,619C 225.199,632.319 201.865,645.653 178.5,659C 165.637,662.609 157.137,658.109 153,645.5C 151.875,638.16 154.042,631.993 159.5,627C 180.102,615.027 200.769,603.027 221.5,591C 225.717,588.549 230.05,586.715 234.5,585.5 Z"/></g>
<g><path style="opacity:0.956" fill="#047ff2" d="M 710.5,614.5 C 717.437,618.641 724.437,622.807 731.5,627C 741.321,637.943 740.654,648.276 729.5,658C 722.845,661.33 716.179,661.33 709.5,658C 696.971,650.237 684.304,642.737 671.5,635.5C 668.205,633.853 664.872,632.186 661.5,630.5C 660.232,628.953 658.565,627.953 656.5,627.5C 651.839,624.363 647.006,621.363 642,618.5C 634.05,607.933 634.883,598.1 644.5,589C 653.142,584.518 661.475,585.185 669.5,591C 683.189,598.843 696.856,606.676 710.5,614.5 Z"/></g>
<g><path style="opacity:0.039" fill="#047ff2" d="M 285.5,597.5 C 284.833,598.167 284.833,598.167 285.5,597.5 Z"/></g>
<g><path style="opacity:0.016" fill="#047ff2" d="M 710.5,613.5 C 711.833,614.167 711.833,614.167 710.5,613.5 Z"/></g>
<g><path style="opacity:0.031" fill="#047ff2" d="M 656.5,627.5 C 655.833,628.167 655.833,628.167 656.5,627.5 Z"/></g>
<g><path style="opacity:0.008" fill="#047ff2" d="M 258.5,628.5 C 259.833,629.167 259.833,629.167 258.5,628.5 Z"/></g>
<g><path style="opacity:0.016" fill="#047ff2" d="M 311.5,628.5 C 312.833,629.167 312.833,629.167 311.5,628.5 Z"/></g>
<g><path style="opacity:0.024" fill="#047ff2" d="M 651.5,628.5 C 652.833,629.167 652.833,629.167 651.5,628.5 Z"/></g>
<g><path style="opacity:0.016" fill="#047ff2" d="M 661.5,630.5 C 660.833,631.167 660.833,631.167 661.5,630.5 Z"/></g>
<g><path style="opacity:0.008" fill="#047ff2" d="M 299.5,633.5 C 300.833,634.167 300.833,634.167 299.5,633.5 Z"/></g>
<g><path style="opacity:0.008" fill="#047ff2" d="M 671.5,635.5 C 670.833,636.167 670.833,636.167 671.5,635.5 Z"/></g>
<g><path style="opacity:0.957" fill="#047ff2" d="M 281.5,674.5 C 254.42,701.075 226.753,728.575 198.5,757C 182.628,763.731 172.628,758.731 168.5,742C 169.207,738.8 170.04,735.633 171,732.5C 189.673,712.994 208.506,693.66 227.5,674.5C 239.298,663.202 250.965,651.702 262.5,640C 271.01,635.136 279.344,635.469 287.5,641C 292.609,647.834 293.776,655.334 291,663.5C 287.998,667.334 284.831,671 281.5,674.5 Z"/></g>
<g><path style="opacity:0.008" fill="#047ff2" d="M 302.5,636.5 C 303.833,637.167 303.833,637.167 302.5,636.5 Z"/></g>
<g><path style="opacity:0.957" fill="#047ff2" d="M 646.5,711.5 C 641.443,705.441 635.776,700.107 629.5,695.5C 624.559,688.89 618.892,682.89 612.5,677.5C 608.17,673.002 604.003,668.335 600,663.5C 595.833,642.333 604.333,633.833 625.5,638C 656.945,668.445 688.112,699.278 719,730.5C 723.33,738.589 722.996,746.589 718,754.5C 715.775,755.939 713.775,757.606 712,759.5C 706.333,760.833 700.667,760.833 695,759.5C 679.019,743.353 662.852,727.353 646.5,711.5 Z"/></g>
<g><path style="opacity:0.008" fill="#047ff2" d="M 674.5,639.5 C 675.833,640.167 675.833,640.167 674.5,639.5 Z"/></g>
<g><path style="opacity:0.016" fill="#047ff2" d="M 667.5,641.5 C 667.897,640.475 668.563,640.308 669.5,641C 668.906,641.464 668.239,641.631 667.5,641.5 Z"/></g>
<g><path style="opacity:0.008" fill="#047ff2" d="M 243.5,641.5 C 244.833,642.167 244.833,642.167 243.5,641.5 Z"/></g>
<g><path style="opacity:0.031" fill="#047ff2" d="M 659.5,648.5 C 660.833,649.167 660.833,649.167 659.5,648.5 Z"/></g>
<g><path style="opacity:0.047" fill="#047ff2" d="M 641.5,650.5 C 642.833,651.167 642.833,651.167 641.5,650.5 Z"/></g>
<g><path style="opacity:0.008" fill="#047ff2" d="M 646.5,655.5 C 645.833,654.167 645.833,654.167 646.5,655.5 Z"/></g>
<g><path style="opacity:0.008" fill="#047ff2" d="M 646.5,655.5 C 647.833,656.167 647.833,656.167 646.5,655.5 Z"/></g>
<g><path style="opacity:0.016" fill="#047ff2" d="M 650.5,657.5 C 651.833,658.167 651.833,658.167 650.5,657.5 Z"/></g>
<g><path style="opacity:0.016" fill="#047ff2" d="M 654.5,657.5 C 655.833,658.167 655.833,658.167 654.5,657.5 Z"/></g>
<g><path style="opacity:0.016" fill="#047ff2" d="M 653.5,661.5 C 654.833,662.167 654.833,662.167 653.5,661.5 Z"/></g>
<g><path style="opacity:0.047" fill="#047ff2" d="M 227.5,674.5 C 226.833,673.167 226.833,673.167 227.5,674.5 Z"/></g>
<g><path style="opacity:0.008" fill="#047ff2" d="M 281.5,674.5 C 282.833,675.167 282.833,675.167 281.5,674.5 Z"/></g>
<g><path style="opacity:0.016" fill="#047ff2" d="M 314.5,674.5 C 315.833,675.167 315.833,675.167 314.5,674.5 Z"/></g>
<g><path style="opacity:0.957" fill="#047ff2" d="M 321.5,674.5 C 334.524,674.334 341.858,680.667 343.5,693.5C 342.772,697.302 341.606,700.969 340,704.5C 327.095,725.97 314.428,747.637 302,769.5C 291.011,779.312 280.678,778.646 271,767.5C 268.263,761.949 267.93,756.282 270,750.5C 283.333,727.167 296.667,703.833 310,680.5C 313.575,677.798 317.408,675.798 321.5,674.5 Z"/></g>
<g><path style="opacity:0.957" fill="#047ff2" d="M 576.5,748.5 C 568.262,733.692 559.762,719.026 551,704.5C 544.454,690.582 548.287,680.749 562.5,675C 569.496,673.998 575.663,675.832 581,680.5C 589.111,694.438 596.778,708.104 604,721.5C 610.746,731.727 616.746,742.393 622,753.5C 623.156,766.685 617.156,774.352 604,776.5C 597.969,776.317 592.969,773.984 589,769.5C 584.807,762.437 580.641,755.437 576.5,748.5 Z"/></g>
<g><path style="opacity:0.071" fill="#047ff2" d="M 603.5,676.5 C 604.833,677.167 604.833,677.167 603.5,676.5 Z"/></g>
<g><path style="opacity:0.016" fill="#047ff2" d="M 308.5,677.5 C 309.833,678.167 309.833,678.167 308.5,677.5 Z"/></g>
<g><path style="opacity:0.031" fill="#047ff2" d="M 612.5,677.5 C 611.833,678.167 611.833,678.167 612.5,677.5 Z"/></g>
<g><path style="opacity:0.008" fill="#047ff2" d="M 599.5,680.5 C 600.833,681.167 600.833,681.167 599.5,680.5 Z"/></g>
<g><path style="opacity:0.012" fill="#047ff2" d="M 599.5,681.5 C 599.103,682.525 598.437,682.692 597.5,682C 598.094,681.536 598.761,681.369 599.5,681.5 Z"/></g>
<g><path style="opacity:0.008" fill="#047ff2" d="M 273.5,684.5 C 274.833,685.167 274.833,685.167 273.5,684.5 Z"/></g>
<g><path style="opacity:0.078" fill="#047ff2" d="M 305.5,684.5 C 306.833,685.167 306.833,685.167 305.5,684.5 Z"/></g>
<g><path style="opacity:0.039" fill="#047ff2" d="M 305.5,685.5 C 304.833,686.167 304.833,686.167 305.5,685.5 Z"/></g>
<g><path style="opacity:0.008" fill="#047ff2" d="M 594.5,685.5 C 595.833,686.167 595.833,686.167 594.5,685.5 Z"/></g>
<g><path style="opacity:0.008" fill="#047ff2" d="M 304.5,686.5 C 303.833,687.167 303.833,687.167 304.5,686.5 Z"/></g>
<g><path style="opacity:0.008" fill="#047ff2" d="M 300.5,689.5 C 301.833,690.167 301.833,690.167 300.5,689.5 Z"/></g>
<g><path style="opacity:0.012" fill="#047ff2" d="M 598.5,690.5 C 598.897,689.475 599.563,689.308 600.5,690C 599.906,690.464 599.239,690.631 598.5,690.5 Z"/></g>
<g><path style="opacity:0.016" fill="#047ff2" d="M 618.5,693.5 C 619.833,694.167 619.833,694.167 618.5,693.5 Z"/></g>
<g><path style="opacity:0.094" fill="#047ff2" d="M 629.5,695.5 C 628.833,696.167 628.833,696.167 629.5,695.5 Z"/></g>
<g><path style="opacity:0.031" fill="#047ff2" d="M 620.5,697.5 C 620.897,696.475 621.563,696.308 622.5,697C 621.906,697.464 621.239,697.631 620.5,697.5 Z"/></g>
<g><path style="opacity:0.016" fill="#047ff2" d="M 628.5,696.5 C 627.833,697.167 627.833,697.167 628.5,696.5 Z"/></g>
<g><path style="opacity:0.043" fill="#047ff2" d="M 592.5,698.5 C 592.897,697.475 593.563,697.308 594.5,698C 593.906,698.464 593.239,698.631 592.5,698.5 Z"/></g>
<g><path style="opacity:0.964" fill="#047ff2" d="M 372.5,701.5 C 386.42,695.342 395.92,699.342 401,713.5C 401.667,716.167 401.667,718.833 401,721.5C 390.331,761.505 379.665,801.505 369,841.5C 363.234,853.647 354.067,857.147 341.5,852C 334.194,847.095 331.361,840.261 333,831.5C 343.664,791.511 354.331,751.511 365,711.5C 366.317,707.163 368.817,703.83 372.5,701.5 Z"/></g>
<g><path style="opacity:0.963" fill="#047ff2" d="M 504.5,698.5 C 517.946,698.484 525.78,705.151 528,718.5C 537.844,756.211 547.844,793.878 558,831.5C 559.776,845.379 553.776,853.046 540,854.5C 530.939,854.443 524.939,850.11 522,841.5C 510.853,800.247 500.02,758.914 489.5,717.5C 490.125,707.558 495.125,701.225 504.5,698.5 Z"/></g>
<g><path style="opacity:0.016" fill="#047ff2" d="M 619.5,698.5 C 620.289,698.783 620.956,699.283 621.5,700C 620.184,700.528 619.517,700.028 619.5,698.5 Z"/></g>
<g><path style="opacity:0.047" fill="#047ff2" d="M 372.5,701.5 C 371.833,700.167 371.833,700.167 372.5,701.5 Z"/></g>
<g><path style="opacity:0.008" fill="#047ff2" d="M 594.5,701.5 C 595.833,702.167 595.833,702.167 594.5,701.5 Z"/></g>
<g><path style="opacity:0.024" fill="#047ff2" d="M 621.5,702.5 C 622.833,703.167 622.833,703.167 621.5,702.5 Z"/></g>
<g><path style="opacity:0.951" fill="#047ff2" d="M 431.5,812.5 C 429.203,809.569 427.703,806.236 427,802.5C 426.333,775.833 426.333,749.167 427,722.5C 429.244,712.763 435.411,707.429 445.5,706.5C 456.044,707.549 462.211,713.215 464,723.5C 464.667,749.833 464.667,776.167 464,802.5C 461.001,814.812 453.168,819.979 440.5,818C 436.763,817.142 433.763,815.309 431.5,812.5 Z"/></g>
<g><path style="opacity:0.016" fill="#047ff2" d="M 245.5,711.5 C 246.833,712.167 246.833,712.167 245.5,711.5 Z"/></g>
<g><path style="opacity:0.008" fill="#047ff2" d="M 646.5,711.5 C 645.833,712.167 645.833,712.167 646.5,711.5 Z"/></g>
<g><path style="opacity:0.047" fill="#047ff2" d="M 241.5,715.5 C 242.833,716.167 242.833,716.167 241.5,715.5 Z"/></g>
<g><path style="opacity:0.008" fill="#047ff2" d="M 250.5,715.5 C 251.833,716.167 251.833,716.167 250.5,715.5 Z"/></g>
<g><path style="opacity:0.024" fill="#047ff2" d="M 263.5,716.5 C 264.833,717.167 264.833,717.167 263.5,716.5 Z"/></g>
<g><path style="opacity:0.008" fill="#047ff2" d="M 262.5,718.5 C 263.833,719.167 263.833,719.167 262.5,718.5 Z"/></g>
<g><path style="opacity:0.008" fill="#047ff2" d="M 259.5,720.5 C 260.833,721.167 260.833,721.167 259.5,720.5 Z"/></g>
<g><path style="opacity:0.016" fill="#047ff2" d="M 576.5,748.5 C 575.833,749.167 575.833,749.167 576.5,748.5 Z"/></g>
<g><path style="opacity:0.016" fill="#047ff2" d="M 276.5,775.5 C 277.833,776.167 277.833,776.167 276.5,775.5 Z"/></g>
<g><path style="opacity:0.008" fill="#047ff2" d="M 431.5,812.5 C 430.833,813.167 430.833,813.167 431.5,812.5 Z"/></g>
</svg>
