<?xml version="1.0" encoding="UTF-8"?>
<!DOCTYPE svg PUBLIC "-//W3C//DTD SVG 1.1//EN" "http://www.w3.org/Graphics/SVG/1.1/DTD/svg11.dtd">
<svg xmlns="http://www.w3.org/2000/svg" version="1.1" width="512px" height="512px" style="shape-rendering:geometricPrecision; text-rendering:geometricPrecision; image-rendering:optimizeQuality; fill-rule:evenodd; clip-rule:evenodd" xmlns:xlink="http://www.w3.org/1999/xlink">
<g><path style="opacity:0.961" fill="#57b8ff" d="M 472.5,28.5 C 475.5,28.5 478.5,28.5 481.5,28.5C 480.991,51.1678 480.324,73.8345 479.5,96.5C 472.181,89.6813 465.014,82.6813 458,75.5C 401,132.5 344,189.5 287,246.5C 256.333,215.833 225.667,185.167 195,154.5C 147.667,201.833 100.333,249.167 53,296.5C 45.1667,288.667 37.3333,280.833 29.5,273C 84.6667,217.833 139.833,162.667 195,107.5C 225.667,138.167 256.333,168.833 287,199.5C 336.167,150.333 385.333,101.167 434.5,52C 427.319,44.9856 420.319,37.819 413.5,30.5C 433.329,29.8333 452.996,29.1667 472.5,28.5 Z"/></g>
<g><path style="opacity:0.998" fill="#57b8ff" d="M 403.5,183.5 C 428.833,183.5 454.167,183.5 479.5,183.5C 479.5,268.833 479.5,354.167 479.5,439.5C 454.167,439.5 428.833,439.5 403.5,439.5C 403.5,354.167 403.5,268.833 403.5,183.5 Z"/></g>
<g><path style="opacity:0.998" fill="#57b8ff" d="M 155.5,255.5 C 180.833,255.5 206.167,255.5 231.5,255.5C 231.5,316.833 231.5,378.167 231.5,439.5C 206.167,439.5 180.833,439.5 155.5,439.5C 155.5,378.167 155.5,316.833 155.5,255.5 Z"/></g>
<g><path style="opacity:0.998" fill="#57b8ff" d="M 279.5,287.5 C 304.833,287.5 330.167,287.5 355.5,287.5C 355.5,338.167 355.5,388.833 355.5,439.5C 330.167,439.5 304.833,439.5 279.5,439.5C 279.5,388.833 279.5,338.167 279.5,287.5 Z"/></g>
<g><path style="opacity:0.998" fill="#57b8ff" d="M 31.5,367.5 C 56.8333,367.5 82.1667,367.5 107.5,367.5C 107.5,391.5 107.5,415.5 107.5,439.5C 82.1667,439.5 56.8333,439.5 31.5,439.5C 31.5,415.5 31.5,391.5 31.5,367.5 Z"/></g>
</svg>
