<?xml version="1.0" standalone="no"?>
<!DOCTYPE svg PUBLIC "-//W3C//DTD SVG 20010904//EN"
 "http://www.w3.org/TR/2001/REC-SVG-20010904/DTD/svg10.dtd">
<svg version="1.0" xmlns="http://www.w3.org/2000/svg"
 width="512.000000pt" height="512.000000pt" viewBox="0 0 512.000000 512.000000"
 preserveAspectRatio="xMidYMid meet">
<metadata>
Created by potrace 1.16, written by Peter Selinger 2001-2019
</metadata>
<g transform="translate(0.000000,512.000000) scale(0.100000,-0.100000)"
fill="#000000" stroke="none">
<path d="M2610 4373 c-386 -41 -743 -285 -916 -625 l-33 -66 -43 4 c-24 3 -57
6 -74 9 -50 6 -213 -11 -289 -30 -270 -68 -506 -258 -632 -510 -75 -148 -116
-362 -97 -508 l10 -77 -84 -51 c-212 -129 -365 -338 -428 -584 -23 -91 -25
-113 -21 -250 4 -125 9 -165 31 -238 101 -336 352 -581 692 -675 l99 -27 1565
0 c1472 0 1570 1 1655 18 266 54 484 168 676 354 204 198 336 445 384 717 19
113 19 316 0 429 -68 384 -311 727 -655 922 -140 80 -337 143 -496 160 l-62 7
-6 49 c-12 87 -55 221 -106 325 -210 434 -689 698 -1170 647z m350 -249 c310
-78 562 -310 665 -615 22 -65 40 -154 50 -261 5 -42 13 -63 32 -82 28 -28 46
-32 178 -41 372 -23 717 -252 892 -591 222 -429 135 -921 -222 -1263 -194
-185 -410 -280 -690 -302 -72 -6 -696 -8 -1560 -6 -1610 3 -1483 -3 -1649 76
-148 69 -265 179 -344 321 -202 363 -55 817 325 1002 148 72 160 94 127 222
-63 238 45 539 255 712 178 148 405 203 644 157 79 -15 90 -15 120 -1 18 8 37
26 44 39 6 13 29 63 51 111 54 115 111 198 193 279 237 234 566 323 889 243z"/>
<path d="M2680 3938 c-14 -7 -33 -30 -44 -52 -16 -32 -17 -44 -7 -75 17 -58
39 -72 133 -82 108 -12 150 -24 222 -62 139 -74 234 -215 260 -387 17 -117 40
-145 117 -145 45 0 54 4 81 34 30 34 31 35 25 120 -20 293 -227 547 -517 636
-75 22 -237 30 -270 13z"/>
</g>
</svg>
