<?xml version="1.0" encoding="UTF-8"?>
<!DOCTYPE svg PUBLIC "-//W3C//DTD SVG 1.1//EN" "http://www.w3.org/Graphics/SVG/1.1/DTD/svg11.dtd">
<svg xmlns="http://www.w3.org/2000/svg" version="1.1" width="400px" height="420px" style="shape-rendering:geometricPrecision; text-rendering:geometricPrecision; image-rendering:optimizeQuality; fill-rule:evenodd; clip-rule:evenodd" xmlns:xlink="http://www.w3.org/1999/xlink">
<g><path style="opacity:0.621" fill="#047ff2" d="M 41.5,46.5 C 50.4435,45.6111 54.6101,49.6111 54,58.5C 48.6492,65.9785 42.9825,66.3119 37,59.5C 36.1786,56.4459 36.3452,53.4459 37.5,50.5C 39.188,49.4787 40.5213,48.1454 41.5,46.5 Z"/></g>
<g><path style="opacity:0.915" fill="#047ff2" d="M 293.5,46.5 C 327.307,44.1619 349.473,59.1619 360,91.5C 362.216,105.045 360.216,117.711 354,129.5C 352.005,133.158 349.338,136.158 346,138.5C 324.991,121.411 301.157,115.577 274.5,121C 268.867,108.392 259.2,99.7252 245.5,95C 241.057,94.4725 236.723,93.4725 232.5,92C 227.23,83.7309 220.896,76.3976 213.5,70C 212.552,69.5172 211.552,69.3505 210.5,69.5C 210.261,67.5328 210.594,65.6995 211.5,64C 226.791,55.6002 241.125,56.9336 254.5,68C 256.5,68.6667 258.5,68.6667 260.5,68C 269.645,57.6348 280.645,50.4681 293.5,46.5 Z"/></g>
<g><path style="opacity:0.944" fill="#047ff2" d="M 164.5,68.5 C 193.012,66.486 213.346,78.3193 225.5,104C 239.121,103.547 250.621,108.38 260,118.5C 262.975,123.618 265.808,128.785 268.5,134C 277.122,132.424 285.956,131.59 295,131.5C 329.554,133.702 351.221,151.702 360,185.5C 363.708,218.917 350.875,243.751 321.5,260C 302.463,267.874 283.796,267.208 265.5,258C 262.5,257.333 259.5,257.333 256.5,258C 245.541,270.626 231.874,278.626 215.5,282C 202.947,283.339 190.613,282.339 178.5,279C 171.098,275.563 163.931,271.73 157,267.5C 151.115,270.526 145.282,273.693 139.5,277C 99.8195,290.257 68.6528,279.423 46,244.5C 28.8438,207.17 35.0105,174.67 64.5,147C 69.3169,144.787 72.9836,141.453 75.5,137C 71.3205,131.133 68.4872,124.633 67,117.5C 65.6139,99.4465 73.4473,87.2799 90.5,81C 103.005,77.9302 113.672,80.9302 122.5,90C 124.5,90.6667 126.5,90.6667 128.5,90C 138.463,79.159 150.463,71.9924 164.5,68.5 Z M 168.5,122.5 C 188.402,121.692 200.235,131.025 204,150.5C 204.906,166.873 204.573,183.206 203,199.5C 194.924,217.759 181.09,224.592 161.5,220C 150.875,215.049 144.375,206.883 142,195.5C 141.333,179.5 141.333,163.5 142,147.5C 145.564,133.433 154.397,125.099 168.5,122.5 Z M 225.5,165.5 C 233.893,165.17 242.227,165.67 250.5,167C 260.089,172.42 263.922,180.587 262,191.5C 260.869,194.922 259.369,198.088 257.5,201C 266.515,215.589 263.515,226.922 248.5,235C 240.5,235.667 232.5,235.667 224.5,235C 220.356,231.021 220.69,227.355 225.5,224C 232.5,223.667 239.5,223.333 246.5,223C 252.102,217.236 251.769,211.903 245.5,207C 238.5,206.667 231.5,206.333 224.5,206C 221.487,203.15 221.154,199.817 223.5,196C 230.5,195.667 237.5,195.333 244.5,195C 250.334,192.145 252,187.645 249.5,181.5C 248.183,179.841 246.517,178.674 244.5,178C 238.833,177.667 233.167,177.333 227.5,177C 226.062,176.781 224.729,176.281 223.5,175.5C 221.686,171.458 222.353,168.124 225.5,165.5 Z"/></g>
<g><path style="opacity:0.89" fill="#047ff2" d="M 166.5,134.5 C 176.286,132.464 184.12,135.464 190,143.5C 190.822,145.788 191.489,148.122 192,150.5C 192.921,166.546 192.588,182.546 191,198.5C 179.559,214.078 167.559,214.412 155,199.5C 154.667,198.167 154.333,196.833 154,195.5C 153.333,179.833 153.333,164.167 154,148.5C 156.302,142.039 160.468,137.372 166.5,134.5 Z"/></g>
<g><path style="opacity:0.916" fill="#047ff2" d="M 155.5,280.5 C 176.667,293.662 199.667,297.496 224.5,292C 230.002,289.389 235.669,287.389 241.5,286C 240.059,295.566 236.059,304.233 229.5,312C 218.315,314.847 209.649,321.18 203.5,331C 188.861,337.121 174.194,337.454 159.5,332C 156.833,331.333 154.167,331.333 151.5,332C 142.591,359.923 123.591,372.59 94.5,370C 69.0172,361.19 57.1839,343.357 59,316.5C 61.0864,303.98 67.4198,294.313 78,287.5C 90.4714,293.126 103.638,295.293 117.5,294C 131.716,293.411 144.383,288.911 155.5,280.5 Z"/></g>
<g><path style="opacity:0.744" fill="#047ff2" d="M 308.5,316.5 C 319.103,316.029 324.27,321.029 324,331.5C 318.117,343.11 310.45,344.444 301,335.5C 297.388,326.467 299.888,320.133 308.5,316.5 Z"/></g>
<g><path style="opacity:0.861" fill="#047ff2" d="M 227.5,324.5 C 237.655,322.38 246.155,325.047 253,332.5C 262.24,348.35 258.74,360.684 242.5,369.5C 227.678,372.176 217.511,366.509 212,352.5C 210.601,339.427 215.768,330.094 227.5,324.5 Z"/></g>
</svg>
