<?xml version="1.0" standalone="no"?>
<!DOCTYPE svg PUBLIC "-//W3C//DTD SVG 20010904//EN"
 "http://www.w3.org/TR/2001/REC-SVG-20010904/DTD/svg10.dtd">
<svg version="1.0" xmlns="http://www.w3.org/2000/svg"
 width="512.000000pt" height="512.000000pt" viewBox="0 0 512.000000 512.000000"
 preserveAspectRatio="xMidYMid meet">
<metadata>
Created by potrace 1.16, written by Peter Selinger 2001-2019
</metadata>
<g transform="translate(0.000000,512.000000) scale(0.100000,-0.100000)"
fill="#000000" stroke="none">
<path d="M2098 5101 c-214 -69 -348 -254 -348 -481 0 -287 213 -500 500 -500
287 0 500 213 500 500 0 227 -136 415 -349 480 -83 26 -223 26 -303 1z m256
-207 c55 -19 132 -90 161 -149 15 -30 20 -61 20 -125 0 -99 -17 -142 -80 -205
-63 -63 -106 -80 -205 -80 -99 0 -142 17 -205 80 -55 54 -78 107 -83 187 -9
139 59 242 193 295 44 17 144 15 199 -3z"/>
<path d="M3795 4343 c-301 -47 -577 -216 -760 -463 -39 -53 -131 -222 -147
-272 -3 -9 -31 0 -94 29 -97 45 -232 87 -334 103 -97 15 -324 12 -426 -5 -393
-69 -743 -337 -918 -705 l-36 -75 -108 3 c-86 3 -120 -1 -173 -17 -209 -65
-349 -254 -349 -470 l0 -76 -58 -32 c-124 -69 -240 -192 -307 -328 -63 -126
-85 -221 -85 -365 0 -145 22 -238 86 -370 41 -82 61 -108 148 -195 86 -86 115
-108 196 -148 130 -65 224 -87 369 -87 66 0 142 7 176 15 33 8 63 14 66 15 3
0 30 -37 59 -82 103 -159 263 -293 439 -368 133 -57 199 -71 361 -77 136 -5
231 5 326 32 17 5 25 -4 55 -62 49 -98 179 -227 279 -275 105 -51 180 -68 300
-68 193 0 325 55 460 190 142 141 193 273 189 482 l-2 118 40 29 c64 46 132
161 133 224 1 17 18 32 73 64 164 94 301 242 388 418 69 142 90 229 96 405 l5
145 84 27 c378 121 657 419 765 818 21 75 24 108 24 280 0 183 -2 201 -28 295
-112 403 -418 711 -817 821 -82 23 -118 26 -270 29 -96 2 -188 1 -205 -2z
m384 -224 c362 -83 642 -373 716 -738 24 -114 16 -324 -14 -431 -73 -253 -261
-479 -496 -595 -114 -56 -212 -83 -349 -95 -138 -12 -165 -30 -166 -111 0 -68
33 -99 106 -99 l54 0 0 -92 c-1 -294 -163 -554 -430 -693 -107 -55 -122 -71
-127 -137 -2 -29 -6 -63 -9 -75 -6 -33 -61 -81 -106 -93 -83 -23 -104 -77 -72
-187 12 -40 15 -83 12 -147 -3 -76 -9 -102 -36 -159 -42 -90 -128 -177 -219
-220 -64 -30 -74 -32 -183 -32 -109 0 -119 2 -183 32 -121 58 -217 172 -248
298 -17 69 -35 93 -80 107 -35 10 -47 8 -106 -15 -38 -15 -99 -34 -137 -42
-69 -16 -226 -21 -293 -9 -276 47 -508 235 -611 494 -28 70 -52 174 -52 225
-1 118 -32 165 -110 165 -38 0 -53 -5 -74 -26 -24 -25 -26 -33 -26 -113 1 -47
7 -117 14 -156 8 -38 13 -72 11 -73 -11 -11 -92 -22 -171 -22 -166 -1 -313 65
-432 195 -103 112 -152 240 -152 395 0 102 18 181 63 270 36 74 145 194 205
227 l39 23 42 -50 c53 -63 101 -80 153 -56 66 31 78 109 27 172 -109 135 -107
298 5 410 113 112 266 114 416 5 52 -38 105 -42 139 -10 50 47 51 116 2 164
l-30 28 20 50 c64 162 219 349 378 456 89 61 231 126 328 151 257 66 563 26
778 -102 l50 -30 -3 -111 c-4 -111 -4 -113 23 -140 22 -22 37 -27 74 -27 81 1
99 28 111 166 12 137 39 235 95 349 192 390 633 601 1054 504z"/>
<path d="M913 4311 c-105 -39 -180 -107 -231 -211 -25 -50 -27 -65 -27 -170 0
-107 2 -119 29 -175 38 -77 114 -153 191 -191 56 -27 68 -29 175 -29 107 0
119 2 175 29 77 38 153 114 191 191 27 56 29 68 29 175 0 107 -2 119 -29 175
-38 77 -114 153 -191 190 -52 26 -73 30 -160 33 -79 2 -111 -2 -152 -17z m225
-210 c67 -34 102 -93 102 -171 0 -111 -79 -190 -190 -190 -111 0 -190 79 -190
190 0 111 77 189 188 190 33 0 67 -7 90 -19z"/>
</g>
</svg>
