<?xml version="1.0" standalone="no"?>
<!DOCTYPE svg PUBLIC "-//W3C//DTD SVG 20010904//EN"
 "http://www.w3.org/TR/2001/REC-SVG-20010904/DTD/svg10.dtd">
<svg version="1.0" xmlns="http://www.w3.org/2000/svg"
 width="512.000000pt" height="512.000000pt" viewBox="0 0 512.000000 512.000000"
 preserveAspectRatio="xMidYMid meet">
<metadata>
Created by potrace 1.16, written by Peter Selinger 2001-2019
</metadata>
<g transform="translate(0.000000,512.000000) scale(0.100000,-0.100000)"
fill="#000000" stroke="none">
<path d="M3806 4979 c-79 -13 -156 -46 -221 -94 -292 -219 -278 -657 29 -857
159 -103 393 -106 551 -7 291 182 335 583 90 819 -122 116 -284 167 -449 139z
m162 -149 c118 -28 204 -96 259 -207 34 -68 37 -82 37 -158 0 -76 -3 -90 -37
-158 -44 -89 -94 -137 -186 -180 -56 -27 -77 -31 -146 -31 -69 0 -90 4 -146
31 -118 55 -186 136 -216 258 -46 188 75 387 267 439 65 17 110 19 168 6z"/>
<path d="M915 4370 c-25 -28 -23 -76 4 -103 21 -22 26 -22 384 -25 390 -3 426
0 445 43 17 36 15 48 -9 79 l-20 26 -393 0 c-381 0 -393 -1 -411 -20z"/>
<path d="M2021 4037 c-43 -14 -122 -86 -463 -425 -153 -152 -285 -292 -295
-311 -25 -50 -25 -193 0 -238 45 -84 126 -134 225 -141 115 -8 126 -1 418 290
l260 259 261 -23 262 -22 -18 -25 c-264 -373 -411 -588 -436 -638 -55 -107
-63 -188 -42 -415 2 -21 -38 -75 -196 -271 l-199 -246 -436 -3 -437 -3 -50
-25 c-230 -114 -234 -436 -7 -547 l57 -28 599 -3 c524 -2 601 -1 622 13 13 8
130 148 260 310 208 258 240 293 253 282 110 -92 370 -331 375 -343 3 -8 6
-255 6 -548 0 -589 1 -596 63 -678 149 -195 460 -151 547 77 l22 60 -5 708
c-6 691 -6 709 -27 751 -14 31 -92 111 -269 276 l-249 234 150 225 c83 124
154 230 159 235 5 6 87 -68 206 -186 163 -160 207 -198 248 -214 46 -18 81
-19 445 -19 363 0 399 2 444 19 140 54 215 211 172 361 -14 46 -29 70 -75 116
-86 85 -103 89 -445 89 l-281 0 -183 183 -183 183 12 48 c28 113 -9 250 -90
334 -37 38 -363 241 -458 285 -48 22 -54 22 -618 24 -393 1 -581 -2 -604 -10z
m1178 -166 c102 -54 358 -215 388 -244 45 -42 67 -104 61 -168 -5 -47 -30 -87
-352 -567 -259 -386 -346 -524 -346 -546 0 -34 -1 -32 331 -343 l226 -211 7
-681 c7 -661 7 -681 -12 -724 -38 -85 -125 -124 -207 -92 -52 19 -90 61 -105
113 -6 23 -10 236 -10 572 0 501 -2 538 -19 576 -14 31 -84 99 -287 280 -457
407 -465 414 -500 480 -60 115 -69 231 -25 344 13 34 122 196 281 420 143 201
263 375 266 388 9 32 -3 70 -27 82 -28 15 -683 72 -734 64 -36 -5 -67 -33
-310 -274 -293 -291 -302 -297 -370 -264 -58 27 -83 106 -52 160 15 26 634
636 662 652 15 9 162 11 555 9 l535 -2 44 -24z m685 -828 c99 -97 195 -182
213 -190 25 -10 101 -13 318 -13 313 0 319 -1 369 -60 53 -64 26 -169 -54
-211 -32 -18 -64 -19 -398 -19 -296 0 -368 3 -390 14 -15 8 -114 102 -220 209
l-194 194 84 126 c45 70 85 127 87 127 2 0 85 -79 185 -177z m-1538 -931 c38
-37 95 -91 127 -119 l59 -51 -229 -284 -229 -283 -547 -3 c-608 -2 -592 -4
-643 64 -58 75 -29 186 59 228 31 14 88 16 476 16 l442 0 22 23 c12 12 105
124 207 249 102 125 185 228 186 228 0 0 32 -31 70 -68z"/>
<path d="M151 3934 c-12 -15 -21 -33 -21 -40 0 -29 25 -64 53 -74 19 -6 162
-10 382 -10 220 0 363 4 382 10 28 10 53 45 53 74 0 7 -9 25 -21 40 l-20 26
-394 0 -394 0 -20 -26z"/>
<path d="M685 2736 c-30 -31 -32 -65 -4 -100 l20 -26 390 0 390 0 26 26 c20
20 24 31 19 57 -13 64 2 62 -426 65 l-390 3 -25 -25z"/>
<path d="M479 2271 c-17 -13 -23 -29 -23 -56 0 -27 6 -43 23 -56 22 -18 47
-19 408 -19 l384 0 24 25 c14 13 25 36 25 50 0 14 -11 37 -25 50 l-24 25 -384
0 c-361 0 -386 -1 -408 -19z"/>
</g>
</svg>
