<?xml version="1.0" encoding="UTF-8"?>
<!DOCTYPE svg PUBLIC "-//W3C//DTD SVG 1.1//EN" "http://www.w3.org/Graphics/SVG/1.1/DTD/svg11.dtd">
<svg xmlns="http://www.w3.org/2000/svg" version="1.1" width="400px" height="455px" style="shape-rendering:geometricPrecision; text-rendering:geometricPrecision; image-rendering:optimizeQuality; fill-rule:evenodd; clip-rule:evenodd" xmlns:xlink="http://www.w3.org/1999/xlink">
<g><path style="opacity:0.755" fill="#047ff2" d="M 61.5,39.5 C 75.1667,39.5 88.8333,39.5 102.5,39.5C 100.387,56.7514 90.7199,63.2514 73.5,59C 66.3252,54.351 62.3252,47.851 61.5,39.5 Z"/></g>
<g><path style="opacity:0.511" fill="#047ff2" d="M 128.5,48.5 C 131.167,48.5 133.833,48.5 136.5,48.5C 136.205,56.3386 134.038,63.6719 130,70.5C 113.818,92.9835 92.4844,100.65 66,93.5C 65.5,93.1667 65,92.8333 64.5,92.5C 64.1705,85.9755 66.8372,84.1422 72.5,87C 94.4596,90.2643 111.46,82.5976 123.5,64C 126.389,59.259 128.056,54.0923 128.5,48.5 Z"/></g>
<g><path style="opacity:0.522" fill="#047ff2" d="M 162.5,54.5 C 164.861,54.6741 167.194,55.0074 169.5,55.5C 166.545,76.5665 156.878,94.0665 140.5,108C 115.375,128.987 87.0419,134.82 55.5,125.5C 55.2317,122.881 55.565,120.381 56.5,118C 64.8881,119.01 73.3881,120.176 82,121.5C 124.241,118.123 151.074,95.7893 162.5,54.5 Z"/></g>
<g><path style="opacity:0.522" fill="#047ff2" d="M 193.5,61.5 C 196.5,61.5 199.5,61.5 202.5,61.5C 200.016,78.0996 194.183,93.4329 185,107.5C 155.532,148.486 115.699,166.653 65.5,162C 59.0352,160.556 52.3686,159.056 45.5,157.5C 45.4207,154.729 45.9207,152.063 47,149.5C 47.7247,148.941 48.5581,148.608 49.5,148.5C 94.5498,160.157 133.383,149.823 166,117.5C 180.44,101.304 189.606,82.637 193.5,61.5 Z"/></g>
<g><path style="opacity:0.841" fill="#047ff2" d="M 225.5,67.5 C 227.857,67.3367 230.19,67.5034 232.5,68C 233.658,69.0086 234.325,70.3419 234.5,72C 232.865,77.8037 231.698,83.6371 231,89.5C 248.508,95.6187 255.841,107.952 253,126.5C 246.224,143.641 233.724,150.474 215.5,147C 194.742,135.569 190.408,119.735 202.5,99.5C 207.506,93.4605 213.84,90.1272 221.5,89.5C 223.041,82.256 224.375,74.9227 225.5,67.5 Z"/></g>
<g><path style="opacity:0.525" fill="#047ff2" d="M 191.5,136.5 C 193.833,136.5 196.167,136.5 198.5,136.5C 199.42,138.881 199.42,141.214 198.5,143.5C 160.053,184.794 112.719,201.627 56.5,194C 50.1571,192.173 43.8238,190.673 37.5,189.5C 37.5,186.5 37.5,183.5 37.5,180.5C 44.0007,182.186 50.334,183.686 56.5,185C 106.431,192.17 149.764,178.337 186.5,143.5C 188.605,141.408 190.272,139.075 191.5,136.5 Z"/></g>
<g><path style="opacity:0.868" fill="#047ff2" d="M 243.5,146.5 C 253.172,146.334 262.839,146.5 272.5,147C 284.303,151.095 296.303,154.761 308.5,158C 316.197,160.521 322.53,165.021 327.5,171.5C 333.836,182.476 340.503,193.142 347.5,203.5C 348.833,211.167 348.833,218.833 347.5,226.5C 345.937,227.945 344.604,229.611 343.5,231.5C 341.833,232.833 340.167,232.833 338.5,231.5C 326.472,218.474 314.472,205.474 302.5,192.5C 293.028,189.288 283.361,186.788 273.5,185C 273,184.5 272.5,184 272,183.5C 275.482,205.891 279.815,228.224 285,250.5C 286.204,260.69 283.537,269.69 277,277.5C 271.294,284.554 264.46,290.054 256.5,294C 245.309,303.517 233.809,312.684 222,321.5C 219.248,338.162 215.582,354.495 211,370.5C 207.132,377.035 201.965,382.201 195.5,386C 191.514,386.499 187.514,386.666 183.5,386.5C 184.668,367.815 186.168,349.148 188,330.5C 188.862,322.406 190.196,314.406 192,306.5C 194.926,302.318 198.093,298.318 201.5,294.5C 217.526,280.138 233.526,265.805 249.5,251.5C 246.889,246.104 244.723,240.438 243,234.5C 236.041,210.026 228.875,185.692 221.5,161.5C 221.833,159.833 222.167,158.167 222.5,156.5C 229.453,152.855 236.453,149.522 243.5,146.5 Z"/></g>
<g><path style="opacity:0.802" fill="#047ff2" d="M 224.5,206.5 C 226.5,206.5 228.5,206.5 230.5,206.5C 233.288,217.225 236.288,227.892 239.5,238.5C 227.895,239.961 216.228,241.128 204.5,242C 193.234,244.614 183.401,242.114 175,234.5C 171.165,229.484 169.665,223.818 170.5,217.5C 188.679,214.12 206.679,210.454 224.5,206.5 Z"/></g>
<g><path style="opacity:0.828" fill="#047ff2" d="M 289.5,270.5 C 291.288,270.215 292.955,270.548 294.5,271.5C 307.094,292.125 319.594,312.791 332,333.5C 338.421,345.714 342.588,358.547 344.5,372C 344.129,374.856 343.629,377.689 343,380.5C 341.122,382.043 339.622,383.876 338.5,386C 335.183,386.498 331.85,386.665 328.5,386.5C 310.024,355.691 290.524,325.358 270,295.5C 269.333,294.167 269.333,292.833 270,291.5C 273.667,288.5 277.333,285.5 281,282.5C 284.098,278.617 286.932,274.617 289.5,270.5 Z"/></g>
</svg>
