<?xml version="1.0" standalone="no"?>
<!DOCTYPE svg PUBLIC "-//W3C//DTD SVG 20010904//EN"
 "http://www.w3.org/TR/2001/REC-SVG-20010904/DTD/svg10.dtd">
<svg version="1.0" xmlns="http://www.w3.org/2000/svg"
 width="430.000000pt" height="456.000000pt" viewBox="0 0 430.000000 456.000000"
 preserveAspectRatio="xMidYMid meet">
<metadata>
Created by potrace 1.16, written by Peter Selinger 2001-2019
</metadata>
<g transform="translate(0.000000,456.000000) scale(0.100000,-0.100000)"
fill="#000000" stroke="none">
<path d="M1525 4146 c-66 -28 -105 -106 -90 -176 10 -45 57 -94 104 -110 115
-38 230 82 186 195 -18 50 -37 68 -88 90 -44 18 -72 19 -112 1z"/>
<path d="M2650 4138 c-56 -28 -96 -99 -86 -151 16 -82 98 -146 173 -134 79 13
140 94 130 171 -7 49 -33 85 -83 113 -49 29 -79 29 -134 1z"/>
<path d="M942 3660 c-53 -32 -74 -75 -69 -142 2 -44 9 -64 28 -84 77 -82 200
-70 250 26 53 99 -22 220 -136 220 -22 0 -54 -9 -73 -20z"/>
<path d="M2080 3661 c-138 -73 -87 -281 70 -281 86 0 150 65 150 151 0 112
-120 184 -220 130z"/>
<path d="M3208 3659 c-69 -36 -97 -129 -59 -199 52 -99 180 -109 255 -20 21
25 26 42 26 83 0 124 -114 193 -222 136z"/>
<path d="M153 2991 c-17 -11 -37 -29 -42 -40 -7 -13 -11 -190 -11 -536 0 -575
-1 -563 67 -591 45 -19 83 -11 119 27 l29 30 3 214 3 213 167 4 c158 3 170 5
217 30 69 36 133 101 164 168 22 47 26 69 26 150 0 85 -3 101 -29 153 -36 71
-99 130 -174 165 -56 26 -62 27 -282 30 -210 3 -227 2 -257 -17z m457 -216
c89 -46 96 -175 13 -231 -23 -16 -51 -19 -165 -22 l-138 -4 0 136 0 136 130 0
c96 0 139 -4 160 -15z"/>
<path d="M1142 2990 c-18 -11 -37 -32 -42 -46 -6 -15 -10 -232 -10 -546 l0
-520 34 -34 c27 -27 42 -34 73 -34 42 0 76 19 95 53 10 16 14 114 18 355 l5
332 83 -115 c89 -123 111 -141 172 -131 39 6 53 20 155 161 l65 89 0 -322 c0
-346 3 -372 51 -406 38 -26 93 -21 131 13 l33 29 3 526 c3 578 4 569 -58 601
-52 27 -99 14 -141 -40 -21 -25 -230 -318 -245 -342 -7 -10 -14 -16 -17 -13
-2 3 -66 90 -141 195 -74 104 -146 195 -158 202 -33 18 -68 16 -106 -7z"/>
<path d="M2512 2995 c-78 -22 -111 -42 -173 -106 -75 -76 -102 -143 -103 -257
-1 -82 0 -84 32 -113 23 -21 42 -29 70 -29 70 0 112 52 112 138 0 90 63 153
159 160 69 5 133 -20 165 -65 29 -40 33 -124 9 -166 -11 -18 -122 -158 -247
-310 -125 -153 -232 -288 -238 -301 -15 -34 -2 -89 28 -117 l26 -24 300 -3
300 -3 34 36 c40 43 44 83 14 132 -26 44 -67 53 -232 53 l-138 0 166 203 c202
246 219 277 219 407 0 82 -4 103 -27 152 -37 79 -107 152 -184 189 -53 26 -78
32 -151 35 -58 3 -106 -1 -141 -11z"/>
<path d="M3534 3000 c-12 -4 -31 -21 -43 -36 -20 -26 -21 -36 -21 -281 0 -273
4 -296 52 -321 15 -8 80 -13 183 -15 147 -2 163 -4 197 -25 59 -37 81 -82 76
-153 -4 -48 -10 -65 -34 -90 -52 -55 -69 -59 -234 -59 -168 0 -198 -8 -225
-60 -30 -59 -13 -115 45 -145 34 -18 275 -21 359 -5 121 23 226 105 280 220
22 47 26 68 26 150 0 83 -4 103 -28 155 -30 64 -89 132 -148 170 -58 37 -134
55 -236 55 l-93 0 0 115 0 115 163 0 c141 0 166 3 193 19 67 41 70 135 5 178
-33 22 -40 23 -265 22 -127 0 -241 -4 -252 -9z"/>
<path d="M3186 1979 c-55 -43 -54 -116 1 -159 81 -63 198 32 152 123 -30 58
-103 75 -153 36z"/>
<path d="M942 1300 c-69 -42 -94 -139 -52 -207 98 -161 350 -19 261 147 -40
76 -137 104 -209 60z"/>
<path d="M2069 1297 c-154 -102 -20 -340 147 -261 141 67 90 284 -66 284 -32
0 -58 -7 -81 -23z"/>
<path d="M3196 1294 c-95 -65 -84 -204 22 -255 103 -50 212 18 212 131 0 122
-133 192 -234 124z"/>
<path d="M1555 840 c-99 -23 -146 -114 -107 -203 48 -108 198 -119 263 -21 24
37 25 116 2 156 -31 52 -100 82 -158 68z"/>
<path d="M2665 834 c-22 -7 -41 -14 -42 -14 -1 0 -14 -17 -28 -37 -49 -73 -26
-181 46 -218 42 -22 112 -21 152 2 46 26 80 98 71 152 -15 93 -108 147 -199
115z"/>
</g>
</svg>
