<?xml version="1.0" encoding="UTF-8"?>
<!DOCTYPE svg PUBLIC "-//W3C//DTD SVG 1.1//EN" "http://www.w3.org/Graphics/SVG/1.1/DTD/svg11.dtd">
<svg xmlns="http://www.w3.org/2000/svg" version="1.1" width="512px" height="512px" style="shape-rendering:geometricPrecision; text-rendering:geometricPrecision; image-rendering:optimizeQuality; fill-rule:evenodd; clip-rule:evenodd" xmlns:xlink="http://www.w3.org/1999/xlink">
<g><path style="opacity:1" fill="#5ad2aa" d="M 412.5,181.5 C 412.02,186.017 414.02,188.35 418.5,188.5C 441.135,199.964 459.969,215.964 475,236.5C 490.409,261.952 493.742,288.952 485,317.5C 470.891,348.609 448.391,371.442 417.5,386C 403.954,386.623 396.954,380.123 396.5,366.5C 396.297,362.589 397.13,358.922 399,355.5C 407.5,349 416,342.5 424.5,336C 439.743,323.18 448.077,306.847 449.5,287C 449.417,281.089 448.75,275.255 447.5,269.5C 447.035,264.57 445.035,260.57 441.5,257.5C 435.799,247.96 428.465,239.794 419.5,233C 408.758,225.21 397.591,218.043 386,211.5C 384.414,209.33 383.08,206.996 382,204.5C 371.87,157.043 344.37,124.21 299.5,106C 279.28,99.8244 258.613,97.8244 237.5,100C 229.775,101.312 222.108,102.812 214.5,104.5C 211.607,104.031 209.607,105.031 208.5,107.5C 206.5,108.167 204.5,108.833 202.5,109.5C 200.213,109.724 198.047,110.391 196,111.5C 195.127,111.265 194.293,110.931 193.5,110.5C 193.935,112.403 193.268,114.069 191.5,115.5C 185.658,119.254 179.991,123.254 174.5,127.5C 172.856,127.714 171.356,127.38 170,126.5C 169.383,127.449 169.549,128.282 170.5,129C 169.551,129.617 168.718,129.451 168,128.5C 167.517,129.448 167.351,130.448 167.5,131.5C 166.5,131.5 165.5,131.5 164.5,131.5C 164.5,133.167 164.5,134.833 164.5,136.5C 151.605,148.613 141.938,162.946 135.5,179.5C 133.386,180.784 132.386,182.784 132.5,185.5C 132.041,188.877 131.374,192.211 130.5,195.5C 128.87,197.026 128.037,199.026 128,201.5C 127.577,200.044 126.744,199.544 125.5,200C 126.991,202.022 126.658,203.688 124.5,205C 125.772,207.044 125.439,208.878 123.5,210.5C 122.742,209.189 121.742,208.689 120.5,209C 121.582,210.33 122.249,211.83 122.5,213.5C 107.085,221.634 92.9181,231.634 80,243.5C 52.157,277.259 54.657,308.759 87.5,338C 92.1667,341.333 96.8333,344.667 101.5,348C 106.252,352.249 108.252,357.583 107.5,364C 106.871,377.293 99.8715,383.626 86.5,383C 67.6823,373.496 51.849,360.329 39,343.5C 35.6365,338.77 32.8032,333.77 30.5,328.5C 28.5793,323.239 26.746,317.906 25,312.5C 24.6174,311.944 24.1174,311.611 23.5,311.5C 15.1685,269.984 27.5019,236.15 60.5,210C 71.7907,201.381 83.624,193.548 96,186.5C 108.448,143.433 133.615,109.933 171.5,86C 204.733,67.0698 240.399,60.0698 278.5,65C 334.486,74.2331 375.986,103.733 403,153.5C 407.27,162.477 410.437,171.81 412.5,181.5 Z"/></g>
<g><path style="opacity:0.18" fill="#b5ebd8" d="M -0.5,72.5 C 0.833333,73.5 0.833333,74.5 -0.5,75.5C -0.5,74.5 -0.5,73.5 -0.5,72.5 Z"/></g>
<g><path style="opacity:0.18" fill="#b5ebd8" d="M 511.5,72.5 C 511.5,73.5 511.5,74.5 511.5,75.5C 510.167,74.5 510.167,73.5 511.5,72.5 Z"/></g>
<g><path style="opacity:0.651" fill="#8de0c3" d="M 214.5,104.5 C 212.574,105.486 210.574,106.486 208.5,107.5C 209.607,105.031 211.607,104.031 214.5,104.5 Z"/></g>
<g><path style="opacity:1" fill="#82ddbd" d="M 202.5,109.5 C 199.028,111.738 195.362,113.738 191.5,115.5C 193.268,114.069 193.935,112.403 193.5,110.5C 194.293,110.931 195.127,111.265 196,111.5C 198.047,110.391 200.213,109.724 202.5,109.5 Z"/></g>
<g><path style="opacity:1" fill="#75d9b6" d="M 174.5,127.5 C 171.192,130.471 167.859,133.471 164.5,136.5C 164.5,134.833 164.5,133.167 164.5,131.5C 165.5,131.5 166.5,131.5 167.5,131.5C 167.351,130.448 167.517,129.448 168,128.5C 168.718,129.451 169.551,129.617 170.5,129C 169.549,128.282 169.383,127.449 170,126.5C 171.356,127.38 172.856,127.714 174.5,127.5 Z"/></g>
<g><path style="opacity:0.663" fill="#93e1c5" d="M 135.5,179.5 C 134.87,181.75 133.87,183.75 132.5,185.5C 132.386,182.784 133.386,180.784 135.5,179.5 Z"/></g>
<g><path style="opacity:0.584" fill="#8de0c3" d="M 412.5,181.5 C 413.408,184.743 415.408,187.077 418.5,188.5C 414.02,188.35 412.02,186.017 412.5,181.5 Z"/></g>
<g><path style="opacity:1" fill="#76d9b6" d="M 130.5,195.5 C 130.222,202.692 127.555,208.692 122.5,213.5C 122.249,211.83 121.582,210.33 120.5,209C 121.742,208.689 122.742,209.189 123.5,210.5C 125.439,208.878 125.772,207.044 124.5,205C 126.658,203.688 126.991,202.022 125.5,200C 126.744,199.544 127.577,200.044 128,201.5C 128.037,199.026 128.87,197.026 130.5,195.5 Z"/></g>
<g><path style="opacity:0.584" fill="#87dec0" d="M 441.5,257.5 C 445.035,260.57 447.035,264.57 447.5,269.5C 445.533,265.565 443.533,261.565 441.5,257.5 Z"/></g>
<g><path style="opacity:0.645" fill="#89dfc1" d="M 23.5,311.5 C 24.1174,311.611 24.6174,311.944 25,312.5C 26.746,317.906 28.5793,323.239 30.5,328.5C 27.2099,323.313 24.8765,317.647 23.5,311.5 Z"/></g>
<g><path style="opacity:0.96" fill="#5bd2aa" d="M 129.5,346.5 C 145.216,346.08 160.883,346.58 176.5,348C 188.63,354.094 193.463,363.928 191,377.5C 189.459,388.374 183.293,394.541 172.5,396C 162.506,396.5 152.506,396.666 142.5,396.5C 141.506,406.319 141.173,416.319 141.5,426.5C 137.5,426.5 133.5,426.5 129.5,426.5C 129.5,399.833 129.5,373.167 129.5,346.5 Z M 177.5,375.5 C 175.922,380.08 172.922,383.413 168.5,385.5C 159.833,385.5 151.167,385.5 142.5,385.5C 142.5,376.167 142.5,366.833 142.5,357.5C 150.84,357.334 159.173,357.5 167.5,358C 175.563,360.95 178.897,366.783 177.5,375.5 Z"/></g>
<g><path style="opacity:0.416" fill="#a1e6ce" d="M 204.5,346.5 C 204.5,373.167 204.5,399.833 204.5,426.5C 208.5,426.5 212.5,426.5 216.5,426.5C 216.17,407.992 216.503,389.659 217.5,371.5C 217.5,390.167 217.5,408.833 217.5,427.5C 212.833,427.5 208.167,427.5 203.5,427.5C 203.169,400.328 203.502,373.328 204.5,346.5 Z"/></g>
<g><path style="opacity:0.416" fill="#a1e6ce" d="M 276.5,346.5 C 277.498,373.328 277.831,400.328 277.5,427.5C 272.833,427.5 268.167,427.5 263.5,427.5C 263.5,408.833 263.5,390.167 263.5,371.5C 264.497,389.659 264.83,407.992 264.5,426.5C 268.5,426.5 272.5,426.5 276.5,426.5C 276.5,399.833 276.5,373.167 276.5,346.5 Z"/></g>
<g><path style="opacity:0.404" fill="#9fe5cd" d="M 129.5,346.5 C 129.5,373.167 129.5,399.833 129.5,426.5C 133.5,426.5 137.5,426.5 141.5,426.5C 141.173,416.319 141.506,406.319 142.5,396.5C 142.5,406.833 142.5,417.167 142.5,427.5C 137.833,427.5 133.167,427.5 128.5,427.5C 128.169,400.328 128.502,373.328 129.5,346.5 Z"/></g>
<g><path style="opacity:0.391" fill="#9de4cc" d="M 317.5,359.5 C 318.497,381.66 318.831,403.994 318.5,426.5C 314.958,426.813 311.625,426.479 308.5,425.5C 311.5,425.5 314.5,425.5 317.5,425.5C 317.5,403.5 317.5,381.5 317.5,359.5 Z"/></g>
<g><path style="opacity:1" fill="#59d2a9" d="M 317.5,359.5 C 317.5,381.5 317.5,403.5 317.5,425.5C 314.5,425.5 311.5,425.5 308.5,425.5C 308.833,408.487 308.499,391.487 307.5,374.5C 303.216,377.312 298.549,378.979 293.5,379.5C 293.5,376.167 293.5,372.833 293.5,369.5C 300.194,367.653 306.194,364.486 311.5,360C 313.473,359.505 315.473,359.338 317.5,359.5 Z"/></g>
<g><path style="opacity:1" fill="#5fd3ac" d="M 353.5,359.5 C 370.699,356.866 380.199,364.199 382,381.5C 383.055,391.96 382.388,402.293 380,412.5C 373.198,427.253 362.365,431.086 347.5,424C 342.668,419.168 339.835,413.335 339,406.5C 338.105,396.439 338.438,386.439 340,376.5C 342.161,368.777 346.661,363.111 353.5,359.5 Z M 357.5,367.5 C 361.192,366.971 364.358,367.971 367,370.5C 372.976,384.258 373.643,398.258 369,412.5C 363.825,421.255 358.158,421.588 352,413.5C 347.372,400.173 347.372,386.839 352,373.5C 353.36,370.977 355.193,368.977 357.5,367.5 Z"/></g>
<g><path style="opacity:0.651" fill="#80dcbc" d="M 177.5,375.5 C 177.22,381.441 174.22,384.774 168.5,385.5C 172.922,383.413 175.922,380.08 177.5,375.5 Z"/></g>
<g><path style="opacity:1" fill="#5bd2aa" d="M 204.5,346.5 C 209.875,346.172 215.208,346.505 220.5,347.5C 227.166,366.832 233.833,386.165 240.5,405.5C 247.365,386.24 254.031,366.907 260.5,347.5C 265.792,346.505 271.125,346.172 276.5,346.5C 276.5,373.167 276.5,399.833 276.5,426.5C 272.5,426.5 268.5,426.5 264.5,426.5C 264.83,407.992 264.497,389.659 263.5,371.5C 257.363,389.684 251.363,408.017 245.5,426.5C 237.481,429.472 233.481,426.805 233.5,418.5C 232.943,413.835 231.61,409.502 229.5,405.5C 227.928,402.785 226.928,399.785 226.5,396.5C 225.61,390.834 223.943,385.5 221.5,380.5C 220.017,377.567 218.683,374.567 217.5,371.5C 216.503,389.659 216.17,407.992 216.5,426.5C 212.5,426.5 208.5,426.5 204.5,426.5C 204.5,399.833 204.5,373.167 204.5,346.5 Z"/></g>
<g><path style="opacity:0.627" fill="#88dec0" d="M 221.5,380.5 C 223.943,385.5 225.61,390.834 226.5,396.5C 224.057,391.5 222.39,386.166 221.5,380.5 Z"/></g>
<g><path style="opacity:0.651" fill="#88dfc1" d="M 229.5,405.5 C 231.61,409.502 232.943,413.835 233.5,418.5C 231.39,414.498 230.057,410.165 229.5,405.5 Z"/></g>
<g><path style="opacity:0.18" fill="#baecdb" d="M -0.5,435.5 C 0.833333,436.5 0.833333,437.5 -0.5,438.5C -0.5,437.5 -0.5,436.5 -0.5,435.5 Z"/></g>
<g><path style="opacity:0.18" fill="#baecdb" d="M 511.5,435.5 C 511.5,436.5 511.5,437.5 511.5,438.5C 510.167,437.5 510.167,436.5 511.5,435.5 Z"/></g>
</svg>
