<?xml version="1.0" encoding="UTF-8"?>
<!DOCTYPE svg PUBLIC "-//W3C//DTD SVG 1.1//EN" "http://www.w3.org/Graphics/SVG/1.1/DTD/svg11.dtd">
<svg xmlns="http://www.w3.org/2000/svg" version="1.1" width="430px" height="456px" style="shape-rendering:geometricPrecision; text-rendering:geometricPrecision; image-rendering:optimizeQuality; fill-rule:evenodd; clip-rule:evenodd" xmlns:xlink="http://www.w3.org/1999/xlink">
<g><path style="opacity:0.933" fill="#000000" d="M 160.5,39.5 C 171.213,39.0165 177.546,44.0165 179.5,54.5C 176.586,68.1226 168.586,72.6226 155.5,68C 148.267,62.0333 146.767,54.8667 151,46.5C 153.529,43.1151 156.696,40.7818 160.5,39.5 Z"/></g>
<g><path style="opacity:0.934" fill="#000000" d="M 274.5,39.5 C 290.028,40.8989 295.194,48.8989 290,63.5C 282.038,72.4358 273.705,72.7691 265,64.5C 259.229,52.7163 262.395,44.383 274.5,39.5 Z"/></g>
<g><path style="opacity:0.945" fill="#000000" d="M 102.5,87.5 C 118.302,86.7985 124.469,94.1318 121,109.5C 116.745,116.54 110.578,119.04 102.5,117C 92.2758,111.748 89.7758,103.915 95,93.5C 97.1141,90.8792 99.6141,88.8792 102.5,87.5 Z"/></g>
<g><path style="opacity:0.941" fill="#000000" d="M 216.5,87.5 C 233.175,87.8541 238.675,95.8541 233,111.5C 226.749,118.011 219.582,119.177 211.5,115C 204.989,108.749 203.823,101.582 208,93.5C 210.671,91.0976 213.505,89.0976 216.5,87.5 Z"/></g>
<g><path style="opacity:0.944" fill="#000000" d="M 329.5,87.5 C 343.967,87.1353 350.133,94.1353 348,108.5C 342.176,117.771 334.343,119.938 324.5,115C 317.631,108.211 316.798,100.711 322,92.5C 324.479,90.6859 326.979,89.0192 329.5,87.5 Z"/></g>
<g><path style="opacity:0.949" fill="#000000" d="M 23.5,154.5 C 37.504,154.333 51.504,154.5 65.5,155C 87.4973,160.155 97.3306,173.988 95,196.5C 91.9015,211.2 83.0682,220.366 68.5,224C 58.172,224.5 47.8387,224.666 37.5,224.5C 37.9321,239.225 37.4321,253.892 36,268.5C 28.4172,276.769 21.7505,276.103 16,266.5C 15.3333,231.5 15.3333,196.5 16,161.5C 17.7424,158.254 20.2424,155.921 23.5,154.5 Z M 37.5,176.5 C 46.5062,176.334 55.5062,176.5 64.5,177C 73.8856,181.828 76.0523,188.994 71,198.5C 69.5905,199.787 68.0905,200.954 66.5,202C 56.8997,203.391 47.233,203.891 37.5,203.5C 37.5,194.5 37.5,185.5 37.5,176.5 Z"/></g>
<g><path style="opacity:0.945" fill="#000000" d="M 122.5,154.5 C 126.422,154.069 129.922,155.069 133,157.5C 141.922,170.344 151.088,183.01 160.5,195.5C 169.821,182.871 179.155,170.205 188.5,157.5C 196.16,152.573 201.993,154.24 206,162.5C 206.667,197.167 206.667,231.833 206,266.5C 203.487,273.34 198.654,275.84 191.5,274C 187.835,272.332 185.668,269.499 185,265.5C 184.667,243.833 184.333,222.167 184,200.5C 178.167,208.333 172.333,216.167 166.5,224C 161.049,226.453 156.215,225.62 152,221.5C 147,214.5 142,207.5 137,200.5C 136.667,222.167 136.333,243.833 136,265.5C 133.997,273.087 129.164,275.92 121.5,274C 119.376,272.878 117.543,271.378 116,269.5C 114.347,233.918 114.014,198.252 115,162.5C 116.327,158.675 118.827,156.008 122.5,154.5 Z"/></g>
<g><path style="opacity:0.947" fill="#000000" d="M 275.5,154.5 C 282.549,152.644 287.382,154.978 290,161.5C 290.667,196.167 290.667,230.833 290,265.5C 287.396,275.512 281.229,278.346 271.5,274C 269.683,272.2 268.516,270.034 268,267.5C 267.833,242.16 267.333,216.827 266.5,191.5C 258.809,197.597 250.309,202.263 241,205.5C 231.748,203.329 229.248,197.996 233.5,189.5C 251.2,182.121 265.2,170.455 275.5,154.5 Z"/></g>
<g><path style="opacity:0.946" fill="#000000" d="M 361.5,154.5 C 388.921,150.956 405.755,162.623 412,189.5C 415.715,209.664 415.049,229.664 410,249.5C 398.506,273.785 380.006,281.285 354.5,272C 342.785,265.08 335.618,254.913 333,241.5C 329.324,221.021 329.991,200.687 335,180.5C 339.113,166.886 347.946,158.219 361.5,154.5 Z M 366.5,171.5 C 379.582,169.746 387.082,175.413 389,188.5C 392.454,207.57 392.12,226.57 388,245.5C 383.67,257.915 375.503,261.415 363.5,256C 358.324,249.813 355.491,242.647 355,234.5C 352.905,217.729 353.572,201.062 357,184.5C 358.488,178.858 361.655,174.525 366.5,171.5 Z"/></g>
<g><path style="opacity:0.898" fill="#000000" d="M 102.5,323.5 C 116.47,322.305 122.97,328.638 122,342.5C 116.929,352.858 109.096,355.691 98.5,351C 91.9893,344.749 90.8227,337.582 95,329.5C 97.1141,326.879 99.6141,324.879 102.5,323.5 Z"/></g>
<g><path style="opacity:0.897" fill="#000000" d="M 215.5,323.5 C 229.47,322.305 235.97,328.638 235,342.5C 230.949,352.414 223.783,355.581 213.5,352C 206.032,346.887 203.865,340.054 207,331.5C 209.074,327.923 211.907,325.256 215.5,323.5 Z"/></g>
<g><path style="opacity:0.9" fill="#000000" d="M 328.5,323.5 C 345.765,323.257 351.598,331.257 346,347.5C 338.487,355.072 330.654,355.406 322.5,348.5C 315.878,338.041 317.878,329.708 328.5,323.5 Z"/></g>
<g><path style="opacity:0.893" fill="#000000" d="M 163.5,370.5 C 178.485,374.142 182.319,382.809 175,396.5C 161.826,404.493 152.993,401.159 148.5,386.5C 149.437,377.233 154.437,371.9 163.5,370.5 Z"/></g>
<g><path style="opacity:0.889" fill="#000000" d="M 275.5,370.5 C 291.05,372.935 295.55,381.268 289,395.5C 281,403.5 273,403.5 265,395.5C 259.249,383.023 262.749,374.689 275.5,370.5 Z"/></g>
</svg>
