<?xml version="1.0" encoding="UTF-8"?>
<!DOCTYPE svg PUBLIC "-//W3C//DTD SVG 1.1//EN" "http://www.w3.org/Graphics/SVG/1.1/DTD/svg11.dtd">
<svg xmlns="http://www.w3.org/2000/svg" version="1.1" width="512px" height="512px" style="shape-rendering:geometricPrecision; text-rendering:geometricPrecision; image-rendering:optimizeQuality; fill-rule:evenodd; clip-rule:evenodd" xmlns:xlink="http://www.w3.org/1999/xlink">
<g><path style="opacity:0.125" fill="#fdbc2c" d="M 3.5,56.5 C 4.83333,57.1667 4.83333,57.1667 3.5,56.5 Z"/></g>
<g><path style="opacity:0.125" fill="#fdbc2c" d="M 506.5,56.5 C 507.833,57.1667 507.833,57.1667 506.5,56.5 Z"/></g>
<g><path style="opacity:0.116" fill="#fdbc2c" d="M 2.5,58.5 C 3.52502,58.8966 3.69169,59.5632 3,60.5C 2.53566,59.9056 2.36899,59.2389 2.5,58.5 Z"/></g>
<g><path style="opacity:0.116" fill="#fdbc2c" d="M 507.5,58.5 C 508.525,58.8966 508.692,59.5632 508,60.5C 507.536,59.9056 507.369,59.2389 507.5,58.5 Z"/></g>
<g><path style="opacity:0.122" fill="#fdbc2c" d="M 1.5,62.5 C 2.52502,62.8966 2.69169,63.5632 2,64.5C 1.53566,63.9056 1.36899,63.2389 1.5,62.5 Z"/></g>
<g><path style="opacity:0.122" fill="#fdbc2c" d="M 508.5,62.5 C 509.525,62.8966 509.692,63.5632 509,64.5C 508.536,63.9056 508.369,63.2389 508.5,62.5 Z"/></g>
<g><path style="opacity:0.972" fill="#fdbc2c" d="M 241.5,63.5 C 316.734,60.9643 371.567,92.9643 406,159.5C 408.936,168.141 411.769,176.808 414.5,185.5C 433.551,195.95 450.717,208.95 466,224.5C 489.97,253.023 495.97,285.023 484,320.5C 478.267,333.054 470.767,344.388 461.5,354.5C 450.099,366.026 437.433,375.859 423.5,384C 411.316,388.939 402.483,385.439 397,373.5C 394.39,363.932 396.89,356.098 404.5,350C 422.387,340.447 435.887,326.613 445,308.5C 453.46,284.005 448.793,262.339 431,243.5C 427.201,240.703 423.701,237.536 420.5,234C 409.096,225.546 397.262,217.712 385,210.5C 384,208.5 383,206.5 382,204.5C 371.434,155.934 342.934,122.767 296.5,105C 233.836,88.3288 183.669,106.162 146,158.5C 137.258,172.321 131.592,187.321 129,203.5C 128.194,206.446 126.861,209.112 125,211.5C 112.738,218.712 100.904,226.546 89.5,235C 82.261,241.569 75.761,248.735 70,256.5C 55.9772,282.342 58.6438,306.342 78,328.5C 86.4121,336.916 95.4121,344.583 105,351.5C 111.461,364.082 108.961,374.249 97.5,382C 90.3027,384.6 83.636,383.6 77.5,379C 57.5709,366.405 41.7375,349.905 30,329.5C 11.0597,280.994 21.893,240.494 62.5,208C 73.1298,200.045 84.2965,192.878 96,186.5C 110.977,135.524 142.477,98.6902 190.5,76C 206.982,69.2088 223.982,65.0421 241.5,63.5 Z"/></g>
<g><path style="opacity:0.108" fill="#fdbc2c" d="M 0.5,66.5 C 1.57346,67.2506 1.74012,68.2506 1,69.5C 0.517215,68.552 0.350549,67.552 0.5,66.5 Z"/></g>
<g><path style="opacity:0.108" fill="#fdbc2c" d="M 509.5,66.5 C 510.573,67.2506 510.74,68.2506 510,69.5C 509.517,68.552 509.351,67.552 509.5,66.5 Z"/></g>
<g><path style="opacity:0.272" fill="#fdbc2c" d="M -0.5,71.5 C 0.833333,73.8333 0.833333,76.1667 -0.5,78.5C -0.5,76.1667 -0.5,73.8333 -0.5,71.5 Z"/></g>
<g><path style="opacity:0.272" fill="#fdbc2c" d="M 511.5,71.5 C 511.5,73.8333 511.5,76.1667 511.5,78.5C 510.167,76.1667 510.167,73.8333 511.5,71.5 Z"/></g>
<g><path style="opacity:0.932" fill="#fdbc2c" d="M 128.5,345.5 C 141.171,345.333 153.838,345.5 166.5,346C 185.863,348.181 194.03,359.015 191,378.5C 189.127,388.373 183.293,394.207 173.5,396C 163.172,396.5 152.839,396.666 142.5,396.5C 142.5,406.833 142.5,417.167 142.5,427.5C 137.833,427.5 133.167,427.5 128.5,427.5C 128.5,400.167 128.5,372.833 128.5,345.5 Z M 142.5,357.5 C 151.884,357.184 161.218,357.684 170.5,359C 175.278,361.716 177.611,365.883 177.5,371.5C 177.611,377.117 175.278,381.284 170.5,384C 161.248,385.417 151.915,385.917 142.5,385.5C 142.5,376.167 142.5,366.833 142.5,357.5 Z"/></g>
<g><path style="opacity:0.922" fill="#fdbc2c" d="M 203.5,345.5 C 209.206,345.171 214.872,345.505 220.5,346.5C 226.972,365.918 233.639,385.251 240.5,404.5C 247.361,385.251 254.028,365.918 260.5,346.5C 266.128,345.505 271.794,345.171 277.5,345.5C 277.5,372.833 277.5,400.167 277.5,427.5C 272.833,427.5 268.167,427.5 263.5,427.5C 263.667,409.164 263.5,390.83 263,372.5C 257.131,390.439 251.465,408.439 246,426.5C 244.262,427.127 242.429,427.46 240.5,427.5C 238.359,427.387 236.525,426.72 235,425.5C 229.333,407.833 223.667,390.167 218,372.5C 217.5,390.83 217.333,409.164 217.5,427.5C 212.833,427.5 208.167,427.5 203.5,427.5C 203.5,400.167 203.5,372.833 203.5,345.5 Z"/></g>
<g><path style="opacity:0.893" fill="#fdbc2c" d="M 311.5,359.5 C 313.833,359.5 316.167,359.5 318.5,359.5C 318.5,381.833 318.5,404.167 318.5,426.5C 314.833,426.5 311.167,426.5 307.5,426.5C 307.667,409.163 307.5,391.83 307,374.5C 302.958,377.439 298.458,379.106 293.5,379.5C 293.18,376.102 293.513,372.768 294.5,369.5C 301.021,367.414 306.688,364.08 311.5,359.5 Z"/></g>
<g><path style="opacity:0.911" fill="#fdbc2c" d="M 353.5,359.5 C 370.294,356.812 379.794,363.812 382,380.5C 383.353,392.406 382.353,404.073 379,415.5C 373.773,425.361 365.606,429.195 354.5,427C 345.485,424.175 340.318,418.008 339,408.5C 336.915,397.434 337.248,386.434 340,375.5C 341.95,367.888 346.45,362.555 353.5,359.5 Z M 358.5,367.5 C 366.724,368.906 370.891,373.906 371,382.5C 371.846,391.553 371.513,400.553 370,409.5C 364.152,422.283 357.819,422.617 351,410.5C 347.277,397.578 347.943,384.911 353,372.5C 354.73,370.598 356.563,368.931 358.5,367.5 Z"/></g>
<g><path style="opacity:0.245" fill="#fdbc2c" d="M -0.5,432.5 C 0.833333,434.833 0.833333,437.167 -0.5,439.5C -0.5,437.167 -0.5,434.833 -0.5,432.5 Z"/></g>
<g><path style="opacity:0.245" fill="#fdbc2c" d="M 511.5,432.5 C 511.5,434.833 511.5,437.167 511.5,439.5C 510.167,437.167 510.167,434.833 511.5,432.5 Z"/></g>
<g><path style="opacity:0.105" fill="#fdbc2c" d="M 0.5,441.5 C 1.59832,442.601 1.76498,443.934 1,445.5C 0.50999,444.207 0.343323,442.873 0.5,441.5 Z"/></g>
<g><path style="opacity:0.105" fill="#fdbc2c" d="M 509.5,441.5 C 510.598,442.601 510.765,443.934 510,445.5C 509.51,444.207 509.343,442.873 509.5,441.5 Z"/></g>
<g><path style="opacity:0.095" fill="#fdbc2c" d="M 1.5,446.5 C 2.57346,447.251 2.74012,448.251 2,449.5C 1.51722,448.552 1.35055,447.552 1.5,446.5 Z"/></g>
<g><path style="opacity:0.095" fill="#fdbc2c" d="M 508.5,446.5 C 509.573,447.251 509.74,448.251 509,449.5C 508.517,448.552 508.351,447.552 508.5,446.5 Z"/></g>
<g><path style="opacity:0.108" fill="#fdbc2c" d="M 2.5,450.5 C 3.52502,450.897 3.69169,451.563 3,452.5C 2.53566,451.906 2.36899,451.239 2.5,450.5 Z"/></g>
<g><path style="opacity:0.108" fill="#fdbc2c" d="M 507.5,450.5 C 508.525,450.897 508.692,451.563 508,452.5C 507.536,451.906 507.369,451.239 507.5,450.5 Z"/></g>
<g><path style="opacity:0.09" fill="#fdbc2c" d="M 3.5,453.5 C 4.52502,453.897 4.69169,454.563 4,455.5C 3.53566,454.906 3.36899,454.239 3.5,453.5 Z"/></g>
<g><path style="opacity:0.09" fill="#fdbc2c" d="M 506.5,453.5 C 507.525,453.897 507.692,454.563 507,455.5C 506.536,454.906 506.369,454.239 506.5,453.5 Z"/></g>
</svg>
