<?xml version="1.0" encoding="UTF-8"?>
<!DOCTYPE svg PUBLIC "-//W3C//DTD SVG 1.1//EN" "http://www.w3.org/Graphics/SVG/1.1/DTD/svg11.dtd">
<svg xmlns="http://www.w3.org/2000/svg" version="1.1" width="256px" height="256px" style="shape-rendering:geometricPrecision; text-rendering:geometricPrecision; image-rendering:optimizeQuality; fill-rule:evenodd; clip-rule:evenodd" xmlns:xlink="http://www.w3.org/1999/xlink">
<g><path style="opacity:1" fill="#fefefe" d="M -0.5,-0.5 C 84.8333,-0.5 170.167,-0.5 255.5,-0.5C 255.5,84.8333 255.5,170.167 255.5,255.5C 170.167,255.5 84.8333,255.5 -0.5,255.5C -0.5,170.167 -0.5,84.8333 -0.5,-0.5 Z"/></g>
<g><path style="opacity:1" fill="#3b8dde" d="M 114.5,39.5 C 122.656,38.3434 130.99,38.1768 139.5,39C 141.058,39.21 142.391,39.71 143.5,40.5C 133.857,39.675 124.191,39.3417 114.5,39.5 Z"/></g>
<g><path style="opacity:1" fill="#1581f0" d="M 114.5,39.5 C 124.191,39.3417 133.857,39.675 143.5,40.5C 167.673,47.0055 183.34,62.3388 190.5,86.5C 201.801,92.1353 210.468,100.469 216.5,111.5C 216.259,113.898 216.926,115.898 218.5,117.5C 221.427,134.162 216.094,147.662 202.5,158C 199.167,160 195.833,162 192.5,164C 184.17,164.64 181.337,160.807 184,152.5C 187.412,149.877 190.912,147.377 194.5,145C 197.414,141.6 200.08,138.1 202.5,134.5C 203.117,134.389 203.617,134.056 204,133.5C 204.979,127.017 204.479,120.684 202.5,114.5C 203.025,113.808 203.692,113.308 204.5,113C 202.866,112.506 201.199,112.34 199.5,112.5C 193.914,105.617 187.08,100.284 179,96.5C 173.685,73.0223 159.519,58.3556 136.5,52.5C 130.347,51.3467 124.014,51.18 117.5,52C 116.263,52.2321 115.263,52.7321 114.5,53.5C 98.9858,58.1643 87.4858,67.831 80,82.5C 78.4135,86.344 77.4135,90.344 77,94.5C 72.7628,98.0357 68.2628,101.202 63.5,104C 51.5513,112.829 48.3846,123.996 54,137.5C 58.3333,143.167 63.3333,148.167 69,152.5C 69.9394,161.566 66.1061,164.732 57.5,162C 48.8967,156.731 42.3967,149.564 38,140.5C 33.6883,127.798 35.0216,115.798 42,104.5C 48.2018,96.7899 55.7018,90.7899 64.5,86.5C 72.3041,61.2869 88.9708,45.6202 114.5,39.5 Z"/></g>
<g><path style="opacity:1" fill="#78b2ea" d="M 136.5,52.5 C 129.132,52.3169 121.799,52.6502 114.5,53.5C 115.263,52.7321 116.263,52.2321 117.5,52C 124.014,51.18 130.347,51.3467 136.5,52.5 Z"/></g>
<g><path style="opacity:1" fill="#4291e8" d="M 199.5,112.5 C 201.199,112.34 202.866,112.506 204.5,113C 203.692,113.308 203.025,113.808 202.5,114.5C 204.479,120.684 204.979,127.017 204,133.5C 203.617,134.056 203.117,134.389 202.5,134.5C 204.608,126.635 203.608,119.302 199.5,112.5 Z"/></g>
<g><path style="opacity:1" fill="#65a5e9" d="M 216.5,111.5 C 218.074,113.102 218.741,115.102 218.5,117.5C 216.926,115.898 216.259,113.898 216.5,111.5 Z"/></g>
<g><path style="opacity:1" fill="#2884de" d="M 78.5,150.5 C 83.3054,149.513 88.3054,149.179 93.5,149.5C 96.089,149.461 98.089,150.461 99.5,152.5C 92.6366,150.831 85.6366,150.164 78.5,150.5 Z"/></g>
<g><path style="opacity:1" fill="#1780eb" d="M 78.5,150.5 C 85.6366,150.164 92.6366,150.831 99.5,152.5C 100.36,156.434 100.693,160.434 100.5,164.5C 99.2642,167.621 96.9308,168.955 93.5,168.5C 89.8333,168.5 86.1667,168.5 82.5,168.5C 82.5,172.5 82.5,176.5 82.5,180.5C 81.1667,180.5 79.8333,180.5 78.5,180.5C 78.5,170.5 78.5,160.5 78.5,150.5 Z"/></g>
<g><path style="opacity:1" fill="#f2fcfc" d="M 82.5,153.5 C 86.1817,153.335 89.8484,153.501 93.5,154C 95.9096,154.758 96.9096,156.425 96.5,159C 96.6464,161.034 95.9797,162.701 94.5,164C 90.5138,164.499 86.5138,164.666 82.5,164.5C 82.5,160.833 82.5,157.167 82.5,153.5 Z"/></g>
<g><path style="opacity:1" fill="#418cde" d="M 99.5,152.5 C 103.115,156.199 103.448,160.199 100.5,164.5C 100.693,160.434 100.36,156.434 99.5,152.5 Z"/></g>
<g><path style="opacity:1" fill="#76b0e4" d="M 129.5,149.5 C 131.607,148.532 133.941,148.198 136.5,148.5C 136.5,159.5 136.5,170.5 136.5,181.5C 134.5,181.5 132.5,181.5 130.5,181.5C 130.825,174.313 130.491,167.313 129.5,160.5C 129.56,159.957 129.893,159.624 130.5,159.5C 131.167,166.655 131.833,173.655 132.5,180.5C 133.167,180.5 133.833,180.5 134.5,180.5C 135.494,170.347 135.828,160.014 135.5,149.5C 133.5,149.5 131.5,149.5 129.5,149.5 Z"/></g>
<g><path style="opacity:1" fill="#7ec6fe" d="M 164.5,160.5 C 167.962,159.518 171.629,159.185 175.5,159.5C 175.5,160.833 175.5,162.167 175.5,163.5C 172.833,163.5 170.167,163.5 167.5,163.5C 169.698,162.835 172.031,162.168 174.5,161.5C 171.232,160.513 167.898,160.18 164.5,160.5 Z"/></g>
<g><path style="opacity:1" fill="#2684e7" d="M 107.5,149.5 C 109.833,149.5 112.167,149.5 114.5,149.5C 114.678,152.216 115.178,154.883 116,157.5C 117.848,162.553 119.848,167.553 122,172.5C 124.365,164.678 126.865,157.011 129.5,149.5C 131.5,149.5 133.5,149.5 135.5,149.5C 135.828,160.014 135.494,170.347 134.5,180.5C 134.5,170.5 134.5,160.5 134.5,150.5C 133.022,150.238 131.689,150.571 130.5,151.5C 132.438,160.973 133.105,170.64 132.5,180.5C 131.833,173.655 131.167,166.655 130.5,159.5C 129.893,159.624 129.56,159.957 129.5,160.5C 127.202,167.426 125.202,174.426 123.5,181.5C 122.167,181.5 120.833,181.5 119.5,181.5C 117.533,173.938 115.2,166.605 112.5,159.5C 111.833,166.5 111.167,173.5 110.5,180.5C 109.895,170.64 110.562,160.973 112.5,151.5C 111.311,150.571 109.978,150.238 108.5,150.5C 108.5,160.5 108.5,170.5 108.5,180.5C 107.506,170.347 107.172,160.014 107.5,149.5 Z"/></g>
<g><path style="opacity:1" fill="#0082fd" d="M 134.5,180.5 C 133.833,180.5 133.167,180.5 132.5,180.5C 133.105,170.64 132.438,160.973 130.5,151.5C 131.689,150.571 133.022,150.238 134.5,150.5C 134.5,160.5 134.5,170.5 134.5,180.5 Z"/></g>
<g><path style="opacity:1" fill="#0081fc" d="M 110.5,180.5 C 109.833,180.5 109.167,180.5 108.5,180.5C 108.5,170.5 108.5,160.5 108.5,150.5C 109.978,150.238 111.311,150.571 112.5,151.5C 110.562,160.973 109.895,170.64 110.5,180.5 Z"/></g>
<g><path style="opacity:1" fill="#75b5f4" d="M 93.5,149.5 C 88.3054,149.179 83.3054,149.513 78.5,150.5C 78.5,160.5 78.5,170.5 78.5,180.5C 79.8333,180.5 81.1667,180.5 82.5,180.5C 82.5,180.833 82.5,181.167 82.5,181.5C 80.8333,181.5 79.1667,181.5 77.5,181.5C 77.5,170.5 77.5,159.5 77.5,148.5C 83.0262,148.179 88.3595,148.512 93.5,149.5 Z"/></g>
<g><path style="opacity:1" fill="#2c88e9" d="M 164.5,160.5 C 167.898,160.18 171.232,160.513 174.5,161.5C 172.031,162.168 169.698,162.835 167.5,163.5C 167.5,164.5 167.5,165.5 167.5,166.5C 175.459,167.08 177.626,171.08 174,178.5C 167.95,183.411 164.117,182.078 162.5,174.5C 163.833,174.5 165.167,174.5 166.5,174.5C 166.959,178.82 168.792,179.487 172,176.5C 172.667,174.5 172.667,172.5 172,170.5C 171.275,169.941 170.442,169.608 169.5,169.5C 167.675,170.651 165.675,171.318 163.5,171.5C 163.185,167.629 163.518,163.962 164.5,160.5 Z"/></g>
<g><path style="opacity:1" fill="#a0daff" d="M 93.5,168.5 C 90.3752,169.479 87.0419,169.813 83.5,169.5C 83.8168,173.702 83.4834,177.702 82.5,181.5C 82.5,181.167 82.5,180.833 82.5,180.5C 82.5,176.5 82.5,172.5 82.5,168.5C 86.1667,168.5 89.8333,168.5 93.5,168.5 Z"/></g>
<g><path style="opacity:1" fill="#3089e8" d="M 153.5,180.5 C 149.5,180.5 145.5,180.5 141.5,180.5C 141.5,179.5 141.5,178.5 141.5,177.5C 143.783,174.044 146.283,170.71 149,167.5C 149.986,165.075 149.319,163.409 147,162.5C 145.124,163.619 144.291,165.286 144.5,167.5C 143.5,167.5 142.5,167.5 141.5,167.5C 142.129,159.109 145.795,157.442 152.5,162.5C 153.485,164.098 153.651,165.765 153,167.5C 151.077,171.258 148.577,174.591 145.5,177.5C 148.616,177.92 151.283,178.92 153.5,180.5 Z"/></g>
<g><path style="opacity:1" fill="#7fb2e1" d="M 107.5,149.5 C 107.172,160.014 107.506,170.347 108.5,180.5C 109.167,180.5 109.833,180.5 110.5,180.5C 111.167,173.5 111.833,166.5 112.5,159.5C 112.5,166.833 112.5,174.167 112.5,181.5C 110.5,181.5 108.5,181.5 106.5,181.5C 106.172,170.654 106.506,159.987 107.5,149.5 Z"/></g>
<g><path style="opacity:1" fill="#3086e4" d="M 156.5,178.5 C 157.5,178.5 158.5,178.5 159.5,178.5C 159.5,179.5 159.5,180.5 159.5,181.5C 158.5,181.5 157.5,181.5 156.5,181.5C 156.5,180.5 156.5,179.5 156.5,178.5 Z"/></g>
<g><path style="opacity:1" fill="#57a5ed" d="M 141.5,177.5 C 141.5,178.5 141.5,179.5 141.5,180.5C 145.5,180.5 149.5,180.5 153.5,180.5C 149.366,181.485 145.032,181.818 140.5,181.5C 140.232,179.901 140.566,178.568 141.5,177.5 Z"/></g>
</svg>
