<?xml version="1.0" encoding="UTF-8"?>
<!DOCTYPE svg PUBLIC "-//W3C//DTD SVG 1.1//EN" "http://www.w3.org/Graphics/SVG/1.1/DTD/svg11.dtd">
<svg xmlns="http://www.w3.org/2000/svg" version="1.1" width="512px" height="512px" style="shape-rendering:geometricPrecision; text-rendering:geometricPrecision; image-rendering:optimizeQuality; fill-rule:evenodd; clip-rule:evenodd" xmlns:xlink="http://www.w3.org/1999/xlink">
<g><path style="opacity:0.985" fill="#57b8ff" d="M 431.5,72.5 C 435.637,72.1463 439.637,72.6463 443.5,74C 460.641,88.6413 477.308,103.808 493.5,119.5C 486.532,120.497 479.532,120.83 472.5,120.5C 473.453,247.162 473.786,373.829 473.5,500.5C 448.5,500.5 423.5,500.5 398.5,500.5C 398.272,373.831 398.606,247.164 399.5,120.5C 392.8,120.83 386.134,120.497 379.5,119.5C 396.853,103.811 414.187,88.1446 431.5,72.5 Z"/></g>
<g><path style="opacity:0.983" fill="#57b8ff" d="M 278.5,231.5 C 303.5,231.5 328.5,231.5 353.5,231.5C 353.5,321.167 353.5,410.833 353.5,500.5C 328.5,500.5 303.5,500.5 278.5,500.5C 278.5,410.833 278.5,321.167 278.5,231.5 Z"/></g>
<g><path style="opacity:0.985" fill="#57b8ff" d="M 158.5,311.5 C 183.5,311.5 208.5,311.5 233.5,311.5C 233.5,374.5 233.5,437.5 233.5,500.5C 208.5,500.5 183.5,500.5 158.5,500.5C 158.5,437.5 158.5,374.5 158.5,311.5 Z"/></g>
<g><path style="opacity:0.985" fill="#57b8ff" d="M 39.5,388.5 C 64.1667,388.5 88.8333,388.5 113.5,388.5C 113.5,425.833 113.5,463.167 113.5,500.5C 88.5,500.5 63.5,500.5 38.5,500.5C 38.1733,463.094 38.5067,425.761 39.5,388.5 Z"/></g>
</svg>
