<?xml version="1.0" encoding="UTF-8"?>
<!DOCTYPE svg PUBLIC "-//W3C//DTD SVG 1.1//EN" "http://www.w3.org/Graphics/SVG/1.1/DTD/svg11.dtd">
<svg xmlns="http://www.w3.org/2000/svg" version="1.1" width="474px" height="374px" style="shape-rendering:geometricPrecision; text-rendering:geometricPrecision; image-rendering:optimizeQuality; fill-rule:evenodd; clip-rule:evenodd" xmlns:xlink="http://www.w3.org/1999/xlink">
<g><path style="opacity:0.985" fill="#047ff2" d="M 213.5,27.5 C 299.753,23.8758 366.919,57.5424 415,128.5C 450.078,187.534 456.911,249.701 435.5,315C 380.501,315.5 325.501,315.667 270.5,315.5C 272.479,302.413 269.312,290.747 261,280.5C 257.667,278.5 255,275.833 253,272.5C 245.999,234.831 238.999,197.164 232,159.5C 224.041,196.964 216.708,234.63 210,272.5C 208,275.833 205.333,278.5 202,280.5C 193.688,290.747 190.521,302.413 192.5,315.5C 137.499,315.667 82.499,315.5 27.5,315C 3.52569,239.557 15.359,170.39 63,107.5C 102.299,60.4333 152.466,33.7667 213.5,27.5 Z M 229.5,43.5 C 234.023,43.345 237.189,45.345 239,49.5C 239.667,66.8333 239.667,84.1667 239,101.5C 234.056,109.305 229.056,109.305 224,101.5C 223.333,84.1667 223.333,66.8333 224,49.5C 225.36,46.9774 227.193,44.9774 229.5,43.5 Z M 147.5,99.5 C 152.803,106.317 157.97,113.317 163,120.5C 164.327,128.17 161.161,131.67 153.5,131C 152.069,130.535 150.903,129.701 150,128.5C 140.509,114.984 130.842,101.65 121,88.5C 119.674,80.8288 122.841,77.3288 130.5,78C 132.286,78.7845 133.786,79.9512 135,81.5C 138.997,87.6559 143.164,93.6559 147.5,99.5 Z M 329.5,80.5 C 334.338,76.1642 338.504,76.8308 342,82.5C 342.667,84.5 342.667,86.5 342,88.5C 332.333,101.833 322.667,115.167 313,128.5C 308.291,132.769 303.958,132.436 300,127.5C 299.21,124.366 299.543,121.366 301,118.5C 310.363,105.65 319.863,92.983 329.5,80.5 Z M 61.5,165.5 C 78.7268,169.741 95.7268,174.907 112.5,181C 119.167,185.667 119.167,190.333 112.5,195C 110.5,195.667 108.5,195.667 106.5,195C 91.1569,189.993 75.8235,184.993 60.5,180C 55.0028,174.683 55.3361,169.85 61.5,165.5 Z M 348.5,193.5 C 344.387,189.159 344.72,184.992 349.5,181C 365.941,175.631 382.441,170.464 399,165.5C 404.792,166.419 407.126,169.752 406,175.5C 405.215,177.286 404.049,178.786 402.5,180C 387.167,185 371.833,190 356.5,195C 354.167,195.667 351.833,195.667 349.5,195C 348.944,194.617 348.611,194.117 348.5,193.5 Z M 106.5,259.5 C 114.164,258.666 117.664,262 117,269.5C 116.215,271.286 115.049,272.786 113.5,274C 98.0936,278.802 82.7602,283.802 67.5,289C 59.3846,290.218 55.8846,286.718 57,278.5C 58.1667,277.333 59.3333,276.167 60.5,275C 76.1052,270.299 91.4386,265.132 106.5,259.5 Z M 348.5,261.5 C 350.795,259.615 353.462,259.115 356.5,260C 371.845,265.002 387.178,270.002 402.5,275C 408.578,281.614 407.411,286.448 399,289.5C 382.441,284.536 365.941,279.369 349.5,274C 344.72,270.008 344.387,265.841 348.5,261.5 Z"/></g>
<g><path style="opacity:0.952" fill="#047ff2" d="M 225.5,283.5 C 238.974,282.07 248.974,287.236 255.5,299C 257.919,321.249 247.919,331.916 225.5,331C 211.357,326.174 205.524,316.34 208,301.5C 210.71,292.292 216.543,286.292 225.5,283.5 Z"/></g>
</svg>
