<?xml version="1.0" standalone="no"?>
<!DOCTYPE svg PUBLIC "-//W3C//DTD SVG 20010904//EN"
 "http://www.w3.org/TR/2001/REC-SVG-20010904/DTD/svg10.dtd">
<svg version="1.0" xmlns="http://www.w3.org/2000/svg"
 width="512.000000pt" height="512.000000pt" viewBox="0 0 512.000000 512.000000"
 preserveAspectRatio="xMidYMid meet">
<metadata>
Created by potrace 1.16, written by Peter Selinger 2001-2019
</metadata>
<g transform="translate(0.000000,512.000000) scale(0.100000,-0.100000)"
fill="#000000" stroke="none">
<path d="M2240 5105 c-458 -60 -859 -224 -1236 -506 -127 -95 -388 -356 -483
-483 -258 -345 -417 -710 -493 -1133 -20 -113 -23 -160 -23 -413 0 -312 8
-389 66 -629 162 -667 608 -1256 1214 -1606 306 -177 638 -285 1004 -326 155
-17 534 -7 687 20 546 93 1005 331 1395 720 414 415 657 910 734 1494 20 155
20 473 0 637 -143 1158 -1063 2077 -2228 2225 -143 18 -499 18 -637 0z m585
-186 c291 -32 611 -133 869 -276 211 -117 376 -241 546 -412 348 -350 573
-783 660 -1271 28 -155 38 -494 21 -652 -106 -932 -738 -1711 -1626 -2003
-394 -130 -832 -153 -1238 -65 -592 128 -1125 492 -1467 1000 -207 308 -336
651 -385 1025 -18 139 -21 438 -5 565 68 540 303 1024 685 1405 515 516 1216
763 1940 684z"/>
<path d="M2415 4509 c-995 -68 -1783 -887 -1807 -1877 -3 -114 -3 -114 25
-138 28 -24 28 -24 273 -24 l245 0 24 25 c36 35 35 102 -1 136 -25 23 -31 24
-201 27 l-176 3 7 76 c10 106 41 251 77 363 35 107 98 250 110 250 4 0 68 -36
141 -80 150 -90 189 -100 233 -55 33 32 37 94 9 125 -7 9 -76 54 -153 100
l-140 84 37 51 c124 172 278 326 435 434 l43 29 69 -114 c95 -160 118 -190
152 -197 35 -7 88 15 102 41 25 46 13 84 -69 220 -44 73 -80 137 -80 141 0 12
126 68 242 107 116 39 258 70 371 80 l76 7 3 -176 c3 -170 4 -176 27 -201 34
-36 101 -37 136 -1 25 24 25 27 25 201 l0 177 80 -7 c168 -14 383 -71 543
-143 42 -20 77 -39 77 -44 0 -4 -36 -68 -80 -141 -82 -136 -94 -174 -69 -220
14 -26 67 -48 102 -41 34 7 56 35 147 191 36 62 70 112 75 112 21 0 189 -135
279 -225 52 -52 125 -136 164 -187 l70 -93 -50 -30 c-263 -158 -280 -174 -258
-240 14 -44 44 -65 90 -65 27 0 69 20 169 80 73 44 136 80 140 80 13 0 76
-145 109 -251 36 -112 68 -263 78 -366 l6 -72 -175 -3 c-170 -3 -176 -4 -201
-27 -36 -34 -37 -101 -1 -136 l24 -25 246 0 246 0 24 25 c23 22 25 31 25 129
0 339 -122 727 -320 1021 -161 239 -393 458 -636 601 -261 154 -553 243 -866
264 -78 5 -147 9 -153 8 -5 0 -59 -4 -120 -9z"/>
<path d="M2492 3048 c-16 -18 -42 -120 -122 -487 l-102 -464 -40 -50 c-75 -95
-100 -166 -100 -286 0 -134 49 -242 152 -334 79 -71 141 -91 280 -92 109 0
119 2 183 32 260 123 332 449 150 679 l-41 51 -102 464 c-114 520 -110 509
-190 509 -35 0 -52 -5 -68 -22z m108 -696 c16 -73 30 -139 30 -147 0 -10 -18
-13 -70 -13 -38 0 -70 3 -70 6 -1 4 14 78 32 165 21 101 36 151 40 140 4 -10
21 -78 38 -151z m45 -366 c160 -67 210 -269 97 -390 -117 -125 -342 -87 -407
69 -48 114 4 253 117 309 60 30 138 35 193 12z"/>
<path d="M1580 1059 c-57 -21 -72 -116 -25 -156 l26 -23 965 0 965 0 24 25
c34 33 34 93 1 132 l-24 28 -954 2 c-570 1 -963 -2 -978 -8z"/>
<path d="M2155 623 c-11 -3 -30 -14 -42 -26 -30 -27 -31 -94 -2 -131 l20 -26
415 0 415 0 24 25 c34 33 34 93 1 132 l-24 28 -394 2 c-216 0 -402 -1 -413 -4z"/>
</g>
</svg>
