<?xml version="1.0" encoding="UTF-8"?>
<!DOCTYPE svg PUBLIC "-//W3C//DTD SVG 1.1//EN" "http://www.w3.org/Graphics/SVG/1.1/DTD/svg11.dtd">
<svg xmlns="http://www.w3.org/2000/svg" version="1.1" width="512px" height="512px" style="shape-rendering:geometricPrecision; text-rendering:geometricPrecision; image-rendering:optimizeQuality; fill-rule:evenodd; clip-rule:evenodd" xmlns:xlink="http://www.w3.org/1999/xlink">
<g><path style="opacity:0.995" fill="#10ce91" d="M 232.5,-0.5 C 247.833,-0.5 263.167,-0.5 278.5,-0.5C 368.144,10.3879 435.644,54.7213 481,132.5C 497.695,163.971 507.861,197.304 511.5,232.5C 511.5,247.833 511.5,263.167 511.5,278.5C 501.195,364.976 459.195,431.142 385.5,477C 374.543,483.312 363.209,488.812 351.5,493.5C 349.447,493.402 347.78,494.069 346.5,495.5C 334.32,499.462 321.987,502.962 309.5,506C 297.061,508.093 284.727,509.927 272.5,511.5C 259.167,511.5 245.833,511.5 232.5,511.5C 142.856,500.612 75.3562,456.279 30,378.5C 13.3053,347.029 3.1386,313.696 -0.5,278.5C -0.5,263.167 -0.5,247.833 -0.5,232.5C 10.3875,142.857 54.7208,75.3573 132.5,30C 163.971,13.3053 197.304,3.1386 232.5,-0.5 Z"/></g>
<g><path style="opacity:1" fill="#fdfefe" d="M 212.5,229.5 C 212.5,232.167 212.5,234.833 212.5,237.5C 202.833,237.5 193.167,237.5 183.5,237.5C 180.954,220.875 171.287,214.042 154.5,217C 145.982,220.348 140.982,226.515 139.5,235.5C 129.76,237.436 119.76,238.102 109.5,237.5C 110.082,218.831 118.082,204.331 133.5,194C 154.1,183.277 174.1,184.277 193.5,197C 203.833,205.501 210.167,216.334 212.5,229.5 Z"/></g>
<g><path style="opacity:1" fill="#fcfefe" d="M 329.5,234.5 C 328.596,235.209 328.263,236.209 328.5,237.5C 318.833,237.5 309.167,237.5 299.5,237.5C 302.094,206.406 318.927,189.406 350,186.5C 373.79,186.727 390.456,197.727 400,219.5C 402.245,225.634 403.411,231.968 403.5,238.5C 393.5,238.5 383.5,238.5 373.5,238.5C 370.636,219.885 359.969,213.052 341.5,218C 334.93,221.722 330.93,227.222 329.5,234.5 Z"/></g>
<g><path style="opacity:1" fill="#aeeed9" d="M 139.5,235.5 C 139.5,236.5 139.5,237.5 139.5,238.5C 129.319,238.827 119.319,238.494 109.5,237.5C 119.76,238.102 129.76,237.436 139.5,235.5 Z"/></g>
<g><path style="opacity:1" fill="#b5f0dc" d="M 212.5,229.5 C 213.477,232.287 213.81,235.287 213.5,238.5C 203.319,238.827 193.319,238.494 183.5,237.5C 193.167,237.5 202.833,237.5 212.5,237.5C 212.5,234.833 212.5,232.167 212.5,229.5 Z"/></g>
<g><path style="opacity:1" fill="#aeeed9" d="M 329.5,234.5 C 329.5,235.833 329.5,237.167 329.5,238.5C 319.319,238.827 309.319,238.494 299.5,237.5C 309.167,237.5 318.833,237.5 328.5,237.5C 328.263,236.209 328.596,235.209 329.5,234.5 Z"/></g>
<g><path style="opacity:1" fill="#fdfefe" d="M 375.5,337.5 C 384.286,342.063 392.619,347.397 400.5,353.5C 369.539,398.164 326.873,423.664 272.5,430C 205.63,434.391 152.297,409.891 112.5,356.5C 119.901,350.27 127.734,344.603 136,339.5C 181.584,395.945 239.084,413.111 308.5,391C 336.338,379.989 358.671,362.156 375.5,337.5 Z"/></g>
<g><path style="opacity:0.204" fill="#eefbf6" d="M 351.5,493.5 C 350.22,494.931 348.553,495.598 346.5,495.5C 347.78,494.069 349.447,493.402 351.5,493.5 Z"/></g>
<g><path style="opacity:0.56" fill="#effbf7" d="M 346.5,495.5 C 338.684,499.721 330.35,502.888 321.5,505C 310.476,507.772 299.476,509.939 288.5,511.5C 283.167,511.5 277.833,511.5 272.5,511.5C 284.727,509.927 297.061,508.093 309.5,506C 321.987,502.962 334.32,499.462 346.5,495.5 Z"/></g>
</svg>
