<?xml version="1.0" encoding="UTF-8"?>
<!DOCTYPE svg PUBLIC "-//W3C//DTD SVG 1.1//EN" "http://www.w3.org/Graphics/SVG/1.1/DTD/svg11.dtd">
<svg xmlns="http://www.w3.org/2000/svg" version="1.1" width="256px" height="256px" style="shape-rendering:geometricPrecision; text-rendering:geometricPrecision; image-rendering:optimizeQuality; fill-rule:evenodd; clip-rule:evenodd" xmlns:xlink="http://www.w3.org/1999/xlink">
<g><path style="opacity:1" fill="#fdfefe" d="M -0.5,-0.5 C 84.8333,-0.5 170.167,-0.5 255.5,-0.5C 255.5,84.8333 255.5,170.167 255.5,255.5C 170.167,255.5 84.8333,255.5 -0.5,255.5C -0.5,170.167 -0.5,84.8333 -0.5,-0.5 Z"/></g>
<g><path style="opacity:1" fill="#3b8eea" d="M 105.5,73.5 C 104.417,73.4606 103.417,73.1272 102.5,72.5C 101.537,72.9698 101.537,73.6365 102.5,74.5C 98.5325,72.8815 94.8658,73.2148 91.5,75.5C 90.5,76.1667 89.5,76.8333 88.5,77.5C 88.0623,76.4937 87.3957,76.4937 86.5,77.5C 88.9824,71.1576 93.6491,68.6576 100.5,70C 102.431,70.9022 104.097,72.0688 105.5,73.5 Z"/></g>
<g><path style="opacity:1" fill="#fcfefc" d="M 102.5,74.5 C 103.167,75.5 103.833,76.5 104.5,77.5C 104.667,96.1696 104.5,114.836 104,133.5C 103.617,132.944 103.117,132.611 102.5,132.5C 98.8333,132.5 95.1667,132.5 91.5,132.5C 91.5,140.833 91.5,149.167 91.5,157.5C 91.1667,157.5 90.8333,157.5 90.5,157.5C 88.3023,157.591 87.9689,156.925 89.5,155.5C 89.3334,129.831 89.5,104.165 90,78.5C 91.0386,77.7562 91.5386,76.7562 91.5,75.5C 94.8658,73.2148 98.5325,72.8815 102.5,74.5 Z"/></g>
<g><path style="opacity:1" fill="#f3fbfd" d="M 210.5,76.5 C 211.49,102.759 211.824,129.092 211.5,155.5C 211.607,157.379 211.107,157.712 210,156.5C 209.832,138.662 209.332,120.995 208.5,103.5C 205.038,102.518 201.371,102.185 197.5,102.5C 197.5,120.5 197.5,138.5 197.5,156.5C 197.5,157.167 197.167,157.5 196.5,157.5C 195.761,157.631 195.094,157.464 194.5,157C 195.495,131.241 195.828,105.408 195.5,79.5C 196.115,75.5517 198.448,73.2184 202.5,72.5C 205.701,72.8922 208.367,74.2256 210.5,76.5 Z"/></g>
<g><path style="opacity:1" fill="#0e82ef" d="M 88.5,77.5 C 88.5,103.5 88.5,129.5 88.5,155.5C 88.1667,155.5 87.8333,155.5 87.5,155.5C 86.5022,129.672 86.1689,103.672 86.5,77.5C 87.3957,76.4937 88.0623,76.4937 88.5,77.5 Z"/></g>
<g><path style="opacity:1" fill="#3d83cc" d="M 110.5,86.5 C 113.898,86.1796 117.232,86.513 120.5,87.5C 118.833,87.8333 117.167,88.1667 115.5,88.5C 113.36,88.4439 111.694,87.7773 110.5,86.5 Z"/></g>
<g><path style="opacity:1" fill="#3c85ce" d="M 163.5,86.5 C 166.898,86.1796 170.232,86.513 173.5,87.5C 171.833,87.8333 170.167,88.1667 168.5,88.5C 166.36,88.4439 164.694,87.7773 163.5,86.5 Z"/></g>
<g><path style="opacity:1" fill="#3a86d3" d="M 57.5,86.5 C 60.8984,86.1796 64.2317,86.513 67.5,87.5C 65.8333,87.8333 64.1667,88.1667 62.5,88.5C 60.3603,88.4439 58.6936,87.7773 57.5,86.5 Z"/></g>
<g><path style="opacity:1" fill="#2f82d2" d="M 225.5,86.5 C 223.012,88.3878 220.012,89.0545 216.5,88.5C 218.988,86.6122 221.988,85.9455 225.5,86.5 Z"/></g>
<g><path style="opacity:1" fill="#2e88e8" d="M 41.5,69.5 C 46.7801,69.6524 51.2801,71.6524 55,75.5C 55.1668,101.84 55.6668,128.173 56.5,154.5C 64.0845,162.392 64.4178,170.725 57.5,179.5C 45.0555,188.843 34.8889,186.843 27,173.5C 25.1265,166.129 26.7931,159.796 32,154.5C 32.3333,128.833 32.6667,103.167 33,77.5C 35.0982,73.8972 37.9315,71.2305 41.5,69.5 Z"/></g>
<g><path style="opacity:1" fill="#f8fdfd" d="M 30.5,170.5 C 30.3424,167.098 30.6758,163.764 31.5,160.5C 32.8333,158.833 34.1667,157.167 35.5,155.5C 36.3322,130.003 36.8322,104.337 37,78.5C 38.0386,77.7562 38.5386,76.7562 38.5,75.5C 38.9175,74.7784 39.5842,74.2784 40.5,74C 45.7314,72.2762 49.5647,73.7762 52,78.5C 52.3333,104.167 52.6667,129.833 53,155.5C 60.1134,163.152 60.28,170.986 53.5,179C 45.3411,183.264 38.1744,182.098 32,175.5C 31.3923,173.846 30.8923,172.179 30.5,170.5 Z"/></g>
<g><path style="opacity:1" fill="#83c1f7" d="M 91.5,75.5 C 91.5386,76.7562 91.0386,77.7562 90,78.5C 89.5,104.165 89.3334,129.831 89.5,155.5C 89.1667,155.5 88.8333,155.5 88.5,155.5C 88.5,129.5 88.5,103.5 88.5,77.5C 89.5,76.8333 90.5,76.1667 91.5,75.5 Z"/></g>
<g><path style="opacity:1" fill="#78b5ee" d="M 38.5,75.5 C 38.5386,76.7562 38.0386,77.7562 37,78.5C 36.8322,104.337 36.3322,130.003 35.5,155.5C 35.3334,129.498 35.5,103.498 36,77.5C 36.7083,76.6195 37.5416,75.9528 38.5,75.5 Z"/></g>
<g><path style="opacity:1" fill="#2d88e0" d="M 57.5,101.5 C 60.8984,101.18 64.2317,101.513 67.5,102.5C 65.8333,102.833 64.1667,103.167 62.5,103.5C 60.3603,103.444 58.6936,102.777 57.5,101.5 Z"/></g>
<g><path style="opacity:1" fill="#3287de" d="M 110.5,101.5 C 113.898,101.18 117.232,101.513 120.5,102.5C 118.833,102.833 117.167,103.167 115.5,103.5C 113.36,103.444 111.694,102.777 110.5,101.5 Z"/></g>
<g><path style="opacity:1" fill="#3089e1" d="M 163.5,101.5 C 166.898,101.18 170.232,101.513 173.5,102.5C 171.833,102.833 170.167,103.167 168.5,103.5C 166.36,103.444 164.694,102.777 163.5,101.5 Z"/></g>
<g><path style="opacity:1" fill="#2685df" d="M 216.5,101.5 C 228.5,102.167 228.5,102.833 216.5,103.5C 216.5,102.833 216.5,102.167 216.5,101.5 Z"/></g>
<g><path style="opacity:1" fill="#057ff1" d="M 191.5,79.5 C 193.491,104.478 194.157,129.811 193.5,155.5C 193.167,156.5 192.5,157.167 191.5,157.5C 190.375,156.652 190.375,155.652 191.5,154.5C 191.5,129.5 191.5,104.5 191.5,79.5 Z"/></g>
<g><path style="opacity:1" fill="#2688e7" d="M 212.5,75.5 C 211.075,73.9689 210.409,74.3023 210.5,76.5C 208.367,74.2256 205.701,72.8922 202.5,72.5C 198.448,73.2184 196.115,75.5517 195.5,79.5C 194.833,104.833 194.167,130.167 193.5,155.5C 194.157,129.811 193.491,104.478 191.5,79.5C 193.277,72.1094 197.944,68.9427 205.5,70C 208.64,70.9911 210.974,72.8244 212.5,75.5 Z"/></g>
<g><path style="opacity:1" fill="#c8f3ff" d="M 214.5,77.5 C 215.473,79.9479 215.806,82.6146 215.5,85.5C 219.042,85.1872 222.375,85.5206 225.5,86.5C 221.988,85.9455 218.988,86.6122 216.5,88.5C 215.167,92.8333 215.167,97.1667 216.5,101.5C 216.5,102.167 216.5,102.833 216.5,103.5C 215.517,107.298 215.183,111.298 215.5,115.5C 219.702,115.183 223.702,115.517 227.5,116.5C 223.774,116.177 220.107,116.511 216.5,117.5C 220.445,118.491 224.445,118.824 228.5,118.5C 224.366,119.485 220.032,119.818 215.5,119.5C 215.5,123.167 215.5,126.833 215.5,130.5C 219.042,130.187 222.375,130.521 225.5,131.5C 221.988,130.945 218.988,131.612 216.5,133.5C 215.167,137.833 215.167,142.167 216.5,146.5C 218.988,148.388 221.988,149.055 225.5,148.5C 222.375,149.479 219.042,149.813 215.5,149.5C 215.5,150.833 215.5,152.167 215.5,153.5C 214.502,128.339 214.169,103.005 214.5,77.5 Z"/></g>
<g><path style="opacity:1" fill="#3481ca" d="M 227.5,116.5 C 228.338,116.842 228.672,117.508 228.5,118.5C 224.445,118.824 220.445,118.491 216.5,117.5C 220.107,116.511 223.774,116.177 227.5,116.5 Z"/></g>
<g><path style="opacity:1" fill="#4d93dc" d="M 57.5,116.5 C 61.5,116.5 65.5,116.5 69.5,116.5C 69.5,117.5 69.5,118.5 69.5,119.5C 65.5,119.5 61.5,119.5 57.5,119.5C 57.5,118.5 57.5,117.5 57.5,116.5 Z"/></g>
<g><path style="opacity:1" fill="#4c92db" d="M 110.5,116.5 C 114.5,116.5 118.5,116.5 122.5,116.5C 122.5,117.5 122.5,118.5 122.5,119.5C 118.818,119.665 115.152,119.499 111.5,119C 110.748,118.329 110.414,117.496 110.5,116.5 Z"/></g>
<g><path style="opacity:1" fill="#4b94dc" d="M 163.5,116.5 C 167.5,116.5 171.5,116.5 175.5,116.5C 175.5,117.5 175.5,118.5 175.5,119.5C 171.5,119.5 167.5,119.5 163.5,119.5C 163.5,118.5 163.5,117.5 163.5,116.5 Z"/></g>
<g><path style="opacity:1" fill="#1e82e6" d="M 212.5,75.5 C 213.167,76.1667 213.833,76.8333 214.5,77.5C 214.169,103.005 214.502,128.339 215.5,153.5C 216.925,154.922 217.925,156.589 218.5,158.5C 218.692,161.601 219.358,164.601 220.5,167.5C 219.902,168.795 219.402,170.128 219,171.5C 218.817,168.635 218.317,165.969 217.5,163.5C 216.471,160.109 214.471,157.443 211.5,155.5C 211.824,129.092 211.49,102.759 210.5,76.5C 210.409,74.3023 211.075,73.9689 212.5,75.5 Z"/></g>
<g><path style="opacity:1" fill="#4994e8" d="M 57.5,131.5 C 60.8984,131.18 64.2317,131.513 67.5,132.5C 67.2907,133.086 66.9574,133.586 66.5,134C 63.8333,134.667 61.1667,134.667 58.5,134C 57.7476,133.329 57.4142,132.496 57.5,131.5 Z"/></g>
<g><path style="opacity:1" fill="#4b94e6" d="M 110.5,131.5 C 113.898,131.18 117.232,131.513 120.5,132.5C 120.291,133.086 119.957,133.586 119.5,134C 116.833,134.667 114.167,134.667 111.5,134C 110.748,133.329 110.414,132.496 110.5,131.5 Z"/></g>
<g><path style="opacity:1" fill="#4d96e9" d="M 163.5,131.5 C 166.898,131.18 170.232,131.513 173.5,132.5C 173.291,133.086 172.957,133.586 172.5,134C 169.518,134.498 166.518,134.665 163.5,134.5C 163.5,133.5 163.5,132.5 163.5,131.5 Z"/></g>
<g><path style="opacity:1" fill="#4e96e9" d="M 225.5,131.5 C 226.774,132.189 226.774,133.023 225.5,134C 222.304,134.805 219.304,134.638 216.5,133.5C 218.988,131.612 221.988,130.945 225.5,131.5 Z"/></g>
<g><path style="opacity:1" fill="#1d7dda" d="M 105.5,73.5 C 106.458,73.9528 107.292,74.6195 108,75.5C 108.5,101.498 108.667,127.498 108.5,153.5C 107.668,128.003 107.168,102.337 107,76.5C 105.961,75.7562 105.461,74.7562 105.5,73.5 Z"/></g>
<g><path style="opacity:1" fill="#6caae2" d="M 208.5,103.5 C 208.5,121.5 208.5,139.5 208.5,157.5C 207.503,139.674 207.17,121.674 207.5,103.5C 204.5,103.5 201.5,103.5 198.5,103.5C 198.83,121.341 198.497,139.008 197.5,156.5C 197.5,138.5 197.5,120.5 197.5,102.5C 201.371,102.185 205.038,102.518 208.5,103.5 Z"/></g>
<g><path style="opacity:1" fill="#2386ef" d="M 105.5,73.5 C 105.461,74.7562 105.961,75.7562 107,76.5C 107.168,102.337 107.668,128.003 108.5,153.5C 108.5,154.833 107.833,155.5 106.5,155.5C 105.833,129.5 105.167,103.5 104.5,77.5C 103.833,76.5 103.167,75.5 102.5,74.5C 101.537,73.6365 101.537,72.9698 102.5,72.5C 103.417,73.1272 104.417,73.4606 105.5,73.5 Z"/></g>
<g><path style="opacity:1" fill="#5da4e9" d="M 102.5,132.5 C 102.5,140.833 102.5,149.167 102.5,157.5C 101.508,149.684 101.174,141.684 101.5,133.5C 98.5,133.5 95.5,133.5 92.5,133.5C 92.8257,141.684 92.4924,149.684 91.5,157.5C 91.5,149.167 91.5,140.833 91.5,132.5C 95.1667,132.5 98.8333,132.5 102.5,132.5 Z"/></g>
<g><path style="opacity:1" fill="#499eed" d="M 39.5,148.5 C 42.6248,147.521 45.9581,147.187 49.5,147.5C 49.5,150.5 49.5,153.5 49.5,156.5C 48.5269,154.052 48.1936,151.385 48.5,148.5C 45.5,148.5 42.5,148.5 39.5,148.5 Z"/></g>
<g><path style="opacity:1" fill="#3d87d2" d="M 57.5,146.5 C 60.8984,146.18 64.2317,146.513 67.5,147.5C 65.8333,147.833 64.1667,148.167 62.5,148.5C 60.3603,148.444 58.6936,147.777 57.5,146.5 Z"/></g>
<g><path style="opacity:1" fill="#4187d0" d="M 110.5,146.5 C 113.898,146.18 117.232,146.513 120.5,147.5C 118.833,147.833 117.167,148.167 115.5,148.5C 113.36,148.444 111.694,147.777 110.5,146.5 Z"/></g>
<g><path style="opacity:1" fill="#3a85d1" d="M 216.5,146.5 C 220.012,145.945 223.012,146.612 225.5,148.5C 221.988,149.055 218.988,148.388 216.5,146.5 Z"/></g>
<g><path style="opacity:1" fill="#74b3eb" d="M 163.5,146.5 C 166.898,146.18 170.232,146.513 173.5,147.5C 173.291,148.086 172.957,148.586 172.5,149C 169.518,149.498 166.518,149.665 163.5,149.5C 163.5,148.5 163.5,147.5 163.5,146.5 Z"/></g>
<g><path style="opacity:1" fill="#1381f0" d="M 39.5,148.5 C 42.5,148.5 45.5,148.5 48.5,148.5C 48.1936,151.385 48.5269,154.052 49.5,156.5C 51.4419,158.391 53.2752,160.391 55,162.5C 56.1133,175.72 50.28,180.553 37.5,177C 36.1772,176.184 35.5106,175.017 35.5,173.5C 34.6561,169.901 34.3227,166.234 34.5,162.5C 35.0553,160.271 36.3886,158.605 38.5,157.5C 39.4841,154.572 39.8174,151.572 39.5,148.5 Z"/></g>
<g><path style="opacity:1" fill="#0d80f1" d="M 102.5,157.5 C 103.5,158.167 104.5,158.833 105.5,159.5C 106.373,163.768 106.706,168.102 106.5,172.5C 105.167,172.5 103.833,172.5 102.5,172.5C 102.5,173.833 102.5,175.167 102.5,176.5C 97.5698,176.966 92.9032,176.299 88.5,174.5C 84.242,168.358 84.9086,162.692 90.5,157.5C 90.8333,157.5 91.1667,157.5 91.5,157.5C 92.4924,149.684 92.8257,141.684 92.5,133.5C 95.5,133.5 98.5,133.5 101.5,133.5C 101.174,141.684 101.508,149.684 102.5,157.5 Z"/></g>
<g><path style="opacity:1" fill="#e6f7fe" d="M 104.5,77.5 C 105.167,103.5 105.833,129.5 106.5,155.5C 113.147,163.264 113.147,171.098 106.5,179C 91.1427,184.954 83.3094,179.788 83,163.5C 84.2587,160.644 85.7587,157.977 87.5,155.5C 87.8333,155.5 88.1667,155.5 88.5,155.5C 88.8333,155.5 89.1667,155.5 89.5,155.5C 87.9689,156.925 88.3023,157.591 90.5,157.5C 84.9086,162.692 84.242,168.358 88.5,174.5C 89.343,176.173 90.6763,177.34 92.5,178C 104.333,179.5 109.5,174.333 108,162.5C 107.623,161.058 106.79,160.058 105.5,159.5C 104.5,158.833 103.5,158.167 102.5,157.5C 102.5,149.167 102.5,140.833 102.5,132.5C 103.117,132.611 103.617,132.944 104,133.5C 104.5,114.836 104.667,96.1696 104.5,77.5 Z"/></g>
<g><path style="opacity:1" fill="#dbf1fe" d="M 195.5,79.5 C 195.828,105.408 195.495,131.241 194.5,157C 195.094,157.464 195.761,157.631 196.5,157.5C 189.592,164.593 189.925,171.426 197.5,178C 209.287,180.21 214.787,175.376 214,163.5C 212.669,161.004 210.836,159.004 208.5,157.5C 208.5,139.5 208.5,121.5 208.5,103.5C 209.332,120.995 209.832,138.662 210,156.5C 211.107,157.712 211.607,157.379 211.5,155.5C 214.471,157.443 216.471,160.109 217.5,163.5C 217.518,176.982 210.852,182.815 197.5,181C 187.948,175.093 185.948,167.26 191.5,157.5C 192.5,157.167 193.167,156.5 193.5,155.5C 194.167,130.167 194.833,104.833 195.5,79.5 Z"/></g>
<g><path style="opacity:1" fill="#1181ef" d="M 208.5,157.5 C 210.836,159.004 212.669,161.004 214,163.5C 214.787,175.376 209.287,180.21 197.5,178C 189.925,171.426 189.592,164.593 196.5,157.5C 197.167,157.5 197.5,157.167 197.5,156.5C 198.497,139.008 198.83,121.341 198.5,103.5C 201.5,103.5 204.5,103.5 207.5,103.5C 207.17,121.674 207.503,139.674 208.5,157.5 Z"/></g>
<g><path style="opacity:1" fill="#4c96e7" d="M 34.5,162.5 C 34.3227,166.234 34.6561,169.901 35.5,173.5C 33.4672,172.102 32.4672,170.102 32.5,167.5C 32.4357,165.443 33.1024,163.777 34.5,162.5 Z"/></g>
<g><path style="opacity:1" fill="#91c8f8" d="M 31.5,160.5 C 30.6758,163.764 30.3424,167.098 30.5,170.5C 29.3622,167.696 29.1955,164.696 30,161.5C 30.3826,160.944 30.8826,160.611 31.5,160.5 Z"/></g>
<g><path style="opacity:1" fill="#2d86e3" d="M 161.5,153.5 C 165.906,156.649 167.906,160.982 167.5,166.5C 165.441,183.201 156.441,188.701 140.5,183C 131.123,174.349 130.123,164.849 137.5,154.5C 138.333,128.84 138.833,103.173 139,77.5C 145.831,67.2715 153.164,66.9381 161,76.5C 161.5,102.165 161.667,127.831 161.5,153.5 Z"/></g>
<g><path style="opacity:1" fill="#e5f7fe" d="M 156.5,76.5 C 157.222,76.9175 157.722,77.5842 158,78.5C 158.168,104.337 158.668,130.003 159.5,155.5C 166.394,163.789 166.061,171.789 158.5,179.5C 148.705,184.11 141.371,181.777 136.5,172.5C 137.833,172.5 138.5,171.833 138.5,170.5C 140.954,174.888 144.621,177.555 149.5,178.5C 158.758,177.735 162.591,172.735 161,163.5C 159.71,161.208 158.043,159.208 156,157.5C 155.5,144.171 155.333,130.837 155.5,117.5C 152.167,117.5 148.833,117.5 145.5,117.5C 148.962,116.518 152.629,116.185 156.5,116.5C 156.5,103.167 156.5,89.8333 156.5,76.5 Z"/></g>
<g><path style="opacity:1" fill="#2485f0" d="M 145.5,117.5 C 148.833,117.5 152.167,117.5 155.5,117.5C 155.333,130.837 155.5,144.171 156,157.5C 158.043,159.208 159.71,161.208 161,163.5C 162.591,172.735 158.758,177.735 149.5,178.5C 144.621,177.555 140.954,174.888 138.5,170.5C 138.131,165.237 139.964,160.904 144,157.5C 144.169,143.994 144.669,130.66 145.5,117.5 Z"/></g>
<g><path style="opacity:1" fill="#8bc2f8" d="M 143.5,76.5 C 142.851,102.961 142.184,129.294 141.5,155.5C 141.333,129.498 141.5,103.498 142,77.5C 142.383,76.944 142.883,76.6107 143.5,76.5 Z"/></g>
<g><path style="opacity:1" fill="#0084fe" d="M 161.5,153.5 C 161.5,154.833 160.833,155.5 159.5,155.5C 159.333,129.831 159.5,104.165 160,78.5C 160.168,103.67 160.668,128.67 161.5,153.5 Z"/></g>
<g><path style="opacity:1" fill="#fafdfd" d="M 156.5,76.5 C 156.5,89.8333 156.5,103.167 156.5,116.5C 152.629,116.185 148.962,116.518 145.5,117.5C 144.669,130.66 144.169,143.994 144,157.5C 139.964,160.904 138.131,165.237 138.5,170.5C 138.5,171.833 137.833,172.5 136.5,172.5C 134.303,165.754 135.969,160.087 141.5,155.5C 142.184,129.294 142.851,102.961 143.5,76.5C 144.692,74.0777 146.692,73.0777 149.5,73.5C 152.501,73.1716 154.834,74.1716 156.5,76.5 Z"/></g>
<g><path style="opacity:1" fill="#338be9" d="M 86.5,77.5 C 86.1689,103.672 86.5022,129.672 87.5,155.5C 85.7587,157.977 84.2587,160.644 83,163.5C 83.3094,179.788 91.1427,184.954 106.5,179C 113.147,171.098 113.147,163.264 106.5,155.5C 107.833,155.5 108.5,154.833 108.5,153.5C 118.091,163.198 117.758,172.698 107.5,182C 101.017,186.213 94.3504,186.546 87.5,183C 80.436,177.477 77.936,170.31 80,161.5C 80.9305,158.638 82.5971,156.305 85,154.5C 85.1678,128.663 85.6678,102.997 86.5,77.5 Z"/></g>
<g><path style="opacity:1" fill="#3589e7" d="M 105.5,159.5 C 106.79,160.058 107.623,161.058 108,162.5C 109.5,174.333 104.333,179.5 92.5,178C 90.6763,177.34 89.343,176.173 88.5,174.5C 92.9032,176.299 97.5698,176.966 102.5,176.5C 102.5,175.167 102.5,173.833 102.5,172.5C 103.833,172.5 105.167,172.5 106.5,172.5C 106.706,168.102 106.373,163.768 105.5,159.5 Z"/></g>
<g><path style="opacity:1" fill="#348aea" d="M 191.5,154.5 C 190.375,155.652 190.375,156.652 191.5,157.5C 185.948,167.26 187.948,175.093 197.5,181C 210.852,182.815 217.518,176.982 217.5,163.5C 218.317,165.969 218.817,168.635 219,171.5C 219.402,170.128 219.902,168.795 220.5,167.5C 219.358,164.601 218.692,161.601 218.5,158.5C 223.152,167.457 221.485,175.29 213.5,182C 200.973,188.413 191.806,185.246 186,172.5C 184.734,166.405 185.734,160.738 189,155.5C 189.671,154.748 190.504,154.414 191.5,154.5 Z"/></g>
</svg>
