<?xml version="1.0" encoding="UTF-8"?>
<!DOCTYPE svg PUBLIC "-//W3C//DTD SVG 1.1//EN" "http://www.w3.org/Graphics/SVG/1.1/DTD/svg11.dtd">
<svg xmlns="http://www.w3.org/2000/svg" version="1.1" width="512px" height="512px" style="shape-rendering:geometricPrecision; text-rendering:geometricPrecision; image-rendering:optimizeQuality; fill-rule:evenodd; clip-rule:evenodd" xmlns:xlink="http://www.w3.org/1999/xlink">
<g><path style="opacity:0.967" fill="#000000" d="M 213.5,-0.5 C 221.5,-0.5 229.5,-0.5 237.5,-0.5C 266.426,6.25513 285.259,23.9218 294,52.5C 295.32,140.465 295.987,228.465 296,316.5C 328.053,344.644 340.72,379.978 334,422.5C 321.787,472.216 290.62,501.882 240.5,511.5C 230.5,511.5 220.5,511.5 210.5,511.5C 160.38,501.882 129.213,472.216 117,422.5C 110.28,379.978 122.947,344.644 155,316.5C 155.013,228.465 155.68,140.465 157,52.5C 165.741,23.9218 184.574,6.25513 213.5,-0.5 Z M 215.5,20.5 C 245.604,17.7943 265.104,30.7943 274,59.5C 275.307,148.481 275.974,237.481 276,326.5C 311.16,354.65 322.16,390.317 309,433.5C 293.07,469.733 265.236,489.067 225.5,491.5C 185.764,489.067 157.93,469.733 142,433.5C 128.84,390.317 139.84,354.65 175,326.5C 175.026,237.481 175.693,148.481 177,59.5C 182.683,39.3181 195.516,26.3181 215.5,20.5 Z"/></g>
<g><path style="opacity:0.979" fill="#000000" d="M 320.5,39.5 C 343.836,39.3334 367.169,39.5 390.5,40C 395.275,43.6551 396.775,48.4884 395,54.5C 393.833,56.3333 392.333,57.8333 390.5,59C 367.167,59.6667 343.833,59.6667 320.5,59C 315.725,55.3449 314.225,50.5116 316,44.5C 317.366,42.6383 318.866,40.9717 320.5,39.5 Z"/></g>
<g><path style="opacity:0.987" fill="#000000" d="M 220.5,59.5 C 226.52,58.2202 231.353,59.8868 235,64.5C 235.5,160.499 235.667,256.499 235.5,352.5C 256.735,357.234 269.902,370.234 275,391.5C 278.391,420.406 266.557,439.906 239.5,450C 215.129,455.438 195.962,447.938 182,427.5C 172.24,407.35 173.573,388.017 186,369.5C 193.771,360.224 203.604,354.557 215.5,352.5C 215.333,256.499 215.5,160.499 216,64.5C 217.366,62.6383 218.866,60.9717 220.5,59.5 Z"/></g>
<g><path style="opacity:0.972" fill="#000000" d="M 320.5,99.5 C 337.17,99.3334 353.837,99.5001 370.5,100C 375.275,103.655 376.775,108.488 375,114.5C 373.833,116.333 372.333,117.833 370.5,119C 353.833,119.667 337.167,119.667 320.5,119C 315.725,115.345 314.225,110.512 316,104.5C 317.366,102.638 318.866,100.972 320.5,99.5 Z"/></g>
<g><path style="opacity:0.979" fill="#000000" d="M 320.5,159.5 C 343.836,159.333 367.169,159.5 390.5,160C 395.275,163.655 396.775,168.488 395,174.5C 393.833,176.333 392.333,177.833 390.5,179C 367.167,179.667 343.833,179.667 320.5,179C 315.725,175.345 314.225,170.512 316,164.5C 317.366,162.638 318.866,160.972 320.5,159.5 Z"/></g>
<g><path style="opacity:0.972" fill="#000000" d="M 320.5,219.5 C 337.17,219.333 353.837,219.5 370.5,220C 375.275,223.655 376.775,228.488 375,234.5C 373.833,236.333 372.333,237.833 370.5,239C 353.833,239.667 337.167,239.667 320.5,239C 315.725,235.345 314.225,230.512 316,224.5C 317.366,222.638 318.866,220.972 320.5,219.5 Z"/></g>
<g><path style="opacity:0.979" fill="#000000" d="M 320.5,279.5 C 343.836,279.333 367.169,279.5 390.5,280C 395.275,283.655 396.775,288.488 395,294.5C 393.833,296.333 392.333,297.833 390.5,299C 367.167,299.667 343.833,299.667 320.5,299C 315.725,295.345 314.225,290.512 316,284.5C 317.366,282.638 318.866,280.972 320.5,279.5 Z"/></g>
</svg>
