<?xml version="1.0" encoding="UTF-8"?>
<!DOCTYPE svg PUBLIC "-//W3C//DTD SVG 1.1//EN" "http://www.w3.org/Graphics/SVG/1.1/DTD/svg11.dtd">
<svg xmlns="http://www.w3.org/2000/svg" version="1.1" width="256px" height="256px" style="shape-rendering:geometricPrecision; text-rendering:geometricPrecision; image-rendering:optimizeQuality; fill-rule:evenodd; clip-rule:evenodd" xmlns:xlink="http://www.w3.org/1999/xlink">
<g><path style="opacity:1" fill="#fefefe" d="M -0.5,-0.5 C 84.8333,-0.5 170.167,-0.5 255.5,-0.5C 255.5,84.8333 255.5,170.167 255.5,255.5C 170.167,255.5 84.8333,255.5 -0.5,255.5C -0.5,170.167 -0.5,84.8333 -0.5,-0.5 Z"/></g>
<g><path style="opacity:1" fill="#1c83ef" d="M 130.5,24.5 C 131.345,27.8264 131.845,31.1597 132,34.5C 131.667,34.8333 131.333,35.1667 131,35.5C 130.581,34.3279 129.915,33.3279 129,32.5C 127.21,40.3513 126.21,40.018 126,31.5C 125.617,30.944 125.117,30.6107 124.5,30.5C 118.25,20.7757 111.083,20.1091 103,28.5C 99.9596,39.4039 104.126,45.4039 115.5,46.5C 117.575,46.6984 119.575,46.8651 121.5,47C 120.549,46.2825 120.383,45.4491 121,44.5C 123,43.1667 124.667,41.5 126,39.5C 126.617,40.4491 126.451,41.2825 125.5,42C 127.863,42.5885 128.863,44.0885 128.5,46.5C 127.972,47.7206 127.305,48.8873 126.5,50C 123.929,50.9009 121.596,52.2342 119.5,54C 116.854,54.4974 114.187,54.6641 111.5,54.5C 110.19,59.7434 109.524,65.0767 109.5,70.5C 122.667,72.845 134.167,78.5117 144,87.5C 148.51,83.9883 152.676,80.1549 156.5,76C 151.06,67.3046 149.06,57.8046 150.5,47.5C 149.192,46.7677 147.858,45.9344 146.5,45C 141.579,43.5639 136.579,42.2305 131.5,41C 132.552,39.2835 131.886,38.2835 129.5,38C 131.594,36.6485 133.927,36.1485 136.5,36.5C 142.059,37.1212 147.559,38.1212 153,39.5C 157.267,35.827 161.434,31.9937 165.5,28C 176.193,22.8651 187.193,22.1985 198.5,26C 201.887,29.0535 205.553,31.7202 209.5,34C 218.293,45.8878 219.793,58.7211 214,72.5C 211.667,75.5 209.333,78.5 207,81.5C 204.174,83.8293 201.008,85.4959 197.5,86.5C 195.092,85.9387 192.759,85.4387 190.5,85C 191.973,85.7096 192.64,86.8762 192.5,88.5C 186.5,88.5 180.5,88.5 174.5,88.5C 173.127,88.6567 171.793,88.49 170.5,88C 168.067,86.3676 165.567,84.8676 163,83.5C 159.643,86.1049 156.143,88.6049 152.5,91C 150.859,92.129 149.859,93.629 149.5,95.5C 149.539,96.5832 149.873,97.5832 150.5,98.5C 149.975,99.1924 149.308,99.6924 148.5,100C 149.973,100.71 150.64,101.876 150.5,103.5C 153.5,103.167 154.833,104.5 154.5,107.5C 153.178,107.67 152.011,107.337 151,106.5C 150.692,107.308 150.192,107.975 149.5,108.5C 148.943,106.668 147.943,105.335 146.5,104.5C 143.833,101.5 141.167,98.5 138.5,95.5C 137.5,92.5 135.5,90.5 132.5,89.5C 105.115,72.3419 80.2815,75.3419 58,98.5C 45.8336,114.604 43.167,132.271 50,151.5C 61.1324,175.438 79.9657,186.772 106.5,185.5C 109.193,185.428 111.86,185.095 114.5,184.5C 116.369,185.068 118.203,185.734 120,186.5C 120.833,186.167 121.667,185.833 122.5,185.5C 121.271,184.719 119.938,184.219 118.5,184C 122.347,181.493 126.514,179.66 131,178.5C 131.945,178.905 132.612,179.572 133,180.5C 133.333,178.5 133.667,176.5 134,174.5C 137.442,171.568 140.275,168.235 142.5,164.5C 147.235,157.372 150.568,149.705 152.5,141.5C 153.82,138.572 154.486,135.239 154.5,131.5C 154.662,126.372 153.995,121.372 152.5,116.5C 153.697,113.911 154.697,111.244 155.5,108.5C 156.358,110.901 157.691,112.901 159.5,114.5C 165.852,145.108 156.185,169.108 130.5,186.5C 128.421,186.971 126.421,187.637 124.5,188.5C 116.215,191.006 107.715,192.339 99,192.5C 93.4737,192.393 87.9737,192.059 82.5,191.5C 64.7747,186.622 51.608,175.955 43,159.5C 30.6956,129.111 36.8623,103.278 61.5,82C 64.7271,79.8882 68.0604,78.0549 71.5,76.5C 73.9674,76.2451 75.9674,75.2451 77.5,73.5C 80.1522,73.5905 82.4855,72.9238 84.5,71.5C 89.5985,70.1403 94.7652,69.1403 100,68.5C 101.415,63.3449 102.581,58.1783 103.5,53C 94.023,46.5267 90.8563,37.6933 94,26.5C 102.778,13.1256 113.945,10.9589 127.5,20C 129.141,21.129 130.141,22.629 130.5,24.5 Z"/></g>
<g><path style="opacity:1" fill="#6caef2" d="M 197.5,35.5 C 200.833,36.8333 203.167,39.1667 204.5,42.5C 201.833,40.5 199.5,38.1667 197.5,35.5 Z"/></g>
<g><path style="opacity:1" fill="#348aea" d="M 130.5,24.5 C 133.055,27.6269 134.055,31.2935 133.5,35.5C 134.791,35.2627 135.791,35.596 136.5,36.5C 133.927,36.1485 131.594,36.6485 129.5,38C 131.886,38.2835 132.552,39.2835 131.5,41C 136.579,42.2305 141.579,43.5639 146.5,45C 147.858,45.9344 149.192,46.7677 150.5,47.5C 144.639,46.3607 138.806,45.0274 133,43.5C 131.107,44.0077 129.607,45.0077 128.5,46.5C 128.863,44.0885 127.863,42.5885 125.5,42C 126.451,41.2825 126.617,40.4491 126,39.5C 124.667,41.5 123,43.1667 121,44.5C 120.383,45.4491 120.549,46.2825 121.5,47C 119.575,46.8651 117.575,46.6984 115.5,46.5C 122.631,43.5771 125.631,38.2438 124.5,30.5C 125.117,30.6107 125.617,30.944 126,31.5C 126.21,40.018 127.21,40.3513 129,32.5C 129.915,33.3279 130.581,34.3279 131,35.5C 131.333,35.1667 131.667,34.8333 132,34.5C 131.845,31.1597 131.345,27.8264 130.5,24.5 Z"/></g>
<g><path style="opacity:1" fill="#fbfdfe" d="M 197.5,35.5 C 199.5,38.1667 201.833,40.5 204.5,42.5C 205.338,42.8417 205.672,43.5084 205.5,44.5C 205.427,46.0269 206.094,47.0269 207.5,47.5C 211.005,62.3206 206.005,73.1539 192.5,80C 173.312,84.1511 162.312,76.4844 159.5,57C 159.667,54.8333 159.833,52.6667 160,50.5C 161.319,48.7128 162.152,46.7128 162.5,44.5C 164.587,43.4154 165.92,41.7488 166.5,39.5C 168.63,37.8729 170.63,36.0396 172.5,34C 181.058,31.6206 189.391,32.1206 197.5,35.5 Z"/></g>
<g><path style="opacity:1" fill="#f7fcfd" d="M 124.5,30.5 C 125.631,38.2438 122.631,43.5771 115.5,46.5C 104.126,45.4039 99.9596,39.4039 103,28.5C 111.083,20.1091 118.25,20.7757 124.5,30.5 Z"/></g>
<g><path style="opacity:1" fill="#9eccf7" d="M 166.5,39.5 C 165.92,41.7488 164.587,43.4154 162.5,44.5C 163.08,42.2512 164.413,40.5846 166.5,39.5 Z"/></g>
<g><path style="opacity:1" fill="#f9fcfd" d="M 150.5,47.5 C 149.06,57.8046 151.06,67.3046 156.5,76C 152.676,80.1549 148.51,83.9883 144,87.5C 134.167,78.5117 122.667,72.845 109.5,70.5C 109.524,65.0767 110.19,59.7434 111.5,54.5C 114.187,54.6641 116.854,54.4974 119.5,54C 121.596,52.2342 123.929,50.9009 126.5,50C 127.305,48.8873 127.972,47.7206 128.5,46.5C 129.607,45.0077 131.107,44.0077 133,43.5C 138.806,45.0274 144.639,46.3607 150.5,47.5 Z"/></g>
<g><path style="opacity:1" fill="#78b2ea" d="M 205.5,44.5 C 206.906,44.9731 207.573,45.9731 207.5,47.5C 206.094,47.0269 205.427,46.0269 205.5,44.5 Z"/></g>
<g><path style="opacity:1" fill="#5ea2e8" d="M 84.5,71.5 C 82.4855,72.9238 80.1522,73.5905 77.5,73.5C 79.5145,72.0762 81.8478,71.4095 84.5,71.5 Z"/></g>
<g><path style="opacity:1" fill="#62a5eb" d="M 77.5,73.5 C 75.9674,75.2451 73.9674,76.2451 71.5,76.5C 73.0326,74.7549 75.0326,73.7549 77.5,73.5 Z"/></g>
<g><path style="opacity:1" fill="#fbfdfe" d="M 132.5,89.5 C 134.167,91.8333 136.167,93.8333 138.5,95.5C 141.167,98.5 143.833,101.5 146.5,104.5C 151.911,116.184 153.911,128.518 152.5,141.5C 150.568,149.705 147.235,157.372 142.5,164.5C 137.626,169.541 132.292,174.041 126.5,178C 120.04,181.412 113.373,183.912 106.5,185.5C 79.9657,186.772 61.1324,175.438 50,151.5C 43.167,132.271 45.8336,114.604 58,98.5C 80.2815,75.3419 105.115,72.3419 132.5,89.5 Z"/></g>
<g><path style="opacity:1" fill="#4a91e5" d="M 197.5,86.5 C 195.615,88.3115 193.281,89.4782 190.5,90C 186.167,90.6667 181.833,90.6667 177.5,90C 176.263,89.7679 175.263,89.2679 174.5,88.5C 180.5,88.5 186.5,88.5 192.5,88.5C 192.64,86.8762 191.973,85.7096 190.5,85C 192.759,85.4387 195.092,85.9387 197.5,86.5 Z"/></g>
<g><path style="opacity:1" fill="#67abf2" d="M 132.5,89.5 C 135.5,90.5 137.5,92.5 138.5,95.5C 136.167,93.8333 134.167,91.8333 132.5,89.5 Z"/></g>
<g><path style="opacity:1" fill="#398bea" d="M 149.5,95.5 C 152.737,97.6304 154.737,100.63 155.5,104.5C 155.427,106.027 156.094,107.027 157.5,107.5C 158.167,109.833 158.833,112.167 159.5,114.5C 157.691,112.901 156.358,110.901 155.5,108.5C 154.697,111.244 153.697,113.911 152.5,116.5C 153.995,121.372 154.662,126.372 154.5,131.5C 154.486,135.239 153.82,138.572 152.5,141.5C 153.911,128.518 151.911,116.184 146.5,104.5C 147.943,105.335 148.943,106.668 149.5,108.5C 150.192,107.975 150.692,107.308 151,106.5C 152.011,107.337 153.178,107.67 154.5,107.5C 154.833,104.5 153.5,103.167 150.5,103.5C 150.64,101.876 149.973,100.71 148.5,100C 149.308,99.6924 149.975,99.1924 150.5,98.5C 149.873,97.5832 149.539,96.5832 149.5,95.5 Z"/></g>
<g><path style="opacity:1" fill="#8ec8fa" d="M 155.5,104.5 C 156.906,104.973 157.573,105.973 157.5,107.5C 156.094,107.027 155.427,106.027 155.5,104.5 Z"/></g>
<g><path style="opacity:1" fill="#65a4dd" d="M 79.5,121.5 C 71.3159,121.174 63.3159,121.508 55.5,122.5C 55.5,123.5 55.5,124.5 55.5,125.5C 54.5489,124.081 54.2155,122.415 54.5,120.5C 63.0168,120.174 71.3501,120.507 79.5,121.5 Z"/></g>
<g><path style="opacity:1" fill="#0680f4" d="M 55.5,122.5 C 63.5277,122.169 71.5277,122.502 79.5,123.5C 75.3525,124.167 71.3525,124.834 67.5,125.5C 67.5,131.5 67.5,137.5 67.5,143.5C 65.8333,143.5 64.1667,143.5 62.5,143.5C 62.8229,137.31 62.4896,131.31 61.5,125.5C 59.5,125.5 57.5,125.5 55.5,125.5C 55.5,124.5 55.5,123.5 55.5,122.5 Z"/></g>
<g><path style="opacity:1" fill="#3f90ec" d="M 120.5,138.5 C 121.244,133.298 120.077,128.631 117,124.5C 116.823,128.356 116.323,132.023 115.5,135.5C 116.862,126.01 113.362,123.343 105,127.5C 104.502,130.482 104.335,133.482 104.5,136.5C 103.756,133.64 103.089,130.64 102.5,127.5C 103.798,124.798 103.131,124.131 100.5,125.5C 101.031,123.376 102.365,121.876 104.5,121C 118.145,119.473 123.479,125.306 120.5,138.5 Z"/></g>
<g><path style="opacity:1" fill="#5198e4" d="M 130.5,121.5 C 134.712,120.003 138.879,120.336 143,122.5C 143.436,124.296 142.769,125.629 141,126.5C 138.566,125.678 136.066,125.344 133.5,125.5C 136.028,124.834 138.694,124.168 141.5,123.5C 137.973,122.079 134.306,121.412 130.5,121.5 Z"/></g>
<g><path style="opacity:1" fill="#70b0ed" d="M 124.5,128.5 C 124.46,131.881 124.793,135.214 125.5,138.5C 124.028,136.883 123.361,134.883 123.5,132.5C 123.511,130.955 123.844,129.622 124.5,128.5 Z"/></g>
<g><path style="opacity:1" fill="#7bb6ec" d="M 61.5,125.5 C 62.4896,131.31 62.8229,137.31 62.5,143.5C 64.1667,143.5 65.8333,143.5 67.5,143.5C 67.5,137.5 67.5,131.5 67.5,125.5C 67.8333,125.5 68.1667,125.5 68.5,125.5C 68.5,131.833 68.5,138.167 68.5,144.5C 66.1667,144.5 63.8333,144.5 61.5,144.5C 61.5,138.167 61.5,131.833 61.5,125.5 Z"/></g>
<g><path style="opacity:1" fill="#3087eb" d="M 68.5,125.5 C 68.1667,125.5 67.8333,125.5 67.5,125.5C 71.3525,124.834 75.3525,124.167 79.5,123.5C 71.5277,122.502 63.5277,122.169 55.5,122.5C 63.3159,121.508 71.3159,121.174 79.5,121.5C 81.8223,126.108 84.1557,130.775 86.5,135.5C 88.6638,130.876 90.8304,126.209 93,121.5C 95.1385,120.231 97.3052,120.231 99.5,121.5C 95.3403,128.818 92.007,136.485 89.5,144.5C 87.396,144.799 85.396,144.466 83.5,143.5C 80.9453,137.561 78.2786,131.728 75.5,126C 73.1902,125.503 70.8568,125.337 68.5,125.5 Z"/></g>
<g><path style="opacity:1" fill="#2584eb" d="M 104.5,136.5 C 108.643,141.978 112.31,141.645 115.5,135.5C 116.323,132.023 116.823,128.356 117,124.5C 120.077,128.631 121.244,133.298 120.5,138.5C 115.765,144.504 109.765,146.004 102.5,143C 98.6271,138.215 97.4605,132.715 99,126.5C 99.3826,125.944 99.8826,125.611 100.5,125.5C 103.131,124.131 103.798,124.798 102.5,127.5C 103.089,130.64 103.756,133.64 104.5,136.5 Z"/></g>
<g><path style="opacity:1" fill="#edf9fc" d="M 115.5,135.5 C 112.31,141.645 108.643,141.978 104.5,136.5C 104.335,133.482 104.502,130.482 105,127.5C 113.362,123.343 116.862,126.01 115.5,135.5 Z"/></g>
<g><path style="opacity:1" fill="#62a5e9" d="M 141.5,143.5 C 141.5,142.5 141.5,141.5 141.5,140.5C 138.615,140.806 135.948,140.473 133.5,139.5C 136.249,139.726 138.916,139.393 141.5,138.5C 143.984,140.369 143.984,142.036 141.5,143.5 Z"/></g>
<g><path style="opacity:1" fill="#2384ed" d="M 130.5,121.5 C 134.306,121.412 137.973,122.079 141.5,123.5C 138.694,124.168 136.028,124.834 133.5,125.5C 130.74,126.425 129.407,128.425 129.5,131.5C 129.264,135.029 130.597,137.695 133.5,139.5C 135.948,140.473 138.615,140.806 141.5,140.5C 141.5,141.5 141.5,142.5 141.5,143.5C 137.888,144.511 134.221,144.678 130.5,144C 127.944,142.945 126.277,141.112 125.5,138.5C 124.793,135.214 124.46,131.881 124.5,128.5C 125.064,124.936 127.064,122.603 130.5,121.5 Z"/></g>
<g><path style="opacity:1" fill="#388deb" d="M 142.5,164.5 C 140.275,168.235 137.442,171.568 134,174.5C 133.667,176.5 133.333,178.5 133,180.5C 132.612,179.572 131.945,178.905 131,178.5C 126.514,179.66 122.347,181.493 118.5,184C 119.938,184.219 121.271,184.719 122.5,185.5C 121.667,185.833 120.833,186.167 120,186.5C 118.203,185.734 116.369,185.068 114.5,184.5C 111.86,185.095 109.193,185.428 106.5,185.5C 113.373,183.912 120.04,181.412 126.5,178C 132.292,174.041 137.626,169.541 142.5,164.5 Z"/></g>
<g><path style="opacity:1" fill="#a8d7fb" d="M 130.5,186.5 C 128.967,188.245 126.967,189.245 124.5,189.5C 124.5,189.167 124.5,188.833 124.5,188.5C 126.421,187.637 128.421,186.971 130.5,186.5 Z"/></g>
<g><path style="opacity:1" fill="#408ce1" d="M 124.5,188.5 C 124.5,188.833 124.5,189.167 124.5,189.5C 113.285,194.148 101.618,195.648 89.5,194C 86.8958,193.61 84.5625,192.776 82.5,191.5C 87.9737,192.059 93.4737,192.393 99,192.5C 107.715,192.339 116.215,191.006 124.5,188.5 Z"/></g>
</svg>
