<?xml version="1.0" standalone="no"?>
<!DOCTYPE svg PUBLIC "-//W3C//DTD SVG 20010904//EN"
 "http://www.w3.org/TR/2001/REC-SVG-20010904/DTD/svg10.dtd">
<svg version="1.0" xmlns="http://www.w3.org/2000/svg"
 width="512.000000pt" height="492.000000pt" viewBox="0 0 512.000000 492.000000"
 preserveAspectRatio="xMidYMid meet">
<metadata>
Created by potrace 1.16, written by Peter Selinger 2001-2019
</metadata>
<g transform="translate(0.000000,492.000000) scale(0.100000,-0.100000)"
fill="#000000" stroke="none">
<path d="M1312 4605 c-71 -64 -73 -85 -17 -201 133 -275 205 -543 205 -764 0
-209 -58 -446 -199 -807 -28 -72 -71 -185 -96 -250 -26 -65 -53 -132 -60 -149
-36 -78 -146 -429 -164 -524 -55 -286 -56 -598 -1 -870 20 -97 69 -260 95
-317 8 -17 15 -34 15 -38 0 -15 104 -223 137 -275 68 -104 113 -140 178 -140
28 0 44 9 85 48 66 63 67 94 8 189 -190 310 -293 750 -259 1108 24 247 83 465
225 835 21 52 43 109 50 125 8 17 17 41 21 55 4 14 13 39 21 55 55 122 158
418 189 545 78 315 68 619 -31 919 -35 107 -39 116 -93 234 -17 37 -31 70 -31
73 0 3 -18 37 -41 75 -45 78 -98 119 -153 119 -26 0 -45 -10 -84 -45z"/>
<path d="M2535 4631 c-50 -30 -85 -78 -85 -117 0 -21 20 -77 51 -142 67 -143
65 -137 93 -217 32 -90 72 -249 87 -345 18 -116 6 -342 -25 -474 -38 -161
-129 -437 -186 -561 -5 -11 -34 -85 -65 -165 -230 -595 -269 -759 -270 -1130
0 -239 12 -345 56 -520 38 -147 61 -212 132 -370 30 -67 113 -210 144 -248 41
-50 79 -72 126 -72 27 0 46 10 86 46 47 42 51 49 51 90 0 36 -8 57 -39 103
-89 131 -182 376 -226 596 -61 303 -46 601 46 925 27 94 135 404 159 455 16
33 127 318 135 345 4 14 13 39 21 55 27 62 113 333 128 405 46 232 46 463 0
689 -17 82 -81 280 -95 296 -5 5 -9 15 -9 21 0 12 -48 120 -97 219 -58 117
-143 162 -218 116z"/>
<path d="M3724 4631 c-44 -27 -84 -82 -84 -117 0 -16 15 -60 34 -99 18 -38 40
-86 49 -105 8 -19 24 -55 35 -80 31 -69 79 -233 103 -350 43 -211 23 -452 -58
-715 -33 -107 -151 -429 -187 -510 -8 -16 -17 -41 -21 -55 -4 -14 -15 -43 -25
-65 -41 -92 -152 -412 -179 -517 -48 -182 -64 -318 -65 -543 0 -281 35 -493
120 -716 121 -319 237 -489 334 -489 62 0 150 82 150 140 0 12 -22 59 -50 104
-27 45 -65 118 -85 162 -20 43 -40 87 -45 96 -17 31 -79 256 -102 370 -19 97
-23 144 -23 328 0 230 13 323 71 535 37 131 131 402 175 500 5 11 31 79 59
150 218 556 259 732 247 1055 -4 96 -14 192 -27 252 -43 203 -186 554 -259
631 -54 59 -112 72 -167 38z"/>
</g>
</svg>
