<?xml version="1.0" encoding="UTF-8"?>
<!DOCTYPE svg PUBLIC "-//W3C//DTD SVG 1.1//EN" "http://www.w3.org/Graphics/SVG/1.1/DTD/svg11.dtd">
<svg xmlns="http://www.w3.org/2000/svg" version="1.1" width="512px" height="512px" style="shape-rendering:geometricPrecision; text-rendering:geometricPrecision; image-rendering:optimizeQuality; fill-rule:evenodd; clip-rule:evenodd" xmlns:xlink="http://www.w3.org/1999/xlink">
<g><path style="opacity:0.988" fill="#047ff2" d="M 248.5,-0.5 C 261.833,-0.5 275.167,-0.5 288.5,-0.5C 356.189,8.58154 408.689,41.5815 446,98.5C 473.637,146.963 480.637,198.296 467,252.5C 462.841,266.482 457.841,280.149 452,293.5C 440.511,317.147 428.511,340.48 416,363.5C 406.19,391.629 401.19,420.629 401,450.5C 400.18,470.906 400.346,491.24 401.5,511.5C 329.5,511.5 257.5,511.5 185.5,511.5C 185.333,499.495 185.5,487.495 186,475.5C 187.072,471.427 189.572,468.593 193.5,467C 207.833,466.667 222.167,466.333 236.5,466C 244.604,462.014 245.271,457.014 238.5,451C 202.833,450.667 167.167,450.333 131.5,450C 113.013,448.181 101.18,438.347 96,420.5C 95.6667,395.167 95.3333,369.833 95,344.5C 94.8333,339 92,336.167 86.5,336C 72.5,335.667 58.5,335.333 44.5,335C 39.9643,332.965 37.6309,329.465 37.5,324.5C 49.9674,285.931 62.134,247.264 74,208.5C 75.1577,204.203 76.1577,199.869 77,195.5C 79.5479,124.88 109.381,69.38 166.5,29C 191.779,13.182 219.112,3.34864 248.5,-0.5 Z M 273.5,42.5 C 277.548,42.4411 280.715,44.1078 283,47.5C 283.667,52.8333 283.667,58.1667 283,63.5C 277.074,70.3092 272.074,69.6426 268,61.5C 267.174,56.4107 267.508,51.4107 269,46.5C 270.397,44.9297 271.897,43.5964 273.5,42.5 Z M 371.5,84.5 C 379.569,83.0726 383.402,86.406 383,94.5C 379.998,103.522 373.831,107.689 364.5,107C 360.965,104.293 359.798,100.793 361,96.5C 364.336,92.3322 367.836,88.3322 371.5,84.5 Z M 172.5,85.5 C 174.857,85.3367 177.19,85.5034 179.5,86C 184.365,89.8486 188.031,94.5153 190.5,100C 190.385,101.895 189.718,103.562 188.5,105C 185.262,106.368 181.928,106.701 178.5,106C 175.667,103.167 172.833,100.333 170,97.5C 167.511,92.7565 168.345,88.7565 172.5,85.5 Z M 244.5,90.5 C 256.972,89.9836 267.305,94.317 275.5,103.5C 292.44,87.0257 309.94,86.3591 328,101.5C 331.663,105.834 334.496,110.667 336.5,116C 364.826,123 375.826,140.666 369.5,169C 382.419,181.115 385.919,195.615 380,212.5C 376.947,220.218 371.781,226.052 364.5,230C 367.533,246.571 361.866,259.238 347.5,268C 343.354,269.937 339.021,271.271 334.5,272C 322.639,293.287 305.639,298.954 283.5,289C 280.354,286.688 277.354,284.188 274.5,281.5C 256.737,298.788 238.903,298.788 221,281.5C 218.71,278.42 216.543,275.253 214.5,272C 195.939,268.772 185.606,257.772 183.5,239C 184.073,235.824 184.24,232.657 184,229.5C 165.914,215.176 162.581,197.842 174,177.5C 176.312,174.354 178.812,171.354 181.5,168.5C 176.409,140.356 187.743,122.69 215.5,115.5C 220.602,101.722 230.269,93.3888 244.5,90.5 Z M 131.5,184.5 C 137.762,183.872 143.762,184.705 149.5,187C 152.824,192.689 151.491,197.022 145.5,200C 140.051,200.896 134.718,200.563 129.5,199C 124.324,193.472 124.991,188.639 131.5,184.5 Z M 404.5,184.5 C 410.762,183.872 416.762,184.705 422.5,187C 425.824,192.689 424.491,197.022 418.5,200C 413.051,200.896 407.718,200.563 402.5,199C 398.128,193.408 398.794,188.575 404.5,184.5 Z M 179.5,277.5 C 187.108,276.609 190.608,279.942 190,287.5C 186.574,295.954 180.408,299.787 171.5,299C 167.875,296.794 166.708,293.627 168,289.5C 171.364,284.971 175.197,280.971 179.5,277.5 Z M 366.5,278.5 C 375.625,278.94 381.625,283.606 384.5,292.5C 382.432,298.868 378.098,301.035 371.5,299C 368.051,296.518 364.884,293.685 362,290.5C 360.699,288.635 360.365,286.635 361,284.5C 362.725,282.391 364.558,280.391 366.5,278.5 Z M 274.5,316.5 C 281.792,317.8 284.792,322.133 283.5,329.5C 284.931,336.394 282.265,340.728 275.5,342.5C 269.167,340.569 266.501,336.236 267.5,329.5C 266.671,323.23 269.004,318.897 274.5,316.5 Z"/></g>
<g><path style="opacity:0.957" fill="#047ff2" d="M 299.5,106.5 C 307.777,105.972 314.111,109.139 318.5,116C 318.355,116.772 318.022,117.439 317.5,118C 309.443,120.237 303.777,125.07 300.5,132.5C 301.811,138.643 305.477,140.809 311.5,139C 314.813,137.032 318.146,135.032 321.5,133C 335.438,128.532 346.271,132.366 354,144.5C 358.14,156.274 355.807,166.607 347,175.5C 345.899,181.311 348.232,184.644 354,185.5C 356.981,185.343 359.648,184.343 362,182.5C 368.526,191.004 369.193,200.004 364,209.5C 362.333,211.167 360.667,212.833 359,214.5C 352.218,206.859 343.718,202.526 333.5,201.5C 325.097,202.642 322.763,206.976 326.5,214.5C 327.5,215.333 328.5,216.167 329.5,217C 349.041,219.876 354.874,230.376 347,248.5C 344.282,251.875 340.949,253.208 337,252.5C 335.888,244.106 332.054,237.273 325.5,232C 319.371,230.561 315.704,232.894 314.5,239C 317.114,243.727 319.614,248.56 322,253.5C 323.107,266.902 316.941,274.569 303.5,276.5C 293.009,275.508 286.842,269.841 285,259.5C 284.333,213.167 284.333,166.833 285,120.5C 287.097,112.901 291.931,108.234 299.5,106.5 Z"/></g>
<g><path style="opacity:0.964" fill="#047ff2" d="M 245.5,107.5 C 255.689,107.339 262.522,112.005 266,121.5C 266.667,169.5 266.667,217.5 266,265.5C 259.979,279.287 250.146,282.787 236.5,276C 229.915,270.643 227.749,263.809 230,255.5C 232.484,251.01 234.984,246.51 237.5,242C 233.976,233.496 228.81,232.33 222,238.5C 217.974,244.24 215.307,250.574 214,257.5C 200.921,251.265 197.588,241.598 204,228.5C 208.821,222.841 214.988,220.007 222.5,220C 228.799,214.81 228.799,209.477 222.5,204C 214.716,202.221 207.383,203.555 200.5,208C 197.984,210.683 195.317,213.183 192.5,215.5C 184.619,209.012 181.786,200.679 184,190.5C 184.516,187.966 185.683,185.8 187.5,184C 189.201,183.655 190.534,184.322 191.5,186C 198.041,187.565 202.375,185.232 204.5,179C 202.093,174.254 199.26,169.754 196,165.5C 191.749,151.911 195.582,141.411 207.5,134C 218.665,130.471 228.665,132.471 237.5,140C 246.808,142.262 250.641,138.762 249,129.5C 243.948,124.388 238.115,120.388 231.5,117.5C 234.819,112.167 239.486,108.834 245.5,107.5 Z"/></g>
</svg>
