<?xml version="1.0" encoding="UTF-8"?>
<!DOCTYPE svg PUBLIC "-//W3C//DTD SVG 1.1//EN" "http://www.w3.org/Graphics/SVG/1.1/DTD/svg11.dtd">
<svg xmlns="http://www.w3.org/2000/svg" version="1.1" width="512px" height="512px" style="shape-rendering:geometricPrecision; text-rendering:geometricPrecision; image-rendering:optimizeQuality; fill-rule:evenodd; clip-rule:evenodd" xmlns:xlink="http://www.w3.org/1999/xlink">
<g><path style="opacity:0.557" fill="#047ff2" d="M 216.5,1.5 C 220.514,1.33449 224.514,1.50115 228.5,2C 232.754,5.51874 232.42,9.51874 227.5,14C 227.833,14.3333 228.167,14.6667 228.5,15C 224.514,15.4988 220.514,15.6655 216.5,15.5C 216.5,14.5 216.5,13.5 216.5,12.5C 215.5,12.5 214.5,12.5 213.5,12.5C 213.5,9.16667 213.5,5.83333 213.5,2.5C 214.791,2.73731 215.791,2.40397 216.5,1.5 Z"/></g>
<g><path style="opacity:0.649" fill="#047ff2" d="M 257.5,12.5 C 260.5,12.5 263.5,12.5 266.5,12.5C 266.5,14.1667 266.5,15.8333 266.5,17.5C 274.187,16.6901 277.687,20.0234 277,27.5C 275.601,28.2266 274.101,28.7266 272.5,29C 274.344,31.8037 275.011,34.9703 274.5,38.5C 270.889,38.9559 267.556,38.2892 264.5,36.5C 264.251,37.5821 264.085,38.9154 264,40.5C 261.045,40.3218 257.879,40.3218 254.5,40.5C 253.373,37.1906 253.373,33.8573 254.5,30.5C 252.833,30.5 251.167,30.5 249.5,30.5C 249.5,27.1667 249.5,23.8333 249.5,20.5C 252.187,20.6641 254.854,20.4974 257.5,20C 256.221,17.5024 256.221,15.0024 257.5,12.5 Z"/></g>
<g><path style="opacity:0.643" fill="#047ff2" d="M 161.5,25.5 C 164.187,25.3359 166.854,25.5026 169.5,26C 169.167,26.3333 168.833,26.6667 168.5,27C 170.804,27.8952 173.138,28.7285 175.5,29.5C 179.927,34.202 179.26,38.0353 173.5,41C 174.76,43.2125 175.426,45.7125 175.5,48.5C 175.333,50.8333 175.167,53.1667 175,55.5C 173.167,57 171.333,58.5 169.5,60C 169.833,60.3333 170.167,60.6667 170.5,61C 163.476,64.2298 156.476,64.2298 149.5,61C 149.833,60.6667 150.167,60.3333 150.5,60C 146.21,56.8247 144.21,52.4914 144.5,47C 144.808,42.6424 145.808,38.4758 147.5,34.5C 148.325,33.6143 149.325,33.281 150.5,33.5C 150.5,32.5 150.5,31.5 150.5,30.5C 153.487,29.7422 156.487,28.9089 159.5,28C 160.756,27.5831 161.423,26.7498 161.5,25.5 Z"/></g>
<g><path style="opacity:0.67" fill="#047ff2" d="M 207.5,26.5 C 208.251,25.4265 209.251,25.2599 210.5,26C 210.167,26.3333 209.833,26.6667 209.5,27C 211.895,27.6813 214.228,28.5147 216.5,29.5C 217.853,30.5237 218.52,31.857 218.5,33.5C 219.5,33.5 220.5,33.5 221.5,33.5C 221.665,37.1817 221.499,40.8484 221,44.5C 220.667,44.1667 220.333,43.8333 220,43.5C 218.991,45.0249 218.491,46.6916 218.5,48.5C 215.415,49.3932 212.248,50.0599 209,50.5C 205.927,50.5195 203.093,49.8528 200.5,48.5C 199.398,44.228 197.731,40.8947 195.5,38.5C 197.984,36.4643 198.984,33.7977 198.5,30.5C 202.282,29.4169 205.282,28.0836 207.5,26.5 Z"/></g>
<g><path style="opacity:0.651" fill="#047ff2" d="M 230.5,48.5 C 234.046,49.6061 237.379,51.2728 240.5,53.5C 241.492,57.7828 241.826,62.1161 241.5,66.5C 235.5,69.1667 229.5,69.1667 223.5,66.5C 223.429,63.6887 222.762,61.022 221.5,58.5C 222.612,56.6096 223.446,54.6096 224,52.5C 224.333,52.8333 224.667,53.1667 225,53.5C 227.165,52.0875 228.999,50.4208 230.5,48.5 Z"/></g>
<g><path style="opacity:0.63" fill="#047ff2" d="M 124.5,71.5 C 128.969,71.4579 133.302,72.1245 137.5,73.5C 138.853,76.0935 139.519,78.9268 139.5,82C 139.035,84.6033 138.368,87.1033 137.5,89.5C 134.945,90.4133 132.279,91.08 129.5,91.5C 126.434,90.9544 123.434,90.2877 120.5,89.5C 120.5,84.1667 120.5,78.8333 120.5,73.5C 122.483,73.8432 123.817,73.1765 124.5,71.5 Z"/></g>
<g><path style="opacity:0.628" fill="#047ff2" d="M 260.5,74.5 C 262.966,73.3659 265.633,73.1993 268.5,74C 269.249,75.7337 269.749,77.567 270,79.5C 272.76,77.4515 275.927,76.4515 279.5,76.5C 283.777,76.275 287.11,76.9417 289.5,78.5C 289.5,79.5 289.5,80.5 289.5,81.5C 290.5,81.5 291.5,81.5 292.5,81.5C 293.22,84.9581 293.887,88.4581 294.5,92C 294.635,95.042 293.969,97.8753 292.5,100.5C 291.675,101.386 290.675,101.719 289.5,101.5C 289.5,102.5 289.5,103.5 289.5,104.5C 285.967,105.943 282.301,107.11 278.5,108C 279.706,109.018 279.373,109.518 277.5,109.5C 275.627,109.518 275.294,109.018 276.5,108C 272.368,107.014 268.368,105.847 264.5,104.5C 264.167,101.5 262.5,99.8333 259.5,99.5C 259.849,96.9552 259.016,94.9552 257,93.5C 256.172,88.798 256.338,84.1313 257.5,79.5C 258.747,77.9556 260.08,76.4556 261.5,75C 261.272,74.6012 260.938,74.4346 260.5,74.5 Z"/></g>
<g><path style="opacity:0.807" fill="#047ff2" d="M 208.5,76.5 C 213.179,76.3342 217.845,76.5008 222.5,77C 222.167,77.3333 221.833,77.6667 221.5,78C 224.5,78.3333 227.5,78.6667 230.5,79C 229.167,79.6667 229.167,80.3333 230.5,81C 232.167,81.3333 233.833,81.6667 235.5,82C 235.167,82.3333 234.833,82.6667 234.5,83C 236.757,84.4498 239.09,85.6165 241.5,86.5C 241.833,89.5 243.5,91.1667 246.5,91.5C 248.41,94.1384 249.743,97.4717 250.5,101.5C 251.902,111.921 251.569,122.254 249.5,132.5C 248.5,132.5 247.5,132.5 246.5,132.5C 246.5,134.167 246.5,135.833 246.5,137.5C 243.5,137.833 241.833,139.5 241.5,142.5C 237.87,144.315 234.203,146.148 230.5,148C 229.167,148.667 229.167,149.333 230.5,150C 225.485,150.725 220.485,151.559 215.5,152.5C 210.515,151.559 205.515,150.725 200.5,150C 201.833,149.333 201.833,148.667 200.5,148C 196.505,146.003 192.505,144.003 188.5,142C 188.833,141.667 189.167,141.333 189.5,141C 186.91,138.996 184.91,136.496 183.5,133.5C 182.675,132.614 181.675,132.281 180.5,132.5C 179.703,126.535 179.037,120.535 178.5,114.5C 179.037,108.465 179.703,102.465 180.5,96.5C 181.5,96.5 182.5,96.5 183.5,96.5C 184.801,92.8922 186.468,89.5588 188.5,86.5C 192.26,84.2876 196.26,82.621 200.5,81.5C 200.5,80.5 200.5,79.5 200.5,78.5C 203.698,79.0356 206.365,78.369 208.5,76.5 Z M 216.5,86.5 C 219.833,86.5 223.167,86.5 226.5,86.5C 228.919,95.3182 225.919,98.3182 217.5,95.5C 217.023,94.5224 216.357,93.6891 215.5,93C 216.423,90.9592 216.756,88.7925 216.5,86.5 Z M 191.5,104.5 C 192.833,104.5 194.167,104.5 195.5,104.5C 195.338,106.527 195.505,108.527 196,110.5C 196.561,111.022 197.228,111.355 198,111.5C 202.782,108.23 204.615,109.23 203.5,114.5C 201.833,114.5 200.167,114.5 198.5,114.5C 198.5,116.167 198.5,117.833 198.5,119.5C 200.484,119.383 202.15,120.05 203.5,121.5C 202.667,121.833 201.833,122.167 201,122.5C 198.815,120.892 196.315,119.892 193.5,119.5C 193.74,123.527 192.074,124.861 188.5,123.5C 190.26,120.788 190.927,117.788 190.5,114.5C 188.396,114.799 186.396,114.466 184.5,113.5C 184.667,113.167 184.833,112.833 185,112.5C 187.719,111.556 190.552,111.223 193.5,111.5C 193.77,108.143 193.104,105.809 191.5,104.5 Z"/></g>
<g><path style="opacity:0.686" fill="#047ff2" d="M 144.5,109.5 C 150.01,109.17 155.343,109.836 160.5,111.5C 162.501,116.692 162.834,122.026 161.5,127.5C 159.833,128.667 158.167,129.833 156.5,131C 156.833,131.333 157.167,131.667 157.5,132C 153.459,132.827 149.459,132.66 145.5,131.5C 144.017,129.344 142.017,128.01 139.5,127.5C 139.174,123.116 139.508,118.783 140.5,114.5C 141.953,112.815 143.286,111.149 144.5,109.5 Z"/></g>
<g><path style="opacity:0.917" fill="#047ff2" d="M 276.5,145.5 C 286.752,146.909 297.086,147.742 307.5,148C 306.366,149.016 306.699,149.683 308.5,150C 313.833,151 319.167,152 324.5,153C 324.167,153.333 323.833,153.667 323.5,154C 331.13,156.584 338.464,159.584 345.5,163C 344.167,163.667 344.167,164.333 345.5,165C 347.652,166.413 349.986,167.246 352.5,167.5C 352.5,168.5 352.5,169.5 352.5,170.5C 358.842,173.236 364.176,177.402 368.5,183C 369.9,184.438 371.567,185.271 373.5,185.5C 373.151,188.045 373.984,190.045 376,191.5C 376.5,198.158 376.666,204.825 376.5,211.5C 375.5,211.5 374.5,211.5 373.5,211.5C 373.5,213.167 373.5,214.833 373.5,216.5C 371.567,216.729 369.9,217.562 368.5,219C 367.167,219.667 367.167,220.333 368.5,221C 365.291,222.403 361.958,223.403 358.5,224C 357.167,224.667 357.167,225.333 358.5,226C 356.667,226.167 354.833,226.333 353,226.5C 347.69,224.553 342.19,222.72 336.5,221C 337.833,220.333 337.833,219.667 336.5,219C 335.1,217.562 333.433,216.729 331.5,216.5C 331.5,215.5 331.5,214.5 331.5,213.5C 329.5,212.833 327.5,212.167 325.5,211.5C 325.5,210.5 325.5,209.5 325.5,208.5C 324.127,208.657 322.793,208.49 321.5,208C 321.833,207.667 322.167,207.333 322.5,207C 319.377,205.14 316.043,203.807 312.5,203C 313.833,202.333 313.833,201.667 312.5,201C 307.588,199.575 302.588,198.575 297.5,198C 298.833,197.333 298.833,196.667 297.5,196C 291.509,195.501 285.509,195.334 279.5,195.5C 279.151,198.045 279.984,200.045 282,201.5C 283.318,206.433 284.151,211.433 284.5,216.5C 285.5,216.5 286.5,216.5 287.5,216.5C 287.704,219.545 287.704,222.379 287.5,225C 288.991,227.718 290.324,230.551 291.5,233.5C 292.452,238.148 293.786,242.648 295.5,247C 294.396,248.131 294.729,248.965 296.5,249.5C 298.299,254.36 299.299,259.36 299.5,264.5C 300.5,264.5 301.5,264.5 302.5,264.5C 302.187,267.247 302.52,269.914 303.5,272.5C 305.729,274.099 306.062,276.099 304.5,278.5C 305.242,279.287 306.075,279.953 307,280.5C 307.27,283.224 307.77,285.891 308.5,288.5C 309.376,289.251 310.376,289.751 311.5,290C 310.167,290.667 310.167,291.333 311.5,292C 313.5,293 315.5,294 317.5,295C 316.167,295.667 316.167,296.333 317.5,297C 318.9,298.438 320.567,299.271 322.5,299.5C 322.5,300.5 322.5,301.5 322.5,302.5C 323.5,302.5 324.5,302.5 325.5,302.5C 325.833,305.5 327.5,307.167 330.5,307.5C 330.833,310.5 332.5,312.167 335.5,312.5C 335.833,315.5 337.5,317.167 340.5,317.5C 340.833,320.5 342.5,322.167 345.5,322.5C 348.338,329.002 352.338,334.668 357.5,339.5C 362.04,346.81 366.707,353.976 371.5,361C 371.043,361.414 370.709,361.914 370.5,362.5C 372.698,365.094 373.698,368.094 373.5,371.5C 374.5,371.5 375.5,371.5 376.5,371.5C 377.393,377.137 378.226,382.804 379,388.5C 379.414,388.957 379.914,389.291 380.5,389.5C 384.632,415.889 387.965,442.555 390.5,469.5C 392.761,484.186 386.761,493.019 372.5,496C 371.167,496.667 371.167,497.333 372.5,498C 369.167,498.667 365.833,498.667 362.5,498C 363.833,497.333 363.833,496.667 362.5,496C 357.437,494.84 352.771,492.84 348.5,490C 348.833,489.667 349.167,489.333 349.5,489C 346.985,486.735 345.318,483.902 344.5,480.5C 340.721,458.158 336.888,435.825 333,413.5C 332.24,409.775 332.407,406.108 333.5,402.5C 331.097,398.155 330.097,393.488 330.5,388.5C 329.5,388.5 328.5,388.5 327.5,388.5C 327.33,387.178 327.663,386.011 328.5,385C 326.082,381.977 324.082,378.644 322.5,375C 316.761,366.345 310.427,358.178 303.5,350.5C 303.167,351 302.833,351.5 302.5,352C 303.283,353.95 304.283,355.783 305.5,357.5C 304.475,359.576 304.809,361.576 306.5,363.5C 307.48,366.086 307.813,368.753 307.5,371.5C 308.5,371.5 309.5,371.5 310.5,371.5C 311.873,381.348 312.873,391.348 313.5,401.5C 313.011,410.262 311.844,418.929 310,427.5C 309.333,426.167 308.667,426.167 308,427.5C 307.66,431.442 306.493,435.109 304.5,438.5C 304.709,439.086 305.043,439.586 305.5,440C 300.649,445.531 297.983,452.031 297.5,459.5C 296.5,459.5 295.5,459.5 294.5,459.5C 294.441,463.046 293.608,466.379 292,469.5C 289.153,475.802 285.653,481.635 281.5,487C 281.833,487.333 282.167,487.667 282.5,488C 278.527,492.105 275.694,496.938 274,502.5C 271.98,504.235 269.813,505.735 267.5,507C 267.833,507.333 268.167,507.667 268.5,508C 259.562,509.548 250.562,509.881 241.5,509C 240.027,508.29 239.36,507.124 239.5,505.5C 236.5,505.167 234.833,503.5 234.5,500.5C 233.5,500.5 232.5,500.5 231.5,500.5C 231.702,498.011 231.202,495.677 230,493.5C 229.667,493.833 229.333,494.167 229,494.5C 228.501,489.845 228.334,485.179 228.5,480.5C 229.5,480.5 230.5,480.5 231.5,480.5C 231.215,478.712 231.548,477.045 232.5,475.5C 238.079,465.197 243.412,454.864 248.5,444.5C 250.11,441.316 251.11,437.983 251.5,434.5C 252.5,434.5 253.5,434.5 254.5,434.5C 257.384,427.666 259.717,419.333 261.5,409.5C 262.5,409.5 263.5,409.5 264.5,409.5C 264.5,403.5 264.5,397.5 264.5,391.5C 263.5,391.5 262.5,391.5 261.5,391.5C 261.092,385.465 260.426,379.465 259.5,373.5C 258.5,373.5 257.5,373.5 256.5,373.5C 255.993,368.474 255.326,363.474 254.5,358.5C 253.5,358.5 252.5,358.5 251.5,358.5C 249.655,349.011 247.321,339.678 244.5,330.5C 243.5,330.5 242.5,330.5 241.5,330.5C 241.216,328.123 241.216,325.956 241.5,324C 239.573,321.711 238.239,319.544 237.5,317.5C 233.654,304.033 229.654,290.7 225.5,277.5C 224.914,277.291 224.414,276.957 224,276.5C 222.682,271.567 221.849,266.567 221.5,261.5C 220.5,261.5 219.5,261.5 218.5,261.5C 217.808,255.733 216.642,250.067 215,244.5C 214.667,244.833 214.333,245.167 214,245.5C 213.564,240.707 212.564,236.04 211,231.5C 208.907,234.044 207.907,237.044 208,240.5C 206.984,239.366 206.317,239.699 206,241.5C 205.921,245.358 205.254,249.024 204,252.5C 204.715,259.355 205.381,266.355 206,273.5C 206.414,273.957 206.914,274.291 207.5,274.5C 209.753,280.869 211.753,286.869 213.5,292.5C 214.5,292.5 215.5,292.5 216.5,292.5C 216.5,299.167 216.5,305.833 216.5,312.5C 215.5,312.5 214.5,312.5 213.5,312.5C 213.5,314.167 213.5,315.833 213.5,317.5C 212.5,317.5 211.5,317.5 210.5,317.5C 210.5,318.5 210.5,319.5 210.5,320.5C 206.043,323.713 201.043,325.88 195.5,327C 185.346,327.647 177.346,323.814 171.5,315.5C 170.548,313.955 170.215,312.288 170.5,310.5C 169.5,310.5 168.5,310.5 167.5,310.5C 166.833,306.833 166.167,303.167 165.5,299.5C 164.5,299.5 163.5,299.5 162.5,299.5C 161.384,290.078 159.217,281.078 156,272.5C 154.928,258.033 155.595,243.699 158,229.5C 160.506,225.254 162.173,220.588 163,215.5C 163.667,216.833 164.333,216.833 165,215.5C 166.702,210.671 168.702,206.004 171,201.5C 174.251,198.128 177.084,194.461 179.5,190.5C 180.524,189.147 181.857,188.48 183.5,188.5C 186.01,184.947 188.51,181.28 191,177.5C 191.333,177.833 191.667,178.167 192,178.5C 193.167,176.667 194.667,175.167 196.5,174C 196.167,173.667 195.833,173.333 195.5,173C 197.42,171.878 199.42,171.044 201.5,170.5C 201.5,169.5 201.5,168.5 201.5,167.5C 204.014,167.246 206.348,166.413 208.5,165C 209.833,164.333 209.833,163.667 208.5,163C 212.791,161.822 217.124,160.822 221.5,160C 222.833,159.333 222.833,158.667 221.5,158C 226.533,157.158 231.533,156.158 236.5,155C 237.833,154.333 237.833,153.667 236.5,153C 242.873,151.823 249.206,150.49 255.5,149C 255.167,148.667 254.833,148.333 254.5,148C 261.167,147.667 267.833,147.333 274.5,147C 275.416,146.722 276.082,146.222 276.5,145.5 Z"/></g>
<g><path style="opacity:0.004" fill="#047ff2" d="M 314.5,397.5 C 315.634,399.966 315.801,402.633 315,405.5C 314.503,402.854 314.336,400.187 314.5,397.5 Z"/></g>
</svg>
