<?xml version="1.0" encoding="UTF-8"?>
<!DOCTYPE svg PUBLIC "-//W3C//DTD SVG 1.1//EN" "http://www.w3.org/Graphics/SVG/1.1/DTD/svg11.dtd">
<svg xmlns="http://www.w3.org/2000/svg" version="1.1" width="512px" height="512px" style="shape-rendering:geometricPrecision; text-rendering:geometricPrecision; image-rendering:optimizeQuality; fill-rule:evenodd; clip-rule:evenodd" xmlns:xlink="http://www.w3.org/1999/xlink">
<g><path style="opacity:0.973" fill="#047ff2" d="M 244.5,14.5 C 272.169,14.3334 299.835,14.5 327.5,15C 329.049,16.214 330.215,17.714 331,19.5C 331.928,26.9402 331.594,34.2735 330,41.5C 328.786,43.0488 327.286,44.2155 325.5,45C 317.507,45.4997 309.507,45.6664 301.5,45.5C 301.5,52.5 301.5,59.5 301.5,66.5C 312.172,66.3335 322.839,66.5002 333.5,67C 339.891,68.3903 344.058,72.2236 346,78.5C 346.5,87.1603 346.666,95.8269 346.5,104.5C 353.5,104.5 360.5,104.5 367.5,104.5C 367.334,96.8261 367.5,89.1594 368,81.5C 368.406,78.5056 369.906,76.339 372.5,75C 379.833,74.3333 387.167,74.3333 394.5,75C 397.094,76.339 398.594,78.5056 399,81.5C 399.667,107.167 399.667,132.833 399,158.5C 398.594,161.494 397.094,163.661 394.5,165C 387.167,165.667 379.833,165.667 372.5,165C 369.906,163.661 368.406,161.494 368,158.5C 367.5,150.841 367.334,143.174 367.5,135.5C 360.5,135.5 353.5,135.5 346.5,135.5C 346.666,144.173 346.5,152.84 346,161.5C 344.092,167.74 339.925,171.573 333.5,173C 301.833,173.667 270.167,173.667 238.5,173C 230.667,171.833 226.167,167.333 225,159.5C 224.5,151.507 224.334,143.507 224.5,135.5C 217.5,135.5 210.5,135.5 203.5,135.5C 203.914,144.582 203.414,153.582 202,162.5C 201.097,163.701 199.931,164.535 198.5,165C 191.167,165.667 183.833,165.667 176.5,165C 175.333,163.833 174.167,162.667 173,161.5C 172.333,133.833 172.333,106.167 173,78.5C 174.167,77.3333 175.333,76.1667 176.5,75C 183.833,74.3333 191.167,74.3333 198.5,75C 199.931,75.4652 201.097,76.2986 202,77.5C 203.414,86.4178 203.914,95.4178 203.5,104.5C 210.5,104.5 217.5,104.5 224.5,104.5C 224.334,96.4931 224.5,88.4931 225,80.5C 226.049,73.1177 230.216,68.6177 237.5,67C 248.495,66.5002 259.495,66.3335 270.5,66.5C 270.5,59.5 270.5,52.5 270.5,45.5C 262.493,45.6664 254.493,45.4997 246.5,45C 244.152,44.6541 242.319,43.4875 241,41.5C 239,33.5 239,25.5 241,17.5C 242.145,16.3636 243.312,15.3636 244.5,14.5 Z"/></g>
<g><path style="opacity:0.98" fill="#047ff2" d="M 511.5,332.5 C 511.5,366.5 511.5,400.5 511.5,434.5C 509.181,439.64 505.181,442.806 499.5,444C 485.837,444.5 472.171,444.667 458.5,444.5C 454.885,403.052 432.385,380.385 391,376.5C 349.62,380.38 327.12,403.047 323.5,444.5C 270.5,444.5 217.5,444.5 164.5,444.5C 162.437,409.866 144.771,387.699 111.5,378C 76.0792,372.958 50.5792,386.458 35,418.5C 31.759,426.871 30.259,435.537 30.5,444.5C 24.1579,444.666 17.8246,444.5 11.5,444C 5.81949,442.806 1.81949,439.64 -0.5,434.5C -0.5,405.5 -0.5,376.5 -0.5,347.5C 1.95285,341.924 6.28619,338.758 12.5,338C 42.892,333.825 73.2254,329.325 103.5,324.5C 128.312,294.52 153.312,264.687 178.5,235C 180.087,234.138 181.754,233.471 183.5,233C 249.167,232.333 314.833,232.333 380.5,233C 383.242,234.07 385.742,235.57 388,237.5C 406.709,265.753 425.543,293.919 444.5,322C 462.833,322.333 481.167,322.667 499.5,323C 505.181,324.194 509.181,327.36 511.5,332.5 Z M 195.5,263.5 C 252.834,263.333 310.168,263.5 367.5,264C 380.748,283.161 393.748,302.494 406.5,322C 319.833,322.667 233.167,322.667 146.5,322C 162.668,302.334 179.002,282.834 195.5,263.5 Z"/></g>
<g><path style="opacity:0.962" fill="#047ff2" d="M 90.5,390.5 C 122.628,389.482 142.461,404.482 150,435.5C 152.192,467.288 138.025,487.455 107.5,496C 74.7279,499.208 53.8945,485.041 45,453.5C 42.3466,419.356 57.5132,398.356 90.5,390.5 Z M 93.5,421.5 C 110.672,421.837 119.172,430.504 119,447.5C 115.025,461.249 105.858,467.082 91.5,465C 79.2421,460.391 74.0754,451.558 76,438.5C 79.1095,429.889 84.9428,424.222 93.5,421.5 Z"/></g>
<g><path style="opacity:0.962" fill="#047ff2" d="M 384.5,390.5 C 417.916,389.778 437.749,405.778 444,438.5C 444.725,468.763 430.559,487.93 401.5,496C 369.555,499.353 348.721,485.853 339,455.5C 334.709,426.912 345.542,406.412 371.5,394C 375.919,392.648 380.252,391.481 384.5,390.5 Z M 387.5,421.5 C 402.521,421.342 411.188,428.675 413.5,443.5C 409.061,463.386 397.395,469.552 378.5,462C 365.06,449.243 365.394,436.909 379.5,425C 382.158,423.522 384.825,422.355 387.5,421.5 Z"/></g>
</svg>
