<?xml version="1.0" encoding="UTF-8"?>
<!DOCTYPE svg PUBLIC "-//W3C//DTD SVG 1.1//EN" "http://www.w3.org/Graphics/SVG/1.1/DTD/svg11.dtd">
<svg xmlns="http://www.w3.org/2000/svg" version="1.1" width="512px" height="512px" style="shape-rendering:geometricPrecision; text-rendering:geometricPrecision; image-rendering:optimizeQuality; fill-rule:evenodd; clip-rule:evenodd" xmlns:xlink="http://www.w3.org/1999/xlink">
<g><path style="opacity:0.967" fill="#047ff2" d="M 262.5,54.5 C 286.306,54.307 299.973,65.9736 303.5,89.5C 301.211,110.956 289.377,122.956 268,125.5C 241.348,121.512 230.014,106.178 234,79.5C 238.74,65.585 248.24,57.2517 262.5,54.5 Z"/></g>
<g><path style="opacity:0.971" fill="#047ff2" d="M 100.5,57.5 C 131.413,60.6795 145.247,77.6795 142,108.5C 135.93,128.24 122.597,138.573 102,139.5C 77.1697,137.336 63.6697,123.836 61.5,99C 63.7769,74.8944 76.7769,61.0611 100.5,57.5 Z"/></g>
<g><path style="opacity:0.969" fill="#047ff2" d="M 511.5,165.5 C 511.5,167.167 511.5,168.833 511.5,170.5C 499.568,168.962 487.568,168.129 475.5,168C 471.495,167.153 468.495,164.986 466.5,161.5C 462.498,164.6 459.331,163.933 457,159.5C 438.995,177.28 419.495,179.114 398.5,165C 382.628,149.697 379.128,131.864 388,111.5C 400.479,92.8514 417.645,86.3514 439.5,92C 457.764,100.268 467.264,114.435 468,134.5C 473.019,132.35 475.519,134.016 475.5,139.5C 486.35,138.669 495.183,142.669 502,151.5C 505.437,156.059 508.604,160.726 511.5,165.5 Z"/></g>
<g><path style="opacity:0.973" fill="#047ff2" d="M -0.5,280.5 C -0.5,268.167 -0.5,255.833 -0.5,243.5C 0.329895,234.342 0.829895,225.009 1,215.5C 1.25029,212.246 2.25029,209.246 4,206.5C 19.0437,189.125 33.7103,171.458 48,153.5C 53.4423,149.296 59.6089,146.963 66.5,146.5C 81.8089,147.998 97.1423,149.498 112.5,151C 115.446,151.806 118.112,153.139 120.5,155C 138.196,155.316 155.863,154.649 173.5,153C 189.918,145.806 206.585,139.306 223.5,133.5C 237.431,136.694 241.931,145.027 237,158.5C 235.5,160.667 233.667,162.5 231.5,164C 213.981,171.395 196.314,178.395 178.5,185C 162.181,186.166 145.848,186.999 129.5,187.5C 126.259,222.464 123.759,257.464 122,292.5C 127.867,308.435 133.534,324.435 139,340.5C 141.415,371.813 143.582,403.147 145.5,434.5C 146.111,447.641 139.945,454.974 127,456.5C 118.683,456.499 112.683,452.832 109,445.5C 105.893,412.898 103.226,380.231 101,347.5C 93.9962,329.321 87.4962,310.987 81.5,292.5C 78.8333,292.5 76.1667,292.5 73.5,292.5C 76.1648,310.49 78.8315,328.49 81.5,346.5C 73.2933,379.326 64.46,411.993 55,444.5C 50.4764,454.016 42.9764,457.849 32.5,456C 21.1331,451.776 16.6331,443.609 19,431.5C 26.6667,403.5 34.3333,375.5 42,347.5C 40.3859,330.806 38.2192,314.139 35.5,297.5C 36.9772,293.465 38.8105,289.465 41,285.5C 41.8221,283.212 42.4888,280.878 43,278.5C 43.6452,258.472 44.6452,238.472 46,218.5C 49.9508,210.618 53.2841,202.618 56,194.5C 48.3333,203.833 40.6667,213.167 33,222.5C 32.2002,240.495 31.5335,258.495 31,276.5C 26.9382,289.945 18.4382,293.778 5.5,288C 2.87922,285.886 0.879222,283.386 -0.5,280.5 Z"/></g>
<g><path style="opacity:0.97" fill="#047ff2" d="M 402.5,184.5 C 417.837,184.333 433.17,184.5 448.5,185C 456.502,187.003 462.002,191.836 465,199.5C 470.008,245.566 475.675,291.566 482,337.5C 482.667,340.833 482.667,344.167 482,347.5C 481.5,348 481,348.5 480.5,349C 445.167,349.667 409.833,349.667 374.5,349C 374,348.5 373.5,348 373,347.5C 374.393,317.115 376.726,286.782 380,256.5C 381.648,257.717 383.481,258.55 385.5,259C 390.167,259.667 394.833,259.667 399.5,259C 412.514,250.828 425.18,242.161 437.5,233C 424.057,237.374 410.724,242.374 397.5,248C 395.645,248.422 393.811,248.922 392,249.5C 390.189,248.922 388.355,248.422 386.5,248C 371.833,238 357.167,228 342.5,218C 336.87,210.653 337.204,203.653 343.5,197C 347.741,195.543 352.074,195.209 356.5,196C 369,204.5 381.5,213 394,221.5C 405.816,216.671 417.65,211.838 429.5,207C 418.549,207.223 407.715,208.39 397,210.5C 392.195,207.521 387.695,204.187 383.5,200.5C 386.866,191.455 393.199,186.121 402.5,184.5 Z"/></g>
<g><path style="opacity:0.894" fill="#047ff2" d="M 320.5,214.5 C 323.247,214.187 325.914,214.52 328.5,215.5C 329.965,219.602 332.299,223.102 335.5,226C 344.993,232.913 354.659,239.58 364.5,246C 349.036,244.757 333.703,242.423 318.5,239C 311.286,233.904 309.786,227.404 314,219.5C 315.965,217.45 318.132,215.783 320.5,214.5 Z"/></g>
<g><path style="opacity:0.964" fill="#047ff2" d="M 389.5,365.5 C 397.167,365.5 404.833,365.5 412.5,365.5C 412.333,390.836 412.5,416.169 413,441.5C 413.809,445.76 415.309,449.76 417.5,453.5C 415.058,455.864 412.058,456.864 408.5,456.5C 399.29,455.783 393.123,451.116 390,442.5C 389.5,416.835 389.333,391.169 389.5,365.5 Z"/></g>
<g><path style="opacity:0.966" fill="#047ff2" d="M 425.5,365.5 C 438.5,365.5 451.5,365.5 464.5,365.5C 464.954,391.543 464.454,417.543 463,443.5C 457.661,455.066 448.828,458.899 436.5,455C 431.011,452.532 427.511,448.365 426,442.5C 425.5,416.835 425.333,391.169 425.5,365.5 Z"/></g>
</svg>
