<?xml version="1.0" encoding="UTF-8"?>
<!DOCTYPE svg PUBLIC "-//W3C//DTD SVG 1.1//EN" "http://www.w3.org/Graphics/SVG/1.1/DTD/svg11.dtd">
<svg xmlns="http://www.w3.org/2000/svg" version="1.1" width="512px" height="512px" style="shape-rendering:geometricPrecision; text-rendering:geometricPrecision; image-rendering:optimizeQuality; fill-rule:evenodd; clip-rule:evenodd" xmlns:xlink="http://www.w3.org/1999/xlink">
<g><path style="opacity:0.988" fill="#047ff2" d="M 171.5,-0.5 C 172.5,-0.5 173.5,-0.5 174.5,-0.5C 230.21,60.0867 276.377,127.42 313,201.5C 314.136,204.096 314.969,206.763 315.5,209.5C 261.426,227.741 225.592,264.075 208,318.5C 191.219,385.638 208.052,442.638 258.5,489.5C 237.525,501.27 215.192,508.603 191.5,511.5C 179.167,511.5 166.833,511.5 154.5,511.5C 91.5795,502.399 45.4129,469.733 16,413.5C 7.7208,395.178 2.2208,376.178 -0.5,356.5C -0.5,343.167 -0.5,329.833 -0.5,316.5C 4.23985,279.096 14.4065,243.096 30,208.5C 58.8609,147.039 94.8609,90.3724 138,38.5C 149.002,25.3331 160.169,12.3331 171.5,-0.5 Z M 23.5,329.5 C 29.0858,328.271 32.9191,330.271 35,335.5C 37.1257,393.893 63.959,436.393 115.5,463C 134.621,471.291 154.621,475.625 175.5,476C 182.232,479.772 183.232,484.772 178.5,491C 125.057,492.862 81.8908,472.696 49,430.5C 28.1477,401.941 18.1477,369.941 19,334.5C 20.025,332.313 21.525,330.646 23.5,329.5 Z"/></g>
<g><path style="opacity:0.978" fill="#047ff2" d="M 511.5,348.5 C 511.5,359.833 511.5,371.167 511.5,382.5C 498.167,455.167 455.167,498.167 382.5,511.5C 371.167,511.5 359.833,511.5 348.5,511.5C 284.269,501.111 242.436,464.778 223,402.5C 210.107,342.182 226.607,291.682 272.5,251C 320.472,215.446 372.139,209.113 427.5,232C 475.468,256.436 503.468,295.269 511.5,348.5 Z M 357.5,237.5 C 418.503,237.889 461.003,265.889 485,321.5C 490.689,336.678 493.022,352.345 492,368.5C 489.459,373.069 485.625,374.569 480.5,373C 478.274,371.773 476.774,369.939 476,367.5C 474.219,317.105 450.386,281.938 404.5,262C 353.768,246.136 311.268,258.302 277,298.5C 261.935,320.071 253.935,344.071 253,370.5C 243.505,376.047 238.339,373.214 237.5,362C 242.345,304.277 271.678,264.944 325.5,244C 336.111,240.848 346.778,238.681 357.5,237.5 Z M 362.5,274.5 C 367.28,273.641 370.78,275.308 373,279.5C 373.167,296.51 373.667,313.51 374.5,330.5C 396.414,338.995 404.581,354.662 399,377.5C 392.78,392.197 381.613,400.197 365.5,401.5C 338.004,397.512 326.504,381.845 331,354.5C 335.035,342.299 343.201,334.299 355.5,330.5C 356.333,313.843 356.833,297.177 357,280.5C 358.36,277.977 360.193,275.977 362.5,274.5 Z"/></g>
<g><path style="opacity:0.94" fill="#047ff2" d="M 360.5,346.5 C 377.65,346.15 385.15,354.483 383,371.5C 378.068,381.88 369.901,385.713 358.5,383C 345.978,376.03 343.145,366.196 350,353.5C 352.998,350.262 356.498,347.929 360.5,346.5 Z"/></g>
</svg>
