<?xml version="1.0" encoding="UTF-8"?>
<!DOCTYPE svg PUBLIC "-//W3C//DTD SVG 1.1//EN" "http://www.w3.org/Graphics/SVG/1.1/DTD/svg11.dtd">
<svg xmlns="http://www.w3.org/2000/svg" version="1.1" width="512px" height="512px" style="shape-rendering:geometricPrecision; text-rendering:geometricPrecision; image-rendering:optimizeQuality; fill-rule:evenodd; clip-rule:evenodd" xmlns:xlink="http://www.w3.org/1999/xlink">
<g><path style="opacity:0.992" fill="#047ff2" d="M 436.5,-0.5 C 461.5,-0.5 486.5,-0.5 511.5,-0.5C 511.5,170.167 511.5,340.833 511.5,511.5C 473.5,511.5 435.5,511.5 397.5,511.5C 397.333,485.831 397.5,460.165 398,434.5C 414.357,438.071 430.857,441.071 447.5,443.5C 481.317,439.846 502.15,421.513 510,388.5C 512.711,350.908 496.211,326.242 460.5,314.5C 460.167,315 459.833,315.5 459.5,316C 457.494,324.7 455.494,333.367 453.5,342C 480.403,353.033 487.903,371.866 476,398.5C 468.745,408.796 458.745,414.13 446,414.5C 398.097,405.386 350.263,395.886 302.5,386C 282.298,381.422 266.132,370.922 254,354.5C 247.99,342.465 243.823,329.799 241.5,316.5C 296.104,238.053 350.938,159.72 406,81.5C 421.406,56.1145 431.573,28.7812 436.5,-0.5 Z"/></g>
<g><path style="opacity:0.959" fill="#047ff2" d="M 131.5,295.5 C 154.103,293.217 170.936,301.883 182,321.5C 185.086,328.512 186.586,335.845 186.5,343.5C 176.167,343.5 165.833,343.5 155.5,343.5C 154.253,330.758 147.253,325.258 134.5,327C 129.667,329.167 126.167,332.667 124,337.5C 120.454,358.931 128.954,372.764 149.5,379C 174.498,379.5 199.498,379.667 224.5,379.5C 224.5,389.833 224.5,400.167 224.5,410.5C 196.796,410.948 169.13,410.448 141.5,409C 115.143,401.976 98.9763,385.143 93,358.5C 87.6388,325.821 100.472,304.821 131.5,295.5 Z"/></g>
<g><path style="opacity:0.96" fill="#047ff2" d="M -0.5,450.5 C -0.5,441.5 -0.5,432.5 -0.5,423.5C 8.022,396.886 26.3553,384.719 54.5,387C 79.367,393.038 92.367,408.871 93.5,434.5C 83.1667,434.5 72.8333,434.5 62.5,434.5C 61.9097,424.076 56.4097,418.41 46,417.5C 35.6432,419.196 30.1432,425.363 29.5,436C 29.9851,454.147 38.9851,465.48 56.5,470C 117.832,470.5 179.166,470.667 240.5,470.5C 240.5,480.833 240.5,491.167 240.5,501.5C 176.468,501.978 112.468,501.478 48.5,500C 22.2397,493.24 5.90642,476.74 -0.5,450.5 Z"/></g>
</svg>
