<?xml version="1.0" encoding="UTF-8"?>
<!DOCTYPE svg PUBLIC "-//W3C//DTD SVG 1.1//EN" "http://www.w3.org/Graphics/SVG/1.1/DTD/svg11.dtd">
<svg xmlns="http://www.w3.org/2000/svg" version="1.1" width="512px" height="512px" style="shape-rendering:geometricPrecision; text-rendering:geometricPrecision; image-rendering:optimizeQuality; fill-rule:evenodd; clip-rule:evenodd" xmlns:xlink="http://www.w3.org/1999/xlink">
<g><path style="opacity:0.951" fill="#047ff2" d="M 340.5,-0.5 C 349.167,-0.5 357.833,-0.5 366.5,-0.5C 394.737,5.99281 412.737,23.3261 420.5,51.5C 420.291,52.086 419.957,52.586 419.5,53C 421.123,56.6031 422.29,60.4365 423,64.5C 428.884,68.3582 435.051,71.8582 441.5,75C 456.26,88.1324 461.76,104.632 458,124.5C 453.198,142.971 441.532,154.971 423,160.5C 393.852,161.157 364.685,161.49 335.5,161.5C 305.462,161.647 275.462,161.147 245.5,160C 217.988,148.483 207.155,127.983 213,98.5C 216.528,89.3018 222.028,81.4685 229.5,75C 233.44,73.1135 236.94,70.6135 240,67.5C 242.787,57.89 247.953,49.89 255.5,43.5C 267.306,37.2317 279.972,34.5651 293.5,35.5C 304.295,17.0266 319.962,5.02664 340.5,-0.5 Z M 324.5,28.5 C 335.172,28.3335 345.839,28.5002 356.5,29C 362.248,31.607 364.082,35.7737 362,41.5C 355.91,49.3607 350.077,57.3607 344.5,65.5C 348.459,66.3265 352.459,66.8265 356.5,67C 365.612,72.2238 365.778,77.7238 357,83.5C 346.201,84.633 335.368,84.7996 324.5,84C 317.738,80.3782 316.238,75.2115 320,68.5C 325.665,61.8213 330.832,54.8213 335.5,47.5C 331.878,46.6747 328.211,46.1747 324.5,46C 315.216,40.0393 315.216,34.206 324.5,28.5 Z M 259.5,75.5 C 269.172,75.3335 278.839,75.5002 288.5,76C 296.081,79.0737 297.914,84.2404 294,91.5C 288.961,98.9375 283.461,105.938 277.5,112.5C 283.164,112.822 288.497,114.155 293.5,116.5C 297.484,120.806 297.484,125.139 293.5,129.5C 292.205,130.098 290.872,130.598 289.5,131C 278.833,131.667 268.167,131.667 257.5,131C 251.695,128.559 249.862,124.392 252,118.5C 257.678,111.128 263.345,103.795 269,96.5C 269.483,95.552 269.649,94.552 269.5,93.5C 265.486,93.6655 261.486,93.4988 257.5,93C 251.695,90.5587 249.862,86.392 252,80.5C 254.375,78.4796 256.875,76.8129 259.5,75.5 Z M 391.5,75.5 C 401.506,75.3335 411.506,75.5002 421.5,76C 429.296,79.2214 430.963,84.388 426.5,91.5C 420.946,98.2466 415.613,105.247 410.5,112.5C 415.634,113.175 420.634,114.342 425.5,116C 431.184,122.291 430.184,127.291 422.5,131C 411.833,131.667 401.167,131.667 390.5,131C 385.67,129.177 383.503,125.677 384,120.5C 390.22,111.346 396.386,102.346 402.5,93.5C 398.486,93.6655 394.486,93.4988 390.5,93C 384.695,90.5587 382.862,86.392 385,80.5C 387.027,78.5648 389.194,76.8981 391.5,75.5 Z"/></g>
<g><path style="opacity:0.979" fill="#047ff2" d="M 344.5,511.5 C 293.833,511.5 243.167,511.5 192.5,511.5C 192.333,493.164 192.5,474.83 193,456.5C 211.641,435.518 229.975,414.185 248,392.5C 249.968,382.136 245.801,378.303 235.5,381C 216.778,402.146 198.444,423.48 180.5,445C 157.833,445.667 135.167,445.667 112.5,445C 109.995,444.49 108.495,442.99 108,440.5C 107.918,431.092 107.251,421.759 106,412.5C 99.9675,406.802 94.3009,400.802 89,394.5C 88.9434,381.431 88.2767,368.431 87,355.5C 85.0358,353.568 82.8692,351.901 80.5,350.5C 71.334,346.084 62.334,341.418 53.5,336.5C 64.9616,312.583 76.4616,289.25 88,266.5C 81.9523,225.688 91.7856,190.021 117.5,159.5C 124.646,152.115 132.313,145.449 140.5,139.5C 156.336,130.392 173.336,124.725 191.5,122.5C 192.833,122.667 194.167,122.833 195.5,123C 198.135,141.394 207.135,156.227 222.5,167.5C 233.051,174.557 244.718,178.057 257.5,178C 259.059,178.98 260.726,179.813 262.5,180.5C 258.345,195.4 263.012,206.567 276.5,214C 298.802,220.022 311.802,211.688 315.5,189C 315.023,186.112 314.356,183.279 313.5,180.5C 322.5,179.167 331.5,179.167 340.5,180.5C 344.662,186.818 348.162,193.485 351,200.5C 352.274,205.712 354.107,210.712 356.5,215.5C 358.488,224.952 360.655,234.285 363,243.5C 364.56,267.809 364.894,292.142 364,316.5C 361.668,335.148 357.168,353.315 350.5,371C 347.898,377.141 344.731,382.974 341,388.5C 338.154,394.766 335.487,401.1 333,407.5C 331.348,416.657 330.182,425.824 329.5,435C 330,435.5 330.5,436 331,436.5C 335.287,461.557 339.787,486.557 344.5,511.5 Z M 228.5,218.5 C 246.403,219.242 256.403,228.409 258.5,246C 256.756,262.411 247.59,271.577 231,273.5C 214.736,271.736 205.569,262.736 203.5,246.5C 204.901,230.775 213.234,221.441 228.5,218.5 Z M 115.5,265.5 C 117.655,265.372 119.655,265.872 121.5,267C 124.667,270.347 127.334,274.014 129.5,278C 146.604,289.524 159.771,286.024 169,267.5C 176.311,264.338 181.144,266.672 183.5,274.5C 177.187,291.224 164.687,300.558 146,302.5C 127.305,301.256 114.805,291.923 108.5,274.5C 109.68,270.411 112.013,267.411 115.5,265.5 Z"/></g>
<g><path style="opacity:0.806" fill="#047ff2" d="M 283.5,179.5 C 294.542,178.044 299.376,182.711 298,193.5C 291.333,201.5 284.667,201.5 278,193.5C 276.025,187.177 277.858,182.51 283.5,179.5 Z"/></g>
<g><path style="opacity:0.82" fill="#047ff2" d="M 226.5,235.5 C 237.382,234.879 242.215,239.879 241,250.5C 234.487,258.415 228.153,258.415 222,250.5C 220.376,244.398 221.876,239.398 226.5,235.5 Z"/></g>
</svg>
