<?xml version="1.0" encoding="UTF-8"?>
<!DOCTYPE svg PUBLIC "-//W3C//DTD SVG 1.1//EN" "http://www.w3.org/Graphics/SVG/1.1/DTD/svg11.dtd">
<svg xmlns="http://www.w3.org/2000/svg" version="1.1" width="512px" height="512px" style="shape-rendering:geometricPrecision; text-rendering:geometricPrecision; image-rendering:optimizeQuality; fill-rule:evenodd; clip-rule:evenodd" xmlns:xlink="http://www.w3.org/1999/xlink">
<g><path style="opacity:0.948" fill="#047ff2" d="M -0.5,119.5 C -0.5,116.167 -0.5,112.833 -0.5,109.5C 3.47934,104.235 7.47934,98.9014 11.5,93.5C 16.0605,91.0151 20.7272,90.8484 25.5,93C 33.4609,99.3224 41.4609,105.656 49.5,112C 67.8896,118.309 78.8896,111.976 82.5,93C 77.0419,74.0599 72.2086,54.8932 68,35.5C 67.3333,32.1667 67.3333,28.8333 68,25.5C 68.4652,24.0692 69.2986,22.9025 70.5,22C 79.7627,16.5195 89.7627,14.5195 100.5,16C 102.317,17.7998 103.484,19.9664 104,22.5C 106.809,53.819 109.809,85.1523 113,116.5C 114.409,120.316 116.076,123.983 118,127.5C 125.877,135.042 133.377,142.876 140.5,151C 135.319,159.026 130.653,167.359 126.5,176C 112.333,173.834 98.1668,171.667 84,169.5C 78.315,170.035 72.6484,170.702 67,171.5C 66.1667,171.167 65.3333,170.833 64.5,170.5C 61.0537,163.108 56.7203,156.275 51.5,150C 37.2622,140.712 22.2622,132.712 6.5,126C 3.64238,124.306 1.30904,122.139 -0.5,119.5 Z"/></g>
<g><path style="opacity:0.914" fill="#047ff2" d="M 182.5,15.5 C 186.846,15.3343 191.179,15.501 195.5,16C 196.863,17.9449 197.697,20.1116 198,22.5C 201.156,50.3167 203.322,78.3167 204.5,106.5C 196.932,108.294 189.599,110.627 182.5,113.5C 178.555,86.3305 174.555,59.1638 170.5,32C 170.443,29.0403 170.943,26.207 172,23.5C 175.001,20.0296 178.501,17.3629 182.5,15.5 Z"/></g>
<g><path style="opacity:0.919" fill="#047ff2" d="M 246.5,15.5 C 249.85,15.335 253.183,15.5017 256.5,16C 260.659,19.2467 264.992,22.2467 269.5,25C 272.668,28.1748 274.002,32.0081 273.5,36.5C 273.399,40.9702 272.566,45.3036 271,49.5C 264.807,67.4246 258.974,85.4246 253.5,103.5C 246.304,102.126 239.137,101.793 232,102.5C 235.527,75.4814 239.527,48.4814 244,21.5C 244.573,19.3594 245.406,17.3594 246.5,15.5 Z"/></g>
<g><path style="opacity:0.901" fill="#047ff2" d="M 314.5,66.5 C 322.197,65.1094 328.364,67.4428 333,73.5C 333.667,76.5 333.667,79.5 333,82.5C 321.991,95.6725 310.825,108.672 299.5,121.5C 294.627,118.564 289.627,115.897 284.5,113.5C 283.386,112.277 283.219,110.944 284,109.5C 291.387,98.4373 298.387,87.1039 305,75.5C 307.406,71.5915 310.572,68.5915 314.5,66.5 Z"/></g>
<g><path style="opacity:0.956" fill="#047ff2" d="M 221.5,117.5 C 253.526,114.008 281.026,123.341 304,145.5C 304.483,146.448 304.649,147.448 304.5,148.5C 294.907,148.985 285.574,150.819 276.5,154C 263.105,160.083 250.772,167.749 239.5,177C 216.059,188.071 192.059,189.405 167.5,181C 159.989,178.083 153.322,173.917 147.5,168.5C 164.562,140.433 189.229,123.433 221.5,117.5 Z"/></g>
<g><path style="opacity:0.966" fill="#047ff2" d="M 511.5,297.5 C 511.5,303.5 511.5,309.5 511.5,315.5C 476.165,315.333 440.832,315.5 405.5,316C 393.976,330.186 382.476,344.353 371,358.5C 370.055,358.095 369.388,357.428 369,356.5C 365.215,335.79 361.215,315.123 357,294.5C 356.879,296.727 356.046,298.56 354.5,300C 355,300.5 355.5,301 356,301.5C 358.839,315.377 359.839,329.377 359,343.5C 341.234,404.594 308.734,456.427 261.5,499C 255.851,503.839 249.851,508.006 243.5,511.5C 238.5,511.5 233.5,511.5 228.5,511.5C 204.438,502.224 180.605,492.224 157,481.5C 111.839,458.342 72.5054,427.676 39,389.5C 32.9705,381.124 27.3039,372.458 22,363.5C 11.0177,343.886 4.01768,322.886 1,300.5C 0.181601,297.773 0.348268,295.106 1.5,292.5C 12.2229,301.029 24.2229,307.195 37.5,311C 66.6192,319.347 91.4525,312.514 112,290.5C 117.107,282.621 121.441,274.287 125,265.5C 126.693,248.174 128.36,230.84 130,213.5C 131.789,203.328 134.956,193.662 139.5,184.5C 143.053,184.274 146.053,185.774 148.5,189C 177.428,204.087 207.094,206.087 237.5,195C 247.802,189.18 257.802,182.847 267.5,176C 282.914,167.047 299.581,162.38 317.5,162C 324.001,170.841 328.501,180.674 331,191.5C 334.697,214.315 339.03,236.981 344,259.5C 348.8,246.1 353.8,232.767 359,219.5C 359.317,217.699 359.984,217.366 361,218.5C 368.384,252.42 375.384,286.42 382,320.5C 386.709,312.915 391.542,305.415 396.5,298C 434.832,297.5 473.165,297.333 511.5,297.5 Z M 281.5,195.5 C 293.355,244.313 304.855,292.98 316,341.5C 319.218,335.56 322.052,329.393 324.5,323C 330.469,304.281 336.969,285.781 344,267.5C 347.417,276.561 350.083,285.895 352,295.5C 352.667,297.833 352.667,300.167 352,302.5C 339.926,336.222 327.76,369.889 315.5,403.5C 304.499,358.16 293.499,312.826 282.5,267.5C 281.914,267.709 281.414,268.043 281,268.5C 279.731,275.61 278.064,282.277 276,288.5C 274.322,296.876 272.489,305.21 270.5,313.5C 259.5,314.167 248.5,314.833 237.5,315.5C 228.157,341.839 209.824,352.005 182.5,346C 160.875,336.521 152.042,320.021 156,296.5C 159.014,282.945 166.847,273.445 179.5,268C 194.918,262.596 209.585,264.596 223.5,274C 230.462,280.463 235.129,288.296 237.5,297.5C 244.468,298.497 251.468,298.83 258.5,298.5C 266.065,264.094 273.732,229.76 281.5,195.5 Z"/></g>
<g><path style="opacity:0.967" fill="#047ff2" d="M -0.5,270.5 C -0.5,266.167 -0.5,261.833 -0.5,257.5C 8.20668,218.96 31.8733,195.126 70.5,186C 79.5,185.333 88.5,185.333 97.5,186C 104.581,188.45 111.914,189.95 119.5,190.5C 113.719,214.142 110.552,238.142 110,262.5C 99.4166,289.551 79.5833,301.385 50.5,298C 37.2385,295.356 24.9052,290.356 13.5,283C 9.28568,278.283 4.61902,274.117 -0.5,270.5 Z"/></g>
<g><path style="opacity:0.941" fill="#047ff2" d="M 188.5,280.5 C 201.889,278.123 212.389,282.456 220,293.5C 226.377,310.041 221.877,322.541 206.5,331C 185.344,335.94 173.344,327.774 170.5,306.5C 170.605,293.587 176.605,284.921 188.5,280.5 Z"/></g>
</svg>
