<?xml version="1.0" encoding="UTF-8"?>
<!DOCTYPE svg PUBLIC "-//W3C//DTD SVG 1.1//EN" "http://www.w3.org/Graphics/SVG/1.1/DTD/svg11.dtd">
<svg xmlns="http://www.w3.org/2000/svg" version="1.1" width="512px" height="512px" style="shape-rendering:geometricPrecision; text-rendering:geometricPrecision; image-rendering:optimizeQuality; fill-rule:evenodd; clip-rule:evenodd" xmlns:xlink="http://www.w3.org/1999/xlink">
<g><path style="opacity:0.997" fill="#0580f2" d="M 249.5,-0.5 C 253.5,-0.5 257.5,-0.5 261.5,-0.5C 342.651,59.1368 423.984,118.637 505.5,178C 508.121,180.114 510.121,182.614 511.5,185.5C 511.5,189.5 511.5,193.5 511.5,197.5C 506.792,206.347 499.458,209.514 489.5,207C 486.059,205.224 482.892,203.057 480,200.5C 479.667,292.167 479.333,383.833 479,475.5C 473.651,494.015 461.817,506.015 443.5,511.5C 318.167,511.5 192.833,511.5 67.5,511.5C 49.1828,506.015 37.3494,494.015 32,475.5C 31.6667,383.833 31.3333,292.167 31,200.5C 23.5815,207.94 15.0815,209.44 5.5,205C 2.87922,202.886 0.879222,200.386 -0.5,197.5C -0.5,193.5 -0.5,189.5 -0.5,185.5C 3.00427,179.892 7.67093,175.392 13.5,172C 92.3488,114.637 171.015,57.1368 249.5,-0.5 Z"/></g>
<g><path style="opacity:1" fill="#fcfdfe" d="M 374.5,153.5 C 396.041,152.212 406.541,162.212 406,183.5C 398.925,201.456 386.425,206.956 368.5,200C 356.625,191.369 353.459,180.202 359,166.5C 362.845,160.479 368.012,156.146 374.5,153.5 Z"/></g>
<g><path style="opacity:1" fill="#f9fcfe" d="M 129.5,173.5 C 145.39,172.878 151.557,180.212 148,195.5C 139.701,205.591 131.034,205.924 122,196.5C 117.094,186.331 119.594,178.664 129.5,173.5 Z"/></g>
<g><path style="opacity:1" fill="#fbfdfe" d="M 304.5,178.5 C 316.097,176.881 324.597,181.215 330,191.5C 332.003,211.163 323.17,219.663 303.5,217C 288.71,207.869 286.71,196.536 297.5,183C 299.898,181.476 302.231,179.976 304.5,178.5 Z"/></g>
<g><path style="opacity:1" fill="#fbfcfe" d="M 199.5,193.5 C 214.82,191.982 221.32,198.649 219,213.5C 214.936,221.61 208.436,224.443 199.5,222C 191.66,217.849 188.827,211.349 191,202.5C 193.362,198.973 196.196,195.973 199.5,193.5 Z"/></g>
<g><path style="opacity:1" fill="#fdfdfe" d="M 246.5,214.5 C 254.05,213.543 261.05,215.043 267.5,219C 273.078,223.907 277.911,229.407 282,235.5C 284.264,238.433 287.098,240.6 290.5,242C 299.167,242.333 307.833,242.667 316.5,243C 329.861,245.852 336.861,254.019 337.5,267.5C 337.043,274.62 335.876,281.62 334,288.5C 333.333,291.833 333.333,295.167 334,298.5C 338.091,304.347 342.424,310.013 347,315.5C 355.373,328.844 353.873,341.011 342.5,352C 333.431,355.948 324.931,360.781 317,366.5C 314.002,376.15 311.002,385.817 308,395.5C 300.092,406.442 289.592,409.942 276.5,406C 268.798,401.979 260.798,398.812 252.5,396.5C 243.316,399.421 234.316,402.921 225.5,407C 212.834,409.083 203.334,404.583 197,393.5C 194.708,384.363 192.042,375.363 189,366.5C 181.069,360.781 172.569,355.948 163.5,352C 152.127,341.011 150.627,328.844 159,315.5C 164.145,309.694 168.478,303.361 172,296.5C 171.171,286.836 170.004,277.169 168.5,267.5C 169.023,254.464 175.689,246.298 188.5,243C 197.5,242.667 206.5,242.333 215.5,242C 216.833,241.333 218.167,240.667 219.5,240C 225.833,233 232.167,226 238.5,219C 241.191,217.395 243.858,215.895 246.5,214.5 Z"/></g>
<g><path style="opacity:1" fill="#f9fcfe" d="M 130.5,262.5 C 145.906,262.394 151.739,269.727 148,284.5C 143.042,292.388 136.209,294.555 127.5,291C 116.062,280.228 117.062,270.728 130.5,262.5 Z"/></g>
<g><path style="opacity:1" fill="#0880f2" d="M 243.5,268.5 C 246.331,270.417 249.331,272.083 252.5,273.5C 262.178,284.478 263.011,296.144 255,308.5C 244.17,318.7 232.336,320.033 219.5,312.5C 218.167,310.5 216.5,308.833 214.5,307.5C 205.927,290.054 210.26,276.887 227.5,268C 232.861,267.391 238.195,267.558 243.5,268.5 Z"/></g>
<g><path style="opacity:1" fill="#a2cefa" d="M 243.5,268.5 C 247.272,268.884 250.272,270.55 252.5,273.5C 249.331,272.083 246.331,270.417 243.5,268.5 Z"/></g>
<g><path style="opacity:1" fill="#fafcfe" d="M 376.5,277.5 C 385.274,276.47 391.774,279.803 396,287.5C 396.699,302.892 389.533,309.059 374.5,306C 366.25,300.151 364.417,292.651 369,283.5C 371.478,281.361 373.978,279.361 376.5,277.5 Z"/></g>
<g><path style="opacity:1" fill="#0f81f2" d="M 292.5,335.5 C 291.167,333.5 289.5,331.833 287.5,330.5C 283.244,320.454 285.911,312.954 295.5,308C 304.672,306.17 311.505,309.336 316,317.5C 316.094,333.909 308.261,339.909 292.5,335.5 Z"/></g>
<g><path style="opacity:1" fill="#add5fa" d="M 214.5,307.5 C 216.5,308.833 218.167,310.5 219.5,312.5C 216.833,311.833 215.167,310.167 214.5,307.5 Z"/></g>
<g><path style="opacity:1" fill="#a3cffa" d="M 287.5,330.5 C 289.5,331.833 291.167,333.5 292.5,335.5C 289.833,334.833 288.167,333.167 287.5,330.5 Z"/></g>
<g><path style="opacity:1" fill="#0a80f2" d="M 252.5,340.5 C 253.833,342.5 255.5,344.167 257.5,345.5C 260.07,350.49 261.07,355.824 260.5,361.5C 259.264,363.649 258.264,365.982 257.5,368.5C 255.167,370.167 253.167,372.167 251.5,374.5C 238.749,380.849 228.915,377.849 222,365.5C 217.502,349.343 223.502,340.009 240,337.5C 244.408,337.582 248.575,338.582 252.5,340.5 Z"/></g>
<g><path style="opacity:1" fill="#a9d3fa" d="M 252.5,340.5 C 255.167,341.167 256.833,342.833 257.5,345.5C 255.5,344.167 253.833,342.5 252.5,340.5 Z"/></g>
<g><path style="opacity:1" fill="#9eccf9" d="M 260.5,361.5 C 260.834,364.491 259.834,366.824 257.5,368.5C 258.264,365.982 259.264,363.649 260.5,361.5 Z"/></g>
<g><path style="opacity:1" fill="#a5d0fa" d="M 257.5,368.5 C 256.5,371.5 254.5,373.5 251.5,374.5C 253.167,372.167 255.167,370.167 257.5,368.5 Z"/></g>
<g><path style="opacity:1" fill="#fbfdfe" d="M 351.5,401.5 C 367.364,401.201 375.53,408.868 376,424.5C 372.384,437.399 363.884,442.899 350.5,441C 337.63,435.407 333.463,425.907 338,412.5C 341.336,407.269 345.836,403.602 351.5,401.5 Z"/></g>
<g><path style="opacity:1" fill="#fbfdfe" d="M 119.5,411.5 C 137.564,411.059 145.73,419.726 144,437.5C 139.069,448.597 130.569,453.097 118.5,451C 105.829,444.657 101.995,434.824 107,421.5C 110.489,417.162 114.656,413.829 119.5,411.5 Z"/></g>
<g><path style="opacity:1" fill="#f9fcfe" d="M 251.5,421.5 C 266.691,421.589 272.525,428.922 269,443.5C 263.782,450.684 256.948,452.85 248.5,450C 239.497,443.327 238.164,435.327 244.5,426C 246.76,424.212 249.093,422.712 251.5,421.5 Z"/></g>
</svg>
