<?xml version="1.0" encoding="UTF-8"?>
<!DOCTYPE svg PUBLIC "-//W3C//DTD SVG 1.1//EN" "http://www.w3.org/Graphics/SVG/1.1/DTD/svg11.dtd">
<svg xmlns="http://www.w3.org/2000/svg" version="1.1" width="512px" height="512px" style="shape-rendering:geometricPrecision; text-rendering:geometricPrecision; image-rendering:optimizeQuality; fill-rule:evenodd; clip-rule:evenodd" xmlns:xlink="http://www.w3.org/1999/xlink">
<g><path style="opacity:0.976" fill="#047ff2" d="M 456.5,-0.5 C 463.167,-0.5 469.833,-0.5 476.5,-0.5C 494.5,4.83333 506.167,16.5 511.5,34.5C 511.5,41.1667 511.5,47.8333 511.5,54.5C 500.234,84.9657 478.9,95.4657 447.5,86C 426.904,74.9731 418.404,57.8065 422,34.5C 427.016,16.3183 438.516,4.65165 456.5,-0.5 Z"/></g>
<g><path style="opacity:0.931" fill="#047ff2" d="M 279.5,30.5 C 295.654,28.4866 302.487,35.4866 300,51.5C 295.652,59.9149 288.819,62.7483 279.5,60C 271.085,55.6524 268.252,48.8191 271,39.5C 272.688,35.3148 275.521,32.3148 279.5,30.5 Z"/></g>
<g><path style="opacity:0.991" fill="#047ff2" d="M 511.5,241.5 C 511.5,251.167 511.5,260.833 511.5,270.5C 503.898,308.951 482.231,336.451 446.5,353C 438.083,356.271 429.416,358.604 420.5,360C 408.478,416.584 373.644,446.75 316,450.5C 277.253,450.057 247.253,433.723 226,401.5C 201.403,418.771 174.237,424.604 144.5,419C 107.459,409.953 81.4595,387.953 66.5,353C 29.5752,337.252 7.2419,309.752 -0.5,270.5C -0.5,260.5 -0.5,250.5 -0.5,240.5C 7.09996,202.051 28.7666,174.551 64.5,158C 72.9171,154.729 81.5838,152.396 90.5,151C 102.522,94.4164 137.356,64.2497 195,60.5C 233.745,60.9392 263.745,77.2725 285,109.5C 309.597,92.2293 336.763,86.396 366.5,92C 403.541,101.047 429.541,123.047 444.5,158C 481.88,173.869 504.214,201.702 511.5,241.5 Z M 190.5,181.5 C 204.652,180.151 210.819,186.485 209,200.5C 203.135,210.246 195.301,212.08 185.5,206C 180.804,199.869 180.304,193.369 184,186.5C 185.965,184.45 188.132,182.783 190.5,181.5 Z M 340.5,181.5 C 354.652,180.151 360.819,186.485 359,200.5C 353.135,210.246 345.301,212.08 335.5,206C 330.804,199.869 330.304,193.369 334,186.5C 335.965,184.45 338.132,182.783 340.5,181.5 Z M 100.5,241.5 C 114.652,240.151 120.819,246.485 119,260.5C 113.135,270.246 105.301,272.08 95.5,266C 88.9062,256.014 90.5729,247.848 100.5,241.5 Z M 250.5,241.5 C 264.652,240.151 270.819,246.485 269,260.5C 263.135,270.246 255.301,272.08 245.5,266C 238.906,256.014 240.573,247.848 250.5,241.5 Z M 400.5,241.5 C 414.652,240.151 420.819,246.485 419,260.5C 413.135,270.246 405.301,272.08 395.5,266C 388.906,256.014 390.573,247.848 400.5,241.5 Z M 160.5,301.5 C 174.652,300.151 180.819,306.485 179,320.5C 173.135,330.246 165.301,332.08 155.5,326C 148.906,316.014 150.573,307.848 160.5,301.5 Z M 310.5,301.5 C 324.652,300.151 330.819,306.485 329,320.5C 323.135,330.246 315.301,332.08 305.5,326C 298.906,316.014 300.573,307.848 310.5,301.5 Z"/></g>
<g><path style="opacity:0.931" fill="#047ff2" d="M 39.5,90.5 C 55.6538,88.4866 62.4872,95.4866 60,111.5C 55.6524,119.915 48.8191,122.748 39.5,120C 31.0851,115.652 28.2517,108.819 31,99.5C 32.6878,95.3148 35.5212,92.3148 39.5,90.5 Z"/></g>
<g><path style="opacity:0.931" fill="#047ff2" d="M 459.5,390.5 C 475.654,388.487 482.487,395.487 480,411.5C 475.652,419.915 468.819,422.748 459.5,420C 451.085,415.652 448.252,408.819 451,399.5C 452.688,395.315 455.521,392.315 459.5,390.5 Z"/></g>
<g><path style="opacity:0.976" fill="#047ff2" d="M 54.5,511.5 C 47.8333,511.5 41.1667,511.5 34.5,511.5C 16.5,506.167 4.83333,494.5 -0.5,476.5C -0.5,469.833 -0.5,463.167 -0.5,456.5C 10.7662,426.034 32.0996,415.534 63.5,425C 84.0964,436.027 92.5964,453.194 89,476.5C 83.9843,494.682 72.4843,506.348 54.5,511.5 Z"/></g>
<g><path style="opacity:0.931" fill="#047ff2" d="M 189.5,450.5 C 205.654,448.487 212.487,455.487 210,471.5C 205.652,479.915 198.819,482.748 189.5,480C 181.085,475.652 178.252,468.819 181,459.5C 182.688,455.315 185.521,452.315 189.5,450.5 Z"/></g>
</svg>
